M48
;Layer_Color=9474304
;FILE_FORMAT=2:5
INCH,LZ
;TYPE=PLATED
T1F00S00C0.01600
T2F00S00C0.02756
T3F00S00C0.03150
T5F00S00C0.03200
T6F00S00C0.03543
T7F00S00C0.04331
T8F00S00C0.05512
T9F00S00C0.05906
T12F00S00C0.06693
T13F00S00C0.10236
T14F00S00C0.11811
%
T01
X0109461Y0051295
X0121272
X0158461Y0052295
X029Y0145
Y0158811
X030465Y0189295
Y0201106
X0316461
Y0189295
X0278189Y0158811
Y0145
X0193413Y0152075
X0181602
Y0163886
X0193413
X0158461Y0064106
X0121272Y0063106
X0109461
X00675Y0096878
Y0108689
X0055689
Y0096878
X0015961Y0229795
Y0241606
X000415
Y0229795
X01145Y0233
X0169461Y0262295
Y0274106
X0181272
Y0262295
X0167311Y03015
Y0313311
X01555
Y03015
X0203689Y0316689
Y03285
X02155
Y0316689
X0347461Y0275106
X0359272
Y0263295
X0347461
T02
X0279713Y00005
X0258374Y0029713
X0341051
X0319713Y00005
X0341051Y0069713
X0332Y00835
Y01235
X0303965Y0138295
Y0152075
Y0165854
X03545Y01465
Y01865
X0263965Y0165854
Y0152075
Y0138295
X0258374Y0069713
X00825Y01505
X00425
X0047744Y0287902
X0064476Y0279043
X0104476
X0101209Y0325303
X0061209
X0047744Y0327902
X0246248Y0323335
X0286248
T03
X0199122Y0033177
X0208965
X0216839
X0226681
X0358Y0079815
Y00995
X0367858Y019511
Y020511
X0052744Y0272153
X0042744
X0280028Y0213098
X028987
T05
X0250185Y0350894
X0260185
X0270185
X0280185
X0313335
X0323335
X0333335
X0343335
T06
X0025776Y00005
X0035776
X0045776
X0045933Y0024122
X0035933
X0025933
X0077114
X0087114
X0097114
Y00005
X0087114
X0077114
X0289444Y0018417
X0309444
Y0075503
X0299444
X0289444
X0288961Y0094858
X0298961
X0308961
Y0110606
X0298961
X0288961
X0369748Y0162209
Y0172209
X0281Y01835
Y01935
X-0001469Y0192469
Y0182468
Y0172468
Y0162469
Y0144201
Y0134201
Y0124201
Y0108768
Y0098768
Y0088768
X-0001469Y0202468
X-0001469Y0212469
X0045303Y0222941
X0055303
X0065303
X0075303
X0085303Y0222941
X0095303Y0222941
X0105303
X0100303Y0242626
X0090303
X0080303
X0070303
X0060303Y0242626
X0050303Y0242626
X0086957Y0350894
X0096957
X0106957
X0116957
X0255461Y02905
Y02805
Y02705
Y02605
Y02505
Y02405
Y02305
Y02205
X0315461
Y02305
Y02405
Y02505
Y02605
Y02705
Y02805
Y02905
X0313335Y0323335
X0323335
X0333335
X0343335
T07
X03405Y01465
Y01965
X00875Y0134374
X0087Y0109
X0037
X00375Y0134374
X00195Y03385
X00695
T08
X0157035Y0092469
Y0102469
Y0112469
Y0122468
Y0132468
Y0142469
Y0152469
Y0162469
Y0172468
Y0182468
Y0192469
Y0202468
Y0212469
X0217035
Y0202468
Y0192469
Y0182468
Y0172468
Y0162469
Y0152469
Y0142469
Y0132468
Y0122468
Y0112469
Y0102469
Y0092469
Y0222468
Y0232469
Y0242469
Y0252468
Y0262469
Y0272468
Y0282469
X0157035
Y0272468
Y0262469
Y0252468
Y0242469
Y0232469
Y0222468
T09
X003365Y0366642
X005365
T12
X0002468Y0267232
Y0320382
T13
X0030461Y008428
X0120146
X0026091Y0279634
Y030798
T14
X00005Y00005
X0370579
Y0370579
X00005
M30
