G04*
G04 #@! TF.GenerationSoftware,Altium Limited,Altium Designer,21.2.1 (34)*
G04*
G04 Layer_Color=32768*
%FSLAX25Y25*%
%MOIN*%
G70*
G04*
G04 #@! TF.SameCoordinates,22B55974-3201-4BD1-88E3-0356CD7B76C8*
G04*
G04*
G04 #@! TF.FilePolarity,Positive*
G04*
G01*
G75*
%ADD10C,0.01000*%
%ADD96C,0.00394*%
%ADD97C,0.00197*%
D10*
X24122Y94555D02*
X126484D01*
X24122Y208728D02*
X126484D01*
X24122Y94555D02*
Y208728D01*
X126484Y94555D02*
Y208728D01*
X30028Y106366D02*
X120579D01*
Y196917D01*
X30028Y106366D02*
Y196917D01*
X120579D01*
D96*
X59555Y272153D02*
G03*
X59555Y272153I-11811J0D01*
G01*
X379669Y200110D02*
G03*
X379669Y200110I-11811J0D01*
G01*
X135461Y64634D02*
Y372508D01*
X157114D01*
Y324870D02*
Y372508D01*
Y324870D02*
X235854D01*
Y64634D02*
Y324870D01*
X135461Y64634D02*
X235854D01*
X185067Y187469D02*
X189004D01*
X187035Y185500D02*
Y189437D01*
X327669Y90902D02*
Y116098D01*
Y90902D02*
X336331D01*
X330031Y103500D02*
X333968D01*
X332000Y101532D02*
Y105468D01*
X336331Y90902D02*
Y116098D01*
X327669D02*
X336331D01*
X49902Y146169D02*
Y154831D01*
X75098D01*
X60532Y150500D02*
X64468D01*
X62500Y148531D02*
Y152469D01*
X75098Y146169D02*
Y154831D01*
X49902Y146169D02*
X75098D01*
X29539Y331413D02*
X59461D01*
X29539Y345587D02*
X59461D01*
X44500Y336531D02*
Y340469D01*
X42531Y338500D02*
X46468D01*
X59461Y331413D02*
Y345587D01*
X29539Y331413D02*
Y345587D01*
X40657Y217823D02*
Y228059D01*
Y217823D02*
X110736D01*
Y228059D01*
X40657D02*
X110736D01*
X-6587Y157941D02*
X3650D01*
Y218177D01*
X-6587D02*
X3650D01*
X-6587Y157941D02*
Y218177D01*
X-1469Y185500D02*
Y189437D01*
X-3437Y187469D02*
X500D01*
X271366Y133965D02*
Y142626D01*
X296563D01*
X281996Y138295D02*
X285933D01*
X283965Y136327D02*
Y140264D01*
X296563Y133965D02*
Y142626D01*
X271366Y133965D02*
X296563D01*
X253650Y319004D02*
Y327665D01*
X278847D01*
X264280Y323335D02*
X268216D01*
X266248Y321366D02*
Y325303D01*
X278847Y319004D02*
Y327665D01*
X253650Y319004D02*
X278847D01*
X350169Y179098D02*
X358831D01*
Y153902D02*
Y179098D01*
X354500Y164532D02*
Y168468D01*
X352532Y166500D02*
X356469D01*
X350169Y153902D02*
X358831D01*
X350169D02*
Y179098D01*
X271366Y161524D02*
Y170185D01*
X296563D01*
X281996Y165854D02*
X285933D01*
X283965Y163886D02*
Y167823D01*
X296563Y161524D02*
Y170185D01*
X271366Y161524D02*
X296563D01*
X254043Y37114D02*
X262705D01*
X254043D02*
Y62311D01*
X258374Y47744D02*
Y51681D01*
X256405Y49713D02*
X260343D01*
X254043Y62311D02*
X262705D01*
Y37114D02*
Y62311D01*
X336720Y37114D02*
X345382D01*
X336720D02*
Y62311D01*
X341051Y47744D02*
Y51681D01*
X339083Y49713D02*
X343020D01*
X336720Y62311D02*
X345382D01*
Y37114D02*
Y62311D01*
X287114Y-3831D02*
Y4831D01*
X312311D01*
X297744Y500D02*
X301681D01*
X299713Y-1469D02*
Y2468D01*
X312311Y-3831D02*
Y4831D01*
X287114Y-3831D02*
X312311D01*
X284394Y115724D02*
X314709D01*
Y105488D02*
Y115724D01*
X284394Y105488D02*
X314709D01*
X284394D02*
Y115724D01*
X271366Y147744D02*
Y156405D01*
X296563D01*
X281996Y152075D02*
X285933D01*
X283965Y150106D02*
Y154043D01*
X296563Y147744D02*
Y156405D01*
X271366Y147744D02*
X296563D01*
X284394Y99976D02*
X314709D01*
Y89740D02*
Y99976D01*
X284394Y89740D02*
X314709D01*
X284394D02*
Y99976D01*
X47039Y116087D02*
X76961D01*
X47039Y101913D02*
X76961D01*
X62000Y107032D02*
Y110968D01*
X60031Y109000D02*
X63968D01*
X47039Y101913D02*
Y116087D01*
X76961Y101913D02*
Y116087D01*
X45776Y272153D02*
X49713D01*
X47744Y270185D02*
Y274122D01*
X104831Y237508D02*
Y247744D01*
X44594D02*
X104831D01*
X44594Y237508D02*
Y247744D01*
Y237508D02*
X104831D01*
X73335Y242626D02*
X77272D01*
X75303Y240657D02*
Y244595D01*
X297450Y220972D02*
Y264280D01*
X272447D02*
X297450D01*
X272447Y220972D02*
Y264280D01*
X284949Y211130D02*
Y215067D01*
X282980Y213098D02*
X286917D01*
X272447Y220972D02*
X297450D01*
X333413Y156539D02*
Y186461D01*
X347587Y156539D02*
Y186461D01*
X338531Y171500D02*
X342469D01*
X340500Y169532D02*
Y173468D01*
X333413Y156539D02*
X347587D01*
X333413Y186461D02*
X347587D01*
X47539Y127287D02*
X77461D01*
X47539Y141461D02*
X77461D01*
X62500Y132405D02*
Y136343D01*
X60532Y134374D02*
X64468D01*
X77461Y127287D02*
Y141461D01*
X47539Y127287D02*
Y141461D01*
X328335Y321366D02*
Y325303D01*
X326366Y323335D02*
X330303D01*
X307862Y318217D02*
X348807D01*
X307862D02*
Y328453D01*
X348807D01*
Y318217D02*
Y328453D01*
X21366Y29240D02*
X51681D01*
Y19004D02*
Y29240D01*
X21366Y19004D02*
X51681D01*
X21366D02*
Y29240D01*
X21209Y5618D02*
X51524D01*
Y-4618D02*
Y5618D01*
X21209Y-4618D02*
X51524D01*
X21209D02*
Y5618D01*
X72547Y29240D02*
X102862D01*
Y19004D02*
Y29240D01*
X72547Y19004D02*
X102862D01*
X72547D02*
Y29240D01*
Y5618D02*
X102862D01*
Y-4618D02*
Y5618D01*
X72547Y-4618D02*
X102862D01*
X72547D02*
Y5618D01*
X54437Y6799D02*
X68610D01*
X54437Y17823D02*
X68610D01*
X59555Y12311D02*
X63492D01*
X61524Y10343D02*
Y14279D01*
X68610Y6799D02*
Y17823D01*
X54437Y6799D02*
Y17823D01*
X317264Y156354D02*
Y168165D01*
X317657Y162260D02*
X321595D01*
X319626Y160291D02*
Y164228D01*
X321988Y156354D02*
Y168165D01*
X317264Y156354D02*
X321988D01*
X317264Y168165D02*
X321988D01*
X364630Y176657D02*
X374866D01*
X364630Y156579D02*
Y176657D01*
Y156579D02*
X374866D01*
Y176657D01*
X367779Y167209D02*
X371716D01*
X369748Y165240D02*
Y169177D01*
X367858Y198142D02*
Y202079D01*
X365890Y200110D02*
X369827D01*
X-6587Y84201D02*
Y114516D01*
X3650D01*
Y84201D02*
Y114516D01*
X-6587Y84201D02*
X3650D01*
X-6587Y119634D02*
Y149949D01*
X3650D01*
Y119634D02*
Y149949D01*
X-6587Y119634D02*
X3650D01*
X98925Y290657D02*
Y316642D01*
X59555D02*
X71366D01*
X59555Y290657D02*
Y316642D01*
Y290657D02*
X71366D01*
Y316602D02*
X94988D01*
X71366Y290657D02*
X94988D01*
X71366D02*
Y316642D01*
X94988Y290657D02*
X98925D01*
X94988D02*
Y316642D01*
X98925D01*
X316764Y141854D02*
Y153665D01*
X317158Y147760D02*
X321094D01*
X319126Y145791D02*
Y149728D01*
X321488Y141854D02*
Y153665D01*
X316764Y141854D02*
X321488D01*
X316764Y153665D02*
X321488D01*
X71878Y274713D02*
Y283374D01*
X97075D01*
X82508Y279043D02*
X86445D01*
X84476Y277075D02*
Y281012D01*
X97075Y274713D02*
Y283374D01*
X71878Y274713D02*
X97075D01*
X93807Y320972D02*
Y329634D01*
X68610Y320972D02*
X93807D01*
X79240Y325303D02*
X83177D01*
X81209Y323335D02*
Y327272D01*
X68610Y320972D02*
Y329634D01*
X93807D01*
X43413Y320500D02*
X52075D01*
Y295303D02*
Y320500D01*
X47744Y305933D02*
Y309870D01*
X45776Y307902D02*
X49713D01*
X43413Y295303D02*
X52075D01*
X43413D02*
Y320500D01*
D97*
X15657Y293807D02*
G03*
X15657Y293807I-1378J0D01*
G01*
X12311D02*
X16248D01*
X14279Y291839D02*
Y295776D01*
M02*
