G04*
G04 #@! TF.GenerationSoftware,Altium Limited,Altium Designer,21.2.1 (34)*
G04*
G04 Layer_Color=128*
%FSLAX25Y25*%
%MOIN*%
G70*
G04*
G04 #@! TF.SameCoordinates,22B55974-3201-4BD1-88E3-0356CD7B76C8*
G04*
G04*
G04 #@! TF.FilePolarity,Positive*
G04*
G01*
G75*
%ADD98C,0.00200*%
D98*
X154279Y282469D02*
X159791D01*
X157035Y279713D02*
Y285224D01*
X154279Y272468D02*
X159791D01*
X157035Y269713D02*
Y275224D01*
X154279Y262469D02*
X159791D01*
X157035Y259713D02*
Y265224D01*
X154279Y252468D02*
X159791D01*
X157035Y249713D02*
Y255224D01*
X154279Y242469D02*
X159791D01*
X157035Y239713D02*
Y245224D01*
X154279Y232469D02*
X159791D01*
X157035Y229713D02*
Y235224D01*
X154279Y222468D02*
X159791D01*
X157035Y219713D02*
Y225224D01*
X154279Y212469D02*
X159791D01*
X157035Y209713D02*
Y215224D01*
X154279Y202468D02*
X159791D01*
X157035Y199713D02*
Y205224D01*
X154279Y192469D02*
X159791D01*
X157035Y189713D02*
Y195224D01*
X154279Y182468D02*
X159791D01*
X157035Y179713D02*
Y185224D01*
X154279Y172468D02*
X159791D01*
X157035Y169713D02*
Y175224D01*
X154279Y162469D02*
X159791D01*
X157035Y159713D02*
Y165224D01*
X154279Y152469D02*
X159791D01*
X157035Y149713D02*
Y155224D01*
X154279Y142469D02*
X159791D01*
X157035Y139713D02*
Y145224D01*
X154279Y132468D02*
X159791D01*
X157035Y129713D02*
Y135224D01*
X154279Y122468D02*
X159791D01*
X157035Y119713D02*
Y125224D01*
X154279Y112469D02*
X159791D01*
X157035Y109713D02*
Y115224D01*
X154279Y102469D02*
X159791D01*
X157035Y99713D02*
Y105224D01*
X154279Y92469D02*
X159791D01*
X157035Y89713D02*
Y95224D01*
X214280Y282469D02*
X219791D01*
X217035Y279713D02*
Y285224D01*
X214280Y272468D02*
X219791D01*
X217035Y269713D02*
Y275224D01*
X214280Y262469D02*
X219791D01*
X217035Y259713D02*
Y265224D01*
X214280Y252468D02*
X219791D01*
X217035Y249713D02*
Y255224D01*
X214280Y242469D02*
X219791D01*
X217035Y239713D02*
Y245224D01*
X214280Y232469D02*
X219791D01*
X217035Y229713D02*
Y235224D01*
X214280Y222468D02*
X219791D01*
X217035Y219713D02*
Y225224D01*
X214280Y212469D02*
X219791D01*
X217035Y209713D02*
Y215224D01*
X214280Y202468D02*
X219791D01*
X217035Y199713D02*
Y205224D01*
X214280Y192469D02*
X219791D01*
X217035Y189713D02*
Y195224D01*
X214280Y182468D02*
X219791D01*
X217035Y179713D02*
Y185224D01*
X214280Y172468D02*
X219791D01*
X217035Y169713D02*
Y175224D01*
X214280Y162469D02*
X219791D01*
X217035Y159713D02*
Y165224D01*
X214280Y152469D02*
X219791D01*
X217035Y149713D02*
Y155224D01*
X214280Y142469D02*
X219791D01*
X217035Y139713D02*
Y145224D01*
X214280Y132468D02*
X219791D01*
X217035Y129713D02*
Y135224D01*
X214280Y122468D02*
X219791D01*
X217035Y119713D02*
Y125224D01*
X214280Y112469D02*
X219791D01*
X217035Y109713D02*
Y115224D01*
X214280Y102469D02*
X219791D01*
X217035Y99713D02*
Y105224D01*
X214280Y92469D02*
X219791D01*
X217035Y89713D02*
Y95224D01*
X330622Y83500D02*
X333378D01*
X332000Y82122D02*
Y84878D01*
X330622Y123500D02*
X333378D01*
X332000Y122122D02*
Y124878D01*
X41122Y150500D02*
X43878D01*
X42500Y149122D02*
Y151878D01*
X81122Y150500D02*
X83878D01*
X82500Y149122D02*
Y151878D01*
X67335Y338500D02*
X71665D01*
X69500Y336335D02*
Y340665D01*
X17335Y338500D02*
X21665D01*
X19500Y336335D02*
Y340665D01*
X115028Y84280D02*
X125264D01*
X120146Y79161D02*
Y89398D01*
X25343Y84280D02*
X35579D01*
X30461Y79161D02*
Y89398D01*
X103532Y222941D02*
X107075D01*
X105303Y221169D02*
Y224713D01*
X83531Y222941D02*
X87075D01*
X85303Y221169D02*
Y224713D01*
X63532Y222941D02*
X67075D01*
X65303Y221169D02*
Y224713D01*
X53531Y222941D02*
X57075D01*
X55303Y221169D02*
Y224713D01*
X43532Y222941D02*
X47075D01*
X45303Y221169D02*
Y224713D01*
X73532Y222941D02*
X77075D01*
X75303Y221169D02*
Y224713D01*
X93532Y222941D02*
X97075D01*
X95303Y221169D02*
Y224713D01*
X-3240Y202468D02*
X303D01*
X-1469Y200697D02*
Y204240D01*
X-3240Y182468D02*
X303D01*
X-1469Y180697D02*
Y184240D01*
X-3240Y172468D02*
X303D01*
X-1469Y170697D02*
Y174240D01*
X-3240Y162469D02*
X303D01*
X-1469Y160697D02*
Y164240D01*
X-3240Y192469D02*
X303D01*
X-1469Y190697D02*
Y194240D01*
X-3240Y212469D02*
X303D01*
X-1469Y210697D02*
Y214240D01*
X262587Y138295D02*
X265342D01*
X263965Y136917D02*
Y139673D01*
X302587Y138295D02*
X305343D01*
X303965Y136917D02*
Y139673D01*
X244870Y323335D02*
X247626D01*
X246248Y321957D02*
Y324713D01*
X284870Y323335D02*
X287626D01*
X286248Y321957D02*
Y324713D01*
X353122Y186500D02*
X355878D01*
X354500Y185122D02*
Y187878D01*
X353122Y146500D02*
X355878D01*
X354500Y145122D02*
Y147878D01*
X262587Y165854D02*
X265342D01*
X263965Y164476D02*
Y167232D01*
X302587Y165854D02*
X305343D01*
X303965Y164476D02*
Y167232D01*
X256996Y29713D02*
X259752D01*
X258374Y28335D02*
Y31091D01*
X256996Y69713D02*
X259752D01*
X258374Y68335D02*
Y71091D01*
X339673Y29713D02*
X342429D01*
X341051Y28335D02*
Y31091D01*
X339673Y69713D02*
X342429D01*
X341051Y68335D02*
Y71091D01*
X278335Y500D02*
X281090D01*
X279713Y-878D02*
Y1878D01*
X318335Y500D02*
X321091D01*
X319713Y-878D02*
Y1878D01*
X253689Y290500D02*
X257232D01*
X255461Y288728D02*
Y292272D01*
X253689Y280500D02*
X257232D01*
X255461Y278728D02*
Y282272D01*
X253689Y270500D02*
X257232D01*
X255461Y268728D02*
Y272272D01*
X253689Y260500D02*
X257232D01*
X255461Y258728D02*
Y262272D01*
X253689Y250500D02*
X257232D01*
X255461Y248728D02*
Y252272D01*
X253689Y240500D02*
X257232D01*
X255461Y238728D02*
Y242272D01*
X253689Y230500D02*
X257232D01*
X255461Y228728D02*
Y232272D01*
X253689Y220500D02*
X257232D01*
X255461Y218728D02*
Y222272D01*
X313689Y290500D02*
X317232D01*
X315461Y288728D02*
Y292272D01*
X313689Y280500D02*
X317232D01*
X315461Y278728D02*
Y282272D01*
X313689Y270500D02*
X317232D01*
X315461Y268728D02*
Y272272D01*
X313689Y260500D02*
X317232D01*
X315461Y258728D02*
Y262272D01*
X313689Y250500D02*
X317232D01*
X315461Y248728D02*
Y252272D01*
X313689Y240500D02*
X317232D01*
X315461Y238728D02*
Y242272D01*
X313689Y230500D02*
X317232D01*
X315461Y228728D02*
Y232272D01*
X313689Y220500D02*
X317232D01*
X315461Y218728D02*
Y222272D01*
X287189Y110606D02*
X290732D01*
X288961Y108835D02*
Y112378D01*
X297189Y110606D02*
X300732D01*
X298961Y108835D02*
Y112378D01*
X307189Y110606D02*
X310732D01*
X308961Y108835D02*
Y112378D01*
X272082Y45976D02*
X280743D01*
X276413Y41645D02*
Y50306D01*
X318145Y45976D02*
X326806D01*
X322476Y41645D02*
Y50306D01*
X287672Y18417D02*
X291216D01*
X289444Y16645D02*
Y20188D01*
X307672Y18417D02*
X311216D01*
X309444Y16645D02*
Y20188D01*
X287672Y75503D02*
X291216D01*
X289444Y73731D02*
Y77275D01*
X297672Y75503D02*
X301216D01*
X299444Y73731D02*
Y77275D01*
X307672Y75503D02*
X311216D01*
X309444Y73731D02*
Y77275D01*
X262587Y152075D02*
X265342D01*
X263965Y150697D02*
Y153453D01*
X302587Y152075D02*
X305343D01*
X303965Y150697D02*
Y153453D01*
X287189Y94858D02*
X290732D01*
X288961Y93087D02*
Y96630D01*
X297189Y94858D02*
X300732D01*
X298961Y93087D02*
Y96630D01*
X307189Y94858D02*
X310732D01*
X308961Y93087D02*
Y96630D01*
X356425Y99500D02*
X359575D01*
X358000Y97925D02*
Y101075D01*
X356425Y79815D02*
X359575D01*
X358000Y78240D02*
Y81390D01*
X278585Y350894D02*
X281785D01*
X280185Y349294D02*
Y352494D01*
X268585Y350894D02*
X271785D01*
X270185Y349294D02*
Y352494D01*
X258585Y350894D02*
X261785D01*
X260185Y349294D02*
Y352494D01*
X248585Y350894D02*
X251785D01*
X250185Y349294D02*
Y352494D01*
X34835Y109000D02*
X39165D01*
X37000Y106835D02*
Y111165D01*
X84835Y109000D02*
X89165D01*
X87000Y106835D02*
Y111165D01*
X41169Y272153D02*
X44319D01*
X42744Y270579D02*
Y273728D01*
X51169Y272153D02*
X54319D01*
X52744Y270579D02*
Y273728D01*
X58531Y242626D02*
X62075D01*
X60303Y240854D02*
Y244398D01*
X78531Y242626D02*
X82075D01*
X80303Y240854D02*
Y244398D01*
X88532Y242626D02*
X92075D01*
X90303Y240854D02*
Y244398D01*
X98532Y242626D02*
X102075D01*
X100303Y240854D02*
Y244398D01*
X68532Y242626D02*
X72075D01*
X70303Y240854D02*
Y244398D01*
X48531Y242626D02*
X52075D01*
X50303Y240854D02*
Y244398D01*
X-5406Y500D02*
X6406D01*
X500Y-5406D02*
Y6406D01*
X364673Y500D02*
X376484D01*
X370579Y-5406D02*
Y6406D01*
X364673Y370579D02*
X376484D01*
X370579Y364673D02*
Y376484D01*
X-5406Y370579D02*
X6406D01*
X500Y364673D02*
Y376484D01*
X279228Y193500D02*
X282772D01*
X281000Y191728D02*
Y195272D01*
X279228Y183500D02*
X282772D01*
X281000Y181728D02*
Y185272D01*
X288295Y213098D02*
X291445D01*
X289870Y211524D02*
Y214673D01*
X278453Y213098D02*
X281602D01*
X280028Y211524D02*
Y214673D01*
X338335Y146500D02*
X342665D01*
X340500Y144335D02*
Y148665D01*
X338335Y196500D02*
X342665D01*
X340500Y194335D02*
Y198665D01*
X85335Y134374D02*
X89665D01*
X87500Y132209D02*
Y136539D01*
X35335Y134374D02*
X39665D01*
X37500Y132209D02*
Y136539D01*
X311563Y323335D02*
X315106D01*
X313335Y321563D02*
Y325106D01*
X341563Y323335D02*
X345106D01*
X343335Y321563D02*
Y325106D01*
X331563Y323335D02*
X335106D01*
X333335Y321563D02*
Y325106D01*
X321563Y323335D02*
X325106D01*
X323335Y321563D02*
Y325106D01*
X157414Y15973D02*
X160563D01*
X158988Y14398D02*
Y17548D01*
X123414Y1013D02*
X126563D01*
X124988Y-562D02*
Y2587D01*
X123414Y15973D02*
X126563D01*
X124988Y14398D02*
Y17548D01*
X157414Y1013D02*
X160563D01*
X158988Y-562D02*
Y2587D01*
X341735Y350894D02*
X344935D01*
X343335Y349294D02*
Y352494D01*
X331735Y350894D02*
X334935D01*
X333335Y349294D02*
Y352494D01*
X321735Y350894D02*
X324935D01*
X323335Y349294D02*
Y352494D01*
X311735Y350894D02*
X314935D01*
X313335Y349294D02*
Y352494D01*
X105185Y350894D02*
X108728D01*
X106957Y349122D02*
Y352665D01*
X85185Y350894D02*
X88728D01*
X86957Y349122D02*
Y352665D01*
X95185Y350894D02*
X98728D01*
X96957Y349122D02*
Y352665D01*
X115185Y350894D02*
X118728D01*
X116957Y349122D02*
Y352665D01*
X24161Y24122D02*
X27705D01*
X25933Y22350D02*
Y25894D01*
X34161Y24122D02*
X37705D01*
X35933Y22350D02*
Y25894D01*
X44161Y24122D02*
X47705D01*
X45933Y22350D02*
Y25894D01*
X24004Y500D02*
X27547D01*
X25776Y-1272D02*
Y2272D01*
X34004Y500D02*
X37547D01*
X35776Y-1272D02*
Y2272D01*
X44004Y500D02*
X47547D01*
X45776Y-1272D02*
Y2272D01*
X75343Y24122D02*
X78886D01*
X77114Y22350D02*
Y25894D01*
X85343Y24122D02*
X88886D01*
X87114Y22350D02*
Y25894D01*
X95342Y24122D02*
X98886D01*
X97114Y22350D02*
Y25894D01*
X75343Y500D02*
X78886D01*
X77114Y-1272D02*
Y2272D01*
X85343Y500D02*
X88886D01*
X87114Y-1272D02*
Y2272D01*
X95342Y500D02*
X98886D01*
X97114Y-1272D02*
Y2272D01*
X367976Y162209D02*
X371520D01*
X369748Y160437D02*
Y163980D01*
X367976Y172209D02*
X371520D01*
X369748Y170437D02*
Y173980D01*
X-878Y267232D02*
X5815D01*
X2468Y263886D02*
Y270579D01*
X-878Y320382D02*
X5815D01*
X2468Y317035D02*
Y323728D01*
X20972Y307980D02*
X31209D01*
X26091Y302862D02*
Y313098D01*
X20972Y279634D02*
X31209D01*
X26091Y274516D02*
Y284752D01*
X366283Y205110D02*
X369433D01*
X367858Y203535D02*
Y206685D01*
X366283Y195110D02*
X369433D01*
X367858Y193535D02*
Y196685D01*
X-3240Y88768D02*
X303D01*
X-1469Y86996D02*
Y90539D01*
X-3240Y98768D02*
X303D01*
X-1469Y96996D02*
Y100539D01*
X-3240Y108768D02*
X303D01*
X-1469Y106996D02*
Y110539D01*
X-3240Y124201D02*
X303D01*
X-1469Y122429D02*
Y125972D01*
X-3240Y134201D02*
X303D01*
X-1469Y132429D02*
Y135972D01*
X-3240Y144201D02*
X303D01*
X-1469Y142429D02*
Y145972D01*
X50697Y366642D02*
X56602D01*
X53650Y363689D02*
Y369595D01*
X30697Y366642D02*
X36602D01*
X33650Y363689D02*
Y369595D01*
X63098Y279043D02*
X65854D01*
X64476Y277665D02*
Y280421D01*
X103098Y279043D02*
X105854D01*
X104476Y277665D02*
Y280421D01*
X99831Y325303D02*
X102587D01*
X101209Y323925D02*
Y326681D01*
X59831Y325303D02*
X62587D01*
X61209Y323925D02*
Y326681D01*
X46366Y327902D02*
X49122D01*
X47744Y326524D02*
Y329279D01*
X46366Y287902D02*
X49122D01*
X47744Y286524D02*
Y289280D01*
X225106Y33177D02*
X228256D01*
X226681Y31602D02*
Y34752D01*
X215264Y33177D02*
X218413D01*
X216839Y31602D02*
Y34752D01*
X207390Y33177D02*
X210539D01*
X208965Y31602D02*
Y34752D01*
X197547Y33177D02*
X200697D01*
X199122Y31602D02*
Y34752D01*
X234358Y23138D02*
X242232D01*
X238295Y19201D02*
Y27075D01*
X183571Y23138D02*
X191445D01*
X187508Y19201D02*
Y27075D01*
X192613Y152075D02*
X194213D01*
X193413Y151275D02*
Y152875D01*
X113700Y233000D02*
X115300D01*
X114500Y232200D02*
Y233800D01*
X168661Y274106D02*
X170261D01*
X169461Y273306D02*
Y274906D01*
X180472Y274106D02*
X182072D01*
X181272Y273306D02*
Y274906D01*
X180472Y262295D02*
X182072D01*
X181272Y261495D02*
Y263095D01*
X168661Y262295D02*
X170261D01*
X169461Y261495D02*
Y263095D01*
X277389Y158811D02*
X278989D01*
X278189Y158011D02*
Y159611D01*
X289200Y158811D02*
X290800D01*
X290000Y158011D02*
Y159611D01*
X289200Y145000D02*
X290800D01*
X290000Y144200D02*
Y145800D01*
X277389Y145000D02*
X278989D01*
X278189Y144200D02*
Y145800D01*
X108661Y63106D02*
X110261D01*
X109461Y62306D02*
Y63906D01*
X120472Y63106D02*
X122072D01*
X121272Y62306D02*
Y63906D01*
X120472Y51295D02*
X122072D01*
X121272Y50495D02*
Y52095D01*
X108661Y51295D02*
X110261D01*
X109461Y50495D02*
Y52095D01*
X157661Y64106D02*
X159261D01*
X158461Y63306D02*
Y64906D01*
X157661Y52295D02*
X159261D01*
X158461Y51495D02*
Y53095D01*
X54889Y108689D02*
X56489D01*
X55689Y107889D02*
Y109489D01*
X66700Y108689D02*
X68300D01*
X67500Y107889D02*
Y109489D01*
X66700Y96878D02*
X68300D01*
X67500Y96078D02*
Y97678D01*
X54889Y96878D02*
X56489D01*
X55689Y96078D02*
Y97678D01*
X3350Y241606D02*
X4950D01*
X4150Y240806D02*
Y242406D01*
X15161Y241606D02*
X16761D01*
X15961Y240806D02*
Y242406D01*
X15161Y229795D02*
X16761D01*
X15961Y228995D02*
Y230595D01*
X3350Y229795D02*
X4950D01*
X4150Y228995D02*
Y230595D01*
X154700Y313311D02*
X156300D01*
X155500Y312511D02*
Y314111D01*
X166511Y313311D02*
X168111D01*
X167311Y312511D02*
Y314111D01*
X166511Y301500D02*
X168111D01*
X167311Y300700D02*
Y302300D01*
X154700Y301500D02*
X156300D01*
X155500Y300700D02*
Y302300D01*
X202889Y328500D02*
X204489D01*
X203689Y327700D02*
Y329300D01*
X214700Y328500D02*
X216300D01*
X215500Y327700D02*
Y329300D01*
X214700Y316689D02*
X216300D01*
X215500Y315889D02*
Y317489D01*
X202889Y316689D02*
X204489D01*
X203689Y315889D02*
Y317489D01*
X346661Y275106D02*
X348261D01*
X347461Y274306D02*
Y275906D01*
X358472Y275106D02*
X360072D01*
X359272Y274306D02*
Y275906D01*
X358472Y263295D02*
X360072D01*
X359272Y262495D02*
Y264095D01*
X346661Y263295D02*
X348261D01*
X347461Y262495D02*
Y264095D01*
X303850Y201106D02*
X305450D01*
X304650Y200306D02*
Y201906D01*
X315661Y201106D02*
X317261D01*
X316461Y200306D02*
Y201906D01*
X315661Y189295D02*
X317261D01*
X316461Y188495D02*
Y190095D01*
X303850Y189295D02*
X305450D01*
X304650Y188495D02*
Y190095D01*
X180802Y152075D02*
X182402D01*
X181602Y151275D02*
Y152875D01*
X192613Y163886D02*
X194213D01*
X193413Y163086D02*
Y164686D01*
X180802Y163886D02*
X182402D01*
X181602Y163086D02*
Y164686D01*
M02*
