G04*
G04 #@! TF.GenerationSoftware,Altium Limited,Altium Designer,21.2.1 (34)*
G04*
G04 Layer_Physical_Order=2*
G04 Layer_Color=16711680*
%FSLAX25Y25*%
%MOIN*%
G70*
G04*
G04 #@! TF.SameCoordinates,22B55974-3201-4BD1-88E3-0356CD7B76C8*
G04*
G04*
G04 #@! TF.FilePolarity,Positive*
G04*
G01*
G75*
%ADD10C,0.01000*%
%ADD15C,0.02000*%
%ADD66C,0.01500*%
%ADD67C,0.03000*%
%ADD68O,0.08661X0.06535*%
%ADD69R,0.08661X0.06535*%
%ADD70C,0.04724*%
%ADD71R,0.04724X0.04724*%
%ADD72R,0.04724X0.04724*%
%ADD73C,0.09055*%
%ADD74R,0.09055X0.09055*%
%ADD75C,0.11811*%
%ADD76C,0.06299*%
%ADD77R,0.06299X0.06299*%
%ADD78R,0.06299X0.06299*%
%ADD79R,0.05906X0.05906*%
%ADD80C,0.05906*%
%ADD81O,0.07874X0.09843*%
%ADD82R,0.05906X0.05906*%
%ADD83R,0.06000X0.06000*%
%ADD84C,0.06000*%
%ADD85C,0.14961*%
%ADD86C,0.06693*%
%ADD87R,0.06693X0.06693*%
%ADD88R,0.09055X0.09055*%
%ADD89O,0.03937X0.07087*%
%ADD90R,0.06693X0.06693*%
%ADD91C,0.11024*%
%ADD92R,0.19685X0.19685*%
%ADD93C,0.19685*%
G04:AMPARAMS|DCode=94|XSize=78.74mil|YSize=118.11mil|CornerRadius=19.68mil|HoleSize=0mil|Usage=FLASHONLY|Rotation=0.000|XOffset=0mil|YOffset=0mil|HoleType=Round|Shape=RoundedRectangle|*
%AMROUNDEDRECTD94*
21,1,0.07874,0.07874,0,0,0.0*
21,1,0.03937,0.11811,0,0,0.0*
1,1,0.03937,0.01968,-0.03937*
1,1,0.03937,-0.01968,-0.03937*
1,1,0.03937,-0.01968,0.03937*
1,1,0.03937,0.01968,0.03937*
%
%ADD94ROUNDEDRECTD94*%
%ADD95C,0.03600*%
G36*
X372531Y380396D02*
X374409Y379826D01*
X376140Y378901D01*
X377656Y377656D01*
X378901Y376140D01*
X379826Y374409D01*
X380396Y372531D01*
X380577Y370691D01*
X380555Y370579D01*
Y500D01*
X380577Y387D01*
X380396Y-1453D01*
X379826Y-3330D01*
X378901Y-5061D01*
X377656Y-6578D01*
X376140Y-7822D01*
X374409Y-8747D01*
X372531Y-9317D01*
X370691Y-9498D01*
X370579Y-9476D01*
X500D01*
X387Y-9498D01*
X-1453Y-9317D01*
X-3330Y-8747D01*
X-5061Y-7822D01*
X-6578Y-6578D01*
X-7822Y-5061D01*
X-8747Y-3330D01*
X-9317Y-1453D01*
X-9498Y387D01*
X-9476Y500D01*
Y370579D01*
X-9498Y370691D01*
X-9317Y372531D01*
X-8747Y374409D01*
X-7822Y376140D01*
X-6578Y377656D01*
X-5061Y378901D01*
X-3330Y379826D01*
X-1453Y380396D01*
X387Y380577D01*
X500Y380555D01*
X370579D01*
X370691Y380577D01*
X372531Y380396D01*
D02*
G37*
%LPC*%
G36*
X371414Y379059D02*
X371079D01*
Y371079D01*
X379059D01*
Y371414D01*
X378733Y373052D01*
X378094Y374596D01*
X377166Y375985D01*
X375985Y377166D01*
X374596Y378094D01*
X373052Y378733D01*
X371414Y379059D01*
D02*
G37*
G36*
X370079D02*
X369743D01*
X368105Y378733D01*
X366562Y378094D01*
X365173Y377166D01*
X363992Y375985D01*
X363064Y374596D01*
X362424Y373052D01*
X362098Y371414D01*
Y371079D01*
X370079D01*
Y379059D01*
D02*
G37*
G36*
X1335D02*
X1000D01*
Y371079D01*
X8980D01*
Y371414D01*
X8654Y373052D01*
X8015Y374596D01*
X7087Y375985D01*
X5906Y377166D01*
X4517Y378094D01*
X2974Y378733D01*
X1335Y379059D01*
D02*
G37*
G36*
X0D02*
X-335D01*
X-1974Y378733D01*
X-3517Y378094D01*
X-4906Y377166D01*
X-6087Y375985D01*
X-7015Y374596D01*
X-7654Y373052D01*
X-7980Y371414D01*
Y371079D01*
X0D01*
Y379059D01*
D02*
G37*
G36*
X379059Y370079D02*
X371079D01*
Y362098D01*
X371414D01*
X373052Y362424D01*
X374596Y363064D01*
X375985Y363992D01*
X377166Y365173D01*
X378094Y366562D01*
X378733Y368105D01*
X379059Y369743D01*
Y370079D01*
D02*
G37*
G36*
X370079D02*
X362098D01*
Y369743D01*
X362424Y368105D01*
X363064Y366562D01*
X363992Y365173D01*
X365173Y363992D01*
X366562Y363064D01*
X368105Y362424D01*
X369743Y362098D01*
X370079D01*
Y370079D01*
D02*
G37*
G36*
X8980D02*
X1000D01*
Y362098D01*
X1335D01*
X2974Y362424D01*
X4517Y363064D01*
X5906Y363992D01*
X7087Y365173D01*
X8015Y366562D01*
X8654Y368105D01*
X8980Y369743D01*
Y370079D01*
D02*
G37*
G36*
X0D02*
X-7980D01*
Y369743D01*
X-7654Y368105D01*
X-7015Y366562D01*
X-6087Y365173D01*
X-4906Y363992D01*
X-3517Y363064D01*
X-1974Y362424D01*
X-335Y362098D01*
X0D01*
Y370079D01*
D02*
G37*
G36*
X54310Y373347D02*
X52989D01*
X51694Y373090D01*
X50473Y372584D01*
X49375Y371850D01*
X48441Y370916D01*
X47707Y369818D01*
X47202Y368598D01*
X46944Y367302D01*
Y365981D01*
X47202Y364686D01*
X47707Y363465D01*
X48441Y362367D01*
X49375Y361433D01*
X50473Y360699D01*
X51694Y360194D01*
X52989Y359936D01*
X54310D01*
X55606Y360194D01*
X56826Y360699D01*
X57924Y361433D01*
X58858Y362367D01*
X59592Y363465D01*
X60097Y364686D01*
X60355Y365981D01*
Y367302D01*
X60097Y368598D01*
X59592Y369818D01*
X58858Y370916D01*
X57924Y371850D01*
X56826Y372584D01*
X55606Y373090D01*
X54310Y373347D01*
D02*
G37*
G36*
X34310D02*
X32989D01*
X31694Y373090D01*
X30473Y372584D01*
X29375Y371850D01*
X28441Y370916D01*
X27707Y369818D01*
X27202Y368598D01*
X26944Y367302D01*
Y365981D01*
X27202Y364686D01*
X27707Y363465D01*
X28441Y362367D01*
X29375Y361433D01*
X30473Y360699D01*
X31694Y360194D01*
X32989Y359936D01*
X34310D01*
X35605Y360194D01*
X36826Y360699D01*
X37924Y361433D01*
X38858Y362367D01*
X39592Y363465D01*
X40097Y364686D01*
X40355Y365981D01*
Y367302D01*
X40097Y368598D01*
X39592Y369818D01*
X38858Y370916D01*
X37924Y371850D01*
X36826Y372584D01*
X35605Y373090D01*
X34310Y373347D01*
D02*
G37*
G36*
X121303Y355240D02*
X117457D01*
Y351394D01*
X121303D01*
Y355240D01*
D02*
G37*
G36*
X260712Y354894D02*
X260685D01*
Y351394D01*
X264185D01*
Y351420D01*
X263912Y352438D01*
X263386Y353350D01*
X262641Y354095D01*
X261729Y354621D01*
X260712Y354894D01*
D02*
G37*
G36*
X333861D02*
X333835D01*
Y351394D01*
X337335D01*
Y351420D01*
X337062Y352438D01*
X336535Y353350D01*
X335791Y354095D01*
X334879Y354621D01*
X333861Y354894D01*
D02*
G37*
G36*
X332835D02*
X332808D01*
X331791Y354621D01*
X330879Y354095D01*
X330134Y353350D01*
X329607Y352438D01*
X329335Y351420D01*
Y351394D01*
X332835D01*
Y354894D01*
D02*
G37*
G36*
X259685D02*
X259658D01*
X258641Y354621D01*
X257729Y354095D01*
X256984Y353350D01*
X256458Y352438D01*
X256185Y351420D01*
Y351394D01*
X259685D01*
Y354894D01*
D02*
G37*
G36*
X116457Y355240D02*
X112610D01*
Y351394D01*
X116457D01*
Y355240D01*
D02*
G37*
G36*
X313835Y354694D02*
X312834D01*
X311868Y354435D01*
X311001Y353935D01*
X310294Y353227D01*
X309794Y352360D01*
X309535Y351394D01*
Y350393D01*
X309794Y349427D01*
X310294Y348560D01*
X311001Y347853D01*
X311868Y347353D01*
X312834Y347094D01*
X313835D01*
X314801Y347353D01*
X315668Y347853D01*
X316375Y348560D01*
X316876Y349427D01*
X317135Y350393D01*
Y351394D01*
X316876Y352360D01*
X316375Y353227D01*
X315668Y353935D01*
X314801Y354435D01*
X313835Y354694D01*
D02*
G37*
G36*
X283985D02*
X276385D01*
Y347094D01*
X283985D01*
Y354694D01*
D02*
G37*
G36*
X270685D02*
X269685D01*
X268718Y354435D01*
X267852Y353935D01*
X267144Y353227D01*
X266644Y352360D01*
X266385Y351394D01*
Y350393D01*
X266644Y349427D01*
X267144Y348560D01*
X267852Y347853D01*
X268718Y347353D01*
X269685Y347094D01*
X270685D01*
X271652Y347353D01*
X272518Y347853D01*
X273226Y348560D01*
X273726Y349427D01*
X273985Y350393D01*
Y351394D01*
X273726Y352360D01*
X273226Y353227D01*
X272518Y353935D01*
X271652Y354435D01*
X270685Y354694D01*
D02*
G37*
G36*
X250685D02*
X249685D01*
X248718Y354435D01*
X247852Y353935D01*
X247144Y353227D01*
X246644Y352360D01*
X246385Y351394D01*
Y350393D01*
X246644Y349427D01*
X247144Y348560D01*
X247852Y347853D01*
X248718Y347353D01*
X249685Y347094D01*
X250685D01*
X251652Y347353D01*
X252518Y347853D01*
X253226Y348560D01*
X253726Y349427D01*
X253985Y350393D01*
Y351394D01*
X253726Y352360D01*
X253226Y353227D01*
X252518Y353935D01*
X251652Y354435D01*
X250685Y354694D01*
D02*
G37*
G36*
X337335Y350394D02*
X333835D01*
Y348751D01*
X335435D01*
X335131Y348443D01*
X334619Y347857D01*
X334411Y347580D01*
X334235Y347313D01*
X334091Y347057D01*
X334038Y346941D01*
X334879Y347166D01*
X335791Y347693D01*
X336535Y348438D01*
X337062Y349350D01*
X337335Y350367D01*
Y350394D01*
D02*
G37*
G36*
X332835D02*
X329335D01*
Y350367D01*
X329607Y349350D01*
X330134Y348438D01*
X330879Y347693D01*
X331791Y347166D01*
X332631Y346941D01*
X332579Y347057D01*
X332435Y347313D01*
X332259Y347580D01*
X332051Y347857D01*
X331539Y348443D01*
X331235Y348751D01*
X332835D01*
Y350394D01*
D02*
G37*
G36*
X264185D02*
X260685D01*
Y346894D01*
X260712D01*
X261729Y347166D01*
X262641Y347693D01*
X263386Y348438D01*
X263912Y349350D01*
X264185Y350367D01*
Y350394D01*
D02*
G37*
G36*
X259685D02*
X256185D01*
Y350367D01*
X256458Y349350D01*
X256984Y348438D01*
X257729Y347693D01*
X258641Y347166D01*
X259658Y346894D01*
X259685D01*
Y350394D01*
D02*
G37*
G36*
X121303D02*
X117457D01*
Y346547D01*
X121303D01*
Y350394D01*
D02*
G37*
G36*
X116457D02*
X112610D01*
Y346547D01*
X116457D01*
Y350394D01*
D02*
G37*
G36*
X70201Y343828D02*
X68799D01*
X67444Y343464D01*
X66229Y342763D01*
X65237Y341771D01*
X64535Y340556D01*
X64172Y339201D01*
Y337799D01*
X64535Y336444D01*
X65237Y335229D01*
X66229Y334237D01*
X67444Y333536D01*
X68799Y333172D01*
X70201D01*
X71556Y333536D01*
X72771Y334237D01*
X73763Y335229D01*
X74464Y336444D01*
X74828Y337799D01*
Y339201D01*
X74464Y340556D01*
X73763Y341771D01*
X72771Y342763D01*
X71556Y343464D01*
X70201Y343828D01*
D02*
G37*
G36*
X24828D02*
X14172D01*
Y333172D01*
X24828D01*
Y343828D01*
D02*
G37*
G36*
X216000Y331265D02*
Y329000D01*
X218265D01*
X218109Y329581D01*
X217741Y330219D01*
X217219Y330741D01*
X216581Y331109D01*
X216000Y331265D01*
D02*
G37*
G36*
X215000D02*
X214419Y331109D01*
X213781Y330741D01*
X213259Y330219D01*
X212891Y329581D01*
X212735Y329000D01*
X215000D01*
Y331265D01*
D02*
G37*
G36*
X204189D02*
Y329000D01*
X206454D01*
X206298Y329581D01*
X205929Y330219D01*
X205408Y330741D01*
X204770Y331109D01*
X204189Y331265D01*
D02*
G37*
G36*
X203189D02*
X202608Y331109D01*
X201970Y330741D01*
X201448Y330219D01*
X201080Y329581D01*
X200924Y329000D01*
X203189D01*
Y331265D01*
D02*
G37*
G36*
X218265Y328000D02*
X216000D01*
Y325735D01*
X216581Y325891D01*
X217219Y326259D01*
X217741Y326781D01*
X218109Y327419D01*
X218265Y328000D01*
D02*
G37*
G36*
X215000D02*
X212735D01*
X212891Y327419D01*
X213259Y326781D01*
X213781Y326259D01*
X214419Y325891D01*
X215000Y325735D01*
Y328000D01*
D02*
G37*
G36*
X206454D02*
X204189D01*
Y325735D01*
X204770Y325891D01*
X205408Y326259D01*
X205929Y326781D01*
X206298Y327419D01*
X206454Y328000D01*
D02*
G37*
G36*
X203189D02*
X200924D01*
X201080Y327419D01*
X201448Y326781D01*
X201970Y326259D01*
X202608Y325891D01*
X203189Y325735D01*
Y328000D01*
D02*
G37*
G36*
X50906Y331064D02*
X44582D01*
Y324739D01*
X50906D01*
Y331064D01*
D02*
G37*
G36*
X334082Y327430D02*
X334107Y327376D01*
X334261Y327107D01*
X334448Y326826D01*
X334670Y326533D01*
X335215Y325912D01*
X335539Y325584D01*
X333835D01*
Y323835D01*
X337484D01*
Y323881D01*
X337201Y324936D01*
X336655Y325883D01*
X335883Y326655D01*
X334936Y327202D01*
X334082Y327430D01*
D02*
G37*
G36*
X332587D02*
X331733Y327202D01*
X330787Y326655D01*
X330014Y325883D01*
X329468Y324936D01*
X329185Y323881D01*
Y323835D01*
X332835D01*
Y325584D01*
X331130D01*
X331454Y325912D01*
X331999Y326533D01*
X332221Y326826D01*
X332408Y327107D01*
X332562Y327376D01*
X332587Y327430D01*
D02*
G37*
G36*
X104371Y328465D02*
X98046D01*
Y322141D01*
X104371D01*
Y328465D01*
D02*
G37*
G36*
X61625D02*
X60792D01*
X59988Y328250D01*
X59267Y327834D01*
X58678Y327245D01*
X58262Y326524D01*
X58047Y325719D01*
Y324887D01*
X58262Y324083D01*
X58678Y323361D01*
X59267Y322773D01*
X59988Y322356D01*
X60792Y322141D01*
X61625D01*
X62429Y322356D01*
X63150Y322773D01*
X63739Y323361D01*
X64155Y324083D01*
X64371Y324887D01*
Y325719D01*
X64155Y326524D01*
X63739Y327245D01*
X63150Y327834D01*
X62429Y328250D01*
X61625Y328465D01*
D02*
G37*
G36*
X286664Y326497D02*
X285832D01*
X285028Y326281D01*
X284306Y325865D01*
X283718Y325276D01*
X283301Y324555D01*
X283086Y323751D01*
Y322918D01*
X283301Y322114D01*
X283718Y321393D01*
X284306Y320804D01*
X285028Y320388D01*
X285832Y320172D01*
X286664D01*
X287469Y320388D01*
X288190Y320804D01*
X288778Y321393D01*
X289195Y322114D01*
X289410Y322918D01*
Y323751D01*
X289195Y324555D01*
X288778Y325276D01*
X288190Y325865D01*
X287469Y326281D01*
X286664Y326497D01*
D02*
G37*
G36*
X347135Y354694D02*
X339535D01*
Y347094D01*
X341257D01*
X341324Y347087D01*
X341354Y347036D01*
X341400Y346924D01*
X341447Y346752D01*
X341485Y346523D01*
X341499Y346358D01*
Y328016D01*
X341485Y327850D01*
X341446Y327619D01*
X341400Y327445D01*
X341354Y327331D01*
X341325Y327284D01*
X339385D01*
Y319385D01*
X347284D01*
Y327284D01*
X345344D01*
X345316Y327331D01*
X345269Y327445D01*
X345223Y327619D01*
X345184Y327850D01*
X345170Y328016D01*
Y346358D01*
X345184Y346523D01*
X345223Y346752D01*
X345269Y346924D01*
X345315Y347036D01*
X345346Y347087D01*
X345412Y347094D01*
X347135D01*
Y354694D01*
D02*
G37*
G36*
X323835D02*
X322834D01*
X321868Y354435D01*
X321001Y353935D01*
X320294Y353227D01*
X319794Y352360D01*
X319535Y351394D01*
Y350393D01*
X319794Y349427D01*
X320294Y348560D01*
X320612Y348243D01*
X320654Y348179D01*
X320941Y347888D01*
X321416Y347343D01*
X321591Y347110D01*
X321738Y346888D01*
X321851Y346687D01*
X321931Y346510D01*
X321983Y346358D01*
X322009Y346235D01*
Y335544D01*
X322002Y335502D01*
X322000Y335496D01*
X321994Y335494D01*
X321952Y335487D01*
X279043D01*
X278536Y335386D01*
X278106Y335099D01*
X227909Y284902D01*
X227622Y284472D01*
X227521Y283965D01*
Y165419D01*
X225896Y163794D01*
X222074D01*
X222003Y163800D01*
X221947Y163808D01*
X221652Y164520D01*
X221000Y165370D01*
X220150Y166022D01*
X219160Y166431D01*
X218098Y166571D01*
X215972D01*
X214911Y166431D01*
X213921Y166022D01*
X213071Y165370D01*
X212419Y164520D01*
X212009Y163530D01*
X211870Y162469D01*
X212009Y161407D01*
X212419Y160417D01*
X213071Y159567D01*
X213921Y158915D01*
X214911Y158505D01*
X215972Y158366D01*
X218098D01*
X219160Y158505D01*
X220150Y158915D01*
X221000Y159567D01*
X221652Y160417D01*
X221947Y161129D01*
X222003Y161137D01*
X222074Y161143D01*
X226445D01*
X226952Y161244D01*
X227382Y161531D01*
X229784Y163933D01*
X230071Y164363D01*
X230172Y164870D01*
Y283416D01*
X279592Y332836D01*
X321952D01*
X321994Y332829D01*
X322000Y332827D01*
X322002Y332821D01*
X322009Y332779D01*
Y328238D01*
X322009Y328231D01*
X321980Y328100D01*
X321924Y327939D01*
X321836Y327750D01*
X321714Y327536D01*
X321556Y327299D01*
X321367Y327049D01*
X320856Y326468D01*
X320549Y326157D01*
X320507Y326093D01*
X320174Y325760D01*
X319654Y324859D01*
X319385Y323855D01*
Y322815D01*
X319654Y321810D01*
X320174Y320910D01*
X320910Y320174D01*
X321810Y319654D01*
X322815Y319385D01*
X323855D01*
X324859Y319654D01*
X325760Y320174D01*
X326495Y320910D01*
X327015Y321810D01*
X327284Y322815D01*
Y323855D01*
X327015Y324859D01*
X326495Y325760D01*
X326162Y326093D01*
X326120Y326157D01*
X325813Y326468D01*
X325302Y327049D01*
X325113Y327299D01*
X324955Y327536D01*
X324833Y327750D01*
X324745Y327939D01*
X324689Y328100D01*
X324661Y328231D01*
X324660Y328238D01*
Y334161D01*
Y346235D01*
X324686Y346358D01*
X324738Y346510D01*
X324819Y346688D01*
X324932Y346888D01*
X325078Y347110D01*
X325253Y347343D01*
X325729Y347888D01*
X326016Y348179D01*
X326058Y348243D01*
X326375Y348560D01*
X326876Y349427D01*
X327135Y350393D01*
Y351394D01*
X326876Y352360D01*
X326375Y353227D01*
X325668Y353935D01*
X324801Y354435D01*
X323835Y354694D01*
D02*
G37*
G36*
X337484Y322835D02*
X333835D01*
Y319185D01*
X333881D01*
X334936Y319468D01*
X335883Y320014D01*
X336655Y320787D01*
X337201Y321733D01*
X337484Y322788D01*
Y322835D01*
D02*
G37*
G36*
X332835D02*
X329185D01*
Y322788D01*
X329468Y321733D01*
X330014Y320787D01*
X330787Y320014D01*
X331733Y319468D01*
X332788Y319185D01*
X332835D01*
Y322835D01*
D02*
G37*
G36*
X216000Y319454D02*
Y317189D01*
X218265D01*
X218109Y317770D01*
X217741Y318408D01*
X217219Y318930D01*
X216581Y319298D01*
X216000Y319454D01*
D02*
G37*
G36*
X215000D02*
X214419Y319298D01*
X213781Y318930D01*
X213259Y318408D01*
X212891Y317770D01*
X212735Y317189D01*
X215000D01*
Y319454D01*
D02*
G37*
G36*
X204189D02*
Y317189D01*
X206454D01*
X206298Y317770D01*
X205929Y318408D01*
X205408Y318930D01*
X204770Y319298D01*
X204189Y319454D01*
D02*
G37*
G36*
X203189D02*
X202608Y319298D01*
X201970Y318930D01*
X201448Y318408D01*
X201080Y317770D01*
X200924Y317189D01*
X203189D01*
Y319454D01*
D02*
G37*
G36*
X3090Y326694D02*
X1847D01*
X627Y326451D01*
X-521Y325975D01*
X-1555Y325285D01*
X-2434Y324405D01*
X-3125Y323372D01*
X-3601Y322223D01*
X-3843Y321004D01*
Y319760D01*
X-3601Y318541D01*
X-3125Y317392D01*
X-2434Y316358D01*
X-1555Y315479D01*
X-521Y314788D01*
X627Y314313D01*
X1847Y314070D01*
X3090D01*
X4310Y314313D01*
X5458Y314788D01*
X6492Y315479D01*
X7371Y316358D01*
X8062Y317392D01*
X8538Y318541D01*
X8780Y319760D01*
Y321004D01*
X8538Y322223D01*
X8062Y323372D01*
X7371Y324405D01*
X6492Y325285D01*
X5458Y325975D01*
X4310Y326451D01*
X3090Y326694D01*
D02*
G37*
G36*
X218265Y316189D02*
X216000D01*
Y313924D01*
X216581Y314080D01*
X217219Y314448D01*
X217741Y314970D01*
X218109Y315608D01*
X218265Y316189D01*
D02*
G37*
G36*
X215000D02*
X212735D01*
X212891Y315608D01*
X213259Y314970D01*
X213781Y314448D01*
X214419Y314080D01*
X215000Y313924D01*
Y316189D01*
D02*
G37*
G36*
X206454D02*
X204189D01*
Y313924D01*
X204770Y314080D01*
X205408Y314448D01*
X205929Y314970D01*
X206298Y315608D01*
X206454Y316189D01*
D02*
G37*
G36*
X203189D02*
X200924D01*
X201080Y315608D01*
X201448Y314970D01*
X201970Y314448D01*
X202608Y314080D01*
X203189Y313924D01*
Y316189D01*
D02*
G37*
G36*
X167811Y316076D02*
Y313811D01*
X170076D01*
X169920Y314392D01*
X169552Y315030D01*
X169030Y315552D01*
X168392Y315920D01*
X167811Y316076D01*
D02*
G37*
G36*
X166811D02*
X166230Y315920D01*
X165592Y315552D01*
X165070Y315030D01*
X164702Y314392D01*
X164546Y313811D01*
X166811D01*
Y316076D01*
D02*
G37*
G36*
X156000D02*
Y313811D01*
X158265D01*
X158109Y314392D01*
X157741Y315030D01*
X157219Y315552D01*
X156581Y315920D01*
X156000Y316076D01*
D02*
G37*
G36*
X155000D02*
X154419Y315920D01*
X153781Y315552D01*
X153259Y315030D01*
X152891Y314392D01*
X152735Y313811D01*
X155000D01*
Y316076D01*
D02*
G37*
G36*
X170076Y312811D02*
X167811D01*
Y310546D01*
X168392Y310702D01*
X169030Y311070D01*
X169552Y311592D01*
X169920Y312230D01*
X170076Y312811D01*
D02*
G37*
G36*
X166811D02*
X164546D01*
X164702Y312230D01*
X165070Y311592D01*
X165592Y311070D01*
X166230Y310702D01*
X166811Y310546D01*
Y312811D01*
D02*
G37*
G36*
X158265D02*
X156000D01*
Y310546D01*
X156581Y310702D01*
X157219Y311070D01*
X157741Y311592D01*
X158109Y312230D01*
X158265Y312811D01*
D02*
G37*
G36*
X155000D02*
X152735D01*
X152891Y312230D01*
X153259Y311592D01*
X153781Y311070D01*
X154419Y310702D01*
X155000Y310546D01*
Y312811D01*
D02*
G37*
G36*
X167811Y304265D02*
Y302000D01*
X170076D01*
X169920Y302581D01*
X169552Y303219D01*
X169030Y303741D01*
X168392Y304109D01*
X167811Y304265D01*
D02*
G37*
G36*
X166811D02*
X166230Y304109D01*
X165592Y303741D01*
X165070Y303219D01*
X164702Y302581D01*
X164546Y302000D01*
X166811D01*
Y304265D01*
D02*
G37*
G36*
X156000D02*
Y302000D01*
X158265D01*
X158109Y302581D01*
X157741Y303219D01*
X157219Y303741D01*
X156581Y304109D01*
X156000Y304265D01*
D02*
G37*
G36*
X155000D02*
X154419Y304109D01*
X153781Y303741D01*
X153259Y303219D01*
X152891Y302581D01*
X152735Y302000D01*
X155000D01*
Y304265D01*
D02*
G37*
G36*
X170076Y301000D02*
X167811D01*
Y298735D01*
X168392Y298891D01*
X169030Y299259D01*
X169552Y299781D01*
X169920Y300419D01*
X170076Y301000D01*
D02*
G37*
G36*
X166811D02*
X164546D01*
X164702Y300419D01*
X165070Y299781D01*
X165592Y299259D01*
X166230Y298891D01*
X166811Y298735D01*
Y301000D01*
D02*
G37*
G36*
X158265D02*
X156000D01*
Y298735D01*
X156581Y298891D01*
X157219Y299259D01*
X157741Y299781D01*
X158109Y300419D01*
X158265Y301000D01*
D02*
G37*
G36*
X155000D02*
X152735D01*
X152891Y300419D01*
X153259Y299781D01*
X153781Y299259D01*
X154419Y298891D01*
X155000Y298735D01*
Y301000D01*
D02*
G37*
G36*
X36733Y318623D02*
X15448D01*
Y297338D01*
X36733D01*
Y318623D01*
D02*
G37*
G36*
X48244Y291248D02*
Y288402D01*
X51091D01*
X50877Y289199D01*
X50434Y289966D01*
X49808Y290592D01*
X49042Y291035D01*
X48244Y291248D01*
D02*
G37*
G36*
X47244D02*
X46446Y291035D01*
X45680Y290592D01*
X45054Y289966D01*
X44611Y289199D01*
X44397Y288402D01*
X47244D01*
Y291248D01*
D02*
G37*
G36*
X315955Y294253D02*
X314967D01*
X314012Y293997D01*
X313156Y293503D01*
X312458Y292804D01*
X311964Y291949D01*
X311708Y290994D01*
Y290006D01*
X311964Y289052D01*
X312458Y288196D01*
X313156Y287497D01*
X314012Y287003D01*
X314967Y286747D01*
X315955D01*
X316909Y287003D01*
X317765Y287497D01*
X318464Y288196D01*
X318958Y289052D01*
X319213Y290006D01*
Y290994D01*
X318958Y291949D01*
X318464Y292804D01*
X317765Y293503D01*
X316909Y293997D01*
X315955Y294253D01*
D02*
G37*
G36*
X259213D02*
X251708D01*
Y286747D01*
X259213D01*
Y294253D01*
D02*
G37*
G36*
X51091Y287402D02*
X48244D01*
Y284555D01*
X49042Y284769D01*
X49808Y285211D01*
X50434Y285837D01*
X50877Y286604D01*
X51091Y287402D01*
D02*
G37*
G36*
X47244D02*
X44397D01*
X44611Y286604D01*
X45054Y285837D01*
X45680Y285211D01*
X46446Y284769D01*
X47244Y284555D01*
Y287402D01*
D02*
G37*
G36*
X218098Y286773D02*
X217535D01*
Y282968D01*
X222337D01*
X222256Y283583D01*
X221826Y284621D01*
X221142Y285512D01*
X220251Y286196D01*
X219213Y286626D01*
X218098Y286773D01*
D02*
G37*
G36*
X26944Y290476D02*
X26591D01*
Y280134D01*
X36933D01*
Y280487D01*
X36666Y282173D01*
X36139Y283796D01*
X35364Y285317D01*
X34361Y286697D01*
X33154Y287904D01*
X31773Y288907D01*
X30253Y289682D01*
X28629Y290209D01*
X26944Y290476D01*
D02*
G37*
G36*
X25591D02*
X25237D01*
X23552Y290209D01*
X21928Y289682D01*
X20408Y288907D01*
X19027Y287904D01*
X17820Y286697D01*
X16817Y285317D01*
X16042Y283796D01*
X15515Y282173D01*
X15248Y280487D01*
Y280134D01*
X25591D01*
Y290476D01*
D02*
G37*
G36*
X158098Y286571D02*
X155972D01*
X154911Y286432D01*
X153921Y286022D01*
X153071Y285370D01*
X152419Y284520D01*
X152009Y283530D01*
X151870Y282469D01*
X152009Y281407D01*
X152419Y280417D01*
X153071Y279567D01*
X153921Y278915D01*
X154911Y278505D01*
X155972Y278366D01*
X158098D01*
X159160Y278505D01*
X160150Y278915D01*
X161000Y279567D01*
X161652Y280417D01*
X162061Y281407D01*
X162201Y282469D01*
X162061Y283530D01*
X161652Y284520D01*
X161000Y285370D01*
X160150Y286022D01*
X159160Y286432D01*
X158098Y286571D01*
D02*
G37*
G36*
X222337Y281968D02*
X217535D01*
Y278164D01*
X218098D01*
X219213Y278311D01*
X220251Y278741D01*
X221142Y279425D01*
X221826Y280316D01*
X222256Y281354D01*
X222337Y281968D01*
D02*
G37*
G36*
X249252Y328827D02*
X243244D01*
X242639Y328707D01*
X242126Y328364D01*
X198832Y285071D01*
X198490Y284558D01*
X198370Y283953D01*
Y267750D01*
X185918Y255299D01*
X185575Y254786D01*
X185455Y254181D01*
Y94049D01*
X162363D01*
X162212Y94060D01*
X162002Y94089D01*
X161845Y94124D01*
X161811Y94136D01*
X161652Y94520D01*
X161000Y95370D01*
X160150Y96022D01*
X159160Y96431D01*
X158098Y96571D01*
X155972D01*
X154911Y96431D01*
X153921Y96022D01*
X153071Y95370D01*
X152419Y94520D01*
X152101Y93752D01*
X151989Y93726D01*
X151789Y93698D01*
X151643Y93687D01*
X142115D01*
X133541Y102261D01*
Y196283D01*
X133421Y196888D01*
X133078Y197401D01*
X109786Y220693D01*
X109698Y220816D01*
X109605Y220982D01*
X109519Y221174D01*
X109444Y221392D01*
X109381Y221638D01*
X109332Y221900D01*
X109273Y222556D01*
X109268Y222920D01*
X109253Y222993D01*
Y223461D01*
X108984Y224465D01*
X108464Y225366D01*
X107728Y226101D01*
X106828Y226621D01*
X105823Y226890D01*
X105355D01*
X105282Y226906D01*
X104907Y226911D01*
X104577Y226932D01*
X104274Y226968D01*
X104000Y227018D01*
X103754Y227082D01*
X103536Y227157D01*
X103344Y227242D01*
X103178Y227336D01*
X103055Y227424D01*
X99531Y230948D01*
X99018Y231291D01*
X98413Y231411D01*
X62193D01*
X61588Y231291D01*
X61075Y230948D01*
X57551Y227424D01*
X57428Y227336D01*
X57262Y227242D01*
X57070Y227157D01*
X56852Y227082D01*
X56606Y227018D01*
X56344Y226970D01*
X55689Y226911D01*
X55324Y226906D01*
X55251Y226890D01*
X54783D01*
X53779Y226621D01*
X52878Y226101D01*
X52143Y225366D01*
X51623Y224465D01*
X51354Y223461D01*
Y222993D01*
X51338Y222920D01*
X51333Y222544D01*
X51312Y222214D01*
X51276Y221912D01*
X51226Y221638D01*
X51162Y221392D01*
X51087Y221174D01*
X51002Y220982D01*
X50908Y220816D01*
X50820Y220693D01*
X49915Y219788D01*
X49453Y219979D01*
Y222441D01*
X45803D01*
Y218791D01*
X48265D01*
X48457Y218329D01*
X41383Y211255D01*
X41040Y210743D01*
X40920Y210138D01*
Y154016D01*
X40910Y153908D01*
X40884Y153751D01*
X40860Y153662D01*
X39338D01*
Y150290D01*
X39334Y150271D01*
X39338Y150253D01*
Y149699D01*
X39332Y149689D01*
X39205Y149506D01*
X38841Y149076D01*
X36382Y146617D01*
X36040Y146105D01*
X35920Y145500D01*
Y140056D01*
X35910Y139947D01*
X35884Y139791D01*
X35860Y139702D01*
X32172D01*
Y129046D01*
X42828D01*
Y139702D01*
X39140D01*
X39116Y139791D01*
X39090Y139947D01*
X39080Y140056D01*
Y144845D01*
X41007Y146772D01*
X41277Y147022D01*
X41497Y147199D01*
X41689Y147332D01*
X41699Y147338D01*
X42253D01*
X42271Y147334D01*
X42290Y147338D01*
X45662D01*
Y153662D01*
X44140D01*
X44116Y153751D01*
X44090Y153908D01*
X44080Y154016D01*
Y209483D01*
X53055Y218458D01*
X53178Y218546D01*
X53344Y218640D01*
X53536Y218725D01*
X53754Y218800D01*
X54000Y218864D01*
X54263Y218912D01*
X54918Y218971D01*
X55282Y218976D01*
X55355Y218991D01*
X55823D01*
X56828Y219261D01*
X57728Y219780D01*
X58464Y220516D01*
X58984Y221416D01*
X59253Y222421D01*
Y222889D01*
X59268Y222962D01*
X59273Y223337D01*
X59294Y223668D01*
X59330Y223970D01*
X59381Y224244D01*
X59444Y224490D01*
X59519Y224708D01*
X59605Y224900D01*
X59698Y225066D01*
X59786Y225189D01*
X62848Y228250D01*
X97759D01*
X100820Y225189D01*
X100908Y225066D01*
X101002Y224900D01*
X101087Y224708D01*
X101162Y224490D01*
X101226Y224244D01*
X101274Y223981D01*
X101333Y223326D01*
X101338Y222962D01*
X101354Y222889D01*
Y222421D01*
X101623Y221416D01*
X102143Y220516D01*
X102878Y219780D01*
X103779Y219261D01*
X104783Y218991D01*
X105251D01*
X105324Y218976D01*
X105700Y218971D01*
X106030Y218950D01*
X106332Y218914D01*
X106606Y218864D01*
X106852Y218800D01*
X107071Y218725D01*
X107262Y218640D01*
X107428Y218546D01*
X107551Y218458D01*
X130380Y195629D01*
Y101606D01*
X130501Y101002D01*
X130843Y100489D01*
X140343Y90989D01*
X140856Y90646D01*
X141461Y90526D01*
X151822D01*
X151975Y90515D01*
X152192Y90486D01*
X152361Y90449D01*
X152413Y90432D01*
X152419Y90417D01*
X153071Y89567D01*
X153921Y88915D01*
X154911Y88506D01*
X155972Y88366D01*
X158098D01*
X159160Y88506D01*
X160150Y88915D01*
X161000Y89567D01*
X161652Y90417D01*
X161811Y90801D01*
X161845Y90813D01*
X161989Y90845D01*
X162404Y90888D01*
X187035D01*
X187640Y91008D01*
X188153Y91351D01*
X188496Y91864D01*
X188616Y92469D01*
Y253526D01*
X200203Y265113D01*
X200665Y264922D01*
Y145260D01*
X197824Y142420D01*
X197426Y141824D01*
X197287Y141122D01*
Y37425D01*
X197273Y37313D01*
X197234Y37118D01*
X197178Y36929D01*
X197107Y36746D01*
X197020Y36566D01*
X196914Y36389D01*
X196791Y36214D01*
X196647Y36040D01*
X196465Y35849D01*
X196427Y35789D01*
X196119Y35481D01*
X195625Y34626D01*
X195369Y33671D01*
Y32683D01*
X195625Y31729D01*
X196119Y30873D01*
X196818Y30174D01*
X197673Y29680D01*
X198628Y29424D01*
X199616D01*
X200571Y29680D01*
X201426Y30174D01*
X202125Y30873D01*
X202619Y31729D01*
X202875Y32683D01*
Y33671D01*
X202619Y34626D01*
X202125Y35481D01*
X201817Y35790D01*
X201779Y35849D01*
X201597Y36040D01*
X201453Y36214D01*
X201330Y36389D01*
X201225Y36566D01*
X201137Y36746D01*
X201066Y36929D01*
X201010Y37118D01*
X200971Y37313D01*
X200957Y37425D01*
Y140362D01*
X203798Y143202D01*
X204196Y143798D01*
X204335Y144500D01*
Y201513D01*
X204835Y201760D01*
X205031Y201611D01*
Y95524D01*
X205151Y94919D01*
X205494Y94406D01*
X208549Y91351D01*
X209062Y91008D01*
X209667Y90888D01*
X211551D01*
X211659Y90879D01*
X211816Y90853D01*
X211905Y90829D01*
Y88401D01*
X215193D01*
X215223Y88380D01*
X215338Y88358D01*
X215387Y88342D01*
X215391Y88333D01*
X215420Y88226D01*
X215446Y88071D01*
X215455Y87965D01*
Y71051D01*
X215575Y70446D01*
X215918Y69934D01*
X254650Y31201D01*
X254900Y30933D01*
X255078Y30711D01*
X255212Y30520D01*
Y26550D01*
X261536D01*
Y28073D01*
X261625Y28097D01*
X261782Y28123D01*
X261890Y28132D01*
X277675D01*
X277802Y28110D01*
X277903Y28076D01*
X277967Y28042D01*
X278008Y28008D01*
X278042Y27967D01*
X278076Y27903D01*
X278110Y27802D01*
X278132Y27674D01*
Y4016D01*
X278123Y3908D01*
X278097Y3751D01*
X278073Y3662D01*
X276550D01*
Y-2662D01*
X282875D01*
Y3662D01*
X281352D01*
X281328Y3751D01*
X281302Y3908D01*
X281293Y4016D01*
Y27674D01*
X281315Y27802D01*
X281349Y27903D01*
X281384Y27967D01*
X281417Y28008D01*
X281458Y28042D01*
X281522Y28076D01*
X281624Y28110D01*
X281751Y28132D01*
X337535D01*
X337643Y28123D01*
X337800Y28097D01*
X337889Y28073D01*
Y26550D01*
X344213D01*
Y32875D01*
X337889D01*
Y31352D01*
X337800Y31328D01*
X337643Y31302D01*
X337535Y31293D01*
X261890D01*
X261782Y31302D01*
X261625Y31328D01*
X261536Y31352D01*
Y32875D01*
X257567D01*
X257384Y33003D01*
X256954Y33368D01*
X218616Y71706D01*
Y87965D01*
X218625Y88071D01*
X218651Y88226D01*
X218680Y88333D01*
X218684Y88342D01*
X218733Y88358D01*
X218848Y88380D01*
X218878Y88401D01*
X222166D01*
Y90829D01*
X222255Y90853D01*
X222412Y90879D01*
X222520Y90888D01*
X286571D01*
X286674Y90909D01*
X292910D01*
Y98808D01*
X290600D01*
X290576Y98897D01*
X290550Y99054D01*
X290541Y99162D01*
Y106299D01*
X290550Y106406D01*
X290576Y106560D01*
X290602Y106657D01*
X292482D01*
Y105815D01*
X292583Y105308D01*
X292870Y104878D01*
X297635Y100112D01*
Y99762D01*
X297635Y99755D01*
X297606Y99624D01*
X297550Y99463D01*
X297462Y99274D01*
X297340Y99060D01*
X297182Y98823D01*
X296993Y98573D01*
X296482Y97992D01*
X296175Y97680D01*
X296133Y97616D01*
X295800Y97283D01*
X295280Y96383D01*
X295011Y95378D01*
Y94338D01*
X295280Y93334D01*
X295800Y92433D01*
X296535Y91698D01*
X297436Y91178D01*
X298441Y90909D01*
X299481D01*
X300485Y91178D01*
X301386Y91698D01*
X302121Y92433D01*
X302641Y93334D01*
X302910Y94338D01*
Y95378D01*
X302641Y96383D01*
X302121Y97283D01*
X301788Y97616D01*
X301746Y97680D01*
X301439Y97992D01*
X300928Y98573D01*
X300739Y98823D01*
X300581Y99059D01*
X300459Y99274D01*
X300371Y99463D01*
X300315Y99624D01*
X300287Y99755D01*
X300286Y99762D01*
Y100661D01*
X300185Y101169D01*
X299898Y101599D01*
X295133Y106364D01*
Y108337D01*
X295633Y108472D01*
X295800Y108181D01*
X296535Y107446D01*
X297436Y106926D01*
X298441Y106657D01*
X299481D01*
X300485Y106926D01*
X301386Y107446D01*
X302121Y108181D01*
X302641Y109082D01*
X302910Y110086D01*
Y111126D01*
X302641Y112131D01*
X302121Y113031D01*
X301386Y113767D01*
X300485Y114287D01*
X299481Y114556D01*
X298441D01*
X297436Y114287D01*
X296535Y113767D01*
X295800Y113031D01*
X295633Y112741D01*
X295133Y112875D01*
Y127469D01*
X295032Y127976D01*
X294744Y128406D01*
X283918Y139233D01*
X283488Y139520D01*
X282980Y139621D01*
X267127D01*
Y141457D01*
X260802D01*
Y135133D01*
X267127D01*
Y136970D01*
X282431D01*
X292482Y126919D01*
Y114556D01*
X285011D01*
Y106657D01*
X287319D01*
X287345Y106560D01*
X287371Y106406D01*
X287380Y106299D01*
Y99162D01*
X287371Y99054D01*
X287345Y98897D01*
X287321Y98808D01*
X285011D01*
Y94109D01*
X284920Y94084D01*
X284764Y94058D01*
X284656Y94049D01*
X222520D01*
X222412Y94058D01*
X222255Y94084D01*
X222166Y94108D01*
Y96536D01*
X211905D01*
Y94108D01*
X211816Y94084D01*
X211659Y94058D01*
X211551Y94049D01*
X210321D01*
X208192Y96178D01*
Y202451D01*
X208071Y203056D01*
X207729Y203568D01*
X206630Y204667D01*
Y260430D01*
X206653Y260558D01*
X206686Y260659D01*
X206721Y260723D01*
X206755Y260764D01*
X206796Y260798D01*
X206860Y260832D01*
X206961Y260866D01*
X207088Y260888D01*
X211708D01*
X211859Y260877D01*
X212069Y260848D01*
X212226Y260813D01*
X212260Y260801D01*
X212419Y260417D01*
X213071Y259567D01*
X213921Y258915D01*
X214911Y258506D01*
X215972Y258366D01*
X218098D01*
X219160Y258506D01*
X220150Y258915D01*
X221000Y259567D01*
X221652Y260417D01*
X222061Y261407D01*
X222201Y262469D01*
X222061Y263530D01*
X221652Y264520D01*
X221000Y265370D01*
X220150Y266022D01*
X219160Y266431D01*
X218098Y266571D01*
X215972D01*
X214911Y266431D01*
X213921Y266022D01*
X213071Y265370D01*
X212419Y264520D01*
X212260Y264136D01*
X212226Y264124D01*
X212082Y264092D01*
X211667Y264049D01*
X207088D01*
X206961Y264071D01*
X206860Y264105D01*
X206796Y264140D01*
X206755Y264173D01*
X206721Y264214D01*
X206686Y264278D01*
X206653Y264379D01*
X206630Y264507D01*
Y277705D01*
X211190Y282265D01*
X211718Y282086D01*
X211815Y281354D01*
X212245Y280316D01*
X212929Y279425D01*
X213820Y278741D01*
X214858Y278311D01*
X215972Y278164D01*
X216535D01*
Y282469D01*
Y286773D01*
X216406D01*
X216199Y287273D01*
X226690Y297764D01*
X229175D01*
X229780Y297885D01*
X230292Y298227D01*
X251278Y319213D01*
X251620Y319726D01*
X251741Y320330D01*
Y326339D01*
X251620Y326944D01*
X251278Y327456D01*
X250370Y328364D01*
X249857Y328707D01*
X249252Y328827D01*
D02*
G37*
G36*
X315955Y284253D02*
X314967D01*
X314012Y283997D01*
X313156Y283503D01*
X312458Y282804D01*
X311964Y281948D01*
X311708Y280994D01*
Y280006D01*
X311964Y279051D01*
X312458Y278196D01*
X313156Y277497D01*
X314012Y277003D01*
X314967Y276747D01*
X315955D01*
X316909Y277003D01*
X317765Y277497D01*
X318464Y278196D01*
X318958Y279051D01*
X319213Y280006D01*
Y280994D01*
X318958Y281948D01*
X318464Y282804D01*
X317765Y283503D01*
X316909Y283997D01*
X315955Y284253D01*
D02*
G37*
G36*
X255955D02*
X254967D01*
X254012Y283997D01*
X253156Y283503D01*
X252458Y282804D01*
X251964Y281948D01*
X251708Y280994D01*
Y280006D01*
X251964Y279051D01*
X252458Y278196D01*
X253156Y277497D01*
X254012Y277003D01*
X254967Y276747D01*
X255955D01*
X256909Y277003D01*
X257765Y277497D01*
X258464Y278196D01*
X258958Y279051D01*
X259213Y280006D01*
Y280994D01*
X258958Y281948D01*
X258464Y282804D01*
X257765Y283503D01*
X256909Y283997D01*
X255955Y284253D01*
D02*
G37*
G36*
X104893Y282206D02*
X104060D01*
X103256Y281990D01*
X102535Y281574D01*
X101946Y280985D01*
X101530Y280264D01*
X101314Y279460D01*
Y278627D01*
X101530Y277823D01*
X101946Y277102D01*
X102535Y276513D01*
X103256Y276097D01*
X104060Y275881D01*
X104893D01*
X105697Y276097D01*
X106418Y276513D01*
X107007Y277102D01*
X107423Y277823D01*
X107639Y278627D01*
Y279460D01*
X107423Y280264D01*
X107007Y280985D01*
X106418Y281574D01*
X105697Y281990D01*
X104893Y282206D01*
D02*
G37*
G36*
X67639D02*
X61314D01*
Y275881D01*
X67639D01*
Y282206D01*
D02*
G37*
G36*
X359772Y277871D02*
Y275606D01*
X362036D01*
X361881Y276187D01*
X361512Y276825D01*
X360991Y277347D01*
X360352Y277715D01*
X359772Y277871D01*
D02*
G37*
G36*
X358772D02*
X358191Y277715D01*
X357552Y277347D01*
X357031Y276825D01*
X356663Y276187D01*
X356507Y275606D01*
X358772D01*
Y277871D01*
D02*
G37*
G36*
X347961D02*
Y275606D01*
X350225D01*
X350070Y276187D01*
X349701Y276825D01*
X349180Y277347D01*
X348541Y277715D01*
X347961Y277871D01*
D02*
G37*
G36*
X346961D02*
X346380Y277715D01*
X345741Y277347D01*
X345220Y276825D01*
X344851Y276187D01*
X344696Y275606D01*
X346961D01*
Y277871D01*
D02*
G37*
G36*
X181772Y276871D02*
Y274606D01*
X184036D01*
X183881Y275187D01*
X183512Y275826D01*
X182991Y276347D01*
X182352Y276715D01*
X181772Y276871D01*
D02*
G37*
G36*
X180772D02*
X180191Y276715D01*
X179552Y276347D01*
X179031Y275826D01*
X178663Y275187D01*
X178507Y274606D01*
X180772D01*
Y276871D01*
D02*
G37*
G36*
X169961D02*
Y274606D01*
X172225D01*
X172070Y275187D01*
X171701Y275826D01*
X171180Y276347D01*
X170541Y276715D01*
X169961Y276871D01*
D02*
G37*
G36*
X168961D02*
X168380Y276715D01*
X167741Y276347D01*
X167220Y275826D01*
X166851Y275187D01*
X166696Y274606D01*
X168961D01*
Y276871D01*
D02*
G37*
G36*
X218098Y276773D02*
X217535D01*
Y272969D01*
X222337D01*
X222256Y273583D01*
X221826Y274621D01*
X221142Y275512D01*
X220251Y276196D01*
X219213Y276626D01*
X218098Y276773D01*
D02*
G37*
G36*
X216535D02*
X215972D01*
X214858Y276626D01*
X213820Y276196D01*
X212929Y275512D01*
X212245Y274621D01*
X211815Y273583D01*
X211734Y272969D01*
X216535D01*
Y276773D01*
D02*
G37*
G36*
X362036Y274606D02*
X359772D01*
Y272341D01*
X360352Y272497D01*
X360991Y272866D01*
X361512Y273387D01*
X361881Y274026D01*
X362036Y274606D01*
D02*
G37*
G36*
X358772D02*
X356507D01*
X356663Y274026D01*
X357031Y273387D01*
X357552Y272866D01*
X358191Y272497D01*
X358772Y272341D01*
Y274606D01*
D02*
G37*
G36*
X350225D02*
X347961D01*
Y272341D01*
X348541Y272497D01*
X349180Y272866D01*
X349701Y273387D01*
X350070Y274026D01*
X350225Y274606D01*
D02*
G37*
G36*
X346961D02*
X344696D01*
X344851Y274026D01*
X345220Y273387D01*
X345741Y272866D01*
X346380Y272497D01*
X346961Y272341D01*
Y274606D01*
D02*
G37*
G36*
X313855Y327284D02*
X312815D01*
X311810Y327015D01*
X310910Y326495D01*
X310174Y325760D01*
X309654Y324859D01*
X309385Y323855D01*
Y322815D01*
X309654Y321810D01*
X310174Y320910D01*
X310507Y320577D01*
X310549Y320513D01*
X310857Y320201D01*
X311367Y319620D01*
X311556Y319370D01*
X311714Y319133D01*
X311836Y318919D01*
X311924Y318730D01*
X311980Y318569D01*
X312009Y318438D01*
X312009Y318431D01*
Y312899D01*
X270935Y271826D01*
X260043D01*
X259923Y271851D01*
X259774Y271901D01*
X259601Y271980D01*
X259404Y272090D01*
X259187Y272232D01*
X258959Y272403D01*
X258426Y272868D01*
X258142Y273148D01*
X258078Y273190D01*
X257765Y273503D01*
X256909Y273997D01*
X255955Y274253D01*
X254967D01*
X254012Y273997D01*
X253156Y273503D01*
X252843Y273190D01*
X252780Y273148D01*
X252495Y272868D01*
X251962Y272403D01*
X251734Y272232D01*
X251517Y272090D01*
X251321Y271979D01*
X251147Y271901D01*
X250998Y271851D01*
X250878Y271826D01*
X247354D01*
X246847Y271725D01*
X246417Y271437D01*
X239523Y264544D01*
X239236Y264113D01*
X239135Y263606D01*
Y158037D01*
X234892Y153794D01*
X222074D01*
X222003Y153799D01*
X221947Y153808D01*
X221652Y154520D01*
X221000Y155370D01*
X220150Y156022D01*
X219160Y156431D01*
X218098Y156571D01*
X215972D01*
X214911Y156431D01*
X213921Y156022D01*
X213071Y155370D01*
X212419Y154520D01*
X212009Y153530D01*
X211870Y152469D01*
X212009Y151407D01*
X212419Y150417D01*
X213071Y149567D01*
X213921Y148915D01*
X214911Y148505D01*
X215972Y148366D01*
X218098D01*
X219160Y148505D01*
X220150Y148915D01*
X221000Y149567D01*
X221652Y150417D01*
X221947Y151129D01*
X222003Y151137D01*
X222074Y151143D01*
X235441D01*
X235948Y151244D01*
X236378Y151531D01*
X241398Y156551D01*
X241685Y156981D01*
X241786Y157488D01*
Y263057D01*
X247903Y269175D01*
X250878D01*
X250998Y269149D01*
X251147Y269099D01*
X251321Y269020D01*
X251517Y268911D01*
X251734Y268768D01*
X251962Y268598D01*
X252495Y268132D01*
X252780Y267852D01*
X252843Y267810D01*
X253156Y267497D01*
X254012Y267003D01*
X254967Y266747D01*
X255955D01*
X256909Y267003D01*
X257765Y267497D01*
X258078Y267810D01*
X258142Y267852D01*
X258426Y268132D01*
X258959Y268598D01*
X259187Y268768D01*
X259404Y268911D01*
X259601Y269021D01*
X259774Y269099D01*
X259923Y269149D01*
X260043Y269175D01*
X271484D01*
X271991Y269275D01*
X272422Y269563D01*
X314272Y311413D01*
X314559Y311843D01*
X314660Y312350D01*
Y318431D01*
X314661Y318438D01*
X314689Y318569D01*
X314745Y318730D01*
X314833Y318919D01*
X314955Y319133D01*
X315113Y319370D01*
X315302Y319620D01*
X315813Y320201D01*
X316120Y320513D01*
X316162Y320577D01*
X316495Y320910D01*
X317015Y321810D01*
X317284Y322815D01*
Y323855D01*
X317015Y324859D01*
X316495Y325760D01*
X315760Y326495D01*
X314859Y327015D01*
X313855Y327284D01*
D02*
G37*
G36*
X184036Y273606D02*
X181772D01*
Y271341D01*
X182352Y271497D01*
X182991Y271866D01*
X183512Y272387D01*
X183881Y273025D01*
X184036Y273606D01*
D02*
G37*
G36*
X180772D02*
X178507D01*
X178663Y273025D01*
X179031Y272387D01*
X179552Y271866D01*
X180191Y271497D01*
X180772Y271341D01*
Y273606D01*
D02*
G37*
G36*
X172225D02*
X169961D01*
Y271341D01*
X170541Y271497D01*
X171180Y271866D01*
X171701Y272387D01*
X172070Y273025D01*
X172225Y273606D01*
D02*
G37*
G36*
X168961D02*
X166696D01*
X166851Y273025D01*
X167220Y272387D01*
X167741Y271866D01*
X168380Y271497D01*
X168961Y271341D01*
Y273606D01*
D02*
G37*
G36*
X36933Y279134D02*
X26591D01*
Y268791D01*
X26944D01*
X28629Y269058D01*
X30253Y269586D01*
X31773Y270360D01*
X33154Y271364D01*
X34361Y272570D01*
X35364Y273951D01*
X36139Y275472D01*
X36666Y277095D01*
X36933Y278781D01*
Y279134D01*
D02*
G37*
G36*
X25591D02*
X15248D01*
Y278781D01*
X15515Y277095D01*
X16042Y275472D01*
X16817Y273951D01*
X17820Y272570D01*
X19027Y271364D01*
X20408Y270360D01*
X21928Y269586D01*
X23552Y269058D01*
X25237Y268791D01*
X25591D01*
Y279134D01*
D02*
G37*
G36*
X53238Y275906D02*
X52250D01*
X51296Y275651D01*
X50440Y275156D01*
X49741Y274458D01*
X49247Y273602D01*
X48991Y272648D01*
Y271659D01*
X49247Y270705D01*
X49741Y269849D01*
X50440Y269151D01*
X51296Y268656D01*
X52250Y268401D01*
X53238D01*
X54193Y268656D01*
X55048Y269151D01*
X55747Y269849D01*
X56241Y270705D01*
X56497Y271659D01*
Y272648D01*
X56241Y273602D01*
X55747Y274458D01*
X55048Y275156D01*
X54193Y275651D01*
X53238Y275906D01*
D02*
G37*
G36*
X46497D02*
X38991D01*
Y268401D01*
X46497D01*
Y275906D01*
D02*
G37*
G36*
X158098Y276571D02*
X155972D01*
X154911Y276431D01*
X153921Y276022D01*
X153071Y275370D01*
X152419Y274520D01*
X152009Y273530D01*
X151870Y272468D01*
X152009Y271407D01*
X152419Y270417D01*
X153071Y269567D01*
X153921Y268915D01*
X154911Y268506D01*
X155972Y268366D01*
X158098D01*
X159160Y268506D01*
X160150Y268915D01*
X161000Y269567D01*
X161652Y270417D01*
X162061Y271407D01*
X162201Y272468D01*
X162061Y273530D01*
X161652Y274520D01*
X161000Y275370D01*
X160150Y276022D01*
X159160Y276431D01*
X158098Y276571D01*
D02*
G37*
G36*
X222337Y271969D02*
X217535D01*
Y268164D01*
X218098D01*
X219213Y268311D01*
X220251Y268741D01*
X221142Y269425D01*
X221826Y270316D01*
X222256Y271354D01*
X222337Y271969D01*
D02*
G37*
G36*
X216535D02*
X211734D01*
X211815Y271354D01*
X212245Y270316D01*
X212929Y269425D01*
X213820Y268741D01*
X214858Y268311D01*
X215972Y268164D01*
X216535D01*
Y271969D01*
D02*
G37*
G36*
X315955Y274253D02*
X314967D01*
X314012Y273997D01*
X313156Y273503D01*
X312458Y272804D01*
X311964Y271949D01*
X311708Y270994D01*
Y270006D01*
X311964Y269052D01*
X312458Y268196D01*
X313156Y267497D01*
X314012Y267003D01*
X314967Y266747D01*
X315955D01*
X316909Y267003D01*
X317765Y267497D01*
X318464Y268196D01*
X318958Y269052D01*
X319213Y270006D01*
Y270994D01*
X318958Y271949D01*
X318464Y272804D01*
X317765Y273503D01*
X316909Y273997D01*
X315955Y274253D01*
D02*
G37*
G36*
X359772Y266060D02*
Y263795D01*
X362036D01*
X361881Y264376D01*
X361512Y265015D01*
X360991Y265536D01*
X360352Y265904D01*
X359772Y266060D01*
D02*
G37*
G36*
X358772D02*
X358191Y265904D01*
X357552Y265536D01*
X357031Y265015D01*
X356663Y264376D01*
X356507Y263795D01*
X358772D01*
Y266060D01*
D02*
G37*
G36*
X347961D02*
Y263795D01*
X350225D01*
X350070Y264376D01*
X349701Y265015D01*
X349180Y265536D01*
X348541Y265904D01*
X347961Y266060D01*
D02*
G37*
G36*
X346961D02*
X346380Y265904D01*
X345741Y265536D01*
X345220Y265015D01*
X344851Y264376D01*
X344696Y263795D01*
X346961D01*
Y266060D01*
D02*
G37*
G36*
X181772Y265060D02*
Y262795D01*
X184036D01*
X183881Y263376D01*
X183512Y264015D01*
X182991Y264536D01*
X182352Y264904D01*
X181772Y265060D01*
D02*
G37*
G36*
X180772D02*
X180191Y264904D01*
X179552Y264536D01*
X179031Y264015D01*
X178663Y263376D01*
X178507Y262795D01*
X180772D01*
Y265060D01*
D02*
G37*
G36*
X169961D02*
Y262795D01*
X172225D01*
X172070Y263376D01*
X171701Y264015D01*
X171180Y264536D01*
X170541Y264904D01*
X169961Y265060D01*
D02*
G37*
G36*
X168961D02*
X168380Y264904D01*
X167741Y264536D01*
X167220Y264015D01*
X166851Y263376D01*
X166696Y262795D01*
X168961D01*
Y265060D01*
D02*
G37*
G36*
X3090Y273544D02*
X1847D01*
X627Y273302D01*
X-521Y272826D01*
X-1555Y272135D01*
X-2434Y271256D01*
X-3125Y270222D01*
X-3601Y269073D01*
X-3843Y267854D01*
Y266611D01*
X-3601Y265391D01*
X-3125Y264243D01*
X-2434Y263209D01*
X-1555Y262330D01*
X-521Y261639D01*
X627Y261163D01*
X1847Y260921D01*
X3090D01*
X4310Y261163D01*
X5458Y261639D01*
X6492Y262330D01*
X7371Y263209D01*
X8062Y264243D01*
X8538Y265391D01*
X8780Y266611D01*
Y267854D01*
X8538Y269073D01*
X8062Y270222D01*
X7371Y271256D01*
X6492Y272135D01*
X5458Y272826D01*
X4310Y273302D01*
X3090Y273544D01*
D02*
G37*
G36*
X362036Y262795D02*
X359772D01*
Y260530D01*
X360352Y260686D01*
X360991Y261055D01*
X361512Y261576D01*
X361881Y262214D01*
X362036Y262795D01*
D02*
G37*
G36*
X358772D02*
X356507D01*
X356663Y262214D01*
X357031Y261576D01*
X357552Y261055D01*
X358191Y260686D01*
X358772Y260530D01*
Y262795D01*
D02*
G37*
G36*
X350225D02*
X347961D01*
Y260530D01*
X348541Y260686D01*
X349180Y261055D01*
X349701Y261576D01*
X350070Y262214D01*
X350225Y262795D01*
D02*
G37*
G36*
X346961D02*
X344696D01*
X344851Y262214D01*
X345220Y261576D01*
X345741Y261055D01*
X346380Y260686D01*
X346961Y260530D01*
Y262795D01*
D02*
G37*
G36*
X184036Y261795D02*
X181772D01*
Y259530D01*
X182352Y259686D01*
X182991Y260055D01*
X183512Y260576D01*
X183881Y261214D01*
X184036Y261795D01*
D02*
G37*
G36*
X180772D02*
X178507D01*
X178663Y261214D01*
X179031Y260576D01*
X179552Y260055D01*
X180191Y259686D01*
X180772Y259530D01*
Y261795D01*
D02*
G37*
G36*
X172225D02*
X169961D01*
Y259530D01*
X170541Y259686D01*
X171180Y260055D01*
X171701Y260576D01*
X172070Y261214D01*
X172225Y261795D01*
D02*
G37*
G36*
X168961D02*
X166696D01*
X166851Y261214D01*
X167220Y260576D01*
X167741Y260055D01*
X168380Y259686D01*
X168961Y259530D01*
Y261795D01*
D02*
G37*
G36*
X158098Y266571D02*
X155972D01*
X154911Y266431D01*
X153921Y266022D01*
X153071Y265370D01*
X152419Y264520D01*
X152009Y263530D01*
X151870Y262469D01*
X152009Y261407D01*
X152419Y260417D01*
X153071Y259567D01*
X153921Y258915D01*
X154911Y258506D01*
X155972Y258366D01*
X158098D01*
X159160Y258506D01*
X160150Y258915D01*
X161000Y259567D01*
X161652Y260417D01*
X162061Y261407D01*
X162201Y262469D01*
X162061Y263530D01*
X161652Y264520D01*
X161000Y265370D01*
X160150Y266022D01*
X159160Y266431D01*
X158098Y266571D01*
D02*
G37*
G36*
X315955Y264253D02*
X314967D01*
X314012Y263997D01*
X313156Y263503D01*
X312458Y262804D01*
X311964Y261948D01*
X311708Y260994D01*
Y260006D01*
X311964Y259051D01*
X312458Y258196D01*
X313156Y257497D01*
X314012Y257003D01*
X314967Y256747D01*
X315955D01*
X316909Y257003D01*
X317765Y257497D01*
X318464Y258196D01*
X318958Y259051D01*
X319213Y260006D01*
Y260994D01*
X318958Y261948D01*
X318464Y262804D01*
X317765Y263503D01*
X316909Y263997D01*
X315955Y264253D01*
D02*
G37*
G36*
X255955D02*
X254967D01*
X254012Y263997D01*
X253156Y263503D01*
X252458Y262804D01*
X251964Y261948D01*
X251708Y260994D01*
Y260006D01*
X251964Y259051D01*
X252458Y258196D01*
X253156Y257497D01*
X254012Y257003D01*
X254967Y256747D01*
X255955D01*
X256909Y257003D01*
X257765Y257497D01*
X258464Y258196D01*
X258958Y259051D01*
X259213Y260006D01*
Y260994D01*
X258958Y261948D01*
X258464Y262804D01*
X257765Y263503D01*
X256909Y263997D01*
X255955Y264253D01*
D02*
G37*
G36*
X255981Y254453D02*
X255961D01*
Y251000D01*
X259413D01*
Y251020D01*
X259144Y252026D01*
X258624Y252927D01*
X257888Y253663D01*
X256986Y254183D01*
X255981Y254453D01*
D02*
G37*
G36*
X254961D02*
X254940D01*
X253935Y254183D01*
X253034Y253663D01*
X252298Y252927D01*
X251777Y252026D01*
X251508Y251020D01*
Y251000D01*
X254961D01*
Y254453D01*
D02*
G37*
G36*
X218098Y256571D02*
X215972D01*
X214911Y256432D01*
X213921Y256022D01*
X213071Y255370D01*
X212419Y254520D01*
X212009Y253530D01*
X211870Y252468D01*
X212009Y251407D01*
X212419Y250417D01*
X213071Y249567D01*
X213921Y248915D01*
X214911Y248505D01*
X215972Y248366D01*
X218098D01*
X219160Y248505D01*
X220150Y248915D01*
X221000Y249567D01*
X221652Y250417D01*
X222061Y251407D01*
X222201Y252468D01*
X222061Y253530D01*
X221652Y254520D01*
X221000Y255370D01*
X220150Y256022D01*
X219160Y256432D01*
X218098Y256571D01*
D02*
G37*
G36*
X158098D02*
X155972D01*
X154911Y256432D01*
X153921Y256022D01*
X153071Y255370D01*
X152419Y254520D01*
X152009Y253530D01*
X151870Y252468D01*
X152009Y251407D01*
X152419Y250417D01*
X153071Y249567D01*
X153921Y248915D01*
X154911Y248505D01*
X155972Y248366D01*
X158098D01*
X159160Y248505D01*
X160150Y248915D01*
X161000Y249567D01*
X161652Y250417D01*
X162061Y251407D01*
X162201Y252468D01*
X162061Y253530D01*
X161652Y254520D01*
X161000Y255370D01*
X160150Y256022D01*
X159160Y256432D01*
X158098Y256571D01*
D02*
G37*
G36*
X315955Y254253D02*
X314967D01*
X314012Y253997D01*
X313156Y253503D01*
X312458Y252804D01*
X311964Y251948D01*
X311708Y250994D01*
Y250006D01*
X311964Y249051D01*
X312458Y248196D01*
X313156Y247497D01*
X314012Y247003D01*
X314967Y246747D01*
X315955D01*
X316909Y247003D01*
X317765Y247497D01*
X318464Y248196D01*
X318958Y249051D01*
X319213Y250006D01*
Y250994D01*
X318958Y251948D01*
X318464Y252804D01*
X317765Y253503D01*
X316909Y253997D01*
X315955Y254253D01*
D02*
G37*
G36*
X259413Y250000D02*
X255961D01*
Y246547D01*
X255981D01*
X256986Y246817D01*
X257888Y247337D01*
X258624Y248073D01*
X259144Y248974D01*
X259413Y249980D01*
Y250000D01*
D02*
G37*
G36*
X254961D02*
X251508D01*
Y249980D01*
X251777Y248974D01*
X252298Y248073D01*
X253034Y247337D01*
X253935Y246817D01*
X254940Y246547D01*
X254961D01*
Y250000D01*
D02*
G37*
G36*
X90850Y246776D02*
X90803D01*
Y243126D01*
X94453D01*
Y243172D01*
X94170Y244228D01*
X93624Y245174D01*
X92851Y245947D01*
X91905Y246493D01*
X90850Y246776D01*
D02*
G37*
G36*
X89803D02*
X89757D01*
X88701Y246493D01*
X87755Y245947D01*
X86983Y245174D01*
X86436Y244228D01*
X86154Y243172D01*
Y243126D01*
X89803D01*
Y246776D01*
D02*
G37*
G36*
X16461Y244371D02*
Y242106D01*
X18725D01*
X18570Y242687D01*
X18201Y243325D01*
X17680Y243847D01*
X17041Y244215D01*
X16461Y244371D01*
D02*
G37*
G36*
X15461D02*
X14880Y244215D01*
X14241Y243847D01*
X13720Y243325D01*
X13351Y242687D01*
X13196Y242106D01*
X15461D01*
Y244371D01*
D02*
G37*
G36*
X4650D02*
Y242106D01*
X6914D01*
X6759Y242687D01*
X6390Y243325D01*
X5869Y243847D01*
X5230Y244215D01*
X4650Y244371D01*
D02*
G37*
G36*
X3650D02*
X3069Y244215D01*
X2430Y243847D01*
X1909Y243325D01*
X1540Y242687D01*
X1385Y242106D01*
X3650D01*
Y244371D01*
D02*
G37*
G36*
X18725Y241106D02*
X16461D01*
Y238842D01*
X17041Y238997D01*
X17680Y239366D01*
X18201Y239887D01*
X18570Y240526D01*
X18725Y241106D01*
D02*
G37*
G36*
X15461D02*
X13196D01*
X13351Y240526D01*
X13720Y239887D01*
X14241Y239366D01*
X14880Y238997D01*
X15461Y238842D01*
Y241106D01*
D02*
G37*
G36*
X6914D02*
X4650D01*
Y238842D01*
X5230Y238997D01*
X5869Y239366D01*
X6390Y239887D01*
X6759Y240526D01*
X6914Y241106D01*
D02*
G37*
G36*
X3650D02*
X1385D01*
X1540Y240526D01*
X1909Y239887D01*
X2430Y239366D01*
X3069Y238997D01*
X3650Y238842D01*
Y241106D01*
D02*
G37*
G36*
X60823Y246576D02*
X59783D01*
X58779Y246306D01*
X57878Y245786D01*
X57143Y245051D01*
X56623Y244150D01*
X56353Y243146D01*
Y242106D01*
X56623Y241102D01*
X57143Y240201D01*
X57878Y239465D01*
X58779Y238946D01*
X59783Y238676D01*
X60823D01*
X61828Y238946D01*
X62728Y239465D01*
X63464Y240201D01*
X63984Y241102D01*
X64253Y242106D01*
Y243146D01*
X63984Y244150D01*
X63464Y245051D01*
X62728Y245786D01*
X61828Y246306D01*
X60823Y246576D01*
D02*
G37*
G36*
X87503Y355040D02*
X86411D01*
X85356Y354758D01*
X84411Y354212D01*
X83639Y353440D01*
X83093Y352494D01*
X82810Y351440D01*
Y350348D01*
X83093Y349293D01*
X83639Y348348D01*
X83988Y347999D01*
X84026Y347938D01*
X84264Y347691D01*
X84458Y347463D01*
X84626Y347237D01*
X84767Y347013D01*
X84884Y346792D01*
X84978Y346572D01*
X85049Y346354D01*
X85100Y346136D01*
X85121Y345979D01*
Y279201D01*
X85261Y278499D01*
X85659Y277903D01*
X98468Y265094D01*
Y256934D01*
X98430Y256721D01*
X98372Y256545D01*
X98302Y256416D01*
X98224Y256320D01*
X98127Y256241D01*
X97998Y256172D01*
X97822Y256113D01*
X97609Y256075D01*
X34595D01*
X33892Y255936D01*
X33297Y255538D01*
X26663Y248904D01*
X26265Y248309D01*
X26125Y247606D01*
Y158721D01*
X13441Y146036D01*
X3115D01*
X2979Y146054D01*
X2773Y146099D01*
X2569Y146162D01*
X2368Y146244D01*
X2167Y146346D01*
X1967Y146470D01*
X1766Y146615D01*
X1565Y146784D01*
X1345Y146994D01*
X1285Y147033D01*
X957Y147361D01*
X56Y147881D01*
X-948Y148150D01*
X-1988D01*
X-2993Y147881D01*
X-3894Y147361D01*
X-4629Y146626D01*
X-5149Y145725D01*
X-5418Y144721D01*
Y143681D01*
X-5149Y142676D01*
X-4629Y141776D01*
X-4300Y141447D01*
X-4262Y141387D01*
X-4052Y141168D01*
X-3883Y140966D01*
X-3737Y140766D01*
X-3614Y140565D01*
X-3512Y140364D01*
X-3430Y140163D01*
X-3366Y139960D01*
X-3321Y139753D01*
X-3304Y139618D01*
Y138784D01*
X-3321Y138649D01*
X-3366Y138442D01*
X-3430Y138239D01*
X-3512Y138037D01*
X-3614Y137837D01*
X-3738Y137636D01*
X-3883Y137435D01*
X-4052Y137234D01*
X-4262Y137014D01*
X-4300Y136955D01*
X-4629Y136626D01*
X-5149Y135725D01*
X-5418Y134721D01*
Y133681D01*
X-5149Y132676D01*
X-4629Y131776D01*
X-4300Y131447D01*
X-4262Y131387D01*
X-4052Y131168D01*
X-3883Y130966D01*
X-3737Y130766D01*
X-3614Y130565D01*
X-3512Y130364D01*
X-3430Y130163D01*
X-3366Y129960D01*
X-3321Y129753D01*
X-3304Y129618D01*
Y128883D01*
X-3318Y128717D01*
X-3357Y128485D01*
X-3403Y128311D01*
X-3449Y128197D01*
X-3478Y128150D01*
X-5418D01*
Y120251D01*
X2481D01*
Y122191D01*
X2528Y122220D01*
X2641Y122266D01*
X2816Y122313D01*
X3047Y122351D01*
X3213Y122365D01*
X71039D01*
X80847Y112557D01*
X81190Y112188D01*
X81439Y111878D01*
X81630Y111604D01*
X81672Y111531D01*
Y103672D01*
X84036D01*
X84218Y103653D01*
X84287Y103629D01*
X84347Y103589D01*
X84421Y103509D01*
X84509Y103365D01*
X84600Y103143D01*
X84681Y102841D01*
X84744Y102461D01*
X84769Y102182D01*
Y28174D01*
X84744Y27964D01*
X84704Y27743D01*
X84655Y27549D01*
X84599Y27382D01*
X84537Y27241D01*
X84472Y27125D01*
X84406Y27031D01*
X84304Y26918D01*
X84274Y26867D01*
X83954Y26547D01*
X83434Y25646D01*
X83165Y24642D01*
Y23602D01*
X83434Y22598D01*
X83954Y21697D01*
X84689Y20962D01*
X85590Y20442D01*
X86594Y20173D01*
X87634D01*
X88639Y20442D01*
X89539Y20962D01*
X90275Y21697D01*
X90795Y22598D01*
X91064Y23602D01*
Y24642D01*
X90795Y25646D01*
X90275Y26547D01*
X89955Y26867D01*
X89925Y26918D01*
X89823Y27031D01*
X89756Y27125D01*
X89691Y27241D01*
X89630Y27382D01*
X89574Y27549D01*
X89525Y27743D01*
X89486Y27953D01*
X89459Y28246D01*
Y102182D01*
X89484Y102461D01*
X89547Y102841D01*
X89628Y103143D01*
X89719Y103365D01*
X89808Y103509D01*
X89882Y103589D01*
X89942Y103629D01*
X90010Y103653D01*
X90192Y103672D01*
X92328D01*
Y114328D01*
X84469D01*
X84396Y114370D01*
X84131Y114555D01*
X83539Y115057D01*
X73441Y125154D01*
X73211Y125498D01*
X72616Y125896D01*
X71913Y126036D01*
X3213D01*
X3047Y126051D01*
X2816Y126089D01*
X2641Y126136D01*
X2528Y126182D01*
X2481Y126210D01*
Y128150D01*
X541D01*
X513Y128197D01*
X466Y128311D01*
X420Y128485D01*
X381Y128717D01*
X367Y128883D01*
Y129618D01*
X384Y129753D01*
X429Y129960D01*
X493Y130163D01*
X575Y130364D01*
X677Y130565D01*
X800Y130766D01*
X946Y130966D01*
X1115Y131168D01*
X1325Y131387D01*
X1363Y131447D01*
X1692Y131776D01*
X2212Y132676D01*
X2481Y133681D01*
Y134721D01*
X2212Y135725D01*
X1692Y136626D01*
X1363Y136955D01*
X1325Y137014D01*
X1115Y137234D01*
X946Y137435D01*
X800Y137636D01*
X677Y137837D01*
X575Y138037D01*
X493Y138239D01*
X429Y138442D01*
X384Y138649D01*
X367Y138784D01*
Y139618D01*
X384Y139753D01*
X429Y139960D01*
X493Y140163D01*
X575Y140364D01*
X677Y140565D01*
X800Y140766D01*
X946Y140966D01*
X1115Y141168D01*
X1325Y141387D01*
X1333Y141399D01*
X1345Y141407D01*
X1564Y141617D01*
X1766Y141786D01*
X1967Y141932D01*
X2167Y142055D01*
X2368Y142157D01*
X2569Y142240D01*
X2773Y142303D01*
X2979Y142348D01*
X3115Y142366D01*
X14201D01*
X14903Y142505D01*
X15498Y142903D01*
X29258Y156663D01*
X29656Y157258D01*
X29796Y157961D01*
Y246846D01*
X35355Y252405D01*
X97609D01*
X97822Y252367D01*
X97998Y252309D01*
X98127Y252239D01*
X98224Y252161D01*
X98302Y252064D01*
X98372Y251935D01*
X98430Y251759D01*
X98468Y251546D01*
Y247308D01*
X98453Y247142D01*
X98415Y246910D01*
X98368Y246736D01*
X98322Y246622D01*
X98294Y246576D01*
X96354D01*
Y238676D01*
X104253D01*
Y246576D01*
X102313D01*
X102284Y246622D01*
X102238Y246736D01*
X102191Y246910D01*
X102153Y247142D01*
X102138Y247308D01*
Y254240D01*
Y265854D01*
X101999Y266557D01*
X101601Y267152D01*
X88792Y279961D01*
Y345979D01*
X88813Y346136D01*
X88864Y346354D01*
X88936Y346572D01*
X89029Y346792D01*
X89146Y347013D01*
X89288Y347237D01*
X89455Y347463D01*
X89649Y347691D01*
X89887Y347938D01*
X89926Y347999D01*
X90275Y348348D01*
X90821Y349293D01*
X91103Y350348D01*
Y351440D01*
X90821Y352494D01*
X90275Y353440D01*
X89503Y354212D01*
X88557Y354758D01*
X87503Y355040D01*
D02*
G37*
G36*
X80823Y246576D02*
X79783D01*
X78779Y246306D01*
X77878Y245786D01*
X77143Y245051D01*
X76623Y244150D01*
X76354Y243146D01*
Y242106D01*
X76623Y241102D01*
X77143Y240201D01*
X77878Y239465D01*
X78779Y238946D01*
X79783Y238676D01*
X80823D01*
X81828Y238946D01*
X82728Y239465D01*
X83464Y240201D01*
X83984Y241102D01*
X84253Y242106D01*
Y243146D01*
X83984Y244150D01*
X83464Y245051D01*
X82728Y245786D01*
X81828Y246306D01*
X80823Y246576D01*
D02*
G37*
G36*
X70823D02*
X69783D01*
X68779Y246306D01*
X67878Y245786D01*
X67143Y245051D01*
X66623Y244150D01*
X66353Y243146D01*
Y242106D01*
X66623Y241102D01*
X67143Y240201D01*
X67878Y239465D01*
X68779Y238946D01*
X69783Y238676D01*
X70823D01*
X71828Y238946D01*
X72728Y239465D01*
X73464Y240201D01*
X73984Y241102D01*
X74253Y242106D01*
Y243146D01*
X73984Y244150D01*
X73464Y245051D01*
X72728Y245786D01*
X71828Y246306D01*
X70823Y246576D01*
D02*
G37*
G36*
X50823D02*
X49783D01*
X48779Y246306D01*
X47878Y245786D01*
X47143Y245051D01*
X46623Y244150D01*
X46354Y243146D01*
Y242106D01*
X46623Y241102D01*
X47143Y240201D01*
X47878Y239465D01*
X48779Y238946D01*
X49783Y238676D01*
X50823D01*
X51828Y238946D01*
X52728Y239465D01*
X53464Y240201D01*
X53984Y241102D01*
X54253Y242106D01*
Y243146D01*
X53984Y244150D01*
X53464Y245051D01*
X52728Y245786D01*
X51828Y246306D01*
X50823Y246576D01*
D02*
G37*
G36*
X94453Y242126D02*
X90803D01*
Y238476D01*
X90850D01*
X91905Y238759D01*
X92851Y239305D01*
X93624Y240078D01*
X94170Y241024D01*
X94453Y242080D01*
Y242126D01*
D02*
G37*
G36*
X89803D02*
X86154D01*
Y242080D01*
X86436Y241024D01*
X86983Y240078D01*
X87755Y239305D01*
X88701Y238759D01*
X89757Y238476D01*
X89803D01*
Y242126D01*
D02*
G37*
G36*
X218098Y246571D02*
X215972D01*
X214911Y246431D01*
X213921Y246022D01*
X213071Y245370D01*
X212419Y244520D01*
X212009Y243530D01*
X211870Y242469D01*
X212009Y241407D01*
X212419Y240417D01*
X213071Y239567D01*
X213921Y238915D01*
X214911Y238506D01*
X215972Y238366D01*
X218098D01*
X219160Y238506D01*
X220150Y238915D01*
X221000Y239567D01*
X221652Y240417D01*
X222061Y241407D01*
X222201Y242469D01*
X222061Y243530D01*
X221652Y244520D01*
X221000Y245370D01*
X220150Y246022D01*
X219160Y246431D01*
X218098Y246571D01*
D02*
G37*
G36*
X107503Y355040D02*
X106411D01*
X105356Y354758D01*
X104411Y354212D01*
X103639Y353440D01*
X103093Y352494D01*
X102810Y351440D01*
Y350348D01*
X103093Y349293D01*
X103639Y348348D01*
X103991Y347995D01*
X104034Y347931D01*
X104368Y347592D01*
X104923Y346964D01*
X105131Y346692D01*
X105305Y346435D01*
X105439Y346203D01*
X105536Y345999D01*
X105598Y345825D01*
X105630Y345685D01*
X105631Y345667D01*
Y337941D01*
X105732Y337434D01*
X106019Y337004D01*
X118269Y324754D01*
Y267232D01*
X118370Y266725D01*
X118657Y266295D01*
X143421Y241531D01*
X143851Y241244D01*
X144358Y241143D01*
X151997D01*
X152068Y241138D01*
X152124Y241129D01*
X152419Y240417D01*
X153071Y239567D01*
X153921Y238915D01*
X154911Y238506D01*
X155972Y238366D01*
X158098D01*
X159160Y238506D01*
X160150Y238915D01*
X161000Y239567D01*
X161652Y240417D01*
X162061Y241407D01*
X162201Y242469D01*
X162061Y243530D01*
X161652Y244520D01*
X161000Y245370D01*
X160150Y246022D01*
X159160Y246431D01*
X158098Y246571D01*
X155972D01*
X154911Y246431D01*
X153921Y246022D01*
X153071Y245370D01*
X152419Y244520D01*
X152124Y243808D01*
X152068Y243799D01*
X151997Y243794D01*
X144907D01*
X120920Y267781D01*
Y325303D01*
X120819Y325810D01*
X120532Y326240D01*
X108282Y338490D01*
Y345667D01*
X108284Y345685D01*
X108315Y345825D01*
X108377Y345999D01*
X108474Y346203D01*
X108609Y346435D01*
X108782Y346692D01*
X108990Y346964D01*
X109545Y347592D01*
X109880Y347931D01*
X109922Y347995D01*
X110275Y348348D01*
X110821Y349293D01*
X111103Y350348D01*
Y351440D01*
X110821Y352494D01*
X110275Y353440D01*
X109503Y354212D01*
X108557Y354758D01*
X107503Y355040D01*
D02*
G37*
G36*
X315955Y244253D02*
X314967D01*
X314012Y243997D01*
X313156Y243503D01*
X312458Y242804D01*
X311964Y241949D01*
X311708Y240994D01*
Y240006D01*
X311964Y239052D01*
X312458Y238196D01*
X313156Y237497D01*
X314012Y237003D01*
X314967Y236747D01*
X315955D01*
X316909Y237003D01*
X317765Y237497D01*
X318464Y238196D01*
X318958Y239052D01*
X319213Y240006D01*
Y240994D01*
X318958Y241949D01*
X318464Y242804D01*
X317765Y243503D01*
X316909Y243997D01*
X315955Y244253D01*
D02*
G37*
G36*
X255955D02*
X254967D01*
X254012Y243997D01*
X253156Y243503D01*
X252458Y242804D01*
X251964Y241949D01*
X251708Y240994D01*
Y240006D01*
X251964Y239052D01*
X252458Y238196D01*
X253156Y237497D01*
X254012Y237003D01*
X254967Y236747D01*
X255955D01*
X256909Y237003D01*
X257765Y237497D01*
X258464Y238196D01*
X258958Y239052D01*
X259213Y240006D01*
Y240994D01*
X258958Y241949D01*
X258464Y242804D01*
X257765Y243503D01*
X256909Y243997D01*
X255955Y244253D01*
D02*
G37*
G36*
X115000Y235765D02*
Y233500D01*
X117265D01*
X117109Y234081D01*
X116741Y234719D01*
X116219Y235241D01*
X115581Y235609D01*
X115000Y235765D01*
D02*
G37*
G36*
X114000D02*
X113419Y235609D01*
X112781Y235241D01*
X112259Y234719D01*
X111891Y234081D01*
X111735Y233500D01*
X114000D01*
Y235765D01*
D02*
G37*
G36*
X16461Y232560D02*
Y230295D01*
X18725D01*
X18570Y230876D01*
X18201Y231515D01*
X17680Y232036D01*
X17041Y232404D01*
X16461Y232560D01*
D02*
G37*
G36*
X15461D02*
X14880Y232404D01*
X14241Y232036D01*
X13720Y231515D01*
X13351Y230876D01*
X13196Y230295D01*
X15461D01*
Y232560D01*
D02*
G37*
G36*
X4650D02*
Y230295D01*
X6914D01*
X6759Y230876D01*
X6390Y231515D01*
X5869Y232036D01*
X5230Y232404D01*
X4650Y232560D01*
D02*
G37*
G36*
X3650D02*
X3069Y232404D01*
X2430Y232036D01*
X1909Y231515D01*
X1540Y230876D01*
X1385Y230295D01*
X3650D01*
Y232560D01*
D02*
G37*
G36*
X117265Y232500D02*
X115000D01*
Y230235D01*
X115581Y230391D01*
X116219Y230759D01*
X116741Y231281D01*
X117109Y231919D01*
X117265Y232500D01*
D02*
G37*
G36*
X114000D02*
X111735D01*
X111891Y231919D01*
X112259Y231281D01*
X112781Y230759D01*
X113419Y230391D01*
X114000Y230235D01*
Y232500D01*
D02*
G37*
G36*
X218098Y236571D02*
X215972D01*
X214911Y236432D01*
X213921Y236022D01*
X213071Y235370D01*
X212419Y234520D01*
X212009Y233530D01*
X211870Y232469D01*
X212009Y231407D01*
X212419Y230417D01*
X213071Y229567D01*
X213921Y228915D01*
X214911Y228505D01*
X215972Y228366D01*
X218098D01*
X219160Y228505D01*
X220150Y228915D01*
X221000Y229567D01*
X221652Y230417D01*
X222061Y231407D01*
X222201Y232469D01*
X222061Y233530D01*
X221652Y234520D01*
X221000Y235370D01*
X220150Y236022D01*
X219160Y236432D01*
X218098Y236571D01*
D02*
G37*
G36*
X97503Y355040D02*
X96411D01*
X95356Y354758D01*
X94411Y354212D01*
X93639Y353440D01*
X93093Y352494D01*
X92810Y351440D01*
Y350348D01*
X93093Y349293D01*
X93639Y348348D01*
X93992Y347995D01*
X94034Y347931D01*
X94368Y347592D01*
X94923Y346964D01*
X95131Y346692D01*
X95305Y346435D01*
X95439Y346203D01*
X95536Y345999D01*
X95598Y345825D01*
X95630Y345685D01*
X95631Y345667D01*
Y340067D01*
X95732Y339560D01*
X96019Y339130D01*
X112364Y322786D01*
Y251000D01*
X112464Y250493D01*
X112752Y250063D01*
X131283Y231531D01*
X131713Y231244D01*
X132220Y231143D01*
X151997D01*
X152068Y231137D01*
X152124Y231129D01*
X152419Y230417D01*
X153071Y229567D01*
X153921Y228915D01*
X154911Y228505D01*
X155972Y228366D01*
X158098D01*
X159160Y228505D01*
X160150Y228915D01*
X161000Y229567D01*
X161652Y230417D01*
X162061Y231407D01*
X162201Y232469D01*
X162061Y233530D01*
X161652Y234520D01*
X161000Y235370D01*
X160150Y236022D01*
X159160Y236432D01*
X158098Y236571D01*
X155972D01*
X154911Y236432D01*
X153921Y236022D01*
X153071Y235370D01*
X152419Y234520D01*
X152124Y233808D01*
X152068Y233800D01*
X151997Y233794D01*
X132770D01*
X115015Y251549D01*
Y323335D01*
X114914Y323842D01*
X114626Y324272D01*
X98282Y340616D01*
Y345667D01*
X98284Y345685D01*
X98315Y345825D01*
X98377Y345999D01*
X98474Y346203D01*
X98609Y346435D01*
X98782Y346692D01*
X98990Y346964D01*
X99545Y347592D01*
X99879Y347931D01*
X99922Y347995D01*
X100275Y348348D01*
X100821Y349293D01*
X101103Y350348D01*
Y351440D01*
X100821Y352494D01*
X100275Y353440D01*
X99503Y354212D01*
X98557Y354758D01*
X97503Y355040D01*
D02*
G37*
G36*
X18725Y229295D02*
X16461D01*
Y227030D01*
X17041Y227186D01*
X17680Y227555D01*
X18201Y228076D01*
X18570Y228714D01*
X18725Y229295D01*
D02*
G37*
G36*
X15461D02*
X13196D01*
X13351Y228714D01*
X13720Y228076D01*
X14241Y227555D01*
X14880Y227186D01*
X15461Y227030D01*
Y229295D01*
D02*
G37*
G36*
X6914D02*
X4650D01*
Y227030D01*
X5230Y227186D01*
X5869Y227555D01*
X6390Y228076D01*
X6759Y228714D01*
X6914Y229295D01*
D02*
G37*
G36*
X3650D02*
X1385D01*
X1540Y228714D01*
X1909Y228076D01*
X2430Y227555D01*
X3069Y227186D01*
X3650Y227030D01*
Y229295D01*
D02*
G37*
G36*
X315955Y234253D02*
X314967D01*
X314012Y233997D01*
X313156Y233503D01*
X312458Y232804D01*
X311964Y231948D01*
X311708Y230994D01*
Y230006D01*
X311964Y229051D01*
X312458Y228196D01*
X313156Y227497D01*
X314012Y227003D01*
X314967Y226747D01*
X315955D01*
X316909Y227003D01*
X317765Y227497D01*
X318464Y228196D01*
X318958Y229051D01*
X319213Y230006D01*
Y230994D01*
X318958Y231948D01*
X318464Y232804D01*
X317765Y233503D01*
X316909Y233997D01*
X315955Y234253D01*
D02*
G37*
G36*
X255955D02*
X254967D01*
X254012Y233997D01*
X253156Y233503D01*
X252458Y232804D01*
X251964Y231948D01*
X251708Y230994D01*
Y230006D01*
X251964Y229051D01*
X252458Y228196D01*
X253156Y227497D01*
X254012Y227003D01*
X254967Y226747D01*
X255955D01*
X256909Y227003D01*
X257765Y227497D01*
X258464Y228196D01*
X258958Y229051D01*
X259213Y230006D01*
Y230994D01*
X258958Y231948D01*
X258464Y232804D01*
X257765Y233503D01*
X256909Y233997D01*
X255955Y234253D01*
D02*
G37*
G36*
X49453Y227091D02*
X45803D01*
Y223441D01*
X49453D01*
Y227091D01*
D02*
G37*
G36*
X44803D02*
X41154D01*
Y223441D01*
X44803D01*
Y227091D01*
D02*
G37*
G36*
X95823Y226890D02*
X94783D01*
X93779Y226621D01*
X92878Y226101D01*
X92143Y225366D01*
X91623Y224465D01*
X91353Y223461D01*
Y222421D01*
X91623Y221416D01*
X92143Y220516D01*
X92878Y219780D01*
X93779Y219261D01*
X94783Y218991D01*
X95823D01*
X96828Y219261D01*
X97728Y219780D01*
X98464Y220516D01*
X98984Y221416D01*
X99253Y222421D01*
Y223461D01*
X98984Y224465D01*
X98464Y225366D01*
X97728Y226101D01*
X96828Y226621D01*
X95823Y226890D01*
D02*
G37*
G36*
X75823D02*
X74783D01*
X73779Y226621D01*
X72878Y226101D01*
X72143Y225366D01*
X71623Y224465D01*
X71354Y223461D01*
Y222421D01*
X71623Y221416D01*
X72143Y220516D01*
X72878Y219780D01*
X73779Y219261D01*
X74783Y218991D01*
X75823D01*
X76828Y219261D01*
X77728Y219780D01*
X78464Y220516D01*
X78984Y221416D01*
X79253Y222421D01*
Y223461D01*
X78984Y224465D01*
X78464Y225366D01*
X77728Y226101D01*
X76828Y226621D01*
X75823Y226890D01*
D02*
G37*
G36*
X65823D02*
X64783D01*
X63779Y226621D01*
X62878Y226101D01*
X62143Y225366D01*
X61623Y224465D01*
X61353Y223461D01*
Y222421D01*
X61623Y221416D01*
X62143Y220516D01*
X62878Y219780D01*
X63779Y219261D01*
X64783Y218991D01*
X65823D01*
X66828Y219261D01*
X67728Y219780D01*
X68464Y220516D01*
X68984Y221416D01*
X69253Y222421D01*
Y223461D01*
X68984Y224465D01*
X68464Y225366D01*
X67728Y226101D01*
X66828Y226621D01*
X65823Y226890D01*
D02*
G37*
G36*
X44803Y222441D02*
X41154D01*
Y218791D01*
X44803D01*
Y222441D01*
D02*
G37*
G36*
X218098Y226571D02*
X215972D01*
X214911Y226431D01*
X213921Y226022D01*
X213071Y225370D01*
X212419Y224520D01*
X212009Y223530D01*
X211870Y222468D01*
X212009Y221407D01*
X212419Y220417D01*
X213071Y219567D01*
X213921Y218915D01*
X214911Y218506D01*
X215972Y218366D01*
X218098D01*
X219160Y218506D01*
X220150Y218915D01*
X221000Y219567D01*
X221652Y220417D01*
X222061Y221407D01*
X222201Y222468D01*
X222061Y223530D01*
X221652Y224520D01*
X221000Y225370D01*
X220150Y226022D01*
X219160Y226431D01*
X218098Y226571D01*
D02*
G37*
G36*
X158098D02*
X155972D01*
X154911Y226431D01*
X153921Y226022D01*
X153071Y225370D01*
X152419Y224520D01*
X152009Y223530D01*
X151870Y222468D01*
X152009Y221407D01*
X152419Y220417D01*
X153071Y219567D01*
X153921Y218915D01*
X154911Y218506D01*
X155972Y218366D01*
X158098D01*
X159160Y218506D01*
X160150Y218915D01*
X161000Y219567D01*
X161652Y220417D01*
X162061Y221407D01*
X162201Y222468D01*
X162061Y223530D01*
X161652Y224520D01*
X161000Y225370D01*
X160150Y226022D01*
X159160Y226431D01*
X158098Y226571D01*
D02*
G37*
G36*
X319213Y224253D02*
X311708D01*
Y216747D01*
X319213D01*
Y224253D01*
D02*
G37*
G36*
X255955D02*
X254967D01*
X254012Y223997D01*
X253156Y223503D01*
X252458Y222804D01*
X251964Y221949D01*
X251708Y220994D01*
Y220006D01*
X251964Y219052D01*
X252458Y218196D01*
X253156Y217497D01*
X254012Y217003D01*
X254967Y216747D01*
X255955D01*
X256909Y217003D01*
X257765Y217497D01*
X258464Y218196D01*
X258958Y219052D01*
X259213Y220006D01*
Y220994D01*
X258958Y221949D01*
X258464Y222804D01*
X257765Y223503D01*
X256909Y223997D01*
X255955Y224253D01*
D02*
G37*
G36*
X290416Y217248D02*
X290370D01*
Y213598D01*
X294020D01*
Y213645D01*
X293737Y214700D01*
X293191Y215646D01*
X292418Y216419D01*
X291472Y216965D01*
X290416Y217248D01*
D02*
G37*
G36*
X289370D02*
X289324D01*
X288268Y216965D01*
X287322Y216419D01*
X286550Y215646D01*
X286003Y214700D01*
X285720Y213645D01*
Y213598D01*
X289370D01*
Y217248D01*
D02*
G37*
G36*
X283977Y217048D02*
X276078D01*
Y209149D01*
X283977D01*
Y217048D01*
D02*
G37*
G36*
X294020Y212598D02*
X290370D01*
Y208949D01*
X290416D01*
X291472Y209232D01*
X292418Y209778D01*
X293191Y210550D01*
X293737Y211497D01*
X294020Y212552D01*
Y212598D01*
D02*
G37*
G36*
X289370D02*
X285720D01*
Y212552D01*
X286003Y211497D01*
X286550Y210550D01*
X287322Y209778D01*
X288268Y209232D01*
X289324Y208949D01*
X289370D01*
Y212598D01*
D02*
G37*
G36*
X-948Y216418D02*
X-1988D01*
X-2993Y216149D01*
X-3894Y215629D01*
X-4629Y214894D01*
X-5149Y213993D01*
X-5418Y212988D01*
Y211948D01*
X-5149Y210944D01*
X-4629Y210043D01*
X-3894Y209308D01*
X-2993Y208788D01*
X-1988Y208519D01*
X-948D01*
X56Y208788D01*
X957Y209308D01*
X1692Y210043D01*
X2212Y210944D01*
X2481Y211948D01*
Y212988D01*
X2212Y213993D01*
X1692Y214894D01*
X957Y215629D01*
X56Y216149D01*
X-948Y216418D01*
D02*
G37*
G36*
X218098Y216571D02*
X215972D01*
X214911Y216431D01*
X213921Y216022D01*
X213071Y215370D01*
X212419Y214520D01*
X212009Y213530D01*
X211870Y212469D01*
X212009Y211407D01*
X212419Y210417D01*
X213071Y209567D01*
X213921Y208915D01*
X214911Y208506D01*
X215972Y208366D01*
X218098D01*
X219160Y208506D01*
X220150Y208915D01*
X221000Y209567D01*
X221652Y210417D01*
X222061Y211407D01*
X222201Y212469D01*
X222061Y213530D01*
X221652Y214520D01*
X221000Y215370D01*
X220150Y216022D01*
X219160Y216431D01*
X218098Y216571D01*
D02*
G37*
G36*
X158098D02*
X155972D01*
X154911Y216431D01*
X153921Y216022D01*
X153071Y215370D01*
X152419Y214520D01*
X152009Y213530D01*
X151870Y212469D01*
X152009Y211407D01*
X152419Y210417D01*
X153071Y209567D01*
X153921Y208915D01*
X154911Y208506D01*
X155972Y208366D01*
X158098D01*
X159160Y208506D01*
X160150Y208915D01*
X161000Y209567D01*
X161652Y210417D01*
X162061Y211407D01*
X162201Y212469D01*
X162061Y213530D01*
X161652Y214520D01*
X161000Y215370D01*
X160150Y216022D01*
X159160Y216431D01*
X158098Y216571D01*
D02*
G37*
G36*
X316961Y203871D02*
Y201606D01*
X319225D01*
X319070Y202187D01*
X318701Y202825D01*
X318180Y203347D01*
X317541Y203715D01*
X316961Y203871D01*
D02*
G37*
G36*
X315961D02*
X315380Y203715D01*
X314741Y203347D01*
X314220Y202825D01*
X313851Y202187D01*
X313696Y201606D01*
X315961D01*
Y203871D01*
D02*
G37*
G36*
X305150D02*
Y201606D01*
X307414D01*
X307259Y202187D01*
X306890Y202825D01*
X306369Y203347D01*
X305730Y203715D01*
X305150Y203871D01*
D02*
G37*
G36*
X304150D02*
X303569Y203715D01*
X302930Y203347D01*
X302409Y202825D01*
X302040Y202187D01*
X301885Y201606D01*
X304150D01*
Y203871D01*
D02*
G37*
G36*
X371611Y208863D02*
X364106D01*
Y201358D01*
X371611D01*
Y208863D01*
D02*
G37*
G36*
X-948Y206418D02*
X-1988D01*
X-2993Y206149D01*
X-3894Y205629D01*
X-4629Y204894D01*
X-5149Y203993D01*
X-5418Y202989D01*
Y201948D01*
X-5149Y200944D01*
X-4629Y200043D01*
X-3894Y199308D01*
X-2993Y198788D01*
X-1988Y198519D01*
X-948D01*
X56Y198788D01*
X957Y199308D01*
X1692Y200043D01*
X2212Y200944D01*
X2481Y201948D01*
Y202989D01*
X2212Y203993D01*
X1692Y204894D01*
X957Y205629D01*
X56Y206149D01*
X-948Y206418D01*
D02*
G37*
G36*
X218098Y206571D02*
X215972D01*
X214911Y206432D01*
X213921Y206022D01*
X213071Y205370D01*
X212419Y204520D01*
X212009Y203530D01*
X211870Y202468D01*
X212009Y201407D01*
X212419Y200417D01*
X213071Y199567D01*
X213921Y198915D01*
X214911Y198505D01*
X215972Y198366D01*
X218098D01*
X219160Y198505D01*
X220150Y198915D01*
X221000Y199567D01*
X221652Y200417D01*
X222061Y201407D01*
X222201Y202468D01*
X222061Y203530D01*
X221652Y204520D01*
X221000Y205370D01*
X220150Y206022D01*
X219160Y206432D01*
X218098Y206571D01*
D02*
G37*
G36*
X158098D02*
X155972D01*
X154911Y206432D01*
X153921Y206022D01*
X153071Y205370D01*
X152419Y204520D01*
X152009Y203530D01*
X151870Y202468D01*
X152009Y201407D01*
X152419Y200417D01*
X153071Y199567D01*
X153921Y198915D01*
X154911Y198505D01*
X155972Y198366D01*
X158098D01*
X159160Y198505D01*
X160150Y198915D01*
X161000Y199567D01*
X161652Y200417D01*
X162061Y201407D01*
X162201Y202468D01*
X162061Y203530D01*
X161652Y204520D01*
X161000Y205370D01*
X160150Y206022D01*
X159160Y206432D01*
X158098Y206571D01*
D02*
G37*
G36*
X319225Y200606D02*
X316961D01*
Y198342D01*
X317541Y198497D01*
X318180Y198866D01*
X318701Y199387D01*
X319070Y200026D01*
X319225Y200606D01*
D02*
G37*
G36*
X315961D02*
X313696D01*
X313851Y200026D01*
X314220Y199387D01*
X314741Y198866D01*
X315380Y198497D01*
X315961Y198342D01*
Y200606D01*
D02*
G37*
G36*
X307414D02*
X305150D01*
Y198342D01*
X305730Y198497D01*
X306369Y198866D01*
X306890Y199387D01*
X307259Y200026D01*
X307414Y200606D01*
D02*
G37*
G36*
X304150D02*
X301885D01*
X302040Y200026D01*
X302409Y199387D01*
X302930Y198866D01*
X303569Y198497D01*
X304150Y198342D01*
Y200606D01*
D02*
G37*
G36*
X368352Y198863D02*
X367364D01*
X366410Y198607D01*
X365554Y198113D01*
X364855Y197415D01*
X364361Y196559D01*
X364106Y195604D01*
Y194616D01*
X364361Y193662D01*
X364855Y192806D01*
X365554Y192107D01*
X366410Y191613D01*
X367364Y191358D01*
X368352D01*
X369307Y191613D01*
X370163Y192107D01*
X370861Y192806D01*
X371355Y193662D01*
X371611Y194616D01*
Y195604D01*
X371355Y196559D01*
X370861Y197415D01*
X370163Y198113D01*
X369307Y198607D01*
X368352Y198863D01*
D02*
G37*
G36*
X345828Y201828D02*
X335172D01*
Y191172D01*
X345828D01*
Y201828D01*
D02*
G37*
G36*
X316961Y192060D02*
Y189795D01*
X319225D01*
X319070Y190376D01*
X318701Y191015D01*
X318180Y191536D01*
X317541Y191904D01*
X316961Y192060D01*
D02*
G37*
G36*
X315961D02*
X315380Y191904D01*
X314741Y191536D01*
X314220Y191015D01*
X313851Y190376D01*
X313696Y189795D01*
X315961D01*
Y192060D01*
D02*
G37*
G36*
X305150D02*
Y189795D01*
X307414D01*
X307259Y190376D01*
X306890Y191015D01*
X306369Y191536D01*
X305730Y191904D01*
X305150Y192060D01*
D02*
G37*
G36*
X304150D02*
X303569Y191904D01*
X302930Y191536D01*
X302409Y191015D01*
X302040Y190376D01*
X301885Y189795D01*
X304150D01*
Y192060D01*
D02*
G37*
G36*
X281546Y197646D02*
X280454D01*
X279399Y197364D01*
X278454Y196818D01*
X277682Y196046D01*
X277136Y195100D01*
X276853Y194046D01*
Y192954D01*
X277136Y191900D01*
X277682Y190954D01*
X278454Y190182D01*
X279399Y189636D01*
X280454Y189354D01*
X281546D01*
X282600Y189636D01*
X283546Y190182D01*
X284318Y190954D01*
X284864Y191900D01*
X285146Y192954D01*
Y194046D01*
X284864Y195100D01*
X284318Y196046D01*
X283546Y196818D01*
X282600Y197364D01*
X281546Y197646D01*
D02*
G37*
G36*
X-948Y196418D02*
X-1988D01*
X-2993Y196149D01*
X-3894Y195629D01*
X-4629Y194894D01*
X-5149Y193993D01*
X-5418Y192989D01*
Y191948D01*
X-5149Y190944D01*
X-4629Y190043D01*
X-3894Y189308D01*
X-2993Y188788D01*
X-1988Y188519D01*
X-948D01*
X56Y188788D01*
X957Y189308D01*
X1692Y190043D01*
X2212Y190944D01*
X2481Y191948D01*
Y192989D01*
X2212Y193993D01*
X1692Y194894D01*
X957Y195629D01*
X56Y196149D01*
X-948Y196418D01*
D02*
G37*
G36*
X218098Y196571D02*
X215972D01*
X214911Y196432D01*
X213921Y196022D01*
X213071Y195370D01*
X212419Y194520D01*
X212009Y193530D01*
X211870Y192469D01*
X212009Y191407D01*
X212419Y190417D01*
X213071Y189567D01*
X213921Y188915D01*
X214911Y188505D01*
X215972Y188366D01*
X218098D01*
X219160Y188505D01*
X220150Y188915D01*
X221000Y189567D01*
X221652Y190417D01*
X222061Y191407D01*
X222201Y192469D01*
X222061Y193530D01*
X221652Y194520D01*
X221000Y195370D01*
X220150Y196022D01*
X219160Y196432D01*
X218098Y196571D01*
D02*
G37*
G36*
X158098D02*
X155972D01*
X154911Y196432D01*
X153921Y196022D01*
X153071Y195370D01*
X152419Y194520D01*
X152009Y193530D01*
X151870Y192469D01*
X152009Y191407D01*
X152419Y190417D01*
X153071Y189567D01*
X153921Y188915D01*
X154911Y188505D01*
X155972Y188366D01*
X158098D01*
X159160Y188505D01*
X160150Y188915D01*
X161000Y189567D01*
X161652Y190417D01*
X162061Y191407D01*
X162201Y192469D01*
X162061Y193530D01*
X161652Y194520D01*
X161000Y195370D01*
X160150Y196022D01*
X159160Y196432D01*
X158098Y196571D01*
D02*
G37*
G36*
X319225Y188795D02*
X316961D01*
Y186530D01*
X317541Y186686D01*
X318180Y187055D01*
X318701Y187576D01*
X319070Y188215D01*
X319225Y188795D01*
D02*
G37*
G36*
X315961D02*
X313696D01*
X313851Y188215D01*
X314220Y187576D01*
X314741Y187055D01*
X315380Y186686D01*
X315961Y186530D01*
Y188795D01*
D02*
G37*
G36*
X307414D02*
X305150D01*
Y186530D01*
X305730Y186686D01*
X306369Y187055D01*
X306890Y187576D01*
X307259Y188215D01*
X307414Y188795D01*
D02*
G37*
G36*
X304150D02*
X301885D01*
X302040Y188215D01*
X302409Y187576D01*
X302930Y187055D01*
X303569Y186686D01*
X304150Y186530D01*
Y188795D01*
D02*
G37*
G36*
X357662Y189662D02*
X351338D01*
Y183338D01*
X357662D01*
Y189662D01*
D02*
G37*
G36*
X285146Y187646D02*
X276853D01*
Y179353D01*
X285146D01*
Y187646D01*
D02*
G37*
G36*
X-948Y186418D02*
X-1988D01*
X-2993Y186149D01*
X-3894Y185629D01*
X-4629Y184894D01*
X-5149Y183993D01*
X-5418Y182989D01*
Y181948D01*
X-5149Y180944D01*
X-4629Y180043D01*
X-3894Y179308D01*
X-2993Y178788D01*
X-1988Y178519D01*
X-948D01*
X56Y178788D01*
X957Y179308D01*
X1692Y180043D01*
X2212Y180944D01*
X2481Y181948D01*
Y182989D01*
X2212Y183993D01*
X1692Y184894D01*
X957Y185629D01*
X56Y186149D01*
X-948Y186418D01*
D02*
G37*
G36*
X218098Y186571D02*
X215972D01*
X214911Y186432D01*
X213921Y186022D01*
X213071Y185370D01*
X212419Y184520D01*
X212009Y183530D01*
X211870Y182468D01*
X212009Y181407D01*
X212419Y180417D01*
X213071Y179567D01*
X213921Y178915D01*
X214911Y178506D01*
X215972Y178366D01*
X218098D01*
X219160Y178506D01*
X220150Y178915D01*
X221000Y179567D01*
X221652Y180417D01*
X222061Y181407D01*
X222201Y182468D01*
X222061Y183530D01*
X221652Y184520D01*
X221000Y185370D01*
X220150Y186022D01*
X219160Y186432D01*
X218098Y186571D01*
D02*
G37*
G36*
X158098D02*
X155972D01*
X154911Y186432D01*
X153921Y186022D01*
X153071Y185370D01*
X152419Y184520D01*
X152009Y183530D01*
X151870Y182468D01*
X152009Y181407D01*
X152419Y180417D01*
X153071Y179567D01*
X153921Y178915D01*
X154911Y178506D01*
X155972Y178366D01*
X158098D01*
X159160Y178506D01*
X160150Y178915D01*
X161000Y179567D01*
X161652Y180417D01*
X162061Y181407D01*
X162201Y182468D01*
X162061Y183530D01*
X161652Y184520D01*
X161000Y185370D01*
X160150Y186022D01*
X159160Y186432D01*
X158098Y186571D01*
D02*
G37*
G36*
X-948Y176418D02*
X-1988D01*
X-2993Y176149D01*
X-3894Y175629D01*
X-4629Y174894D01*
X-5149Y173993D01*
X-5418Y172988D01*
Y171949D01*
X-5149Y170944D01*
X-4629Y170043D01*
X-3894Y169308D01*
X-2993Y168788D01*
X-1988Y168519D01*
X-948D01*
X56Y168788D01*
X957Y169308D01*
X1692Y170043D01*
X2212Y170944D01*
X2481Y171949D01*
Y172988D01*
X2212Y173993D01*
X1692Y174894D01*
X957Y175629D01*
X56Y176149D01*
X-948Y176418D01*
D02*
G37*
G36*
X218098Y176571D02*
X215972D01*
X214911Y176432D01*
X213921Y176022D01*
X213071Y175370D01*
X212419Y174520D01*
X212009Y173530D01*
X211870Y172468D01*
X212009Y171407D01*
X212419Y170417D01*
X213071Y169567D01*
X213921Y168915D01*
X214911Y168506D01*
X215972Y168366D01*
X218098D01*
X219160Y168506D01*
X220150Y168915D01*
X221000Y169567D01*
X221652Y170417D01*
X222061Y171407D01*
X222201Y172468D01*
X222061Y173530D01*
X221652Y174520D01*
X221000Y175370D01*
X220150Y176022D01*
X219160Y176432D01*
X218098Y176571D01*
D02*
G37*
G36*
X158098D02*
X155972D01*
X154911Y176432D01*
X153921Y176022D01*
X153071Y175370D01*
X152419Y174520D01*
X152009Y173530D01*
X151870Y172468D01*
X152009Y171407D01*
X152419Y170417D01*
X153071Y169567D01*
X153921Y168915D01*
X154911Y168506D01*
X155972Y168366D01*
X158098D01*
X159160Y168506D01*
X160150Y168915D01*
X161000Y169567D01*
X161652Y170417D01*
X162061Y171407D01*
X162201Y172468D01*
X162061Y173530D01*
X161652Y174520D01*
X161000Y175370D01*
X160150Y176022D01*
X159160Y176432D01*
X158098Y176571D01*
D02*
G37*
G36*
X373698Y176158D02*
X365798D01*
Y168259D01*
X373698D01*
Y176158D01*
D02*
G37*
G36*
X193913Y166651D02*
Y164386D01*
X196178D01*
X196023Y164967D01*
X195654Y165605D01*
X195133Y166126D01*
X194494Y166495D01*
X193913Y166651D01*
D02*
G37*
G36*
X192913D02*
X192333Y166495D01*
X191694Y166126D01*
X191173Y165605D01*
X190804Y164967D01*
X190649Y164386D01*
X192913D01*
Y166651D01*
D02*
G37*
G36*
X182102D02*
Y164386D01*
X184367D01*
X184212Y164967D01*
X183843Y165605D01*
X183322Y166126D01*
X182683Y166495D01*
X182102Y166651D01*
D02*
G37*
G36*
X181102D02*
X180522Y166495D01*
X179883Y166126D01*
X179362Y165605D01*
X178993Y164967D01*
X178838Y164386D01*
X181102D01*
Y166651D01*
D02*
G37*
G36*
X304381Y169017D02*
X303548D01*
X302744Y168801D01*
X302023Y168385D01*
X301434Y167796D01*
X301018Y167075D01*
X300802Y166271D01*
Y165438D01*
X301018Y164634D01*
X301434Y163913D01*
X302023Y163324D01*
X302744Y162908D01*
X303548Y162692D01*
X304381D01*
X305185Y162908D01*
X305906Y163324D01*
X306495Y163913D01*
X306911Y164634D01*
X307127Y165438D01*
Y166271D01*
X306911Y167075D01*
X306495Y167796D01*
X305906Y168385D01*
X305185Y168801D01*
X304381Y169017D01*
D02*
G37*
G36*
X267127D02*
X260802D01*
Y162692D01*
X267127D01*
Y169017D01*
D02*
G37*
G36*
X196178Y163386D02*
X193913D01*
Y161121D01*
X194494Y161277D01*
X195133Y161645D01*
X195654Y162167D01*
X196023Y162805D01*
X196178Y163386D01*
D02*
G37*
G36*
X192913D02*
X190649D01*
X190804Y162805D01*
X191173Y162167D01*
X191694Y161645D01*
X192333Y161277D01*
X192913Y161121D01*
Y163386D01*
D02*
G37*
G36*
X184367D02*
X182102D01*
Y161121D01*
X182683Y161277D01*
X183322Y161645D01*
X183843Y162167D01*
X184212Y162805D01*
X184367Y163386D01*
D02*
G37*
G36*
X181102D02*
X178838D01*
X178993Y162805D01*
X179362Y162167D01*
X179883Y161645D01*
X180522Y161277D01*
X181102Y161121D01*
Y163386D01*
D02*
G37*
G36*
X290500Y161576D02*
Y159311D01*
X292765D01*
X292609Y159892D01*
X292241Y160530D01*
X291719Y161052D01*
X291081Y161420D01*
X290500Y161576D01*
D02*
G37*
G36*
X289500D02*
X288919Y161420D01*
X288281Y161052D01*
X287759Y160530D01*
X287391Y159892D01*
X287235Y159311D01*
X289500D01*
Y161576D01*
D02*
G37*
G36*
X278689D02*
Y159311D01*
X280954D01*
X280798Y159892D01*
X280430Y160530D01*
X279908Y161052D01*
X279270Y161420D01*
X278689Y161576D01*
D02*
G37*
G36*
X277689D02*
X277108Y161420D01*
X276470Y161052D01*
X275948Y160530D01*
X275580Y159892D01*
X275424Y159311D01*
X277689D01*
Y161576D01*
D02*
G37*
G36*
X2481Y166418D02*
X-5418D01*
Y158519D01*
X2481D01*
Y166418D01*
D02*
G37*
G36*
X158098Y166571D02*
X155972D01*
X154911Y166431D01*
X153921Y166022D01*
X153071Y165370D01*
X152419Y164520D01*
X152009Y163530D01*
X151870Y162469D01*
X152009Y161407D01*
X152419Y160417D01*
X153071Y159567D01*
X153921Y158915D01*
X154911Y158505D01*
X155972Y158366D01*
X158098D01*
X159160Y158505D01*
X160150Y158915D01*
X161000Y159567D01*
X161652Y160417D01*
X162061Y161407D01*
X162201Y162469D01*
X162061Y163530D01*
X161652Y164520D01*
X161000Y165370D01*
X160150Y166022D01*
X159160Y166431D01*
X158098Y166571D01*
D02*
G37*
G36*
X370268Y166158D02*
X369228D01*
X368224Y165889D01*
X367323Y165369D01*
X366588Y164634D01*
X366068Y163733D01*
X365798Y162729D01*
Y161689D01*
X366068Y160684D01*
X366588Y159783D01*
X367323Y159048D01*
X368224Y158528D01*
X369228Y158259D01*
X370268D01*
X371272Y158528D01*
X372173Y159048D01*
X372908Y159783D01*
X373429Y160684D01*
X373698Y161689D01*
Y162729D01*
X373429Y163733D01*
X372908Y164634D01*
X372173Y165369D01*
X371272Y165889D01*
X370268Y166158D01*
D02*
G37*
G36*
X292765Y158311D02*
X290500D01*
Y156046D01*
X291081Y156202D01*
X291719Y156570D01*
X292241Y157092D01*
X292609Y157730D01*
X292765Y158311D01*
D02*
G37*
G36*
X289500D02*
X287235D01*
X287391Y157730D01*
X287759Y157092D01*
X288281Y156570D01*
X288919Y156202D01*
X289500Y156046D01*
Y158311D01*
D02*
G37*
G36*
X280954D02*
X278689D01*
Y156046D01*
X279270Y156202D01*
X279908Y156570D01*
X280430Y157092D01*
X280798Y157730D01*
X280954Y158311D01*
D02*
G37*
G36*
X277689D02*
X275424D01*
X275580Y157730D01*
X275948Y157092D01*
X276470Y156570D01*
X277108Y156202D01*
X277689Y156046D01*
Y158311D01*
D02*
G37*
G36*
X193913Y154840D02*
Y152575D01*
X196178D01*
X196023Y153156D01*
X195654Y153794D01*
X195133Y154315D01*
X194494Y154684D01*
X193913Y154840D01*
D02*
G37*
G36*
X192913D02*
X192333Y154684D01*
X191694Y154315D01*
X191173Y153794D01*
X190804Y153156D01*
X190649Y152575D01*
X192913D01*
Y154840D01*
D02*
G37*
G36*
X182102D02*
Y152575D01*
X184367D01*
X184212Y153156D01*
X183843Y153794D01*
X183322Y154315D01*
X182683Y154684D01*
X182102Y154840D01*
D02*
G37*
G36*
X181102D02*
X180522Y154684D01*
X179883Y154315D01*
X179362Y153794D01*
X178993Y153156D01*
X178838Y152575D01*
X181102D01*
Y154840D01*
D02*
G37*
G36*
X196178Y151575D02*
X193913D01*
Y149310D01*
X194494Y149466D01*
X195133Y149834D01*
X195654Y150356D01*
X196023Y150994D01*
X196178Y151575D01*
D02*
G37*
G36*
X192913D02*
X190649D01*
X190804Y150994D01*
X191173Y150356D01*
X191694Y149834D01*
X192333Y149466D01*
X192913Y149310D01*
Y151575D01*
D02*
G37*
G36*
X184367D02*
X182102D01*
Y149310D01*
X182683Y149466D01*
X183322Y149834D01*
X183843Y150356D01*
X184212Y150994D01*
X184367Y151575D01*
D02*
G37*
G36*
X181102D02*
X178838D01*
X178993Y150994D01*
X179362Y150356D01*
X179883Y149834D01*
X180522Y149466D01*
X181102Y149310D01*
Y151575D01*
D02*
G37*
G36*
X267127Y155237D02*
X260802D01*
Y148913D01*
X267127D01*
Y155237D01*
D02*
G37*
G36*
X158098Y156571D02*
X155972D01*
X154911Y156431D01*
X153921Y156022D01*
X153071Y155370D01*
X152419Y154520D01*
X152009Y153530D01*
X151870Y152469D01*
X152009Y151407D01*
X152419Y150417D01*
X153071Y149567D01*
X153921Y148915D01*
X154911Y148505D01*
X155972Y148366D01*
X158098D01*
X159160Y148505D01*
X160150Y148915D01*
X161000Y149567D01*
X161652Y150417D01*
X162061Y151407D01*
X162201Y152469D01*
X162061Y153530D01*
X161652Y154520D01*
X161000Y155370D01*
X160150Y156022D01*
X159160Y156431D01*
X158098Y156571D01*
D02*
G37*
G36*
X290500Y147765D02*
Y145500D01*
X292765D01*
X292609Y146081D01*
X292241Y146719D01*
X291719Y147241D01*
X291081Y147609D01*
X290500Y147765D01*
D02*
G37*
G36*
X289500D02*
X288919Y147609D01*
X288281Y147241D01*
X287759Y146719D01*
X287391Y146081D01*
X287235Y145500D01*
X289500D01*
Y147765D01*
D02*
G37*
G36*
X278689D02*
Y145500D01*
X280954D01*
X280798Y146081D01*
X280430Y146719D01*
X279908Y147241D01*
X279270Y147609D01*
X278689Y147765D01*
D02*
G37*
G36*
X277689D02*
X277108Y147609D01*
X276470Y147241D01*
X275948Y146719D01*
X275580Y146081D01*
X275424Y145500D01*
X277689D01*
Y147765D01*
D02*
G37*
G36*
X341201Y151828D02*
X339799D01*
X338444Y151464D01*
X337229Y150763D01*
X336237Y149771D01*
X335536Y148556D01*
X335172Y147201D01*
Y145799D01*
X335536Y144444D01*
X336237Y143229D01*
X337229Y142237D01*
X338444Y141535D01*
X339799Y141172D01*
X341201D01*
X342556Y141535D01*
X343771Y142237D01*
X344241Y142707D01*
X344303Y142747D01*
X344711Y143146D01*
X345096Y143488D01*
X345467Y143784D01*
X345825Y144036D01*
X346167Y144244D01*
X346494Y144409D01*
X346803Y144533D01*
X347095Y144618D01*
X347358Y144665D01*
X351300D01*
X351315Y144663D01*
X351478Y144639D01*
X351624Y144606D01*
X351755Y144566D01*
X351872Y144520D01*
X351976Y144467D01*
X352070Y144410D01*
X352153Y144346D01*
X352259Y144248D01*
X352313Y144214D01*
X352558Y143970D01*
X353279Y143553D01*
X354084Y143338D01*
X354916D01*
X355721Y143553D01*
X356442Y143970D01*
X357030Y144558D01*
X357447Y145279D01*
X357662Y146084D01*
Y146916D01*
X357447Y147721D01*
X357030Y148442D01*
X356442Y149030D01*
X355721Y149447D01*
X354916Y149662D01*
X354084D01*
X353279Y149447D01*
X352558Y149030D01*
X352313Y148785D01*
X352259Y148752D01*
X352153Y148654D01*
X352070Y148591D01*
X351976Y148533D01*
X351872Y148480D01*
X351755Y148434D01*
X351624Y148394D01*
X351478Y148361D01*
X351315Y148337D01*
X351300Y148335D01*
X347358D01*
X347095Y148382D01*
X346803Y148467D01*
X346494Y148591D01*
X346167Y148756D01*
X345825Y148964D01*
X345476Y149209D01*
X344704Y149861D01*
X344303Y150253D01*
X344241Y150293D01*
X343771Y150763D01*
X342556Y151464D01*
X341201Y151828D01*
D02*
G37*
G36*
X292765Y144500D02*
X290500D01*
Y142235D01*
X291081Y142391D01*
X291719Y142759D01*
X292241Y143281D01*
X292609Y143919D01*
X292765Y144500D01*
D02*
G37*
G36*
X289500D02*
X287235D01*
X287391Y143919D01*
X287759Y143281D01*
X288281Y142759D01*
X288919Y142391D01*
X289500Y142235D01*
Y144500D01*
D02*
G37*
G36*
X280954D02*
X278689D01*
Y142235D01*
X279270Y142391D01*
X279908Y142759D01*
X280430Y143281D01*
X280798Y143919D01*
X280954Y144500D01*
D02*
G37*
G36*
X277689D02*
X275424D01*
X275580Y143919D01*
X275948Y143281D01*
X276470Y142759D01*
X277108Y142391D01*
X277689Y142235D01*
Y144500D01*
D02*
G37*
G36*
X218098Y146571D02*
X215972D01*
X214911Y146432D01*
X213921Y146022D01*
X213071Y145370D01*
X212419Y144520D01*
X212009Y143530D01*
X211870Y142469D01*
X212009Y141407D01*
X212419Y140417D01*
X213071Y139567D01*
X213921Y138915D01*
X214911Y138505D01*
X215972Y138366D01*
X218098D01*
X219160Y138505D01*
X220150Y138915D01*
X221000Y139567D01*
X221652Y140417D01*
X222061Y141407D01*
X222201Y142469D01*
X222061Y143530D01*
X221652Y144520D01*
X221000Y145370D01*
X220150Y146022D01*
X219160Y146432D01*
X218098Y146571D01*
D02*
G37*
G36*
X158098D02*
X155972D01*
X154911Y146432D01*
X153921Y146022D01*
X153071Y145370D01*
X152419Y144520D01*
X152009Y143530D01*
X151870Y142469D01*
X152009Y141407D01*
X152419Y140417D01*
X153071Y139567D01*
X153921Y138915D01*
X154911Y138505D01*
X155972Y138366D01*
X158098D01*
X159160Y138505D01*
X160150Y138915D01*
X161000Y139567D01*
X161652Y140417D01*
X162061Y141407D01*
X162201Y142469D01*
X162061Y143530D01*
X161652Y144520D01*
X161000Y145370D01*
X160150Y146022D01*
X159160Y146432D01*
X158098Y146571D01*
D02*
G37*
G36*
X304381Y141457D02*
X303548D01*
X302744Y141242D01*
X302023Y140826D01*
X301434Y140237D01*
X301018Y139516D01*
X300802Y138712D01*
Y137879D01*
X301018Y137075D01*
X301434Y136354D01*
X302023Y135765D01*
X302744Y135349D01*
X303548Y135133D01*
X304381D01*
X305185Y135349D01*
X305906Y135765D01*
X306495Y136354D01*
X306911Y137075D01*
X307127Y137879D01*
Y138712D01*
X306911Y139516D01*
X306495Y140237D01*
X305906Y140826D01*
X305185Y141242D01*
X304381Y141457D01*
D02*
G37*
G36*
X85823Y226890D02*
X84783D01*
X83779Y226621D01*
X82878Y226101D01*
X82143Y225366D01*
X81623Y224465D01*
X81353Y223461D01*
Y222421D01*
X81521Y221796D01*
X81526Y221733D01*
X81615Y221431D01*
X81669Y221177D01*
X81698Y220950D01*
X81705Y220748D01*
X81692Y220572D01*
X81663Y220420D01*
X81619Y220286D01*
X81560Y220166D01*
X81497Y220071D01*
X81383Y219957D01*
X81289Y219817D01*
X81285Y219813D01*
X81283Y219808D01*
X81040Y219444D01*
X80920Y218839D01*
Y153950D01*
X80909Y153871D01*
X80879Y153733D01*
X80837Y153597D01*
X80782Y153462D01*
X80713Y153327D01*
X80629Y153190D01*
X80528Y153051D01*
X80411Y152911D01*
X80258Y152751D01*
X80219Y152691D01*
X79970Y152442D01*
X79553Y151721D01*
X79338Y150916D01*
Y150084D01*
X79553Y149279D01*
X79970Y148558D01*
X80558Y147970D01*
X81279Y147553D01*
X82084Y147338D01*
X82437D01*
X82506Y147322D01*
X82727Y147318D01*
X82910Y147302D01*
X83079Y147275D01*
X83235Y147238D01*
X83380Y147190D01*
X83514Y147134D01*
X83640Y147068D01*
X83759Y146992D01*
X83822Y146943D01*
X85920Y144845D01*
Y141390D01*
X85917Y141349D01*
X85866Y141111D01*
X85773Y140840D01*
X85635Y140537D01*
X85449Y140206D01*
X85212Y139848D01*
X84931Y139473D01*
X84192Y138629D01*
X83750Y138180D01*
X83708Y138116D01*
X83237Y137645D01*
X82535Y136430D01*
X82172Y135075D01*
Y133673D01*
X82535Y132318D01*
X83237Y131103D01*
X84229Y130111D01*
X85444Y129410D01*
X86799Y129046D01*
X88201D01*
X89556Y129410D01*
X90771Y130111D01*
X91763Y131103D01*
X92465Y132318D01*
X92828Y133673D01*
Y135075D01*
X92465Y136430D01*
X91763Y137645D01*
X91292Y138116D01*
X91250Y138180D01*
X90808Y138629D01*
X90069Y139473D01*
X89788Y139848D01*
X89551Y140206D01*
X89365Y140537D01*
X89227Y140840D01*
X89134Y141111D01*
X89083Y141349D01*
X89080Y141390D01*
Y145500D01*
X88960Y146105D01*
X88617Y146617D01*
X86057Y149178D01*
X86008Y149241D01*
X85932Y149360D01*
X85866Y149486D01*
X85810Y149620D01*
X85763Y149765D01*
X85725Y149921D01*
X85698Y150090D01*
X85682Y150273D01*
X85678Y150494D01*
X85662Y150563D01*
Y150916D01*
X85447Y151721D01*
X85030Y152442D01*
X84781Y152691D01*
X84742Y152751D01*
X84589Y152911D01*
X84472Y153051D01*
X84371Y153190D01*
X84287Y153327D01*
X84218Y153462D01*
X84163Y153597D01*
X84121Y153733D01*
X84091Y153871D01*
X84080Y153950D01*
Y218163D01*
X84093Y218172D01*
X84260Y218282D01*
X84728Y218532D01*
X84978Y218644D01*
X86002Y219012D01*
X86392Y219128D01*
X86395Y219130D01*
X86398Y219130D01*
X86455Y219161D01*
X86828Y219261D01*
X87728Y219780D01*
X88464Y220516D01*
X88984Y221416D01*
X89253Y222421D01*
Y223461D01*
X88984Y224465D01*
X88464Y225366D01*
X87728Y226101D01*
X86828Y226621D01*
X85823Y226890D01*
D02*
G37*
G36*
X218098Y136571D02*
X215972D01*
X214911Y136432D01*
X213921Y136022D01*
X213071Y135370D01*
X212419Y134520D01*
X212009Y133530D01*
X211870Y132468D01*
X212009Y131407D01*
X212419Y130417D01*
X213071Y129567D01*
X213921Y128915D01*
X214911Y128506D01*
X215972Y128366D01*
X218098D01*
X219160Y128506D01*
X220150Y128915D01*
X221000Y129567D01*
X221652Y130417D01*
X222061Y131407D01*
X222201Y132468D01*
X222061Y133530D01*
X221652Y134520D01*
X221000Y135370D01*
X220150Y136022D01*
X219160Y136432D01*
X218098Y136571D01*
D02*
G37*
G36*
X158098D02*
X155972D01*
X154911Y136432D01*
X153921Y136022D01*
X153071Y135370D01*
X152419Y134520D01*
X152009Y133530D01*
X151870Y132468D01*
X152009Y131407D01*
X152419Y130417D01*
X153071Y129567D01*
X153921Y128915D01*
X154911Y128506D01*
X155972Y128366D01*
X158098D01*
X159160Y128506D01*
X160150Y128915D01*
X161000Y129567D01*
X161652Y130417D01*
X162061Y131407D01*
X162201Y132468D01*
X162061Y133530D01*
X161652Y134520D01*
X161000Y135370D01*
X160150Y136022D01*
X159160Y136432D01*
X158098Y136571D01*
D02*
G37*
G36*
X304381Y155237D02*
X303548D01*
X302744Y155022D01*
X302023Y154605D01*
X301434Y154016D01*
X301018Y153295D01*
X300802Y152491D01*
Y151658D01*
X301018Y150854D01*
X301434Y150133D01*
X302023Y149544D01*
X302744Y149128D01*
X303548Y148913D01*
X304381D01*
X305185Y149128D01*
X305906Y149544D01*
X306093Y149731D01*
X306138Y149757D01*
X306578Y150146D01*
X306759Y150284D01*
X306935Y150404D01*
X307098Y150500D01*
X307245Y150574D01*
X307377Y150626D01*
X307492Y150660D01*
X307573Y150674D01*
X322451D01*
X330675Y142451D01*
Y126662D01*
X328838D01*
Y120338D01*
X335162D01*
Y126662D01*
X333326D01*
Y143000D01*
X333225Y143507D01*
X332937Y143937D01*
X323937Y152937D01*
X323507Y153225D01*
X323000Y153325D01*
X307605D01*
X307525Y153340D01*
X307416Y153374D01*
X307293Y153425D01*
X307156Y153498D01*
X307006Y153594D01*
X306854Y153707D01*
X306485Y154038D01*
X306291Y154239D01*
X306228Y154283D01*
X305906Y154605D01*
X305185Y155022D01*
X304381Y155237D01*
D02*
G37*
G36*
X218098Y126571D02*
X215972D01*
X214911Y126432D01*
X213921Y126022D01*
X213071Y125370D01*
X212419Y124520D01*
X212009Y123530D01*
X211870Y122468D01*
X212009Y121407D01*
X212419Y120417D01*
X213071Y119567D01*
X213921Y118915D01*
X214911Y118506D01*
X215972Y118366D01*
X218098D01*
X219160Y118506D01*
X220150Y118915D01*
X221000Y119567D01*
X221652Y120417D01*
X222061Y121407D01*
X222201Y122468D01*
X222061Y123530D01*
X221652Y124520D01*
X221000Y125370D01*
X220150Y126022D01*
X219160Y126432D01*
X218098Y126571D01*
D02*
G37*
G36*
X158098D02*
X155972D01*
X154911Y126432D01*
X153921Y126022D01*
X153071Y125370D01*
X152419Y124520D01*
X152009Y123530D01*
X151870Y122468D01*
X152009Y121407D01*
X152419Y120417D01*
X153071Y119567D01*
X153921Y118915D01*
X154911Y118506D01*
X155972Y118366D01*
X158098D01*
X159160Y118506D01*
X160150Y118915D01*
X161000Y119567D01*
X161652Y120417D01*
X162061Y121407D01*
X162201Y122468D01*
X162061Y123530D01*
X161652Y124520D01*
X161000Y125370D01*
X160150Y126022D01*
X159160Y126432D01*
X158098Y126571D01*
D02*
G37*
G36*
X309507Y114756D02*
X309461D01*
Y111106D01*
X313110D01*
Y111153D01*
X312827Y112208D01*
X312281Y113154D01*
X311509Y113927D01*
X310562Y114473D01*
X309507Y114756D01*
D02*
G37*
G36*
X308461D02*
X308414D01*
X307359Y114473D01*
X306413Y113927D01*
X305640Y113154D01*
X305094Y112208D01*
X304811Y111153D01*
Y111106D01*
X308461D01*
Y114756D01*
D02*
G37*
G36*
X37728Y114528D02*
X37500D01*
Y109500D01*
X42528D01*
Y109728D01*
X42151Y111134D01*
X41423Y112394D01*
X40394Y113423D01*
X39134Y114151D01*
X37728Y114528D01*
D02*
G37*
G36*
X36500D02*
X36272D01*
X34866Y114151D01*
X33606Y113423D01*
X32577Y112394D01*
X31849Y111134D01*
X31472Y109728D01*
Y109500D01*
X36500D01*
Y114528D01*
D02*
G37*
G36*
X-922Y112917D02*
X-969D01*
Y109268D01*
X2681D01*
Y109314D01*
X2398Y110369D01*
X1852Y111316D01*
X1079Y112088D01*
X133Y112635D01*
X-922Y112917D01*
D02*
G37*
G36*
X-1969D02*
X-2015D01*
X-3070Y112635D01*
X-4016Y112088D01*
X-4789Y111316D01*
X-5335Y110369D01*
X-5618Y109314D01*
Y109268D01*
X-1969D01*
Y112917D01*
D02*
G37*
G36*
X68000Y111454D02*
Y109189D01*
X70265D01*
X70109Y109770D01*
X69741Y110408D01*
X69219Y110930D01*
X68581Y111298D01*
X68000Y111454D01*
D02*
G37*
G36*
X67000D02*
X66419Y111298D01*
X65781Y110930D01*
X65259Y110408D01*
X64891Y109770D01*
X64735Y109189D01*
X67000D01*
Y111454D01*
D02*
G37*
G36*
X56189D02*
Y109189D01*
X58454D01*
X58298Y109770D01*
X57929Y110408D01*
X57408Y110930D01*
X56770Y111298D01*
X56189Y111454D01*
D02*
G37*
G36*
X55189D02*
X54608Y111298D01*
X53970Y110930D01*
X53448Y110408D01*
X53080Y109770D01*
X52924Y109189D01*
X55189D01*
Y111454D01*
D02*
G37*
G36*
X218098Y116571D02*
X215972D01*
X214911Y116431D01*
X213921Y116022D01*
X213071Y115370D01*
X212419Y114520D01*
X212009Y113530D01*
X211870Y112469D01*
X212009Y111407D01*
X212419Y110417D01*
X213071Y109567D01*
X213921Y108915D01*
X214911Y108505D01*
X215972Y108366D01*
X218098D01*
X219160Y108505D01*
X220150Y108915D01*
X221000Y109567D01*
X221652Y110417D01*
X222061Y111407D01*
X222201Y112469D01*
X222061Y113530D01*
X221652Y114520D01*
X221000Y115370D01*
X220150Y116022D01*
X219160Y116431D01*
X218098Y116571D01*
D02*
G37*
G36*
X158098D02*
X155972D01*
X154911Y116431D01*
X153921Y116022D01*
X153071Y115370D01*
X152419Y114520D01*
X152009Y113530D01*
X151870Y112469D01*
X152009Y111407D01*
X152419Y110417D01*
X153071Y109567D01*
X153921Y108915D01*
X154911Y108505D01*
X155972Y108366D01*
X158098D01*
X159160Y108505D01*
X160150Y108915D01*
X161000Y109567D01*
X161652Y110417D01*
X162061Y111407D01*
X162201Y112469D01*
X162061Y113530D01*
X161652Y114520D01*
X161000Y115370D01*
X160150Y116022D01*
X159160Y116431D01*
X158098Y116571D01*
D02*
G37*
G36*
X313110Y110106D02*
X309461D01*
Y106457D01*
X309507D01*
X310562Y106739D01*
X311509Y107286D01*
X312281Y108058D01*
X312827Y109005D01*
X313110Y110060D01*
Y110106D01*
D02*
G37*
G36*
X308461D02*
X304811D01*
Y110060D01*
X305094Y109005D01*
X305640Y108058D01*
X306413Y107286D01*
X307359Y106739D01*
X308414Y106457D01*
X308461D01*
Y110106D01*
D02*
G37*
G36*
X70265Y108189D02*
X68000D01*
Y105924D01*
X68581Y106080D01*
X69219Y106448D01*
X69741Y106970D01*
X70109Y107608D01*
X70265Y108189D01*
D02*
G37*
G36*
X67000D02*
X64735D01*
X64891Y107608D01*
X65259Y106970D01*
X65781Y106448D01*
X66419Y106080D01*
X67000Y105924D01*
Y108189D01*
D02*
G37*
G36*
X58454D02*
X56189D01*
Y105924D01*
X56770Y106080D01*
X57408Y106448D01*
X57929Y106970D01*
X58298Y107608D01*
X58454Y108189D01*
D02*
G37*
G36*
X55189D02*
X52924D01*
X53080Y107608D01*
X53448Y106970D01*
X53970Y106448D01*
X54608Y106080D01*
X55189Y105924D01*
Y108189D01*
D02*
G37*
G36*
X2681Y108268D02*
X-969D01*
Y104618D01*
X-922D01*
X133Y104901D01*
X1079Y105447D01*
X1852Y106220D01*
X2398Y107166D01*
X2681Y108221D01*
Y108268D01*
D02*
G37*
G36*
X-1969D02*
X-5618D01*
Y108221D01*
X-5335Y107166D01*
X-4789Y106220D01*
X-4016Y105447D01*
X-3070Y104901D01*
X-2015Y104618D01*
X-1969D01*
Y108268D01*
D02*
G37*
G36*
X42528Y108500D02*
X37500D01*
Y103472D01*
X37728D01*
X39134Y103849D01*
X40394Y104577D01*
X41423Y105606D01*
X42151Y106866D01*
X42528Y108272D01*
Y108500D01*
D02*
G37*
G36*
X36500D02*
X31472D01*
Y108272D01*
X31849Y106866D01*
X32577Y105606D01*
X33606Y104577D01*
X34866Y103849D01*
X36272Y103472D01*
X36500D01*
Y108500D01*
D02*
G37*
G36*
X158098Y106773D02*
X157535D01*
Y102969D01*
X162337D01*
X162256Y103583D01*
X161826Y104621D01*
X161142Y105512D01*
X160251Y106196D01*
X159213Y106626D01*
X158098Y106773D01*
D02*
G37*
G36*
X156535D02*
X155972D01*
X154858Y106626D01*
X153820Y106196D01*
X152929Y105512D01*
X152245Y104621D01*
X151815Y103583D01*
X151734Y102969D01*
X156535D01*
Y106773D01*
D02*
G37*
G36*
X-922Y102917D02*
X-969D01*
Y99268D01*
X2681D01*
Y99314D01*
X2398Y100369D01*
X1852Y101316D01*
X1079Y102088D01*
X133Y102635D01*
X-922Y102917D01*
D02*
G37*
G36*
X-1969D02*
X-2015D01*
X-3070Y102635D01*
X-4016Y102088D01*
X-4789Y101316D01*
X-5335Y100369D01*
X-5618Y99314D01*
Y99268D01*
X-1969D01*
Y102917D01*
D02*
G37*
G36*
X218098Y106571D02*
X215972D01*
X214911Y106431D01*
X213921Y106022D01*
X213071Y105370D01*
X212419Y104520D01*
X212009Y103530D01*
X211870Y102469D01*
X212009Y101407D01*
X212419Y100417D01*
X213071Y99567D01*
X213921Y98915D01*
X214911Y98506D01*
X215972Y98366D01*
X218098D01*
X219160Y98506D01*
X220150Y98915D01*
X221000Y99567D01*
X221652Y100417D01*
X222061Y101407D01*
X222201Y102469D01*
X222061Y103530D01*
X221652Y104520D01*
X221000Y105370D01*
X220150Y106022D01*
X219160Y106431D01*
X218098Y106571D01*
D02*
G37*
G36*
X162337Y101969D02*
X157535D01*
Y98164D01*
X158098D01*
X159213Y98311D01*
X160251Y98741D01*
X161142Y99425D01*
X161826Y100316D01*
X162256Y101354D01*
X162337Y101969D01*
D02*
G37*
G36*
X156535D02*
X151734D01*
X151815Y101354D01*
X152245Y100316D01*
X152929Y99425D01*
X153820Y98741D01*
X154858Y98311D01*
X155972Y98164D01*
X156535D01*
Y101969D01*
D02*
G37*
G36*
X68000Y99643D02*
Y97378D01*
X70265D01*
X70109Y97959D01*
X69741Y98597D01*
X69219Y99119D01*
X68581Y99487D01*
X68000Y99643D01*
D02*
G37*
G36*
X67000D02*
X66419Y99487D01*
X65781Y99119D01*
X65259Y98597D01*
X64891Y97959D01*
X64735Y97378D01*
X67000D01*
Y99643D01*
D02*
G37*
G36*
X56189D02*
Y97378D01*
X58454D01*
X58298Y97959D01*
X57929Y98597D01*
X57408Y99119D01*
X56770Y99487D01*
X56189Y99643D01*
D02*
G37*
G36*
X55189D02*
X54608Y99487D01*
X53970Y99119D01*
X53448Y98597D01*
X53080Y97959D01*
X52924Y97378D01*
X55189D01*
Y99643D01*
D02*
G37*
G36*
X358494Y103253D02*
X357506D01*
X356552Y102997D01*
X355696Y102503D01*
X354997Y101804D01*
X354503Y100949D01*
X354247Y99994D01*
Y99006D01*
X354503Y98052D01*
X354997Y97196D01*
X355696Y96497D01*
X356552Y96003D01*
X357506Y95747D01*
X358494D01*
X359449Y96003D01*
X360304Y96497D01*
X361003Y97196D01*
X361497Y98052D01*
X361753Y99006D01*
Y99994D01*
X361497Y100949D01*
X361003Y101804D01*
X360304Y102503D01*
X359449Y102997D01*
X358494Y103253D01*
D02*
G37*
G36*
X309507Y99008D02*
X309461D01*
Y95358D01*
X313110D01*
Y95405D01*
X312827Y96460D01*
X312281Y97406D01*
X311509Y98179D01*
X310562Y98725D01*
X309507Y99008D01*
D02*
G37*
G36*
X308461D02*
X308414D01*
X307359Y98725D01*
X306413Y98179D01*
X305640Y97406D01*
X305094Y96460D01*
X304811Y95405D01*
Y95358D01*
X308461D01*
Y99008D01*
D02*
G37*
G36*
X2681Y98268D02*
X-969D01*
Y94618D01*
X-922D01*
X133Y94901D01*
X1079Y95447D01*
X1852Y96220D01*
X2398Y97166D01*
X2681Y98221D01*
Y98268D01*
D02*
G37*
G36*
X-1969D02*
X-5618D01*
Y98221D01*
X-5335Y97166D01*
X-4789Y96220D01*
X-4016Y95447D01*
X-3070Y94901D01*
X-2015Y94618D01*
X-1969D01*
Y98268D01*
D02*
G37*
G36*
X70265Y96378D02*
X68000D01*
Y94113D01*
X68581Y94269D01*
X69219Y94637D01*
X69741Y95159D01*
X70109Y95797D01*
X70265Y96378D01*
D02*
G37*
G36*
X67000D02*
X64735D01*
X64891Y95797D01*
X65259Y95159D01*
X65781Y94637D01*
X66419Y94269D01*
X67000Y94113D01*
Y96378D01*
D02*
G37*
G36*
X58454D02*
X56189D01*
Y94113D01*
X56770Y94269D01*
X57408Y94637D01*
X57929Y95159D01*
X58298Y95797D01*
X58454Y96378D01*
D02*
G37*
G36*
X55189D02*
X52924D01*
X53080Y95797D01*
X53448Y95159D01*
X53970Y94637D01*
X54608Y94269D01*
X55189Y94113D01*
Y96378D01*
D02*
G37*
G36*
X313110Y94358D02*
X309461D01*
Y90709D01*
X309507D01*
X310562Y90991D01*
X311509Y91538D01*
X312281Y92310D01*
X312827Y93257D01*
X313110Y94312D01*
Y94358D01*
D02*
G37*
G36*
X308461D02*
X304811D01*
Y94312D01*
X305094Y93257D01*
X305640Y92310D01*
X306413Y91538D01*
X307359Y90991D01*
X308414Y90709D01*
X308461D01*
Y94358D01*
D02*
G37*
G36*
X2681Y92917D02*
X-969D01*
Y89268D01*
X2681D01*
Y92917D01*
D02*
G37*
G36*
X-1969D02*
X-5618D01*
Y89268D01*
X-1969D01*
Y92917D01*
D02*
G37*
G36*
X120826Y91185D02*
X120646D01*
Y84780D01*
X127051D01*
Y84960D01*
X126786Y86294D01*
X126265Y87550D01*
X125510Y88682D01*
X124548Y89643D01*
X123417Y90399D01*
X122160Y90920D01*
X120826Y91185D01*
D02*
G37*
G36*
X31141D02*
X30961D01*
Y84780D01*
X37366D01*
Y84960D01*
X37101Y86294D01*
X36580Y87550D01*
X35824Y88682D01*
X34863Y89643D01*
X33732Y90399D01*
X32475Y90920D01*
X31141Y91185D01*
D02*
G37*
G36*
X29961D02*
X29781D01*
X28446Y90920D01*
X27190Y90399D01*
X26059Y89643D01*
X25097Y88682D01*
X24341Y87550D01*
X23821Y86294D01*
X23555Y84960D01*
Y84780D01*
X29961D01*
Y91185D01*
D02*
G37*
G36*
X119646D02*
X119465D01*
X118131Y90920D01*
X116875Y90399D01*
X115744Y89643D01*
X114782Y88682D01*
X114026Y87550D01*
X113505Y86294D01*
X113240Y84960D01*
Y84780D01*
X119646D01*
Y91185D01*
D02*
G37*
G36*
X2681Y88268D02*
X-969D01*
Y84618D01*
X2681D01*
Y88268D01*
D02*
G37*
G36*
X-1969D02*
X-5618D01*
Y84618D01*
X-1969D01*
Y88268D01*
D02*
G37*
G36*
X332500Y86847D02*
Y84000D01*
X335347D01*
X335133Y84798D01*
X334690Y85564D01*
X334064Y86190D01*
X333298Y86633D01*
X332500Y86847D01*
D02*
G37*
G36*
X331500D02*
X330702Y86633D01*
X329936Y86190D01*
X329310Y85564D01*
X328867Y84798D01*
X328653Y84000D01*
X331500D01*
Y86847D01*
D02*
G37*
G36*
X358520Y83768D02*
X358500D01*
Y80315D01*
X361953D01*
Y80335D01*
X361683Y81341D01*
X361163Y82242D01*
X360427Y82978D01*
X359526Y83498D01*
X358520Y83768D01*
D02*
G37*
G36*
X357500D02*
X357480D01*
X356474Y83498D01*
X355573Y82978D01*
X354837Y82242D01*
X354317Y81341D01*
X354047Y80335D01*
Y80315D01*
X357500D01*
Y83768D01*
D02*
G37*
G36*
X331500Y83000D02*
X328653D01*
X328867Y82202D01*
X329310Y81436D01*
X329936Y80810D01*
X330702Y80367D01*
X331500Y80153D01*
Y83000D01*
D02*
G37*
G36*
X335347D02*
X332500D01*
Y80153D01*
X333298Y80367D01*
X334064Y80810D01*
X334690Y81436D01*
X335133Y82202D01*
X335347Y83000D01*
D02*
G37*
G36*
X127051Y83780D02*
X120646D01*
Y77374D01*
X120826D01*
X122160Y77639D01*
X123417Y78160D01*
X124548Y78916D01*
X125510Y79878D01*
X126265Y81008D01*
X126786Y82265D01*
X127051Y83599D01*
Y83780D01*
D02*
G37*
G36*
X119646D02*
X113240D01*
Y83599D01*
X113505Y82265D01*
X114026Y81008D01*
X114782Y79878D01*
X115744Y78916D01*
X116875Y78160D01*
X118131Y77639D01*
X119465Y77374D01*
X119646D01*
Y83780D01*
D02*
G37*
G36*
X37366D02*
X30961D01*
Y77374D01*
X31141D01*
X32475Y77639D01*
X33732Y78160D01*
X34863Y78916D01*
X35824Y79878D01*
X36580Y81008D01*
X37101Y82265D01*
X37366Y83599D01*
Y83780D01*
D02*
G37*
G36*
X29961D02*
X23555D01*
Y83599D01*
X23821Y82265D01*
X24341Y81008D01*
X25097Y79878D01*
X26059Y78916D01*
X27190Y78160D01*
X28446Y77639D01*
X29781Y77374D01*
X29961D01*
Y83780D01*
D02*
G37*
G36*
X299964Y79456D02*
X299944D01*
Y76003D01*
X303397D01*
Y76024D01*
X303128Y77029D01*
X302607Y77930D01*
X301871Y78666D01*
X300970Y79186D01*
X299964Y79456D01*
D02*
G37*
G36*
X298944D02*
X298924D01*
X297918Y79186D01*
X297017Y78666D01*
X296281Y77930D01*
X295761Y77029D01*
X295491Y76024D01*
Y76003D01*
X298944D01*
Y79456D01*
D02*
G37*
G36*
X361953Y79315D02*
X358500D01*
Y75862D01*
X358520D01*
X359526Y76132D01*
X360427Y76652D01*
X361163Y77388D01*
X361683Y78289D01*
X361953Y79295D01*
Y79315D01*
D02*
G37*
G36*
X357500D02*
X354047D01*
Y79295D01*
X354317Y78289D01*
X354837Y77388D01*
X355573Y76652D01*
X356474Y76132D01*
X357480Y75862D01*
X357500D01*
Y79315D01*
D02*
G37*
G36*
X309938Y79256D02*
X308950D01*
X307996Y79000D01*
X307140Y78506D01*
X306441Y77807D01*
X305947Y76952D01*
X305691Y75997D01*
Y75009D01*
X305947Y74055D01*
X306441Y73199D01*
X307140Y72500D01*
X307996Y72006D01*
X308950Y71750D01*
X309938D01*
X310893Y72006D01*
X311748Y72500D01*
X312447Y73199D01*
X312941Y74055D01*
X313197Y75009D01*
Y75997D01*
X312941Y76952D01*
X312447Y77807D01*
X311748Y78506D01*
X310893Y79000D01*
X309938Y79256D01*
D02*
G37*
G36*
X293197D02*
X285691D01*
Y71750D01*
X293197D01*
Y79256D01*
D02*
G37*
G36*
X303397Y75003D02*
X299944D01*
Y71550D01*
X299964D01*
X300970Y71820D01*
X301871Y72340D01*
X302607Y73076D01*
X303128Y73977D01*
X303397Y74983D01*
Y75003D01*
D02*
G37*
G36*
X298944D02*
X295491D01*
Y74983D01*
X295761Y73977D01*
X296281Y73076D01*
X297017Y72340D01*
X297918Y71820D01*
X298924Y71550D01*
X298944D01*
Y75003D01*
D02*
G37*
G36*
X341467Y72875D02*
X340635D01*
X339831Y72659D01*
X339109Y72243D01*
X338521Y71654D01*
X338105Y70933D01*
X337889Y70129D01*
Y69296D01*
X338105Y68492D01*
X338521Y67771D01*
X339109Y67182D01*
X339831Y66766D01*
X340635Y66550D01*
X341467D01*
X342272Y66766D01*
X342993Y67182D01*
X343582Y67771D01*
X343998Y68492D01*
X344213Y69296D01*
Y70129D01*
X343998Y70933D01*
X343582Y71654D01*
X342993Y72243D01*
X342272Y72659D01*
X341467Y72875D01*
D02*
G37*
G36*
X258790D02*
X257958D01*
X257154Y72659D01*
X256432Y72243D01*
X255844Y71654D01*
X255427Y70933D01*
X255212Y70129D01*
Y69296D01*
X255427Y68492D01*
X255844Y67771D01*
X256432Y67182D01*
X257154Y66766D01*
X257958Y66550D01*
X258790D01*
X259595Y66766D01*
X260316Y67182D01*
X260904Y67771D01*
X261321Y68492D01*
X261536Y69296D01*
Y70129D01*
X261321Y70933D01*
X260904Y71654D01*
X260316Y72243D01*
X259595Y72659D01*
X258790Y72875D01*
D02*
G37*
G36*
X158961Y66871D02*
Y64606D01*
X161225D01*
X161070Y65187D01*
X160701Y65825D01*
X160180Y66347D01*
X159541Y66716D01*
X158961Y66871D01*
D02*
G37*
G36*
X157961D02*
X157380Y66716D01*
X156741Y66347D01*
X156220Y65825D01*
X155851Y65187D01*
X155696Y64606D01*
X157961D01*
Y66871D01*
D02*
G37*
G36*
X121772Y65871D02*
Y63606D01*
X124036D01*
X123881Y64187D01*
X123512Y64825D01*
X122991Y65347D01*
X122352Y65715D01*
X121772Y65871D01*
D02*
G37*
G36*
X120772D02*
X120191Y65715D01*
X119552Y65347D01*
X119031Y64825D01*
X118663Y64187D01*
X118507Y63606D01*
X120772D01*
Y65871D01*
D02*
G37*
G36*
X109961D02*
Y63606D01*
X112225D01*
X112070Y64187D01*
X111701Y64825D01*
X111180Y65347D01*
X110541Y65715D01*
X109961Y65871D01*
D02*
G37*
G36*
X108961D02*
X108380Y65715D01*
X107741Y65347D01*
X107220Y64825D01*
X106851Y64187D01*
X106696Y63606D01*
X108961D01*
Y65871D01*
D02*
G37*
G36*
X161225Y63606D02*
X158961D01*
Y61342D01*
X159541Y61497D01*
X160180Y61866D01*
X160701Y62387D01*
X161070Y63025D01*
X161225Y63606D01*
D02*
G37*
G36*
X157961D02*
X155696D01*
X155851Y63025D01*
X156220Y62387D01*
X156741Y61866D01*
X157380Y61497D01*
X157961Y61342D01*
Y63606D01*
D02*
G37*
G36*
X124036Y62606D02*
X121772D01*
Y60342D01*
X122352Y60497D01*
X122991Y60866D01*
X123512Y61387D01*
X123881Y62025D01*
X124036Y62606D01*
D02*
G37*
G36*
X120772D02*
X118507D01*
X118663Y62025D01*
X119031Y61387D01*
X119552Y60866D01*
X120191Y60497D01*
X120772Y60342D01*
Y62606D01*
D02*
G37*
G36*
X112225D02*
X109961D01*
Y60342D01*
X110541Y60497D01*
X111180Y60866D01*
X111701Y61387D01*
X112070Y62025D01*
X112225Y62606D01*
D02*
G37*
G36*
X108961D02*
X106696D01*
X106851Y62025D01*
X107220Y61387D01*
X107741Y60866D01*
X108380Y60497D01*
X108961Y60342D01*
Y62606D01*
D02*
G37*
G36*
X158961Y55060D02*
Y52795D01*
X161225D01*
X161070Y53376D01*
X160701Y54014D01*
X160180Y54536D01*
X159541Y54905D01*
X158961Y55060D01*
D02*
G37*
G36*
X157961D02*
X157380Y54905D01*
X156741Y54536D01*
X156220Y54014D01*
X155851Y53376D01*
X155696Y52795D01*
X157961D01*
Y55060D01*
D02*
G37*
G36*
X121772Y54060D02*
Y51795D01*
X124036D01*
X123881Y52376D01*
X123512Y53014D01*
X122991Y53536D01*
X122352Y53904D01*
X121772Y54060D01*
D02*
G37*
G36*
X120772D02*
X120191Y53904D01*
X119552Y53536D01*
X119031Y53014D01*
X118663Y52376D01*
X118507Y51795D01*
X120772D01*
Y54060D01*
D02*
G37*
G36*
X109961D02*
Y51795D01*
X112225D01*
X112070Y52376D01*
X111701Y53014D01*
X111180Y53536D01*
X110541Y53904D01*
X109961Y54060D01*
D02*
G37*
G36*
X108961D02*
X108380Y53904D01*
X107741Y53536D01*
X107220Y53014D01*
X106851Y52376D01*
X106696Y51795D01*
X108961D01*
Y54060D01*
D02*
G37*
G36*
X161225Y51795D02*
X158961D01*
Y49531D01*
X159541Y49686D01*
X160180Y50055D01*
X160701Y50576D01*
X161070Y51214D01*
X161225Y51795D01*
D02*
G37*
G36*
X157961D02*
X155696D01*
X155851Y51214D01*
X156220Y50576D01*
X156741Y50055D01*
X157380Y49686D01*
X157961Y49531D01*
Y51795D01*
D02*
G37*
G36*
X124036Y50795D02*
X121772D01*
Y48531D01*
X122352Y48686D01*
X122991Y49055D01*
X123512Y49576D01*
X123881Y50214D01*
X124036Y50795D01*
D02*
G37*
G36*
X120772D02*
X118507D01*
X118663Y50214D01*
X119031Y49576D01*
X119552Y49055D01*
X120191Y48686D01*
X120772Y48531D01*
Y50795D01*
D02*
G37*
G36*
X112225D02*
X109961D01*
Y48531D01*
X110541Y48686D01*
X111180Y49055D01*
X111701Y49576D01*
X112070Y50214D01*
X112225Y50795D01*
D02*
G37*
G36*
X108961D02*
X106696D01*
X106851Y50214D01*
X107220Y49576D01*
X107741Y49055D01*
X108380Y48686D01*
X108961Y48531D01*
Y50795D01*
D02*
G37*
G36*
X276913Y51874D02*
Y46476D01*
X281392D01*
Y46960D01*
X281223Y48249D01*
X280725Y49450D01*
X279934Y50481D01*
X278902Y51272D01*
X277701Y51770D01*
X276913Y51874D01*
D02*
G37*
G36*
X275913D02*
X275124Y51770D01*
X273923Y51272D01*
X272891Y50481D01*
X272100Y49450D01*
X271603Y48249D01*
X271433Y46960D01*
Y46476D01*
X275913D01*
Y51874D01*
D02*
G37*
G36*
X322976Y51874D02*
Y46476D01*
X327455D01*
Y46960D01*
X327286Y48249D01*
X326788Y49450D01*
X325997Y50481D01*
X324965Y51272D01*
X323764Y51770D01*
X322976Y51874D01*
D02*
G37*
G36*
X321976D02*
X321187Y51770D01*
X319986Y51272D01*
X318954Y50481D01*
X318163Y49450D01*
X317666Y48249D01*
X317496Y46960D01*
Y46476D01*
X321976D01*
Y51874D01*
D02*
G37*
G36*
X281392Y45476D02*
X276913D01*
Y40078D01*
X277701Y40181D01*
X278902Y40679D01*
X279934Y41470D01*
X280725Y42502D01*
X281223Y43703D01*
X281392Y44991D01*
Y45476D01*
D02*
G37*
G36*
X275913D02*
X271433D01*
Y44991D01*
X271603Y43703D01*
X272100Y42502D01*
X272891Y41470D01*
X273923Y40679D01*
X275124Y40181D01*
X275913Y40078D01*
Y45476D01*
D02*
G37*
G36*
X327455Y45476D02*
X322976D01*
Y40078D01*
X323764Y40181D01*
X324965Y40679D01*
X325997Y41470D01*
X326788Y42502D01*
X327286Y43703D01*
X327455Y44991D01*
Y45476D01*
D02*
G37*
G36*
X321976D02*
X317496D01*
Y44991D01*
X317666Y43703D01*
X318163Y42502D01*
X318954Y41470D01*
X319986Y40679D01*
X321187Y40181D01*
X321976Y40078D01*
Y45476D01*
D02*
G37*
G36*
X217333Y36930D02*
X216344D01*
X215390Y36674D01*
X214534Y36180D01*
X213836Y35481D01*
X213342Y34626D01*
X213160Y33950D01*
X212643D01*
X212462Y34626D01*
X211967Y35481D01*
X211269Y36180D01*
X210413Y36674D01*
X209459Y36930D01*
X208471D01*
X207516Y36674D01*
X206660Y36180D01*
X205962Y35481D01*
X205468Y34626D01*
X205212Y33671D01*
Y32683D01*
X205468Y31729D01*
X205962Y30873D01*
X206660Y30174D01*
X207516Y29680D01*
X208471Y29424D01*
X209459D01*
X210413Y29680D01*
X211269Y30174D01*
X211967Y30873D01*
X212462Y31729D01*
X212643Y32405D01*
X213160D01*
X213342Y31729D01*
X213836Y30873D01*
X214534Y30174D01*
X215390Y29680D01*
X216344Y29424D01*
X217333D01*
X218287Y29680D01*
X219143Y30174D01*
X219842Y30873D01*
X220336Y31729D01*
X220591Y32683D01*
Y33671D01*
X220336Y34626D01*
X219842Y35481D01*
X219143Y36180D01*
X218287Y36674D01*
X217333Y36930D01*
D02*
G37*
G36*
X227202Y37130D02*
X227181D01*
Y33677D01*
X230634D01*
Y33698D01*
X230364Y34703D01*
X229844Y35604D01*
X229108Y36340D01*
X228207Y36860D01*
X227202Y37130D01*
D02*
G37*
G36*
X226181D02*
X226161D01*
X225155Y36860D01*
X224254Y36340D01*
X223518Y35604D01*
X222998Y34703D01*
X222728Y33698D01*
Y33677D01*
X226181D01*
Y37130D01*
D02*
G37*
G36*
X230634Y32677D02*
X227181D01*
Y29224D01*
X227202D01*
X228207Y29494D01*
X229108Y30014D01*
X229844Y30750D01*
X230364Y31651D01*
X230634Y32657D01*
Y32677D01*
D02*
G37*
G36*
X226181D02*
X222728D01*
Y32657D01*
X222998Y31651D01*
X223518Y30750D01*
X224254Y30014D01*
X225155Y29494D01*
X226161Y29224D01*
X226181D01*
Y32677D01*
D02*
G37*
G36*
X97660Y28272D02*
X97614D01*
Y24622D01*
X101264D01*
Y24668D01*
X100981Y25724D01*
X100435Y26670D01*
X99662Y27443D01*
X98716Y27989D01*
X97660Y28272D01*
D02*
G37*
G36*
X96614D02*
X96568D01*
X95512Y27989D01*
X94566Y27443D01*
X93794Y26670D01*
X93247Y25724D01*
X92965Y24668D01*
Y24622D01*
X96614D01*
Y28272D01*
D02*
G37*
G36*
X46479D02*
X46433D01*
Y24622D01*
X50083D01*
Y24668D01*
X49800Y25724D01*
X49254Y26670D01*
X48481Y27443D01*
X47535Y27989D01*
X46479Y28272D01*
D02*
G37*
G36*
X45433D02*
X45387D01*
X44331Y27989D01*
X43385Y27443D01*
X42613Y26670D01*
X42066Y25724D01*
X41783Y24668D01*
Y24622D01*
X45433D01*
Y28272D01*
D02*
G37*
G36*
X240264Y30069D02*
X238795D01*
Y23638D01*
X243258D01*
Y27075D01*
X243156Y27850D01*
X242857Y28572D01*
X242381Y29192D01*
X241761Y29668D01*
X241039Y29967D01*
X240264Y30069D01*
D02*
G37*
G36*
X237795D02*
X236327D01*
X235552Y29967D01*
X234830Y29668D01*
X234210Y29192D01*
X233734Y28572D01*
X233435Y27850D01*
X233333Y27075D01*
Y23638D01*
X237795D01*
Y30069D01*
D02*
G37*
G36*
X189476D02*
X188008D01*
Y23638D01*
X192471D01*
Y27075D01*
X192368Y27850D01*
X192069Y28572D01*
X191594Y29192D01*
X190973Y29668D01*
X190251Y29967D01*
X189476Y30069D01*
D02*
G37*
G36*
X187008D02*
X185539D01*
X184764Y29967D01*
X184042Y29668D01*
X183422Y29192D01*
X182946Y28572D01*
X182647Y27850D01*
X182545Y27075D01*
Y23638D01*
X187008D01*
Y30069D01*
D02*
G37*
G36*
X81064Y28072D02*
X73165D01*
Y20173D01*
X81064D01*
Y28072D01*
D02*
G37*
G36*
X36453D02*
X35413D01*
X34409Y27803D01*
X33508Y27283D01*
X32773Y26547D01*
X32253Y25646D01*
X31984Y24642D01*
Y23602D01*
X32253Y22598D01*
X32773Y21697D01*
X33508Y20962D01*
X34409Y20442D01*
X35413Y20173D01*
X36453D01*
X37458Y20442D01*
X38358Y20962D01*
X39094Y21697D01*
X39614Y22598D01*
X39883Y23602D01*
Y24642D01*
X39614Y25646D01*
X39094Y26547D01*
X38358Y27283D01*
X37458Y27803D01*
X36453Y28072D01*
D02*
G37*
G36*
X29883D02*
X21983D01*
Y20173D01*
X29883D01*
Y28072D01*
D02*
G37*
G36*
X101264Y23622D02*
X97614D01*
Y19973D01*
X97660D01*
X98716Y20255D01*
X99662Y20801D01*
X100435Y21574D01*
X100981Y22520D01*
X101264Y23576D01*
Y23622D01*
D02*
G37*
G36*
X96614D02*
X92965D01*
Y23576D01*
X93247Y22520D01*
X93794Y21574D01*
X94566Y20801D01*
X95512Y20255D01*
X96568Y19973D01*
X96614D01*
Y23622D01*
D02*
G37*
G36*
X50083D02*
X46433D01*
Y19973D01*
X46479D01*
X47535Y20255D01*
X48481Y20801D01*
X49254Y21574D01*
X49800Y22520D01*
X50083Y23576D01*
Y23622D01*
D02*
G37*
G36*
X45433D02*
X41783D01*
Y23576D01*
X42066Y22520D01*
X42613Y21574D01*
X43385Y20801D01*
X44331Y20255D01*
X45387Y19973D01*
X45433D01*
Y23622D01*
D02*
G37*
G36*
X293397Y22369D02*
X289944D01*
Y18916D01*
X293397D01*
Y22369D01*
D02*
G37*
G36*
X288944D02*
X285491D01*
Y18916D01*
X288944D01*
Y22369D01*
D02*
G37*
G36*
X159488Y20476D02*
Y16473D01*
X161983D01*
Y17548D01*
X161881Y18323D01*
X161581Y19045D01*
X161106Y19665D01*
X160485Y20141D01*
X159763Y20440D01*
X159488Y20476D01*
D02*
G37*
G36*
X158488D02*
X158213Y20440D01*
X157491Y20141D01*
X156871Y19665D01*
X156395Y19045D01*
X156096Y18323D01*
X155994Y17548D01*
Y16473D01*
X158488D01*
Y20476D01*
D02*
G37*
G36*
X125488Y20476D02*
Y16473D01*
X127982D01*
Y17548D01*
X127881Y18323D01*
X127581Y19045D01*
X127106Y19665D01*
X126486Y20141D01*
X125763Y20440D01*
X125488Y20476D01*
D02*
G37*
G36*
X124488D02*
X124214Y20440D01*
X123491Y20141D01*
X122871Y19665D01*
X122395Y19045D01*
X122096Y18323D01*
X121994Y17548D01*
Y16473D01*
X124488D01*
Y20476D01*
D02*
G37*
G36*
X243258Y22638D02*
X238795D01*
Y16207D01*
X240264D01*
X241039Y16309D01*
X241761Y16608D01*
X242381Y17084D01*
X242857Y17704D01*
X243156Y18426D01*
X243258Y19201D01*
Y22638D01*
D02*
G37*
G36*
X237795D02*
X233333D01*
Y19201D01*
X233435Y18426D01*
X233734Y17704D01*
X234210Y17084D01*
X234830Y16608D01*
X235552Y16309D01*
X236327Y16207D01*
X237795D01*
Y22638D01*
D02*
G37*
G36*
X192471D02*
X188008D01*
Y16207D01*
X189476D01*
X190251Y16309D01*
X190973Y16608D01*
X191594Y17084D01*
X192069Y17704D01*
X192368Y18426D01*
X192471Y19201D01*
Y22638D01*
D02*
G37*
G36*
X187008D02*
X182545D01*
Y19201D01*
X182647Y18426D01*
X182946Y17704D01*
X183422Y17084D01*
X184042Y16608D01*
X184764Y16309D01*
X185539Y16207D01*
X187008D01*
Y22638D01*
D02*
G37*
G36*
X309938Y22169D02*
X308950D01*
X307996Y21914D01*
X307140Y21419D01*
X306441Y20721D01*
X305947Y19865D01*
X305691Y18911D01*
Y17922D01*
X305947Y16968D01*
X306441Y16112D01*
X307140Y15414D01*
X307996Y14920D01*
X308950Y14664D01*
X309938D01*
X310893Y14920D01*
X311748Y15414D01*
X312447Y16112D01*
X312941Y16968D01*
X313197Y17922D01*
Y18911D01*
X312941Y19865D01*
X312447Y20721D01*
X311748Y21419D01*
X310893Y21914D01*
X309938Y22169D01*
D02*
G37*
G36*
X293397Y17917D02*
X289944D01*
Y14464D01*
X293397D01*
Y17917D01*
D02*
G37*
G36*
X288944D02*
X285491D01*
Y14464D01*
X288944D01*
Y17917D01*
D02*
G37*
G36*
X161983Y15473D02*
X159488D01*
Y11470D01*
X159763Y11506D01*
X160485Y11805D01*
X161106Y12281D01*
X161581Y12901D01*
X161881Y13623D01*
X161983Y14398D01*
Y15473D01*
D02*
G37*
G36*
X158488D02*
X155994D01*
Y14398D01*
X156096Y13623D01*
X156395Y12901D01*
X156871Y12281D01*
X157491Y11805D01*
X158213Y11506D01*
X158488Y11470D01*
Y15473D01*
D02*
G37*
G36*
X127982Y15473D02*
X125488D01*
Y11470D01*
X125763Y11506D01*
X126486Y11805D01*
X127106Y12281D01*
X127581Y12901D01*
X127881Y13623D01*
X127982Y14398D01*
Y15473D01*
D02*
G37*
G36*
X124488D02*
X121994D01*
Y14398D01*
X122096Y13623D01*
X122395Y12901D01*
X122871Y12281D01*
X123491Y11805D01*
X124214Y11506D01*
X124488Y11470D01*
Y15473D01*
D02*
G37*
G36*
X159488Y5516D02*
Y1513D01*
X161983D01*
Y2587D01*
X161881Y3362D01*
X161581Y4084D01*
X161106Y4704D01*
X160485Y5180D01*
X159763Y5479D01*
X159488Y5516D01*
D02*
G37*
G36*
X158488D02*
X158213Y5479D01*
X157491Y5180D01*
X156871Y4704D01*
X156395Y4084D01*
X156096Y3362D01*
X155994Y2587D01*
Y1513D01*
X158488D01*
Y5516D01*
D02*
G37*
G36*
X125488D02*
Y1513D01*
X127982D01*
Y2587D01*
X127881Y3362D01*
X127581Y4084D01*
X127106Y4704D01*
X126486Y5180D01*
X125763Y5479D01*
X125488Y5516D01*
D02*
G37*
G36*
X124488D02*
X124214Y5479D01*
X123491Y5180D01*
X122871Y4704D01*
X122395Y4084D01*
X122096Y3362D01*
X121994Y2587D01*
Y1513D01*
X124488D01*
Y5516D01*
D02*
G37*
G36*
X371414Y8980D02*
X371079D01*
Y1000D01*
X379059D01*
Y1335D01*
X378733Y2974D01*
X378094Y4517D01*
X377166Y5906D01*
X375985Y7087D01*
X374596Y8015D01*
X373052Y8654D01*
X371414Y8980D01*
D02*
G37*
G36*
X370079D02*
X369743D01*
X368105Y8654D01*
X366562Y8015D01*
X365173Y7087D01*
X363992Y5906D01*
X363064Y4517D01*
X362424Y2974D01*
X362098Y1335D01*
Y1000D01*
X370079D01*
Y8980D01*
D02*
G37*
G36*
X97660Y4650D02*
X97614D01*
Y1000D01*
X101264D01*
Y1046D01*
X100981Y2102D01*
X100435Y3048D01*
X99662Y3821D01*
X98716Y4367D01*
X97660Y4650D01*
D02*
G37*
G36*
X96614D02*
X96568D01*
X95512Y4367D01*
X94566Y3821D01*
X93794Y3048D01*
X93247Y2102D01*
X92965Y1046D01*
Y1000D01*
X96614D01*
Y4650D01*
D02*
G37*
G36*
X46322D02*
X46276D01*
Y1000D01*
X49925D01*
Y1046D01*
X49642Y2102D01*
X49096Y3048D01*
X48324Y3821D01*
X47377Y4367D01*
X46322Y4650D01*
D02*
G37*
G36*
X45276D02*
X45229D01*
X44174Y4367D01*
X43228Y3821D01*
X42455Y3048D01*
X41909Y2102D01*
X41626Y1046D01*
Y1000D01*
X45276D01*
Y4650D01*
D02*
G37*
G36*
X1335Y8980D02*
X1000D01*
Y1000D01*
X8980D01*
Y1335D01*
X8654Y2974D01*
X8015Y4517D01*
X7087Y5906D01*
X5906Y7087D01*
X4517Y8015D01*
X2974Y8654D01*
X1335Y8980D01*
D02*
G37*
G36*
X0D02*
X-335D01*
X-1974Y8654D01*
X-3517Y8015D01*
X-4906Y7087D01*
X-6087Y5906D01*
X-7015Y4517D01*
X-7654Y2974D01*
X-7980Y1335D01*
Y1000D01*
X0D01*
Y8980D01*
D02*
G37*
G36*
X320129Y3662D02*
X319296D01*
X318492Y3447D01*
X317771Y3030D01*
X317182Y2442D01*
X316766Y1721D01*
X316550Y916D01*
Y84D01*
X316766Y-721D01*
X317182Y-1442D01*
X317771Y-2030D01*
X318492Y-2447D01*
X319296Y-2662D01*
X320129D01*
X320933Y-2447D01*
X321654Y-2030D01*
X322243Y-1442D01*
X322659Y-721D01*
X322875Y84D01*
Y916D01*
X322659Y1721D01*
X322243Y2442D01*
X321654Y3030D01*
X320933Y3447D01*
X320129Y3662D01*
D02*
G37*
G36*
X87634Y4450D02*
X86594D01*
X85590Y4180D01*
X84689Y3661D01*
X83954Y2925D01*
X83434Y2025D01*
X83165Y1020D01*
Y-20D01*
X83434Y-1025D01*
X83954Y-1925D01*
X84689Y-2661D01*
X85590Y-3180D01*
X86594Y-3450D01*
X87634D01*
X88639Y-3180D01*
X89539Y-2661D01*
X90275Y-1925D01*
X90795Y-1025D01*
X91064Y-20D01*
Y1020D01*
X90795Y2025D01*
X90275Y2925D01*
X89539Y3661D01*
X88639Y4180D01*
X87634Y4450D01*
D02*
G37*
G36*
X81064D02*
X73165D01*
Y-3450D01*
X81064D01*
Y4450D01*
D02*
G37*
G36*
X36296D02*
X35256D01*
X34251Y4180D01*
X33351Y3661D01*
X32615Y2925D01*
X32095Y2025D01*
X31826Y1020D01*
Y-20D01*
X32095Y-1025D01*
X32615Y-1925D01*
X33351Y-2661D01*
X34251Y-3180D01*
X35256Y-3450D01*
X36296D01*
X37300Y-3180D01*
X38201Y-2661D01*
X38936Y-1925D01*
X39456Y-1025D01*
X39725Y-20D01*
Y1020D01*
X39456Y2025D01*
X38936Y2925D01*
X38201Y3661D01*
X37300Y4180D01*
X36296Y4450D01*
D02*
G37*
G36*
X29725D02*
X21826D01*
Y-3450D01*
X29725D01*
Y4450D01*
D02*
G37*
G36*
X161983Y513D02*
X159488D01*
Y-3491D01*
X159763Y-3454D01*
X160485Y-3155D01*
X161106Y-2679D01*
X161581Y-2059D01*
X161881Y-1337D01*
X161983Y-562D01*
Y513D01*
D02*
G37*
G36*
X158488D02*
X155994D01*
Y-562D01*
X156096Y-1337D01*
X156395Y-2059D01*
X156871Y-2679D01*
X157491Y-3155D01*
X158213Y-3454D01*
X158488Y-3491D01*
Y513D01*
D02*
G37*
G36*
X127982D02*
X125488D01*
Y-3491D01*
X125763Y-3454D01*
X126486Y-3155D01*
X127106Y-2679D01*
X127581Y-2059D01*
X127881Y-1337D01*
X127982Y-562D01*
Y513D01*
D02*
G37*
G36*
X124488D02*
X121994D01*
Y-562D01*
X122096Y-1337D01*
X122395Y-2059D01*
X122871Y-2679D01*
X123491Y-3155D01*
X124214Y-3454D01*
X124488Y-3491D01*
Y513D01*
D02*
G37*
G36*
X101264Y0D02*
X97614D01*
Y-3650D01*
X97660D01*
X98716Y-3367D01*
X99662Y-2820D01*
X100435Y-2048D01*
X100981Y-1102D01*
X101264Y-46D01*
Y0D01*
D02*
G37*
G36*
X96614D02*
X92965D01*
Y-46D01*
X93247Y-1102D01*
X93794Y-2048D01*
X94566Y-2820D01*
X95512Y-3367D01*
X96568Y-3650D01*
X96614D01*
Y0D01*
D02*
G37*
G36*
X49925D02*
X46276D01*
Y-3650D01*
X46322D01*
X47377Y-3367D01*
X48324Y-2820D01*
X49096Y-2048D01*
X49642Y-1102D01*
X49925Y-46D01*
Y0D01*
D02*
G37*
G36*
X45276D02*
X41626D01*
Y-46D01*
X41909Y-1102D01*
X42455Y-2048D01*
X43228Y-2820D01*
X44174Y-3367D01*
X45229Y-3650D01*
X45276D01*
Y0D01*
D02*
G37*
G36*
X379059D02*
X371079D01*
Y-7980D01*
X371414D01*
X373052Y-7654D01*
X374596Y-7015D01*
X375985Y-6087D01*
X377166Y-4906D01*
X378094Y-3517D01*
X378733Y-1974D01*
X379059Y-335D01*
Y0D01*
D02*
G37*
G36*
X370079D02*
X362098D01*
Y-335D01*
X362424Y-1974D01*
X363064Y-3517D01*
X363992Y-4906D01*
X365173Y-6087D01*
X366562Y-7015D01*
X368105Y-7654D01*
X369743Y-7980D01*
X370079D01*
Y0D01*
D02*
G37*
G36*
X8980D02*
X1000D01*
Y-7980D01*
X1335D01*
X2974Y-7654D01*
X4517Y-7015D01*
X5906Y-6087D01*
X7087Y-4906D01*
X8015Y-3517D01*
X8654Y-1974D01*
X8980Y-335D01*
Y0D01*
D02*
G37*
G36*
X0D02*
X-7980D01*
Y-335D01*
X-7654Y-1974D01*
X-7015Y-3517D01*
X-6087Y-4906D01*
X-4906Y-6087D01*
X-3517Y-7015D01*
X-1974Y-7654D01*
X-335Y-7980D01*
X0D01*
Y0D01*
D02*
G37*
%LPD*%
G36*
X345145Y347886D02*
X344975Y347826D01*
X344825Y347726D01*
X344695Y347586D01*
X344585Y347406D01*
X344495Y347186D01*
X344425Y346926D01*
X344375Y346626D01*
X344345Y346286D01*
X344335Y345906D01*
X342335D01*
X342325Y346286D01*
X342295Y346626D01*
X342245Y346926D01*
X342175Y347186D01*
X342085Y347406D01*
X341975Y347586D01*
X341845Y347726D01*
X341695Y347826D01*
X341525Y347886D01*
X341335Y347906D01*
X345335D01*
X345145Y347886D01*
D02*
G37*
G36*
X344345Y328090D02*
X344375Y327748D01*
X344425Y327446D01*
X344495Y327185D01*
X344585Y326963D01*
X344695Y326782D01*
X344825Y326641D01*
X344975Y326541D01*
X345145Y326480D01*
X345335Y326460D01*
X341335D01*
X341525Y326480D01*
X341695Y326541D01*
X341845Y326641D01*
X341975Y326782D01*
X342085Y326963D01*
X342175Y327185D01*
X342245Y327446D01*
X342295Y327748D01*
X342325Y328090D01*
X342335Y328472D01*
X344335D01*
X344345Y328090D01*
D02*
G37*
G36*
X325131Y348443D02*
X324619Y347857D01*
X324411Y347580D01*
X324235Y347313D01*
X324091Y347057D01*
X323979Y346811D01*
X323899Y346575D01*
X323851Y346350D01*
X323835Y346136D01*
X322835D01*
X322819Y346350D01*
X322771Y346575D01*
X322691Y346811D01*
X322579Y347057D01*
X322435Y347313D01*
X322259Y347580D01*
X322051Y347857D01*
X321539Y348443D01*
X321235Y348751D01*
X325435D01*
X325131Y348443D01*
D02*
G37*
G36*
X323835Y334161D02*
X322835Y332661D01*
X322825Y332851D01*
X322795Y333021D01*
X322745Y333171D01*
X322675Y333301D01*
X322585Y333411D01*
X322475Y333501D01*
X322345Y333571D01*
X322195Y333621D01*
X322025Y333651D01*
X321835Y333661D01*
Y334661D01*
X322025Y334671D01*
X322195Y334701D01*
X322345Y334751D01*
X322475Y334821D01*
X322585Y334911D01*
X322675Y335021D01*
X322745Y335151D01*
X322795Y335301D01*
X322825Y335471D01*
X322835Y335661D01*
X323835Y334161D01*
D02*
G37*
G36*
X323852Y328112D02*
X323903Y327879D01*
X323988Y327633D01*
X324107Y327376D01*
X324261Y327107D01*
X324448Y326826D01*
X324670Y326533D01*
X325216Y325912D01*
X325539Y325584D01*
X321130D01*
X321454Y325912D01*
X321999Y326533D01*
X322221Y326826D01*
X322409Y327107D01*
X322562Y327376D01*
X322681Y327633D01*
X322766Y327879D01*
X322818Y328112D01*
X322835Y328334D01*
X323835D01*
X323852Y328112D01*
D02*
G37*
G36*
X221197Y163371D02*
X221231Y163286D01*
X221288Y163212D01*
X221367Y163147D01*
X221469Y163093D01*
X221594Y163048D01*
X221742Y163013D01*
X221912Y162988D01*
X222105Y162973D01*
X222321Y162969D01*
Y161969D01*
X222105Y161963D01*
X221912Y161949D01*
X221742Y161924D01*
X221594Y161889D01*
X221469Y161844D01*
X221367Y161790D01*
X221288Y161725D01*
X221231Y161651D01*
X221197Y161566D01*
X221186Y161472D01*
Y163465D01*
X221197Y163371D01*
D02*
G37*
G36*
X246726Y320985D02*
X246571Y321098D01*
X246387Y321154D01*
X246175D01*
X245934Y321098D01*
X245666Y320985D01*
X245369Y320815D01*
X245043Y320588D01*
X244690Y320306D01*
X243898Y319570D01*
X242484Y320985D01*
X242880Y321395D01*
X243502Y322130D01*
X243728Y322455D01*
X243898Y322752D01*
X244011Y323021D01*
X244068Y323261D01*
Y323474D01*
X244011Y323657D01*
X243898Y323813D01*
X246726Y320985D01*
D02*
G37*
G36*
X213093Y260974D02*
X213075Y261116D01*
X213021Y261242D01*
X212932Y261354D01*
X212806Y261451D01*
X212644Y261532D01*
X212447Y261599D01*
X212213Y261651D01*
X211944Y261689D01*
X211639Y261711D01*
X211298Y261719D01*
Y263218D01*
X211639Y263226D01*
X212213Y263285D01*
X212447Y263338D01*
X212644Y263405D01*
X212806Y263487D01*
X212932Y263583D01*
X213021Y263695D01*
X213075Y263821D01*
X213093Y263963D01*
Y260974D01*
D02*
G37*
G36*
X205815Y264434D02*
X205860Y264178D01*
X205935Y263953D01*
X206040Y263758D01*
X206175Y263594D01*
X206340Y263458D01*
X206535Y263353D01*
X206760Y263279D01*
X207015Y263233D01*
X207300Y263218D01*
Y261719D01*
X207015Y261703D01*
X206760Y261659D01*
X206535Y261583D01*
X206340Y261478D01*
X206175Y261344D01*
X206040Y261178D01*
X205935Y260983D01*
X205860Y260758D01*
X205815Y260504D01*
X205800Y260219D01*
X204300Y262469D01*
X205800Y264719D01*
X205815Y264434D01*
D02*
G37*
G36*
X102526Y226800D02*
X102740Y226647D01*
X102977Y226513D01*
X103236Y226397D01*
X103519Y226300D01*
X103824Y226221D01*
X104152Y226161D01*
X104502Y226119D01*
X104876Y226096D01*
X105272Y226090D01*
X102154Y222972D01*
X102149Y223369D01*
X102083Y224092D01*
X102023Y224420D01*
X101944Y224725D01*
X101847Y225008D01*
X101731Y225267D01*
X101597Y225504D01*
X101444Y225718D01*
X101274Y225910D01*
X102334Y226971D01*
X102526Y226800D01*
D02*
G37*
G36*
X59333Y225910D02*
X59162Y225718D01*
X59009Y225504D01*
X58875Y225267D01*
X58760Y225008D01*
X58662Y224725D01*
X58584Y224420D01*
X58523Y224092D01*
X58481Y223742D01*
X58458Y223369D01*
X58453Y222972D01*
X55335Y226090D01*
X55731Y226096D01*
X56454Y226161D01*
X56782Y226221D01*
X57087Y226300D01*
X57370Y226397D01*
X57630Y226513D01*
X57866Y226647D01*
X58081Y226800D01*
X58272Y226971D01*
X59333Y225910D01*
D02*
G37*
G36*
X108458Y222513D02*
X108523Y221790D01*
X108584Y221462D01*
X108662Y221157D01*
X108760Y220874D01*
X108875Y220615D01*
X109009Y220378D01*
X109162Y220163D01*
X109333Y219972D01*
X108272Y218911D01*
X108081Y219082D01*
X107867Y219235D01*
X107630Y219369D01*
X107370Y219484D01*
X107088Y219582D01*
X106782Y219660D01*
X106455Y219721D01*
X106104Y219763D01*
X105731Y219786D01*
X105335Y219792D01*
X108453Y222909D01*
X108458Y222513D01*
D02*
G37*
G36*
X55272Y219792D02*
X54876Y219786D01*
X54152Y219721D01*
X53824Y219660D01*
X53519Y219582D01*
X53236Y219484D01*
X52977Y219369D01*
X52740Y219235D01*
X52526Y219082D01*
X52334Y218911D01*
X51274Y219972D01*
X51444Y220163D01*
X51597Y220378D01*
X51731Y220615D01*
X51847Y220874D01*
X51944Y221157D01*
X52023Y221462D01*
X52083Y221790D01*
X52125Y222140D01*
X52149Y222513D01*
X52154Y222909D01*
X55272Y219792D01*
D02*
G37*
G36*
X43257Y154063D02*
X43280Y153806D01*
X43317Y153579D01*
X43370Y153383D01*
X43437Y153216D01*
X43520Y153080D01*
X43617Y152974D01*
X43730Y152899D01*
X43857Y152853D01*
X44000Y152838D01*
X41000D01*
X41142Y152853D01*
X41270Y152899D01*
X41383Y152974D01*
X41480Y153080D01*
X41563Y153216D01*
X41630Y153383D01*
X41682Y153579D01*
X41720Y153806D01*
X41743Y154063D01*
X41750Y154350D01*
X43250D01*
X43257Y154063D01*
D02*
G37*
G36*
X42271Y148150D02*
X42154Y148235D01*
X42017Y148277D01*
X41857D01*
X41677Y148235D01*
X41476Y148150D01*
X41253Y148022D01*
X41009Y147853D01*
X40744Y147641D01*
X40150Y147089D01*
X39089Y148150D01*
X39386Y148457D01*
X39853Y149009D01*
X40023Y149253D01*
X40150Y149476D01*
X40235Y149677D01*
X40277Y149857D01*
Y150017D01*
X40235Y150154D01*
X40150Y150271D01*
X42271Y148150D01*
D02*
G37*
G36*
X38258Y140102D02*
X38280Y139845D01*
X38317Y139619D01*
X38370Y139422D01*
X38438Y139256D01*
X38520Y139120D01*
X38618Y139014D01*
X38730Y138938D01*
X38857Y138893D01*
X39000Y138878D01*
X36000D01*
X36143Y138893D01*
X36270Y138938D01*
X36382Y139014D01*
X36480Y139120D01*
X36562Y139256D01*
X36630Y139422D01*
X36683Y139619D01*
X36720Y139845D01*
X36742Y140102D01*
X36750Y140390D01*
X38250D01*
X38258Y140102D01*
D02*
G37*
G36*
X266313Y139200D02*
X266343Y139115D01*
X266394Y139040D01*
X266465Y138975D01*
X266556Y138920D01*
X266667Y138875D01*
X266799Y138840D01*
X266950Y138815D01*
X267123Y138800D01*
X267315Y138795D01*
Y137795D01*
X267123Y137790D01*
X266950Y137775D01*
X266799Y137750D01*
X266667Y137715D01*
X266556Y137670D01*
X266465Y137615D01*
X266394Y137550D01*
X266343Y137475D01*
X266313Y137390D01*
X266303Y137295D01*
Y139295D01*
X266313Y139200D01*
D02*
G37*
G36*
X290318Y107454D02*
X290191Y107409D01*
X290078Y107334D01*
X289981Y107229D01*
X289898Y107094D01*
X289831Y106929D01*
X289778Y106734D01*
X289741Y106509D01*
X289718Y106254D01*
X289711Y105969D01*
X288211D01*
X288203Y106254D01*
X288181Y106509D01*
X288143Y106734D01*
X288091Y106929D01*
X288023Y107094D01*
X287941Y107229D01*
X287843Y107334D01*
X287731Y107409D01*
X287603Y107454D01*
X287461Y107469D01*
X290461D01*
X290318Y107454D01*
D02*
G37*
G36*
X289718Y99209D02*
X289741Y98952D01*
X289778Y98725D01*
X289831Y98528D01*
X289898Y98362D01*
X289981Y98226D01*
X290078Y98120D01*
X290191Y98044D01*
X290318Y97999D01*
X290461Y97984D01*
X287461D01*
X287603Y97999D01*
X287731Y98044D01*
X287843Y98120D01*
X287941Y98226D01*
X288023Y98362D01*
X288091Y98528D01*
X288143Y98725D01*
X288181Y98952D01*
X288203Y99209D01*
X288211Y99496D01*
X289711D01*
X289718Y99209D01*
D02*
G37*
G36*
X299478Y99636D02*
X299529Y99402D01*
X299614Y99157D01*
X299733Y98900D01*
X299887Y98631D01*
X300074Y98350D01*
X300296Y98057D01*
X300841Y97436D01*
X301165Y97108D01*
X296756D01*
X297080Y97436D01*
X297625Y98057D01*
X297847Y98350D01*
X298035Y98631D01*
X298188Y98900D01*
X298307Y99157D01*
X298392Y99402D01*
X298444Y99636D01*
X298461Y99858D01*
X299461D01*
X299478Y99636D01*
D02*
G37*
G36*
X285823Y91721D02*
X284323Y91719D01*
Y93218D01*
X284610Y93226D01*
X284866Y93248D01*
X285092Y93286D01*
X285289Y93339D01*
X285455Y93406D01*
X285591Y93489D01*
X285697Y93586D01*
X285773Y93699D01*
X285819Y93826D01*
X285835Y93968D01*
X285823Y91721D01*
D02*
G37*
G36*
X160996Y93821D02*
X161049Y93695D01*
X161139Y93583D01*
X161265Y93486D01*
X161426Y93405D01*
X161624Y93338D01*
X161857Y93286D01*
X162127Y93248D01*
X162432Y93226D01*
X162773Y93218D01*
Y91719D01*
X162432Y91711D01*
X161857Y91651D01*
X161624Y91599D01*
X161426Y91532D01*
X161265Y91451D01*
X161139Y91354D01*
X161049Y91242D01*
X160996Y91116D01*
X160978Y90974D01*
Y93963D01*
X160996Y93821D01*
D02*
G37*
G36*
X221357Y93826D02*
X221403Y93699D01*
X221478Y93586D01*
X221584Y93489D01*
X221720Y93406D01*
X221886Y93339D01*
X222083Y93286D01*
X222310Y93248D01*
X222567Y93226D01*
X222854Y93218D01*
Y91719D01*
X222567Y91711D01*
X222310Y91689D01*
X222083Y91651D01*
X221886Y91598D01*
X221720Y91531D01*
X221584Y91448D01*
X221478Y91351D01*
X221403Y91238D01*
X221357Y91111D01*
X221342Y90969D01*
Y93968D01*
X221357Y93826D01*
D02*
G37*
G36*
X212729Y90969D02*
X212714Y91111D01*
X212668Y91238D01*
X212593Y91351D01*
X212487Y91448D01*
X212351Y91531D01*
X212184Y91598D01*
X211988Y91651D01*
X211761Y91689D01*
X211504Y91711D01*
X211217Y91719D01*
Y93218D01*
X211504Y93226D01*
X211761Y93248D01*
X211988Y93286D01*
X212184Y93339D01*
X212351Y93406D01*
X212487Y93489D01*
X212593Y93586D01*
X212668Y93699D01*
X212714Y93826D01*
X212729Y93968D01*
Y90969D01*
D02*
G37*
G36*
X153298Y90614D02*
X153263Y90755D01*
X153193Y90881D01*
X153089Y90992D01*
X152952Y91089D01*
X152779Y91171D01*
X152573Y91237D01*
X152333Y91290D01*
X152059Y91327D01*
X151750Y91349D01*
X151408Y91356D01*
X151239Y92856D01*
X151576Y92864D01*
X151876Y92886D01*
X152139Y92923D01*
X152364Y92976D01*
X152551Y93043D01*
X152701Y93125D01*
X152814Y93222D01*
X152889Y93334D01*
X152927Y93461D01*
X152927Y93603D01*
X153298Y90614D01*
D02*
G37*
G36*
X218393Y89198D02*
X218265Y89153D01*
X218237Y89134D01*
X218535D01*
X218393Y89119D01*
X218265Y89074D01*
X218153Y88999D01*
X218055Y88894D01*
X217973Y88759D01*
X217905Y88594D01*
X217853Y88399D01*
X217815Y88174D01*
X217793Y87919D01*
X217785Y87634D01*
X216285D01*
X216278Y87919D01*
X216255Y88174D01*
X216218Y88399D01*
X216165Y88594D01*
X216098Y88759D01*
X216015Y88894D01*
X215918Y88999D01*
X215805Y89074D01*
X215678Y89119D01*
X215535Y89134D01*
X215833D01*
X215805Y89153D01*
X215678Y89198D01*
X215535Y89213D01*
X218535D01*
X218393Y89198D01*
D02*
G37*
G36*
X200133Y37451D02*
X200165Y37183D01*
X200218Y36921D01*
X200293Y36667D01*
X200389Y36419D01*
X200506Y36178D01*
X200645Y35945D01*
X200805Y35718D01*
X200986Y35498D01*
X201189Y35286D01*
X197055D01*
X197258Y35498D01*
X197439Y35718D01*
X197599Y35945D01*
X197738Y36178D01*
X197855Y36419D01*
X197951Y36667D01*
X198026Y36921D01*
X198079Y37183D01*
X198111Y37451D01*
X198122Y37727D01*
X200122D01*
X200133Y37451D01*
D02*
G37*
G36*
X256332Y32825D02*
X256886Y32356D01*
X257130Y32185D01*
X257353Y32057D01*
X257554Y31971D01*
X257734Y31927D01*
X257892Y31926D01*
X258030Y31967D01*
X258145Y32051D01*
X256036Y29941D01*
X256119Y30057D01*
X256161Y30194D01*
X256159Y30353D01*
X256116Y30533D01*
X256030Y30734D01*
X255901Y30957D01*
X255730Y31201D01*
X255517Y31467D01*
X254963Y32063D01*
X256024Y33123D01*
X256332Y32825D01*
D02*
G37*
G36*
X338713Y28213D02*
X338698Y28355D01*
X338652Y28483D01*
X338577Y28595D01*
X338471Y28693D01*
X338335Y28775D01*
X338169Y28843D01*
X337972Y28895D01*
X337745Y28933D01*
X337488Y28955D01*
X337201Y28963D01*
Y30463D01*
X337488Y30470D01*
X337745Y30493D01*
X337972Y30530D01*
X338169Y30583D01*
X338335Y30650D01*
X338471Y30733D01*
X338577Y30830D01*
X338652Y30943D01*
X338698Y31070D01*
X338713Y31213D01*
Y28213D01*
D02*
G37*
G36*
X260727Y31070D02*
X260773Y30943D01*
X260848Y30830D01*
X260954Y30733D01*
X261090Y30650D01*
X261257Y30583D01*
X261453Y30530D01*
X261680Y30493D01*
X261937Y30470D01*
X262224Y30463D01*
Y28963D01*
X261937Y28955D01*
X261680Y28933D01*
X261453Y28895D01*
X261257Y28843D01*
X261090Y28775D01*
X260954Y28693D01*
X260848Y28595D01*
X260773Y28483D01*
X260727Y28355D01*
X260712Y28213D01*
Y31213D01*
X260727Y31070D01*
D02*
G37*
G36*
X281963Y28963D02*
X281678Y28948D01*
X281423Y28903D01*
X281198Y28828D01*
X281003Y28723D01*
X280838Y28588D01*
X280703Y28423D01*
X280598Y28228D01*
X280523Y28003D01*
X280478Y27748D01*
X280463Y27463D01*
X278963D01*
X278948Y27748D01*
X278903Y28003D01*
X278828Y28228D01*
X278723Y28423D01*
X278588Y28588D01*
X278423Y28723D01*
X278228Y28828D01*
X278003Y28903D01*
X277748Y28948D01*
X277463Y28963D01*
X279713Y30463D01*
X281963Y28963D01*
D02*
G37*
G36*
X280470Y4063D02*
X280493Y3806D01*
X280530Y3579D01*
X280583Y3382D01*
X280650Y3216D01*
X280733Y3080D01*
X280830Y2974D01*
X280943Y2899D01*
X281070Y2853D01*
X281213Y2838D01*
X278213D01*
X278355Y2853D01*
X278483Y2899D01*
X278595Y2974D01*
X278693Y3080D01*
X278775Y3216D01*
X278843Y3382D01*
X278895Y3579D01*
X278933Y3806D01*
X278955Y4063D01*
X278963Y4350D01*
X280463D01*
X280470Y4063D01*
D02*
G37*
G36*
X315215Y320757D02*
X314670Y320136D01*
X314448Y319843D01*
X314261Y319562D01*
X314107Y319293D01*
X313988Y319036D01*
X313903Y318791D01*
X313852Y318557D01*
X313835Y318335D01*
X312835D01*
X312818Y318557D01*
X312767Y318791D01*
X312681Y319036D01*
X312562Y319293D01*
X312408Y319562D01*
X312221Y319843D01*
X311999Y320136D01*
X311454Y320757D01*
X311130Y321085D01*
X315539D01*
X315215Y320757D01*
D02*
G37*
G36*
X257872Y272269D02*
X258446Y271768D01*
X258718Y271564D01*
X258980Y271392D01*
X259233Y271251D01*
X259475Y271141D01*
X259708Y271063D01*
X259930Y271016D01*
X260142Y271000D01*
Y270000D01*
X259930Y269984D01*
X259708Y269937D01*
X259475Y269859D01*
X259233Y269749D01*
X258980Y269608D01*
X258718Y269436D01*
X258446Y269232D01*
X257872Y268731D01*
X257569Y268433D01*
Y272567D01*
X257872Y272269D01*
D02*
G37*
G36*
X253352Y268433D02*
X253050Y268731D01*
X252475Y269232D01*
X252203Y269436D01*
X251941Y269608D01*
X251688Y269749D01*
X251446Y269859D01*
X251214Y269937D01*
X250991Y269984D01*
X250779Y270000D01*
Y271000D01*
X250991Y271016D01*
X251214Y271063D01*
X251446Y271141D01*
X251688Y271251D01*
X251941Y271392D01*
X252203Y271564D01*
X252475Y271768D01*
X253050Y272269D01*
X253352Y272567D01*
Y268433D01*
D02*
G37*
G36*
X221197Y153371D02*
X221231Y153286D01*
X221288Y153212D01*
X221367Y153147D01*
X221469Y153093D01*
X221594Y153048D01*
X221742Y153013D01*
X221912Y152988D01*
X222105Y152973D01*
X222321Y152969D01*
Y151969D01*
X222105Y151963D01*
X221912Y151949D01*
X221742Y151924D01*
X221594Y151889D01*
X221469Y151844D01*
X221367Y151790D01*
X221288Y151725D01*
X221231Y151651D01*
X221197Y151566D01*
X221186Y151472D01*
Y153465D01*
X221197Y153371D01*
D02*
G37*
G36*
X89044Y348239D02*
X88816Y347970D01*
X88614Y347698D01*
X88440Y347422D01*
X88292Y347143D01*
X88171Y346860D01*
X88077Y346573D01*
X88010Y346283D01*
X87970Y345990D01*
X87957Y345692D01*
X85957D01*
X85943Y345990D01*
X85903Y346283D01*
X85836Y346573D01*
X85742Y346860D01*
X85621Y347143D01*
X85473Y347422D01*
X85299Y347698D01*
X85097Y347970D01*
X84869Y348239D01*
X84614Y348504D01*
X89299D01*
X89044Y348239D01*
D02*
G37*
G36*
X101303Y254240D02*
X99303Y251240D01*
X99283Y251620D01*
X99223Y251960D01*
X99123Y252260D01*
X98983Y252520D01*
X98803Y252740D01*
X98583Y252920D01*
X98323Y253060D01*
X98023Y253160D01*
X97683Y253220D01*
X97303Y253240D01*
Y255240D01*
X97683Y255260D01*
X98023Y255320D01*
X98323Y255420D01*
X98583Y255560D01*
X98803Y255740D01*
X98983Y255960D01*
X99123Y256220D01*
X99223Y256520D01*
X99283Y256860D01*
X99303Y257240D01*
X101303Y254240D01*
D02*
G37*
G36*
X101313Y247381D02*
X101343Y247039D01*
X101393Y246737D01*
X101463Y246476D01*
X101553Y246255D01*
X101663Y246074D01*
X101793Y245933D01*
X101943Y245832D01*
X102113Y245772D01*
X102303Y245752D01*
X98303D01*
X98493Y245772D01*
X98663Y245832D01*
X98813Y245933D01*
X98943Y246074D01*
X99053Y246255D01*
X99143Y246476D01*
X99213Y246737D01*
X99263Y247039D01*
X99293Y247381D01*
X99303Y247764D01*
X101303D01*
X101313Y247381D01*
D02*
G37*
G36*
X1020Y146177D02*
X1264Y145972D01*
X1513Y145791D01*
X1768Y145634D01*
X2028Y145502D01*
X2293Y145394D01*
X2564Y145309D01*
X2840Y145249D01*
X3121Y145213D01*
X3408Y145201D01*
Y143201D01*
X3121Y143189D01*
X2840Y143153D01*
X2564Y143092D01*
X2293Y143008D01*
X2028Y142900D01*
X1768Y142767D01*
X1513Y142611D01*
X1264Y142430D01*
X1020Y142225D01*
X781Y141996D01*
Y146405D01*
X1020Y146177D01*
D02*
G37*
G36*
X507Y141713D02*
X302Y141469D01*
X122Y141219D01*
X-35Y140964D01*
X-167Y140704D01*
X-276Y140439D01*
X-360Y140168D01*
X-420Y139892D01*
X-456Y139611D01*
X-469Y139324D01*
X-2468D01*
X-2481Y139611D01*
X-2517Y139892D01*
X-2577Y140168D01*
X-2661Y140439D01*
X-2770Y140704D01*
X-2902Y140964D01*
X-3059Y141219D01*
X-3240Y141469D01*
X-3444Y141713D01*
X-3673Y141952D01*
X736D01*
X507Y141713D01*
D02*
G37*
G36*
X-456Y138791D02*
X-420Y138509D01*
X-360Y138233D01*
X-276Y137963D01*
X-167Y137697D01*
X-35Y137437D01*
X122Y137182D01*
X302Y136933D01*
X507Y136689D01*
X736Y136450D01*
X-3673D01*
X-3444Y136689D01*
X-3240Y136933D01*
X-3059Y137182D01*
X-2902Y137437D01*
X-2770Y137697D01*
X-2661Y137963D01*
X-2577Y138233D01*
X-2517Y138509D01*
X-2481Y138791D01*
X-2468Y139077D01*
X-469D01*
X-456Y138791D01*
D02*
G37*
G36*
X507Y131713D02*
X302Y131469D01*
X122Y131219D01*
X-35Y130964D01*
X-167Y130704D01*
X-276Y130439D01*
X-360Y130168D01*
X-420Y129892D01*
X-456Y129611D01*
X-468Y129330D01*
X-459Y128956D01*
X-428Y128614D01*
X-378Y128312D01*
X-308Y128051D01*
X-219Y127829D01*
X-108Y127648D01*
X21Y127507D01*
X172Y127407D01*
X341Y127347D01*
X532Y127326D01*
X-3469D01*
X-3278Y127347D01*
X-3108Y127407D01*
X-2959Y127507D01*
X-2829Y127648D01*
X-2719Y127829D01*
X-2629Y128051D01*
X-2558Y128312D01*
X-2509Y128614D01*
X-2479Y128956D01*
X-2469Y129330D01*
X-2481Y129611D01*
X-2517Y129892D01*
X-2577Y130168D01*
X-2661Y130439D01*
X-2770Y130704D01*
X-2902Y130964D01*
X-3059Y131219D01*
X-3240Y131469D01*
X-3444Y131713D01*
X-3673Y131951D01*
X736D01*
X507Y131713D01*
D02*
G37*
G36*
X1677Y126011D02*
X1738Y125841D01*
X1838Y125691D01*
X1979Y125561D01*
X2160Y125451D01*
X2381Y125361D01*
X2643Y125291D01*
X2945Y125241D01*
X3287Y125211D01*
X3669Y125201D01*
Y123201D01*
X3287Y123191D01*
X2945Y123161D01*
X2643Y123111D01*
X2381Y123041D01*
X2160Y122951D01*
X1979Y122841D01*
X1838Y122711D01*
X1738Y122561D01*
X1677Y122391D01*
X1657Y122201D01*
Y126201D01*
X1677Y126011D01*
D02*
G37*
G36*
X82896Y114533D02*
X83632Y113908D01*
X83958Y113681D01*
X84255Y113510D01*
X84524Y113395D01*
X84764Y113337D01*
X84975Y113336D01*
X85158Y113392D01*
X85313Y113504D01*
X82496Y110687D01*
X82608Y110842D01*
X82664Y111025D01*
X82662Y111236D01*
X82605Y111476D01*
X82490Y111745D01*
X82319Y112042D01*
X82092Y112367D01*
X81808Y112722D01*
X81070Y113516D01*
X82484Y114930D01*
X82896Y114533D01*
D02*
G37*
G36*
X87001Y110500D02*
X85500Y108999D01*
X85479Y109037D01*
X85415Y109115D01*
X85161Y109394D01*
X83381Y111205D01*
X84795Y112619D01*
X87001Y110500D01*
D02*
G37*
G36*
X89829Y104454D02*
X89574Y104364D01*
X89349Y104214D01*
X89154Y104004D01*
X88989Y103734D01*
X88854Y103404D01*
X88749Y103014D01*
X88674Y102564D01*
X88629Y102054D01*
X88614Y101484D01*
X85614D01*
X85599Y102054D01*
X85554Y102564D01*
X85479Y103014D01*
X85374Y103404D01*
X85239Y103734D01*
X85074Y104004D01*
X84879Y104214D01*
X84654Y104364D01*
X84399Y104454D01*
X84114Y104484D01*
X90114D01*
X89829Y104454D01*
D02*
G37*
G36*
X88621Y28448D02*
X88678Y27842D01*
X88727Y27571D01*
X88790Y27319D01*
X88868Y27088D01*
X88959Y26878D01*
X89065Y26689D01*
X89185Y26520D01*
X89319Y26371D01*
X84909D01*
X85043Y26520D01*
X85163Y26689D01*
X85269Y26878D01*
X85360Y27088D01*
X85438Y27319D01*
X85501Y27571D01*
X85551Y27842D01*
X85586Y28135D01*
X85607Y28448D01*
X85614Y28781D01*
X88614D01*
X88621Y28448D01*
D02*
G37*
G36*
X108949Y348149D02*
X108360Y347482D01*
X108120Y347169D01*
X107917Y346869D01*
X107752Y346583D01*
X107623Y346311D01*
X107530Y346053D01*
X107475Y345808D01*
X107457Y345577D01*
X106457D01*
X106438Y345808D01*
X106383Y346053D01*
X106291Y346311D01*
X106162Y346583D01*
X105996Y346869D01*
X105793Y347169D01*
X105554Y347482D01*
X104964Y348149D01*
X104614Y348504D01*
X109299D01*
X108949Y348149D01*
D02*
G37*
G36*
X152885Y241472D02*
X152874Y241566D01*
X152840Y241651D01*
X152783Y241725D01*
X152703Y241790D01*
X152601Y241844D01*
X152477Y241889D01*
X152329Y241924D01*
X152159Y241949D01*
X151966Y241964D01*
X151750Y241968D01*
Y242969D01*
X151966Y242973D01*
X152159Y242988D01*
X152329Y243013D01*
X152477Y243048D01*
X152601Y243093D01*
X152703Y243147D01*
X152783Y243212D01*
X152840Y243286D01*
X152874Y243371D01*
X152885Y243465D01*
Y241472D01*
D02*
G37*
G36*
X98949Y348149D02*
X98360Y347482D01*
X98120Y347169D01*
X97917Y346869D01*
X97751Y346583D01*
X97623Y346311D01*
X97530Y346053D01*
X97475Y345808D01*
X97457Y345577D01*
X96457D01*
X96438Y345808D01*
X96383Y346053D01*
X96291Y346311D01*
X96162Y346583D01*
X95996Y346869D01*
X95793Y347169D01*
X95554Y347482D01*
X94964Y348149D01*
X94614Y348504D01*
X99299D01*
X98949Y348149D01*
D02*
G37*
G36*
X152885Y231472D02*
X152874Y231566D01*
X152840Y231651D01*
X152783Y231725D01*
X152703Y231790D01*
X152601Y231844D01*
X152477Y231889D01*
X152329Y231924D01*
X152159Y231949D01*
X151966Y231963D01*
X151750Y231968D01*
Y232968D01*
X151966Y232974D01*
X152159Y232988D01*
X152329Y233013D01*
X152477Y233048D01*
X152601Y233093D01*
X152703Y233147D01*
X152783Y233212D01*
X152840Y233286D01*
X152874Y233371D01*
X152885Y233465D01*
Y231472D01*
D02*
G37*
G36*
X352813Y144846D02*
X352679Y144971D01*
X352533Y145082D01*
X352376Y145180D01*
X352206Y145265D01*
X352025Y145337D01*
X351832Y145395D01*
X351627Y145441D01*
X351411Y145474D01*
X351183Y145493D01*
X350943Y145500D01*
Y147500D01*
X351183Y147506D01*
X351411Y147526D01*
X351627Y147559D01*
X351832Y147605D01*
X352025Y147663D01*
X352206Y147735D01*
X352376Y147820D01*
X352533Y147918D01*
X352679Y148029D01*
X352813Y148153D01*
Y144846D01*
D02*
G37*
G36*
X344155Y149257D02*
X344977Y148563D01*
X345378Y148281D01*
X345771Y148042D01*
X346158Y147847D01*
X346537Y147695D01*
X346909Y147587D01*
X347274Y147522D01*
X347632Y147500D01*
Y145500D01*
X347274Y145478D01*
X346909Y145413D01*
X346537Y145305D01*
X346158Y145153D01*
X345771Y144958D01*
X345378Y144719D01*
X344977Y144437D01*
X344570Y144112D01*
X344155Y143743D01*
X343733Y143331D01*
X343733Y149669D01*
X344155Y149257D01*
D02*
G37*
G36*
X86160Y219910D02*
X85747Y219788D01*
X84673Y219401D01*
X84369Y219265D01*
X83843Y218984D01*
X83621Y218838D01*
X83425Y218689D01*
X83258Y218536D01*
X81970Y219370D01*
X82134Y219556D01*
X82270Y219760D01*
X82376Y219979D01*
X82454Y220214D01*
X82502Y220465D01*
X82522Y220732D01*
X82512Y221016D01*
X82474Y221315D01*
X82406Y221630D01*
X82310Y221962D01*
X86160Y219910D01*
D02*
G37*
G36*
X83259Y153942D02*
X83286Y153731D01*
X83331Y153524D01*
X83395Y153321D01*
X83476Y153122D01*
X83575Y152927D01*
X83693Y152736D01*
X83828Y152549D01*
X83982Y152366D01*
X84153Y152187D01*
X80847D01*
X81018Y152366D01*
X81172Y152549D01*
X81307Y152736D01*
X81425Y152927D01*
X81524Y153122D01*
X81605Y153321D01*
X81669Y153524D01*
X81714Y153731D01*
X81741Y153942D01*
X81750Y154157D01*
X83250D01*
X83259Y153942D01*
D02*
G37*
G36*
X84867Y150228D02*
X84888Y149990D01*
X84925Y149762D01*
X84977Y149544D01*
X85044Y149336D01*
X85128Y149137D01*
X85226Y148949D01*
X85341Y148771D01*
X85471Y148603D01*
X85616Y148444D01*
X84556Y147384D01*
X84397Y147529D01*
X84229Y147659D01*
X84051Y147774D01*
X83863Y147872D01*
X83664Y147956D01*
X83456Y148023D01*
X83238Y148075D01*
X83010Y148112D01*
X82772Y148133D01*
X82524Y148138D01*
X84862Y150476D01*
X84867Y150228D01*
D02*
G37*
G36*
X88274Y141232D02*
X88347Y140893D01*
X88468Y140538D01*
X88637Y140167D01*
X88855Y139780D01*
X89121Y139377D01*
X89435Y138959D01*
X90210Y138074D01*
X90669Y137607D01*
X84331D01*
X84790Y138074D01*
X85565Y138959D01*
X85879Y139377D01*
X86145Y139780D01*
X86363Y140167D01*
X86532Y140538D01*
X86653Y140893D01*
X86726Y141232D01*
X86750Y141556D01*
X88250D01*
X88274Y141232D01*
D02*
G37*
G36*
X305918Y153451D02*
X306337Y153075D01*
X306542Y152923D01*
X306744Y152794D01*
X306942Y152688D01*
X307138Y152606D01*
X307330Y152547D01*
X307520Y152512D01*
X307705Y152500D01*
X307673Y151500D01*
X307492Y151489D01*
X307304Y151455D01*
X307111Y151398D01*
X306912Y151319D01*
X306708Y151217D01*
X306497Y151093D01*
X306281Y150946D01*
X306059Y150776D01*
X305598Y150369D01*
X305703Y153674D01*
X305918Y153451D01*
D02*
G37*
G36*
X332505Y126658D02*
X332520Y126486D01*
X332545Y126334D01*
X332580Y126202D01*
X332625Y126091D01*
X332680Y126000D01*
X332745Y125929D01*
X332820Y125879D01*
X332905Y125848D01*
X333000Y125838D01*
X331000D01*
X331095Y125848D01*
X331180Y125879D01*
X331255Y125929D01*
X331320Y126000D01*
X331375Y126091D01*
X331420Y126202D01*
X331455Y126334D01*
X331480Y126486D01*
X331495Y126658D01*
X331500Y126850D01*
X332500D01*
X332505Y126658D01*
D02*
G37*
D10*
X113689Y251000D02*
Y323335D01*
Y251000D02*
X132220Y232469D01*
X157035D01*
X304039Y152000D02*
X323000D01*
X332000Y123500D02*
Y143000D01*
X323000Y152000D02*
X332000Y143000D01*
X303965Y152075D02*
X304039Y152000D01*
X235441Y152469D02*
X240461Y157488D01*
Y263606D01*
X247354Y270500D01*
X217035Y152469D02*
X235441D01*
X247354Y270500D02*
X255461D01*
X228847Y283965D02*
X279043Y334161D01*
X228847Y164870D02*
Y283965D01*
X271484Y270500D02*
X313335Y312350D01*
X106957Y337941D02*
Y350894D01*
X144358Y242469D02*
X157035D01*
X119595Y267232D02*
X144358Y242469D01*
X106957Y337941D02*
X119595Y325303D01*
Y267232D02*
Y325303D01*
X96957Y340067D02*
Y350894D01*
Y340067D02*
X113689Y323335D01*
X298961Y94858D02*
Y100661D01*
X293807Y105815D02*
X298961Y100661D01*
X282980Y138295D02*
X293807Y127469D01*
Y105815D02*
Y127469D01*
X263965Y138295D02*
X282980D01*
X323335Y334161D02*
Y350894D01*
Y323335D02*
Y334161D01*
X279043D02*
X323335D01*
X226445Y162469D02*
X228847Y164870D01*
X217035Y162469D02*
X226445D01*
X313335Y312350D02*
Y323335D01*
X255461Y270500D02*
X271484D01*
X333335Y323335D02*
Y350894D01*
D15*
X202500Y279587D02*
X246248Y323335D01*
X202500Y144500D02*
Y279587D01*
X199122Y33177D02*
Y141122D01*
X202500Y144500D01*
X71913Y124087D02*
X87000Y109000D01*
X71913Y124087D02*
Y124201D01*
X-1469D02*
X71913D01*
X-1469Y144201D02*
X14201D01*
X27961Y157961D01*
Y247606D01*
X340500Y146500D02*
X340500Y146500D01*
X354500D01*
X-1469Y134201D02*
Y144201D01*
Y124201D02*
Y134201D01*
X100303Y254240D02*
Y265854D01*
Y242626D02*
Y254240D01*
X27961Y247606D02*
X34595Y254240D01*
X100303D01*
X86957Y279201D02*
Y350894D01*
X343335Y323335D02*
Y350894D01*
X86957Y279201D02*
X100303Y265854D01*
D66*
X187035Y254181D02*
X199950Y267096D01*
X205050Y204012D02*
Y262469D01*
Y204012D02*
X206611Y202451D01*
X205050Y262469D02*
Y278359D01*
X226035Y299345D01*
X229175D01*
X250160Y320330D01*
X199950Y267096D02*
Y283953D01*
X249252Y327247D02*
X250160Y326339D01*
X199950Y283953D02*
X243244Y327247D01*
X205050Y262469D02*
X217035D01*
X243244Y327247D02*
X249252D01*
X250160Y320330D02*
Y326339D01*
X206611Y95524D02*
Y202451D01*
Y95524D02*
X209667Y92469D01*
X217035D01*
X85303Y221642D02*
Y222941D01*
X82500Y150500D02*
Y218839D01*
X85303Y221642D01*
X82500Y150500D02*
X87500Y145500D01*
Y134374D02*
Y145500D01*
X42500Y210138D02*
X55303Y222941D01*
X42500Y150500D02*
Y210138D01*
X37500Y134374D02*
Y145500D01*
X42500Y150500D01*
X157035Y92469D02*
X187035D01*
Y254181D01*
X279713Y500D02*
Y29713D01*
X258374D02*
X279713D01*
X341051D01*
X217035Y71051D02*
X258374Y29713D01*
X217035Y71051D02*
Y92469D01*
X156673Y92106D02*
X157035Y92469D01*
X141461Y92106D02*
X156673D01*
X131961Y101606D02*
X141461Y92106D01*
X131961Y101606D02*
Y196283D01*
X105303Y222941D02*
X131961Y196283D01*
X217035Y92469D02*
X286571D01*
X288961Y94858D01*
Y110606D01*
X62193Y229831D02*
X98413D01*
X105303Y222941D01*
X55303D02*
X62193Y229831D01*
D67*
X87114Y109000D02*
Y109000D01*
Y24122D02*
Y109000D01*
X87000D02*
X87114D01*
D68*
X157035Y282469D02*
D03*
Y272468D02*
D03*
Y262469D02*
D03*
Y252468D02*
D03*
Y242469D02*
D03*
Y232469D02*
D03*
Y222468D02*
D03*
Y212469D02*
D03*
Y202468D02*
D03*
Y192469D02*
D03*
Y182468D02*
D03*
Y172468D02*
D03*
Y162469D02*
D03*
Y152469D02*
D03*
Y142469D02*
D03*
Y132468D02*
D03*
Y122468D02*
D03*
Y112469D02*
D03*
Y102469D02*
D03*
Y92469D02*
D03*
X217035Y282469D02*
D03*
Y272468D02*
D03*
Y262469D02*
D03*
Y252468D02*
D03*
Y242469D02*
D03*
Y232469D02*
D03*
Y222468D02*
D03*
Y212469D02*
D03*
Y202468D02*
D03*
Y192469D02*
D03*
Y182468D02*
D03*
Y172468D02*
D03*
Y162469D02*
D03*
Y152469D02*
D03*
Y142469D02*
D03*
Y132468D02*
D03*
Y122468D02*
D03*
Y112469D02*
D03*
Y102469D02*
D03*
D69*
Y92469D02*
D03*
D70*
X332000Y83500D02*
D03*
X82500Y150500D02*
D03*
X303965Y138295D02*
D03*
X286248Y323335D02*
D03*
X354500Y146500D02*
D03*
X303965Y165854D02*
D03*
X258374Y69713D02*
D03*
X341051D02*
D03*
X319713Y500D02*
D03*
X303965Y152075D02*
D03*
X104476Y279043D02*
D03*
X61209Y325303D02*
D03*
X47744Y287902D02*
D03*
D71*
X332000Y123500D02*
D03*
X354500Y186500D02*
D03*
X258374Y29713D02*
D03*
X341051D02*
D03*
X47744Y327902D02*
D03*
D72*
X42500Y150500D02*
D03*
X263965Y138295D02*
D03*
X246248Y323335D02*
D03*
X263965Y165854D02*
D03*
X279713Y500D02*
D03*
X263965Y152075D02*
D03*
X64476Y279043D02*
D03*
X101209Y325303D02*
D03*
D73*
X69500Y338500D02*
D03*
X37000Y109000D02*
D03*
X340500Y146500D02*
D03*
X87500Y134374D02*
D03*
D74*
X19500Y338500D02*
D03*
X87000Y109000D02*
D03*
X37500Y134374D02*
D03*
D75*
X120146Y84280D02*
D03*
X30461D02*
D03*
X53650Y366642D02*
D03*
X33650D02*
D03*
D76*
X105303Y222941D02*
D03*
X85303Y222941D02*
D03*
X65303Y222941D02*
D03*
X55303D02*
D03*
X75303D02*
D03*
X95303D02*
D03*
X-1469Y202468D02*
D03*
X-1469Y182468D02*
D03*
Y172468D02*
D03*
Y192469D02*
D03*
Y212469D02*
D03*
X298961Y110606D02*
D03*
X308961D02*
D03*
X298961Y94858D02*
D03*
X308961D02*
D03*
X60303Y242626D02*
D03*
X80303Y242626D02*
D03*
X90303D02*
D03*
X70303D02*
D03*
X50303D02*
D03*
X289870Y213098D02*
D03*
X313335Y323335D02*
D03*
X333335D02*
D03*
X323335D02*
D03*
X35933Y24122D02*
D03*
X45933D02*
D03*
X35776Y500D02*
D03*
X45776D02*
D03*
X87114Y24122D02*
D03*
X97114D02*
D03*
X87114Y500D02*
D03*
X97114D02*
D03*
X369748Y162209D02*
D03*
X-1469Y98768D02*
D03*
Y108768D02*
D03*
Y134201D02*
D03*
Y144201D02*
D03*
D77*
X45303Y222941D02*
D03*
X288961Y110606D02*
D03*
Y94858D02*
D03*
X100303Y242626D02*
D03*
X280028Y213098D02*
D03*
X343335Y323335D02*
D03*
X25933Y24122D02*
D03*
X25776Y500D02*
D03*
X77114Y24122D02*
D03*
Y500D02*
D03*
D78*
X-1469Y162469D02*
D03*
X369748Y172209D02*
D03*
X-1469Y88768D02*
D03*
Y124201D02*
D03*
D79*
X255461Y290500D02*
D03*
X315461Y220500D02*
D03*
X367858Y205110D02*
D03*
D80*
X255461Y280500D02*
D03*
Y270500D02*
D03*
Y260500D02*
D03*
Y250500D02*
D03*
Y240500D02*
D03*
Y230500D02*
D03*
Y220500D02*
D03*
X315461Y290500D02*
D03*
Y280500D02*
D03*
Y270500D02*
D03*
Y260500D02*
D03*
Y250500D02*
D03*
Y240500D02*
D03*
Y230500D02*
D03*
X309444Y18417D02*
D03*
X299444Y75503D02*
D03*
X309444D02*
D03*
X358000Y99500D02*
D03*
Y79815D02*
D03*
X52744Y272153D02*
D03*
X367858Y195110D02*
D03*
X226681Y33177D02*
D03*
X216839D02*
D03*
X208965D02*
D03*
X199122D02*
D03*
D81*
X276413Y45976D02*
D03*
X322476Y45976D02*
D03*
D82*
X289444Y18417D02*
D03*
Y75503D02*
D03*
X42744Y272153D02*
D03*
D83*
X280185Y350894D02*
D03*
X343335D02*
D03*
D84*
X270185D02*
D03*
X260185D02*
D03*
X250185D02*
D03*
X333335D02*
D03*
X323335D02*
D03*
X313335D02*
D03*
D85*
X500Y500D02*
D03*
X370579D02*
D03*
Y370579D02*
D03*
X500D02*
D03*
D86*
X281000Y193500D02*
D03*
X106957Y350894D02*
D03*
X86957D02*
D03*
X96957D02*
D03*
D87*
X281000Y183500D02*
D03*
D88*
X340500Y196500D02*
D03*
D89*
X158988Y15973D02*
D03*
X124988Y1013D02*
D03*
Y15973D02*
D03*
X158988Y1013D02*
D03*
D90*
X116957Y350894D02*
D03*
D91*
X2468Y267232D02*
D03*
Y320382D02*
D03*
D92*
X26091Y307980D02*
D03*
D93*
Y279634D02*
D03*
D94*
X238295Y23138D02*
D03*
X187508D02*
D03*
D95*
X193413Y152075D02*
D03*
X114500Y233000D02*
D03*
X169461Y274106D02*
D03*
X181272D02*
D03*
Y262295D02*
D03*
X169461D02*
D03*
X278189Y158811D02*
D03*
X290000D02*
D03*
Y145000D02*
D03*
X278189D02*
D03*
X109461Y63106D02*
D03*
X121272D02*
D03*
Y51295D02*
D03*
X109461D02*
D03*
X158461Y64106D02*
D03*
Y52295D02*
D03*
X55689Y108689D02*
D03*
X67500D02*
D03*
Y96878D02*
D03*
X55689D02*
D03*
X4150Y241606D02*
D03*
X15961D02*
D03*
Y229795D02*
D03*
X4150D02*
D03*
X155500Y313311D02*
D03*
X167311D02*
D03*
Y301500D02*
D03*
X155500D02*
D03*
X203689Y328500D02*
D03*
X215500D02*
D03*
Y316689D02*
D03*
X203689D02*
D03*
X347461Y275106D02*
D03*
X359272D02*
D03*
Y263295D02*
D03*
X347461D02*
D03*
X304650Y201106D02*
D03*
X316461D02*
D03*
Y189295D02*
D03*
X304650D02*
D03*
X181602Y152075D02*
D03*
X193413Y163886D02*
D03*
X181602D02*
D03*
M02*
