G04*
G04 #@! TF.GenerationSoftware,Altium Limited,Altium Designer,21.2.1 (34)*
G04*
G04 Layer_Color=2752767*
%FSLAX25Y25*%
%MOIN*%
G70*
G04*
G04 #@! TF.SameCoordinates,22B55974-3201-4BD1-88E3-0356CD7B76C8*
G04*
G04*
G04 #@! TF.FilePolarity,Positive*
G04*
G01*
G75*
%ADD98C,0.00200*%
%ADD99C,0.00267*%
%ADD100C,0.00133*%
D98*
X156235Y281668D02*
Y283268D01*
X157835D01*
Y281668D01*
X156235D01*
Y271669D02*
Y273269D01*
X157835D01*
Y271669D01*
X156235D01*
Y261668D02*
Y263268D01*
X157835D01*
Y261668D01*
X156235D01*
Y251669D02*
Y253269D01*
X157835D01*
Y251669D01*
X156235D01*
Y241669D02*
Y243268D01*
X157835D01*
Y241669D01*
X156235D01*
Y231668D02*
Y233268D01*
X157835D01*
Y231668D01*
X156235D01*
Y221669D02*
Y223269D01*
X157835D01*
Y221669D01*
X156235D01*
Y211668D02*
Y213268D01*
X157835D01*
Y211668D01*
X156235D01*
Y201669D02*
Y203269D01*
X157835D01*
Y201669D01*
X156235D01*
Y191668D02*
Y193269D01*
X157835D01*
Y191668D01*
X156235D01*
Y181668D02*
Y183268D01*
X157835D01*
Y181668D01*
X156235D01*
Y171669D02*
Y173268D01*
X157835D01*
Y171669D01*
X156235D01*
Y161669D02*
Y163268D01*
X157835D01*
Y161669D01*
X156235D01*
Y151669D02*
Y153269D01*
X157835D01*
Y151669D01*
X156235D01*
Y141668D02*
Y143269D01*
X157835D01*
Y141668D01*
X156235D01*
Y131668D02*
Y133268D01*
X157835D01*
Y131668D01*
X156235D01*
Y121669D02*
Y123268D01*
X157835D01*
Y121669D01*
X156235D01*
Y111669D02*
Y113268D01*
X157835D01*
Y111669D01*
X156235D01*
Y101669D02*
Y103269D01*
X157835D01*
Y101669D01*
X156235D01*
Y91668D02*
Y93269D01*
X157835D01*
Y91668D01*
X156235D01*
X216235Y281668D02*
Y283268D01*
X217835D01*
Y281668D01*
X216235D01*
Y271669D02*
Y273269D01*
X217835D01*
Y271669D01*
X216235D01*
Y261668D02*
Y263268D01*
X217835D01*
Y261668D01*
X216235D01*
Y251669D02*
Y253269D01*
X217835D01*
Y251669D01*
X216235D01*
Y241669D02*
Y243268D01*
X217835D01*
Y241669D01*
X216235D01*
Y231668D02*
Y233268D01*
X217835D01*
Y231668D01*
X216235D01*
Y221669D02*
Y223269D01*
X217835D01*
Y221669D01*
X216235D01*
Y211668D02*
Y213268D01*
X217835D01*
Y211668D01*
X216235D01*
Y201669D02*
Y203269D01*
X217835D01*
Y201669D01*
X216235D01*
Y191668D02*
Y193269D01*
X217835D01*
Y191668D01*
X216235D01*
Y181668D02*
Y183268D01*
X217835D01*
Y181668D01*
X216235D01*
Y171669D02*
Y173268D01*
X217835D01*
Y171669D01*
X216235D01*
Y161669D02*
Y163268D01*
X217835D01*
Y161669D01*
X216235D01*
Y151669D02*
Y153269D01*
X217835D01*
Y151669D01*
X216235D01*
Y141668D02*
Y143269D01*
X217835D01*
Y141668D01*
X216235D01*
Y131668D02*
Y133268D01*
X217835D01*
Y131668D01*
X216235D01*
Y121669D02*
Y123268D01*
X217835D01*
Y121669D01*
X216235D01*
Y111669D02*
Y113268D01*
X217835D01*
Y111669D01*
X216235D01*
Y101669D02*
Y103269D01*
X217835D01*
Y101669D01*
X216235D01*
Y91668D02*
Y93269D01*
X217835D01*
Y91668D01*
X216235D01*
X69500Y337700D02*
X68700Y339300D01*
X70300D01*
X69500Y337700D01*
X19500D02*
X18700Y339300D01*
X20300D01*
X19500Y337700D01*
X120146Y83479D02*
X120546Y83880D01*
X120946D01*
X120546Y84280D01*
X120946Y84680D01*
X120546D01*
X120146Y85079D01*
X119746Y84680D01*
X119346D01*
X119746Y84280D01*
X119346Y83880D01*
X119746D01*
X120146Y83479D01*
X30461D02*
X30861Y83880D01*
X31261D01*
X30861Y84280D01*
X31261Y84680D01*
X30861D01*
X30461Y85079D01*
X30061Y84680D01*
X29661D01*
X30061Y84280D01*
X29661Y83880D01*
X30061D01*
X30461Y83479D01*
X104503Y222141D02*
X104903Y222941D01*
X104503Y223741D01*
X105303Y223341D01*
X106103Y223741D01*
X105703Y222941D01*
X106103Y222141D01*
X105303Y222541D01*
X104503Y222141D01*
X84503Y222141D02*
X84903Y222941D01*
X84503Y223741D01*
X85303Y223341D01*
X86103Y223741D01*
X85703Y222941D01*
X86103Y222141D01*
X85303Y222541D01*
X84503Y222141D01*
X64503Y222141D02*
X64903Y222941D01*
X64503Y223741D01*
X65303Y223341D01*
X66103Y223741D01*
X65703Y222941D01*
X66103Y222141D01*
X65303Y222541D01*
X64503Y222141D01*
X54503D02*
X54903Y222941D01*
X54503Y223741D01*
X55303Y223341D01*
X56103Y223741D01*
X55703Y222941D01*
X56103Y222141D01*
X55303Y222541D01*
X54503Y222141D01*
X44503D02*
X44903Y222941D01*
X44503Y223741D01*
X45303Y223341D01*
X46103Y223741D01*
X45703Y222941D01*
X46103Y222141D01*
X45303Y222541D01*
X44503Y222141D01*
X74503D02*
X74903Y222941D01*
X74503Y223741D01*
X75303Y223341D01*
X76103Y223741D01*
X75703Y222941D01*
X76103Y222141D01*
X75303Y222541D01*
X74503Y222141D01*
X94503D02*
X94903Y222941D01*
X94503Y223741D01*
X95303Y223341D01*
X96103Y223741D01*
X95703Y222941D01*
X96103Y222141D01*
X95303Y222541D01*
X94503Y222141D01*
X-2269Y201669D02*
X-1869Y202468D01*
X-2269Y203269D01*
X-1469Y202869D01*
X-668Y203269D01*
X-1068Y202468D01*
X-668Y201669D01*
X-1469Y202068D01*
X-2269Y201669D01*
X-2269Y181668D02*
X-1869Y182468D01*
X-2269Y183268D01*
X-1469Y182869D01*
X-668Y183268D01*
X-1068Y182468D01*
X-668Y181668D01*
X-1469Y182069D01*
X-2269Y181668D01*
Y171669D02*
X-1869Y172468D01*
X-2269Y173268D01*
X-1469Y172869D01*
X-668Y173268D01*
X-1068Y172468D01*
X-668Y171669D01*
X-1469Y172069D01*
X-2269Y171669D01*
Y161669D02*
X-1869Y162469D01*
X-2269Y163268D01*
X-1469Y162868D01*
X-668Y163268D01*
X-1068Y162469D01*
X-668Y161669D01*
X-1469Y162068D01*
X-2269Y161669D01*
Y191668D02*
X-1869Y192469D01*
X-2269Y193269D01*
X-1469Y192868D01*
X-668Y193269D01*
X-1068Y192469D01*
X-668Y191668D01*
X-1469Y192069D01*
X-2269Y191668D01*
Y211668D02*
X-1869Y212469D01*
X-2269Y213268D01*
X-1469Y212868D01*
X-668Y213268D01*
X-1068Y212469D01*
X-668Y211668D01*
X-1469Y212069D01*
X-2269Y211668D01*
X254661Y289700D02*
X255061Y290500D01*
X254661Y291300D01*
X255461Y290900D01*
X256261Y291300D01*
X255861Y290500D01*
X256261Y289700D01*
X255461Y290100D01*
X254661Y289700D01*
Y279700D02*
X255061Y280500D01*
X254661Y281300D01*
X255461Y280900D01*
X256261Y281300D01*
X255861Y280500D01*
X256261Y279700D01*
X255461Y280100D01*
X254661Y279700D01*
Y269700D02*
X255061Y270500D01*
X254661Y271300D01*
X255461Y270900D01*
X256261Y271300D01*
X255861Y270500D01*
X256261Y269700D01*
X255461Y270100D01*
X254661Y269700D01*
Y259700D02*
X255061Y260500D01*
X254661Y261300D01*
X255461Y260900D01*
X256261Y261300D01*
X255861Y260500D01*
X256261Y259700D01*
X255461Y260100D01*
X254661Y259700D01*
Y249700D02*
X255061Y250500D01*
X254661Y251300D01*
X255461Y250900D01*
X256261Y251300D01*
X255861Y250500D01*
X256261Y249700D01*
X255461Y250100D01*
X254661Y249700D01*
Y239700D02*
X255061Y240500D01*
X254661Y241300D01*
X255461Y240900D01*
X256261Y241300D01*
X255861Y240500D01*
X256261Y239700D01*
X255461Y240100D01*
X254661Y239700D01*
Y229700D02*
X255061Y230500D01*
X254661Y231300D01*
X255461Y230900D01*
X256261Y231300D01*
X255861Y230500D01*
X256261Y229700D01*
X255461Y230100D01*
X254661Y229700D01*
Y219700D02*
X255061Y220500D01*
X254661Y221300D01*
X255461Y220900D01*
X256261Y221300D01*
X255861Y220500D01*
X256261Y219700D01*
X255461Y220100D01*
X254661Y219700D01*
X314661Y289700D02*
X315061Y290500D01*
X314661Y291300D01*
X315461Y290900D01*
X316261Y291300D01*
X315861Y290500D01*
X316261Y289700D01*
X315461Y290100D01*
X314661Y289700D01*
Y279700D02*
X315061Y280500D01*
X314661Y281300D01*
X315461Y280900D01*
X316261Y281300D01*
X315861Y280500D01*
X316261Y279700D01*
X315461Y280100D01*
X314661Y279700D01*
Y269700D02*
X315061Y270500D01*
X314661Y271300D01*
X315461Y270900D01*
X316261Y271300D01*
X315861Y270500D01*
X316261Y269700D01*
X315461Y270100D01*
X314661Y269700D01*
Y259700D02*
X315061Y260500D01*
X314661Y261300D01*
X315461Y260900D01*
X316261Y261300D01*
X315861Y260500D01*
X316261Y259700D01*
X315461Y260100D01*
X314661Y259700D01*
Y249700D02*
X315061Y250500D01*
X314661Y251300D01*
X315461Y250900D01*
X316261Y251300D01*
X315861Y250500D01*
X316261Y249700D01*
X315461Y250100D01*
X314661Y249700D01*
Y239700D02*
X315061Y240500D01*
X314661Y241300D01*
X315461Y240900D01*
X316261Y241300D01*
X315861Y240500D01*
X316261Y239700D01*
X315461Y240100D01*
X314661Y239700D01*
Y229700D02*
X315061Y230500D01*
X314661Y231300D01*
X315461Y230900D01*
X316261Y231300D01*
X315861Y230500D01*
X316261Y229700D01*
X315461Y230100D01*
X314661Y229700D01*
Y219700D02*
X315061Y220500D01*
X314661Y221300D01*
X315461Y220900D01*
X316261Y221300D01*
X315861Y220500D01*
X316261Y219700D01*
X315461Y220100D01*
X314661Y219700D01*
X288161Y109806D02*
X288561Y110606D01*
X288161Y111406D01*
X288961Y111006D01*
X289761Y111406D01*
X289361Y110606D01*
X289761Y109806D01*
X288961Y110206D01*
X288161Y109806D01*
X298161D02*
X298561Y110606D01*
X298161Y111406D01*
X298961Y111006D01*
X299761Y111406D01*
X299361Y110606D01*
X299761Y109806D01*
X298961Y110206D01*
X298161Y109806D01*
X308161D02*
X308561Y110606D01*
X308161Y111406D01*
X308961Y111006D01*
X309761Y111406D01*
X309361Y110606D01*
X309761Y109806D01*
X308961Y110206D01*
X308161Y109806D01*
X276013Y45576D02*
Y45176D01*
X276813D01*
Y45576D01*
X277213D01*
Y46376D01*
X276813D01*
Y46776D01*
X276013D01*
Y46376D01*
X275613D01*
Y45576D01*
X276013D01*
X322076Y45576D02*
Y45176D01*
X322876D01*
Y45576D01*
X323276D01*
Y46376D01*
X322876D01*
Y46776D01*
X322076D01*
Y46376D01*
X321676D01*
Y45576D01*
X322076D01*
X288644Y17616D02*
X289044Y18417D01*
X288644Y19217D01*
X289444Y18816D01*
X290244Y19217D01*
X289844Y18417D01*
X290244Y17616D01*
X289444Y18016D01*
X288644Y17616D01*
X308644D02*
X309044Y18417D01*
X308644Y19217D01*
X309444Y18816D01*
X310244Y19217D01*
X309844Y18417D01*
X310244Y17616D01*
X309444Y18016D01*
X308644Y17616D01*
X288644Y74703D02*
X289044Y75503D01*
X288644Y76303D01*
X289444Y75903D01*
X290244Y76303D01*
X289844Y75503D01*
X290244Y74703D01*
X289444Y75103D01*
X288644Y74703D01*
X298644D02*
X299044Y75503D01*
X298644Y76303D01*
X299444Y75903D01*
X300244Y76303D01*
X299844Y75503D01*
X300244Y74703D01*
X299444Y75103D01*
X298644Y74703D01*
X308644D02*
X309044Y75503D01*
X308644Y76303D01*
X309444Y75903D01*
X310244Y76303D01*
X309844Y75503D01*
X310244Y74703D01*
X309444Y75103D01*
X308644Y74703D01*
X288161Y94058D02*
X288561Y94858D01*
X288161Y95658D01*
X288961Y95258D01*
X289761Y95658D01*
X289361Y94858D01*
X289761Y94058D01*
X288961Y94458D01*
X288161Y94058D01*
X298161D02*
X298561Y94858D01*
X298161Y95658D01*
X298961Y95258D01*
X299761Y95658D01*
X299361Y94858D01*
X299761Y94058D01*
X298961Y94458D01*
X298161Y94058D01*
X308161D02*
X308561Y94858D01*
X308161Y95658D01*
X308961Y95258D01*
X309761Y95658D01*
X309361Y94858D01*
X309761Y94058D01*
X308961Y94458D01*
X308161Y94058D01*
X357200Y98700D02*
X357600D01*
X358000Y99100D01*
X358400Y98700D01*
X358800D01*
Y99100D01*
X358400Y99500D01*
X358800Y99900D01*
Y100300D01*
X358400D01*
X358000Y99900D01*
X357600Y100300D01*
X357200D01*
Y99900D01*
X357600Y99500D01*
X357200Y99100D01*
Y98700D01*
Y79015D02*
X357600D01*
X358000Y79415D01*
X358400Y79015D01*
X358800D01*
Y79415D01*
X358400Y79815D01*
X358800Y80215D01*
Y80615D01*
X358400D01*
X358000Y80215D01*
X357600Y80615D01*
X357200D01*
Y80215D01*
X357600Y79815D01*
X357200Y79415D01*
Y79015D01*
X279385Y350894D02*
X280185Y351694D01*
X280985Y350894D01*
X280185Y350094D01*
X279385Y350894D01*
X269385D02*
X270185Y351694D01*
X270985Y350894D01*
X270185Y350094D01*
X269385Y350894D01*
X259385D02*
X260185Y351694D01*
X260985Y350894D01*
X260185Y350094D01*
X259385Y350894D01*
X249385D02*
X250185Y351694D01*
X250985Y350894D01*
X250185Y350094D01*
X249385Y350894D01*
X37000Y108200D02*
X36200Y109800D01*
X37800D01*
X37000Y108200D01*
X87000D02*
X86200Y109800D01*
X87800D01*
X87000Y108200D01*
X41944Y271354D02*
X42344D01*
X42744Y271754D01*
X43144Y271354D01*
X43544D01*
Y271754D01*
X43144Y272153D01*
X43544Y272553D01*
Y272954D01*
X43144D01*
X42744Y272553D01*
X42344Y272954D01*
X41944D01*
Y272553D01*
X42344Y272153D01*
X41944Y271754D01*
Y271354D01*
X51944D02*
X52344D01*
X52744Y271754D01*
X53144Y271354D01*
X53544D01*
Y271754D01*
X53144Y272153D01*
X53544Y272553D01*
Y272954D01*
X53144D01*
X52744Y272553D01*
X52344Y272954D01*
X51944D01*
Y272553D01*
X52344Y272153D01*
X51944Y271754D01*
Y271354D01*
X59503Y241826D02*
X59903Y242626D01*
X59503Y243426D01*
X60303Y243026D01*
X61103Y243426D01*
X60703Y242626D01*
X61103Y241826D01*
X60303Y242226D01*
X59503Y241826D01*
X79503Y241826D02*
X79903Y242626D01*
X79503Y243426D01*
X80303Y243026D01*
X81103Y243426D01*
X80703Y242626D01*
X81103Y241826D01*
X80303Y242226D01*
X79503Y241826D01*
X89503D02*
X89903Y242626D01*
X89503Y243426D01*
X90303Y243026D01*
X91103Y243426D01*
X90703Y242626D01*
X91103Y241826D01*
X90303Y242226D01*
X89503Y241826D01*
X99503D02*
X99903Y242626D01*
X99503Y243426D01*
X100303Y243026D01*
X101103Y243426D01*
X100703Y242626D01*
X101103Y241826D01*
X100303Y242226D01*
X99503Y241826D01*
X69503D02*
X69903Y242626D01*
X69503Y243426D01*
X70303Y243026D01*
X71103Y243426D01*
X70703Y242626D01*
X71103Y241826D01*
X70303Y242226D01*
X69503Y241826D01*
X49503D02*
X49903Y242626D01*
X49503Y243426D01*
X50303Y243026D01*
X51103Y243426D01*
X50703Y242626D01*
X51103Y241826D01*
X50303Y242226D01*
X49503Y241826D01*
X-300Y-300D02*
Y1300D01*
X1300D01*
Y-300D01*
X-300D01*
X100Y100D02*
Y900D01*
X900D01*
Y100D01*
X100D01*
X369779Y-300D02*
Y1300D01*
X371379D01*
Y-300D01*
X369779D01*
X370179Y100D02*
Y900D01*
X370979D01*
Y100D01*
X370179D01*
X369779Y369779D02*
Y371379D01*
X371379D01*
Y369779D01*
X369779D01*
X370179Y370179D02*
Y370979D01*
X370979D01*
Y370179D01*
X370179D01*
X-300Y369779D02*
Y371379D01*
X1300D01*
Y369779D01*
X-300D01*
X100Y370179D02*
Y370979D01*
X900D01*
Y370179D01*
X100D01*
X280200Y192700D02*
X280600Y193500D01*
X280200Y194300D01*
X281000Y193900D01*
X281800Y194300D01*
X281400Y193500D01*
X281800Y192700D01*
X281000Y193100D01*
X280200Y192700D01*
Y182700D02*
X280600Y183500D01*
X280200Y184300D01*
X281000Y183900D01*
X281800Y184300D01*
X281400Y183500D01*
X281800Y182700D01*
X281000Y183100D01*
X280200Y182700D01*
X289070Y212298D02*
X289470D01*
X289870Y212698D01*
X290270Y212298D01*
X290670D01*
Y212698D01*
X290270Y213098D01*
X290670Y213498D01*
Y213898D01*
X290270D01*
X289870Y213498D01*
X289470Y213898D01*
X289070D01*
Y213498D01*
X289470Y213098D01*
X289070Y212698D01*
Y212298D01*
X279228D02*
X279628D01*
X280028Y212698D01*
X280428Y212298D01*
X280828D01*
Y212698D01*
X280428Y213098D01*
X280828Y213498D01*
Y213898D01*
X280428D01*
X280028Y213498D01*
X279628Y213898D01*
X279228D01*
Y213498D01*
X279628Y213098D01*
X279228Y212698D01*
Y212298D01*
X340500Y145700D02*
X339700Y147300D01*
X341300D01*
X340500Y145700D01*
Y195700D02*
X339700Y197300D01*
X341300D01*
X340500Y195700D01*
X87500Y133574D02*
X86700Y135174D01*
X88300D01*
X87500Y133574D01*
X37500D02*
X36700Y135174D01*
X38300D01*
X37500Y133574D01*
X312535Y322535D02*
X312935Y323335D01*
X312535Y324135D01*
X313335Y323735D01*
X314135Y324135D01*
X313735Y323335D01*
X314135Y322535D01*
X313335Y322935D01*
X312535Y322535D01*
X342535D02*
X342935Y323335D01*
X342535Y324135D01*
X343335Y323735D01*
X344135Y324135D01*
X343735Y323335D01*
X344135Y322535D01*
X343335Y322935D01*
X342535Y322535D01*
X332535D02*
X332935Y323335D01*
X332535Y324135D01*
X333335Y323735D01*
X334135Y324135D01*
X333735Y323335D01*
X334135Y322535D01*
X333335Y322935D01*
X332535Y322535D01*
X322535D02*
X322935Y323335D01*
X322535Y324135D01*
X323335Y323735D01*
X324135Y324135D01*
X323735Y323335D01*
X324135Y322535D01*
X323335Y322935D01*
X322535Y322535D01*
X342535Y350894D02*
X343335Y351694D01*
X344135Y350894D01*
X343335Y350094D01*
X342535Y350894D01*
X332535D02*
X333335Y351694D01*
X334135Y350894D01*
X333335Y350094D01*
X332535Y350894D01*
X322535D02*
X323335Y351694D01*
X324135Y350894D01*
X323335Y350094D01*
X322535Y350894D01*
X312535D02*
X313335Y351694D01*
X314135Y350894D01*
X313335Y350094D01*
X312535Y350894D01*
X106157Y350094D02*
X106557Y350894D01*
X106157Y351694D01*
X106957Y351294D01*
X107757Y351694D01*
X107357Y350894D01*
X107757Y350094D01*
X106957Y350494D01*
X106157Y350094D01*
X86157D02*
X86557Y350894D01*
X86157Y351694D01*
X86957Y351294D01*
X87757Y351694D01*
X87357Y350894D01*
X87757Y350094D01*
X86957Y350494D01*
X86157Y350094D01*
X96157D02*
X96557Y350894D01*
X96157Y351694D01*
X96957Y351294D01*
X97757Y351694D01*
X97357Y350894D01*
X97757Y350094D01*
X96957Y350494D01*
X96157Y350094D01*
X116157D02*
X116557Y350894D01*
X116157Y351694D01*
X116957Y351294D01*
X117757Y351694D01*
X117357Y350894D01*
X117757Y350094D01*
X116957Y350494D01*
X116157Y350094D01*
X25133Y23322D02*
X25533Y24122D01*
X25133Y24922D01*
X25933Y24522D01*
X26733Y24922D01*
X26333Y24122D01*
X26733Y23322D01*
X25933Y23722D01*
X25133Y23322D01*
X35133D02*
X35533Y24122D01*
X35133Y24922D01*
X35933Y24522D01*
X36733Y24922D01*
X36333Y24122D01*
X36733Y23322D01*
X35933Y23722D01*
X35133Y23322D01*
X45133D02*
X45533Y24122D01*
X45133Y24922D01*
X45933Y24522D01*
X46733Y24922D01*
X46333Y24122D01*
X46733Y23322D01*
X45933Y23722D01*
X45133Y23322D01*
X24976Y-300D02*
X25376Y500D01*
X24976Y1300D01*
X25776Y900D01*
X26576Y1300D01*
X26176Y500D01*
X26576Y-300D01*
X25776Y100D01*
X24976Y-300D01*
X34976D02*
X35376Y500D01*
X34976Y1300D01*
X35776Y900D01*
X36576Y1300D01*
X36176Y500D01*
X36576Y-300D01*
X35776Y100D01*
X34976Y-300D01*
X44976D02*
X45376Y500D01*
X44976Y1300D01*
X45776Y900D01*
X46576Y1300D01*
X46176Y500D01*
X46576Y-300D01*
X45776Y100D01*
X44976Y-300D01*
X76314Y23322D02*
X76714Y24122D01*
X76314Y24922D01*
X77114Y24522D01*
X77914Y24922D01*
X77514Y24122D01*
X77914Y23322D01*
X77114Y23722D01*
X76314Y23322D01*
X86314D02*
X86714Y24122D01*
X86314Y24922D01*
X87114Y24522D01*
X87914Y24922D01*
X87514Y24122D01*
X87914Y23322D01*
X87114Y23722D01*
X86314Y23322D01*
X96314D02*
X96714Y24122D01*
X96314Y24922D01*
X97114Y24522D01*
X97914Y24922D01*
X97514Y24122D01*
X97914Y23322D01*
X97114Y23722D01*
X96314Y23322D01*
X76314Y-300D02*
X76714Y500D01*
X76314Y1300D01*
X77114Y900D01*
X77914Y1300D01*
X77514Y500D01*
X77914Y-300D01*
X77114Y100D01*
X76314Y-300D01*
X86314D02*
X86714Y500D01*
X86314Y1300D01*
X87114Y900D01*
X87914Y1300D01*
X87514Y500D01*
X87914Y-300D01*
X87114Y100D01*
X86314Y-300D01*
X96314D02*
X96714Y500D01*
X96314Y1300D01*
X97114Y900D01*
X97914Y1300D01*
X97514Y500D01*
X97914Y-300D01*
X97114Y100D01*
X96314Y-300D01*
X368948Y161409D02*
X369348Y162209D01*
X368948Y163009D01*
X369748Y162609D01*
X370548Y163009D01*
X370148Y162209D01*
X370548Y161409D01*
X369748Y161809D01*
X368948Y161409D01*
Y171409D02*
X369348Y172209D01*
X368948Y173009D01*
X369748Y172609D01*
X370548Y173009D01*
X370148Y172209D01*
X370548Y171409D01*
X369748Y171809D01*
X368948Y171409D01*
X2468Y266432D02*
X1668Y268032D01*
X3269D01*
X2468Y266432D01*
Y266832D02*
X2069Y267632D01*
X2868D01*
X2468Y266832D01*
Y319582D02*
X1668Y321182D01*
X3269D01*
X2468Y319582D01*
Y319982D02*
X2069Y320782D01*
X2868D01*
X2468Y319982D01*
X26091Y307180D02*
X26491Y307580D01*
X26891D01*
X26491Y307980D01*
X26891Y308380D01*
X26491D01*
X26091Y308780D01*
X25691Y308380D01*
X25291D01*
X25691Y307980D01*
X25291Y307580D01*
X25691D01*
X26091Y307180D01*
Y278834D02*
X26491Y279234D01*
X26891D01*
X26491Y279634D01*
X26891Y280034D01*
X26491D01*
X26091Y280434D01*
X25691Y280034D01*
X25291D01*
X25691Y279634D01*
X25291Y279234D01*
X25691D01*
X26091Y278834D01*
X367058Y204310D02*
X367458D01*
X367858Y204710D01*
X368258Y204310D01*
X368658D01*
Y204710D01*
X368258Y205110D01*
X368658Y205510D01*
Y205910D01*
X368258D01*
X367858Y205510D01*
X367458Y205910D01*
X367058D01*
Y205510D01*
X367458Y205110D01*
X367058Y204710D01*
Y204310D01*
Y194310D02*
X367458D01*
X367858Y194710D01*
X368258Y194310D01*
X368658D01*
Y194710D01*
X368258Y195110D01*
X368658Y195510D01*
Y195910D01*
X368258D01*
X367858Y195510D01*
X367458Y195910D01*
X367058D01*
Y195510D01*
X367458Y195110D01*
X367058Y194710D01*
Y194310D01*
X-2269Y87968D02*
X-1869Y88768D01*
X-2269Y89568D01*
X-1469Y89168D01*
X-668Y89568D01*
X-1068Y88768D01*
X-668Y87968D01*
X-1469Y88368D01*
X-2269Y87968D01*
Y97968D02*
X-1869Y98768D01*
X-2269Y99568D01*
X-1469Y99168D01*
X-668Y99568D01*
X-1068Y98768D01*
X-668Y97968D01*
X-1469Y98368D01*
X-2269Y97968D01*
Y107968D02*
X-1869Y108768D01*
X-2269Y109568D01*
X-1469Y109168D01*
X-668Y109568D01*
X-1068Y108768D01*
X-668Y107968D01*
X-1469Y108368D01*
X-2269Y107968D01*
Y123401D02*
X-1869Y124201D01*
X-2269Y125001D01*
X-1469Y124601D01*
X-668Y125001D01*
X-1068Y124201D01*
X-668Y123401D01*
X-1469Y123801D01*
X-2269Y123401D01*
Y133401D02*
X-1869Y134201D01*
X-2269Y135001D01*
X-1469Y134601D01*
X-668Y135001D01*
X-1068Y134201D01*
X-668Y133401D01*
X-1469Y133801D01*
X-2269Y133401D01*
Y143401D02*
X-1869Y144201D01*
X-2269Y145001D01*
X-1469Y144601D01*
X-668Y145001D01*
X-1068Y144201D01*
X-668Y143401D01*
X-1469Y143801D01*
X-2269Y143401D01*
X53650Y365842D02*
X54050Y366242D01*
X54450D01*
X54050Y366642D01*
X54450Y367042D01*
X54050D01*
X53650Y367442D01*
X53250Y367042D01*
X52850D01*
X53250Y366642D01*
X52850Y366242D01*
X53250D01*
X53650Y365842D01*
Y366242D02*
X53850Y366442D01*
X54050D01*
X53850Y366642D01*
X54050Y366842D01*
X53850D01*
X53650Y367042D01*
X53450Y366842D01*
X53250D01*
X53450Y366642D01*
X53250Y366442D01*
X53450D01*
X53650Y366242D01*
X33650Y365842D02*
X34050Y366242D01*
X34450D01*
X34050Y366642D01*
X34450Y367042D01*
X34050D01*
X33650Y367442D01*
X33250Y367042D01*
X32850D01*
X33250Y366642D01*
X32850Y366242D01*
X33250D01*
X33650Y365842D01*
Y366242D02*
X33850Y366442D01*
X34050D01*
X33850Y366642D01*
X34050Y366842D01*
X33850D01*
X33650Y367042D01*
X33450Y366842D01*
X33250D01*
X33450Y366642D01*
X33250Y366442D01*
X33450D01*
X33650Y366242D01*
X225881Y32377D02*
X226281D01*
X226681Y32777D01*
X227081Y32377D01*
X227481D01*
Y32777D01*
X227081Y33177D01*
X227481Y33577D01*
Y33977D01*
X227081D01*
X226681Y33577D01*
X226281Y33977D01*
X225881D01*
Y33577D01*
X226281Y33177D01*
X225881Y32777D01*
Y32377D01*
X216039D02*
X216439D01*
X216839Y32777D01*
X217239Y32377D01*
X217639D01*
Y32777D01*
X217239Y33177D01*
X217639Y33577D01*
Y33977D01*
X217239D01*
X216839Y33577D01*
X216439Y33977D01*
X216039D01*
Y33577D01*
X216439Y33177D01*
X216039Y32777D01*
Y32377D01*
X208165D02*
X208565D01*
X208965Y32777D01*
X209365Y32377D01*
X209765D01*
Y32777D01*
X209365Y33177D01*
X209765Y33577D01*
Y33977D01*
X209365D01*
X208965Y33577D01*
X208565Y33977D01*
X208165D01*
Y33577D01*
X208565Y33177D01*
X208165Y32777D01*
Y32377D01*
X198322D02*
X198722D01*
X199122Y32777D01*
X199522Y32377D01*
X199922D01*
Y32777D01*
X199522Y33177D01*
X199922Y33577D01*
Y33977D01*
X199522D01*
X199122Y33577D01*
X198722Y33977D01*
X198322D01*
Y33577D01*
X198722Y33177D01*
X198322Y32777D01*
Y32377D01*
X237495Y22338D02*
X237895Y23138D01*
X237495Y23938D01*
X238295Y23538D01*
X239095Y23938D01*
X238695Y23138D01*
X239095Y22338D01*
X238295Y22738D01*
X237495Y22338D01*
X237895Y22738D02*
X238095Y23138D01*
X237895Y23538D01*
X238295Y23338D01*
X238695Y23538D01*
X238495Y23138D01*
X238695Y22738D01*
X238295Y22938D01*
X237895Y22738D01*
X186708Y22338D02*
X187108Y23138D01*
X186708Y23938D01*
X187508Y23538D01*
X188308Y23938D01*
X187908Y23138D01*
X188308Y22338D01*
X187508Y22738D01*
X186708Y22338D01*
X187108Y22738D02*
X187308Y23138D01*
X187108Y23538D01*
X187508Y23338D01*
X187908Y23538D01*
X187708Y23138D01*
X187908Y22738D01*
X187508Y22938D01*
X187108Y22738D01*
X193013Y151675D02*
Y151275D01*
X193813D01*
Y151675D01*
X194213D01*
Y152475D01*
X193813D01*
Y152875D01*
X193013D01*
Y152475D01*
X192613D01*
Y151675D01*
X193013D01*
X193213Y151875D02*
Y151675D01*
X193613D01*
Y151875D01*
X193813D01*
Y152275D01*
X193613D01*
Y152475D01*
X193213D01*
Y152275D01*
X193013D01*
Y151875D01*
X193213D01*
X114100Y232600D02*
Y232200D01*
X114900D01*
Y232600D01*
X115300D01*
Y233400D01*
X114900D01*
Y233800D01*
X114100D01*
Y233400D01*
X113700D01*
Y232600D01*
X114100D01*
X114300Y232800D02*
Y232600D01*
X114700D01*
Y232800D01*
X114900D01*
Y233200D01*
X114700D01*
Y233400D01*
X114300D01*
Y233200D01*
X114100D01*
Y232800D01*
X114300D01*
X169061Y273706D02*
Y273306D01*
X169861D01*
Y273706D01*
X170261D01*
Y274506D01*
X169861D01*
Y274906D01*
X169061D01*
Y274506D01*
X168661D01*
Y273706D01*
X169061D01*
X169261Y273906D02*
Y273706D01*
X169661D01*
Y273906D01*
X169861D01*
Y274306D01*
X169661D01*
Y274506D01*
X169261D01*
Y274306D01*
X169061D01*
Y273906D01*
X169261D01*
X180872Y273706D02*
Y273306D01*
X181672D01*
Y273706D01*
X182072D01*
Y274506D01*
X181672D01*
Y274906D01*
X180872D01*
Y274506D01*
X180472D01*
Y273706D01*
X180872D01*
X181072Y273906D02*
Y273706D01*
X181472D01*
Y273906D01*
X181672D01*
Y274306D01*
X181472D01*
Y274506D01*
X181072D01*
Y274306D01*
X180872D01*
Y273906D01*
X181072D01*
X180872Y261895D02*
Y261495D01*
X181672D01*
Y261895D01*
X182072D01*
Y262695D01*
X181672D01*
Y263095D01*
X180872D01*
Y262695D01*
X180472D01*
Y261895D01*
X180872D01*
X181072Y262095D02*
Y261895D01*
X181472D01*
Y262095D01*
X181672D01*
Y262495D01*
X181472D01*
Y262695D01*
X181072D01*
Y262495D01*
X180872D01*
Y262095D01*
X181072D01*
X169061Y261895D02*
Y261495D01*
X169861D01*
Y261895D01*
X170261D01*
Y262695D01*
X169861D01*
Y263095D01*
X169061D01*
Y262695D01*
X168661D01*
Y261895D01*
X169061D01*
X169261Y262095D02*
Y261895D01*
X169661D01*
Y262095D01*
X169861D01*
Y262495D01*
X169661D01*
Y262695D01*
X169261D01*
Y262495D01*
X169061D01*
Y262095D01*
X169261D01*
X277789Y158411D02*
Y158011D01*
X278589D01*
Y158411D01*
X278989D01*
Y159211D01*
X278589D01*
Y159611D01*
X277789D01*
Y159211D01*
X277389D01*
Y158411D01*
X277789D01*
X277989Y158611D02*
Y158411D01*
X278389D01*
Y158611D01*
X278589D01*
Y159011D01*
X278389D01*
Y159211D01*
X277989D01*
Y159011D01*
X277789D01*
Y158611D01*
X277989D01*
X289600Y158411D02*
Y158011D01*
X290400D01*
Y158411D01*
X290800D01*
Y159211D01*
X290400D01*
Y159611D01*
X289600D01*
Y159211D01*
X289200D01*
Y158411D01*
X289600D01*
X289800Y158611D02*
Y158411D01*
X290200D01*
Y158611D01*
X290400D01*
Y159011D01*
X290200D01*
Y159211D01*
X289800D01*
Y159011D01*
X289600D01*
Y158611D01*
X289800D01*
X289600Y144600D02*
Y144200D01*
X290400D01*
Y144600D01*
X290800D01*
Y145400D01*
X290400D01*
Y145800D01*
X289600D01*
Y145400D01*
X289200D01*
Y144600D01*
X289600D01*
X289800Y144800D02*
Y144600D01*
X290200D01*
Y144800D01*
X290400D01*
Y145200D01*
X290200D01*
Y145400D01*
X289800D01*
Y145200D01*
X289600D01*
Y144800D01*
X289800D01*
X277789Y144600D02*
Y144200D01*
X278589D01*
Y144600D01*
X278989D01*
Y145400D01*
X278589D01*
Y145800D01*
X277789D01*
Y145400D01*
X277389D01*
Y144600D01*
X277789D01*
X277989Y144800D02*
Y144600D01*
X278389D01*
Y144800D01*
X278589D01*
Y145200D01*
X278389D01*
Y145400D01*
X277989D01*
Y145200D01*
X277789D01*
Y144800D01*
X277989D01*
X109061Y62706D02*
Y62306D01*
X109861D01*
Y62706D01*
X110261D01*
Y63506D01*
X109861D01*
Y63906D01*
X109061D01*
Y63506D01*
X108661D01*
Y62706D01*
X109061D01*
X109261Y62906D02*
Y62706D01*
X109661D01*
Y62906D01*
X109861D01*
Y63306D01*
X109661D01*
Y63506D01*
X109261D01*
Y63306D01*
X109061D01*
Y62906D01*
X109261D01*
X120872Y62706D02*
Y62306D01*
X121672D01*
Y62706D01*
X122072D01*
Y63506D01*
X121672D01*
Y63906D01*
X120872D01*
Y63506D01*
X120472D01*
Y62706D01*
X120872D01*
X121072Y62906D02*
Y62706D01*
X121472D01*
Y62906D01*
X121672D01*
Y63306D01*
X121472D01*
Y63506D01*
X121072D01*
Y63306D01*
X120872D01*
Y62906D01*
X121072D01*
X120872Y50895D02*
Y50495D01*
X121672D01*
Y50895D01*
X122072D01*
Y51695D01*
X121672D01*
Y52095D01*
X120872D01*
Y51695D01*
X120472D01*
Y50895D01*
X120872D01*
X121072Y51095D02*
Y50895D01*
X121472D01*
Y51095D01*
X121672D01*
Y51495D01*
X121472D01*
Y51695D01*
X121072D01*
Y51495D01*
X120872D01*
Y51095D01*
X121072D01*
X109061Y50895D02*
Y50495D01*
X109861D01*
Y50895D01*
X110261D01*
Y51695D01*
X109861D01*
Y52095D01*
X109061D01*
Y51695D01*
X108661D01*
Y50895D01*
X109061D01*
X109261Y51095D02*
Y50895D01*
X109661D01*
Y51095D01*
X109861D01*
Y51495D01*
X109661D01*
Y51695D01*
X109261D01*
Y51495D01*
X109061D01*
Y51095D01*
X109261D01*
X158061Y63706D02*
Y63306D01*
X158861D01*
Y63706D01*
X159261D01*
Y64506D01*
X158861D01*
Y64906D01*
X158061D01*
Y64506D01*
X157661D01*
Y63706D01*
X158061D01*
X158261Y63906D02*
Y63706D01*
X158661D01*
Y63906D01*
X158861D01*
Y64306D01*
X158661D01*
Y64506D01*
X158261D01*
Y64306D01*
X158061D01*
Y63906D01*
X158261D01*
X158061Y51895D02*
Y51495D01*
X158861D01*
Y51895D01*
X159261D01*
Y52695D01*
X158861D01*
Y53095D01*
X158061D01*
Y52695D01*
X157661D01*
Y51895D01*
X158061D01*
X158261Y52095D02*
Y51895D01*
X158661D01*
Y52095D01*
X158861D01*
Y52495D01*
X158661D01*
Y52695D01*
X158261D01*
Y52495D01*
X158061D01*
Y52095D01*
X158261D01*
X55289Y108289D02*
Y107889D01*
X56089D01*
Y108289D01*
X56489D01*
Y109089D01*
X56089D01*
Y109489D01*
X55289D01*
Y109089D01*
X54889D01*
Y108289D01*
X55289D01*
X55489Y108489D02*
Y108289D01*
X55889D01*
Y108489D01*
X56089D01*
Y108889D01*
X55889D01*
Y109089D01*
X55489D01*
Y108889D01*
X55289D01*
Y108489D01*
X55489D01*
X67100Y108289D02*
Y107889D01*
X67900D01*
Y108289D01*
X68300D01*
Y109089D01*
X67900D01*
Y109489D01*
X67100D01*
Y109089D01*
X66700D01*
Y108289D01*
X67100D01*
X67300Y108489D02*
Y108289D01*
X67700D01*
Y108489D01*
X67900D01*
Y108889D01*
X67700D01*
Y109089D01*
X67300D01*
Y108889D01*
X67100D01*
Y108489D01*
X67300D01*
X67100Y96478D02*
Y96078D01*
X67900D01*
Y96478D01*
X68300D01*
Y97278D01*
X67900D01*
Y97678D01*
X67100D01*
Y97278D01*
X66700D01*
Y96478D01*
X67100D01*
X67300Y96678D02*
Y96478D01*
X67700D01*
Y96678D01*
X67900D01*
Y97078D01*
X67700D01*
Y97278D01*
X67300D01*
Y97078D01*
X67100D01*
Y96678D01*
X67300D01*
X55289Y96478D02*
Y96078D01*
X56089D01*
Y96478D01*
X56489D01*
Y97278D01*
X56089D01*
Y97678D01*
X55289D01*
Y97278D01*
X54889D01*
Y96478D01*
X55289D01*
X55489Y96678D02*
Y96478D01*
X55889D01*
Y96678D01*
X56089D01*
Y97078D01*
X55889D01*
Y97278D01*
X55489D01*
Y97078D01*
X55289D01*
Y96678D01*
X55489D01*
X3750Y241206D02*
Y240806D01*
X4550D01*
Y241206D01*
X4950D01*
Y242006D01*
X4550D01*
Y242406D01*
X3750D01*
Y242006D01*
X3350D01*
Y241206D01*
X3750D01*
X3950Y241406D02*
Y241206D01*
X4350D01*
Y241406D01*
X4550D01*
Y241806D01*
X4350D01*
Y242006D01*
X3950D01*
Y241806D01*
X3750D01*
Y241406D01*
X3950D01*
X15561Y241206D02*
Y240806D01*
X16361D01*
Y241206D01*
X16761D01*
Y242006D01*
X16361D01*
Y242406D01*
X15561D01*
Y242006D01*
X15161D01*
Y241206D01*
X15561D01*
X15761Y241406D02*
Y241206D01*
X16161D01*
Y241406D01*
X16361D01*
Y241806D01*
X16161D01*
Y242006D01*
X15761D01*
Y241806D01*
X15561D01*
Y241406D01*
X15761D01*
X15561Y229395D02*
Y228995D01*
X16361D01*
Y229395D01*
X16761D01*
Y230195D01*
X16361D01*
Y230595D01*
X15561D01*
Y230195D01*
X15161D01*
Y229395D01*
X15561D01*
X15761Y229595D02*
Y229395D01*
X16161D01*
Y229595D01*
X16361D01*
Y229995D01*
X16161D01*
Y230195D01*
X15761D01*
Y229995D01*
X15561D01*
Y229595D01*
X15761D01*
X3750Y229395D02*
Y228995D01*
X4550D01*
Y229395D01*
X4950D01*
Y230195D01*
X4550D01*
Y230595D01*
X3750D01*
Y230195D01*
X3350D01*
Y229395D01*
X3750D01*
X3950Y229595D02*
Y229395D01*
X4350D01*
Y229595D01*
X4550D01*
Y229995D01*
X4350D01*
Y230195D01*
X3950D01*
Y229995D01*
X3750D01*
Y229595D01*
X3950D01*
X155100Y312911D02*
Y312511D01*
X155900D01*
Y312911D01*
X156300D01*
Y313711D01*
X155900D01*
Y314111D01*
X155100D01*
Y313711D01*
X154700D01*
Y312911D01*
X155100D01*
X155300Y313111D02*
Y312911D01*
X155700D01*
Y313111D01*
X155900D01*
Y313511D01*
X155700D01*
Y313711D01*
X155300D01*
Y313511D01*
X155100D01*
Y313111D01*
X155300D01*
X166911Y312911D02*
Y312511D01*
X167711D01*
Y312911D01*
X168111D01*
Y313711D01*
X167711D01*
Y314111D01*
X166911D01*
Y313711D01*
X166511D01*
Y312911D01*
X166911D01*
X167111Y313111D02*
Y312911D01*
X167511D01*
Y313111D01*
X167711D01*
Y313511D01*
X167511D01*
Y313711D01*
X167111D01*
Y313511D01*
X166911D01*
Y313111D01*
X167111D01*
X166911Y301100D02*
Y300700D01*
X167711D01*
Y301100D01*
X168111D01*
Y301900D01*
X167711D01*
Y302300D01*
X166911D01*
Y301900D01*
X166511D01*
Y301100D01*
X166911D01*
X167111Y301300D02*
Y301100D01*
X167511D01*
Y301300D01*
X167711D01*
Y301700D01*
X167511D01*
Y301900D01*
X167111D01*
Y301700D01*
X166911D01*
Y301300D01*
X167111D01*
X155100Y301100D02*
Y300700D01*
X155900D01*
Y301100D01*
X156300D01*
Y301900D01*
X155900D01*
Y302300D01*
X155100D01*
Y301900D01*
X154700D01*
Y301100D01*
X155100D01*
X155300Y301300D02*
Y301100D01*
X155700D01*
Y301300D01*
X155900D01*
Y301700D01*
X155700D01*
Y301900D01*
X155300D01*
Y301700D01*
X155100D01*
Y301300D01*
X155300D01*
X203289Y328100D02*
Y327700D01*
X204089D01*
Y328100D01*
X204489D01*
Y328900D01*
X204089D01*
Y329300D01*
X203289D01*
Y328900D01*
X202889D01*
Y328100D01*
X203289D01*
X203489Y328300D02*
Y328100D01*
X203889D01*
Y328300D01*
X204089D01*
Y328700D01*
X203889D01*
Y328900D01*
X203489D01*
Y328700D01*
X203289D01*
Y328300D01*
X203489D01*
X215100Y328100D02*
Y327700D01*
X215900D01*
Y328100D01*
X216300D01*
Y328900D01*
X215900D01*
Y329300D01*
X215100D01*
Y328900D01*
X214700D01*
Y328100D01*
X215100D01*
X215300Y328300D02*
Y328100D01*
X215700D01*
Y328300D01*
X215900D01*
Y328700D01*
X215700D01*
Y328900D01*
X215300D01*
Y328700D01*
X215100D01*
Y328300D01*
X215300D01*
X215100Y316289D02*
Y315889D01*
X215900D01*
Y316289D01*
X216300D01*
Y317089D01*
X215900D01*
Y317489D01*
X215100D01*
Y317089D01*
X214700D01*
Y316289D01*
X215100D01*
X215300Y316489D02*
Y316289D01*
X215700D01*
Y316489D01*
X215900D01*
Y316889D01*
X215700D01*
Y317089D01*
X215300D01*
Y316889D01*
X215100D01*
Y316489D01*
X215300D01*
X203289Y316289D02*
Y315889D01*
X204089D01*
Y316289D01*
X204489D01*
Y317089D01*
X204089D01*
Y317489D01*
X203289D01*
Y317089D01*
X202889D01*
Y316289D01*
X203289D01*
X203489Y316489D02*
Y316289D01*
X203889D01*
Y316489D01*
X204089D01*
Y316889D01*
X203889D01*
Y317089D01*
X203489D01*
Y316889D01*
X203289D01*
Y316489D01*
X203489D01*
X347061Y274706D02*
Y274306D01*
X347861D01*
Y274706D01*
X348261D01*
Y275506D01*
X347861D01*
Y275906D01*
X347061D01*
Y275506D01*
X346661D01*
Y274706D01*
X347061D01*
X347261Y274906D02*
Y274706D01*
X347661D01*
Y274906D01*
X347861D01*
Y275306D01*
X347661D01*
Y275506D01*
X347261D01*
Y275306D01*
X347061D01*
Y274906D01*
X347261D01*
X358872Y274706D02*
Y274306D01*
X359672D01*
Y274706D01*
X360072D01*
Y275506D01*
X359672D01*
Y275906D01*
X358872D01*
Y275506D01*
X358472D01*
Y274706D01*
X358872D01*
X359072Y274906D02*
Y274706D01*
X359472D01*
Y274906D01*
X359672D01*
Y275306D01*
X359472D01*
Y275506D01*
X359072D01*
Y275306D01*
X358872D01*
Y274906D01*
X359072D01*
X358872Y262895D02*
Y262495D01*
X359672D01*
Y262895D01*
X360072D01*
Y263695D01*
X359672D01*
Y264095D01*
X358872D01*
Y263695D01*
X358472D01*
Y262895D01*
X358872D01*
X359072Y263095D02*
Y262895D01*
X359472D01*
Y263095D01*
X359672D01*
Y263495D01*
X359472D01*
Y263695D01*
X359072D01*
Y263495D01*
X358872D01*
Y263095D01*
X359072D01*
X347061Y262895D02*
Y262495D01*
X347861D01*
Y262895D01*
X348261D01*
Y263695D01*
X347861D01*
Y264095D01*
X347061D01*
Y263695D01*
X346661D01*
Y262895D01*
X347061D01*
X347261Y263095D02*
Y262895D01*
X347661D01*
Y263095D01*
X347861D01*
Y263495D01*
X347661D01*
Y263695D01*
X347261D01*
Y263495D01*
X347061D01*
Y263095D01*
X347261D01*
X304250Y200706D02*
Y200306D01*
X305050D01*
Y200706D01*
X305450D01*
Y201506D01*
X305050D01*
Y201906D01*
X304250D01*
Y201506D01*
X303850D01*
Y200706D01*
X304250D01*
X304450Y200906D02*
Y200706D01*
X304850D01*
Y200906D01*
X305050D01*
Y201306D01*
X304850D01*
Y201506D01*
X304450D01*
Y201306D01*
X304250D01*
Y200906D01*
X304450D01*
X316061Y200706D02*
Y200306D01*
X316861D01*
Y200706D01*
X317261D01*
Y201506D01*
X316861D01*
Y201906D01*
X316061D01*
Y201506D01*
X315661D01*
Y200706D01*
X316061D01*
X316261Y200906D02*
Y200706D01*
X316661D01*
Y200906D01*
X316861D01*
Y201306D01*
X316661D01*
Y201506D01*
X316261D01*
Y201306D01*
X316061D01*
Y200906D01*
X316261D01*
X316061Y188895D02*
Y188495D01*
X316861D01*
Y188895D01*
X317261D01*
Y189695D01*
X316861D01*
Y190095D01*
X316061D01*
Y189695D01*
X315661D01*
Y188895D01*
X316061D01*
X316261Y189095D02*
Y188895D01*
X316661D01*
Y189095D01*
X316861D01*
Y189495D01*
X316661D01*
Y189695D01*
X316261D01*
Y189495D01*
X316061D01*
Y189095D01*
X316261D01*
X304250Y188895D02*
Y188495D01*
X305050D01*
Y188895D01*
X305450D01*
Y189695D01*
X305050D01*
Y190095D01*
X304250D01*
Y189695D01*
X303850D01*
Y188895D01*
X304250D01*
X304450Y189095D02*
Y188895D01*
X304850D01*
Y189095D01*
X305050D01*
Y189495D01*
X304850D01*
Y189695D01*
X304450D01*
Y189495D01*
X304250D01*
Y189095D01*
X304450D01*
X181202Y151675D02*
Y151275D01*
X182002D01*
Y151675D01*
X182402D01*
Y152475D01*
X182002D01*
Y152875D01*
X181202D01*
Y152475D01*
X180802D01*
Y151675D01*
X181202D01*
X181402Y151875D02*
Y151675D01*
X181802D01*
Y151875D01*
X182002D01*
Y152275D01*
X181802D01*
Y152475D01*
X181402D01*
Y152275D01*
X181202D01*
Y151875D01*
X181402D01*
X193013Y163486D02*
Y163086D01*
X193813D01*
Y163486D01*
X194213D01*
Y164286D01*
X193813D01*
Y164686D01*
X193013D01*
Y164286D01*
X192613D01*
Y163486D01*
X193013D01*
X193213Y163686D02*
Y163486D01*
X193613D01*
Y163686D01*
X193813D01*
Y164086D01*
X193613D01*
Y164286D01*
X193213D01*
Y164086D01*
X193013D01*
Y163686D01*
X193213D01*
X181202Y163486D02*
Y163086D01*
X182002D01*
Y163486D01*
X182402D01*
Y164286D01*
X182002D01*
Y164686D01*
X181202D01*
Y164286D01*
X180802D01*
Y163486D01*
X181202D01*
X181402Y163686D02*
Y163486D01*
X181802D01*
Y163686D01*
X182002D01*
Y164086D01*
X181802D01*
Y164286D01*
X181402D01*
Y164086D01*
X181202D01*
Y163686D01*
X181402D01*
D99*
X332800Y83500D02*
G03*
X332800Y83500I-800J0D01*
G01*
Y123500D02*
G03*
X332800Y123500I-800J0D01*
G01*
X43300Y150500D02*
G03*
X43300Y150500I-800J0D01*
G01*
X83300D02*
G03*
X83300Y150500I-800J0D01*
G01*
X264765Y138295D02*
G03*
X264765Y138295I-800J0D01*
G01*
X304765D02*
G03*
X304765Y138295I-800J0D01*
G01*
X247048Y323335D02*
G03*
X247048Y323335I-800J0D01*
G01*
X287048D02*
G03*
X287048Y323335I-800J0D01*
G01*
X355300Y186500D02*
G03*
X355300Y186500I-800J0D01*
G01*
Y146500D02*
G03*
X355300Y146500I-800J0D01*
G01*
X264765Y165854D02*
G03*
X264765Y165854I-800J0D01*
G01*
X304765D02*
G03*
X304765Y165854I-800J0D01*
G01*
X259174Y29713D02*
G03*
X259174Y29713I-800J0D01*
G01*
Y69713D02*
G03*
X259174Y69713I-800J0D01*
G01*
X341851Y29713D02*
G03*
X341851Y29713I-800J0D01*
G01*
Y69713D02*
G03*
X341851Y69713I-800J0D01*
G01*
X280513Y500D02*
G03*
X280513Y500I-800J0D01*
G01*
X320513D02*
G03*
X320513Y500I-800J0D01*
G01*
X264765Y152075D02*
G03*
X264765Y152075I-800J0D01*
G01*
X304765D02*
G03*
X304765Y152075I-800J0D01*
G01*
X159788Y15973D02*
G03*
X159788Y15973I-800J0D01*
G01*
X125788Y1013D02*
G03*
X125788Y1013I-800J0D01*
G01*
Y15973D02*
G03*
X125788Y15973I-800J0D01*
G01*
X159788Y1013D02*
G03*
X159788Y1013I-800J0D01*
G01*
X65276Y279043D02*
G03*
X65276Y279043I-800J0D01*
G01*
X105276D02*
G03*
X105276Y279043I-800J0D01*
G01*
X102009Y325303D02*
G03*
X102009Y325303I-800J0D01*
G01*
X62009D02*
G03*
X62009Y325303I-800J0D01*
G01*
X48544Y327902D02*
G03*
X48544Y327902I-800J0D01*
G01*
Y287902D02*
G03*
X48544Y287902I-800J0D01*
G01*
D100*
X159388Y15973D02*
G03*
X159388Y15973I-400J0D01*
G01*
X125388Y1013D02*
G03*
X125388Y1013I-400J0D01*
G01*
Y15973D02*
G03*
X125388Y15973I-400J0D01*
G01*
X159388Y1013D02*
G03*
X159388Y1013I-400J0D01*
G01*
M02*
