M48
;Layer_Color=9474304
;FILE_FORMAT=2:5
INCH,LZ
;TYPE=PLATED
T1F00S00C0.01200
T2F00S00C0.02756
T3F00S00C0.03150
T5F00S00C0.03543
T6F00S00C0.04331
T7F00S00C0.05512
T9F00S00C0.09055
T10F00S00C0.10236
T11F00S00C0.11811
%
T01
X002Y0
X0015Y003
X00545Y00395
X007Y0005
X015Y001
X019
X0244Y0016
X0276
X0282Y-0002
X0336Y0016
X0358
X037Y0135
Y015
Y017
X0315Y016
Y014
X033
X026
X0245Y0135
X02495Y012
X0245Y0115
Y0085
X0255Y0095
Y0155
X0245
X0255Y0165
X0265
X0285Y018
X0295
X0183Y0159
X018Y0145
Y0115
X0205
X018Y008
X013
X0115Y0065
X01
X0085
Y0045
X01
X0085Y014
Y0165
Y019
X013Y0175
X0075Y012
X0055Y014
X003Y0155
X001
X-0005
X0005Y018
Y0195
X0015Y0045
X00545Y00495
X0005Y021
Y0225
Y024
Y027
Y0285
X0015Y029
Y0305
X0135Y032
X017
Y0335
Y0305
X0215
Y032
X0205Y0285
Y0265
X0176Y0262
X017Y0259
X013Y027
X014Y0285
X013Y024
Y0214
X0110456Y0231002
X0101Y0231
X01Y0205
X018
X0275Y021
Y0225
X031Y0235
Y026
X03Y03
X0279Y03105
X0264
Y03255
X0279
X0365Y0325
Y031
Y0295
Y035
X0335Y0215
X031Y02
X026Y0255
T02
X0236Y0005
X0245Y003
X0257
X0269
X0276Y0005
X0343Y003
X0354
Y007
X0343
X0269Y007
X0257
X0245
X0269Y0113
X0309
X0113Y0164
X0036Y0178
Y0218
X0054Y0215
X0062Y0323
X0102
X0094Y0215
X0113Y0204
T03
X0123Y0018079
Y0027921
X0324079Y018
X0333921
X0077Y0178
X0057315
X0044Y0323
X0034
T05
X0297355Y0029328
X0307355
X0317355
X0367Y0039
Y0049
Y0059
X0349Y0096
Y0106
Y0116
Y0154
Y0164
X0299Y0148
X0289
X0279
Y0128
X0289Y0128
X0299Y0128
X0297355Y0086414
X0317355
X0263Y019
X0202756Y0040768
X0192913Y0040768
X0185039
X0175197
X0078Y0078
Y0092
X0068
X0058
Y0078
X0068Y0078
X0039Y0078
X0029
X0019
Y0092
X0029
X0039
Y0106
X0029
X0019
Y0064
X0029
X0039
X00569Y023123
X00669
X00769Y023123
X006937Y027559
X005937
X004937
X003937
X004Y0301
X005Y0301
X006Y0301
X007
X0049Y035
X0039
X0029
X0Y0331
Y0321
X008Y0301
X009
X008937Y027559
X009937
X007937Y027559
X00869Y023123
X0085Y035
X0095
X0105
X0115
X0254
X0264
X0274
X0284
X0313
X0323
X0333
X0343
X0341Y0315
X0331
X0321
X0311
X02993Y02682
Y02582
Y02482
Y02382
Y02282
Y02182
Y02082
Y01982
X0263Y02
Y021
Y022
Y023
Y024
X03593Y02382
Y02482
Y02582
Y02682
Y02282
Y02182
Y02082
Y01982
T06
X0108Y0109
X0058
T07
X0158976Y0093976
Y0103976
Y0113976
Y0123976
Y0133976
Y0143976
Y0153976
Y0163976
Y0173976
Y0183976
Y0193976
X0218976Y0193976
X0218976Y0183976
X0218976Y0173976
X0218976Y0163976
Y0153976
X0218976Y0143976
Y0133976
X0218976Y0123976
Y0113976
X0218976Y0103976
X0218976Y0093976
Y0203976
Y0213976
X0218976Y0223976
Y0233976
X0218976Y0243976
Y0253976
Y0263976
Y0273976
X0218976Y0283976
X0158976Y0283976
Y0273976
Y0263976
Y0253976
Y0243976
Y0233976
Y0223976
Y0213976
Y0203976
T09
X016311Y0030098
X0214843
T10
X0114213Y0136929
X0024528
T11
X0Y0
X0370079
Y0370079
X0
M30
