G04*
G04 #@! TF.GenerationSoftware,Altium Limited,Altium Designer,21.2.1 (34)*
G04*
G04 Layer_Color=32896*
%FSLAX25Y25*%
%MOIN*%
G70*
G04*
G04 #@! TF.SameCoordinates,F9D7F3A8-4154-4F6A-AE32-A65E76AD83D7*
G04*
G04*
G04 #@! TF.FilePolarity,Positive*
G04*
G01*
G75*
G36*
X279978Y375773D02*
X279798D01*
X279776Y375767D01*
X279738Y375757D01*
X279721Y375746D01*
X279716Y375740D01*
X279694Y375713D01*
X279689Y375686D01*
X279683Y375658D01*
Y375653D01*
Y375647D01*
Y372426D01*
X279689Y372382D01*
X279700Y372349D01*
X279711Y372333D01*
X279716Y372328D01*
X279727Y372317D01*
X279743Y372311D01*
X279782Y372306D01*
X279814Y372300D01*
X280000D01*
Y372049D01*
X278886D01*
Y372300D01*
X279061D01*
X279110Y372306D01*
X279143Y372317D01*
X279165Y372322D01*
X279170Y372328D01*
X279187Y372355D01*
X279197Y372388D01*
X279203Y372415D01*
Y372420D01*
Y372426D01*
Y374015D01*
X277985D01*
Y372426D01*
X277991Y372382D01*
X278002Y372349D01*
X278013Y372333D01*
X278018Y372328D01*
X278029Y372317D01*
X278045Y372311D01*
X278083Y372306D01*
X278116Y372300D01*
X278302D01*
Y372049D01*
X277188D01*
Y372300D01*
X277363D01*
X277412Y372306D01*
X277445Y372317D01*
X277467Y372322D01*
X277472Y372328D01*
X277488Y372355D01*
X277499Y372388D01*
X277505Y372415D01*
Y372420D01*
Y372426D01*
Y375647D01*
X277499Y375691D01*
X277488Y375718D01*
X277478Y375735D01*
X277472Y375740D01*
X277439Y375762D01*
X277401Y375767D01*
X277374Y375773D01*
X277210D01*
Y376024D01*
X278280D01*
Y375773D01*
X278100D01*
X278078Y375767D01*
X278040Y375757D01*
X278024Y375746D01*
X278018Y375740D01*
X277996Y375713D01*
X277991Y375686D01*
X277985Y375664D01*
Y375658D01*
Y375653D01*
Y374266D01*
X279203D01*
Y375653D01*
X279197Y375691D01*
X279187Y375718D01*
X279175Y375735D01*
X279170Y375740D01*
X279137Y375762D01*
X279099Y375767D01*
X279072Y375773D01*
X278908D01*
Y376024D01*
X279978D01*
Y375773D01*
D02*
G37*
G36*
X274000Y373966D02*
X271373D01*
Y374282D01*
X274000D01*
Y373966D01*
D02*
G37*
G36*
X274600Y376046D02*
X274633Y376019D01*
X274660Y376002D01*
X274682Y375991D01*
X274698Y375980D01*
X274709Y375975D01*
X274720Y375969D01*
X274753Y375958D01*
X274791Y375953D01*
X274835D01*
X274873Y375958D01*
X274917Y375964D01*
X274999Y375986D01*
X275031Y375997D01*
X275059Y376002D01*
X275080Y376013D01*
X275086D01*
X275212Y376046D01*
X275272Y376057D01*
X275321Y376062D01*
X275364Y376068D01*
X275425D01*
X275556Y376062D01*
X275676Y376040D01*
X275790Y376013D01*
X275900Y375975D01*
X275998Y375931D01*
X276091Y375882D01*
X276172Y375833D01*
X276249Y375778D01*
X276320Y375724D01*
X276375Y375669D01*
X276429Y375620D01*
X276467Y375576D01*
X276500Y375538D01*
X276522Y375511D01*
X276538Y375489D01*
X276544Y375483D01*
X276615Y375369D01*
X276680Y375254D01*
X276735Y375134D01*
X276779Y375009D01*
X276822Y374883D01*
X276855Y374763D01*
X276882Y374648D01*
X276904Y374533D01*
X276921Y374424D01*
X276932Y374331D01*
X276942Y374244D01*
X276948Y374168D01*
Y374108D01*
X276953Y374058D01*
Y374031D01*
Y374020D01*
X276948Y373835D01*
X276937Y373654D01*
X276915Y373496D01*
X276893Y373343D01*
X276866Y373207D01*
X276833Y373081D01*
X276795Y372966D01*
X276757Y372868D01*
X276724Y372781D01*
X276686Y372704D01*
X276653Y372639D01*
X276626Y372584D01*
X276604Y372546D01*
X276582Y372513D01*
X276571Y372497D01*
X276566Y372491D01*
X276489Y372404D01*
X276407Y372328D01*
X276325Y372262D01*
X276238Y372207D01*
X276151Y372158D01*
X276063Y372120D01*
X275976Y372087D01*
X275894Y372060D01*
X275818Y372044D01*
X275747Y372027D01*
X275681Y372016D01*
X275626Y372006D01*
X275583D01*
X275545Y372000D01*
X275517D01*
X275435Y372006D01*
X275359Y372016D01*
X275288Y372027D01*
X275217Y372049D01*
X275086Y372098D01*
X274977Y372158D01*
X274928Y372186D01*
X274889Y372218D01*
X274851Y372246D01*
X274818Y372268D01*
X274797Y372289D01*
X274780Y372306D01*
X274769Y372311D01*
X274764Y372317D01*
X274655Y372442D01*
X274556Y372584D01*
X274480Y372726D01*
X274420Y372863D01*
X274398Y372923D01*
X274376Y372983D01*
X274360Y373037D01*
X274343Y373081D01*
X274332Y373119D01*
X274327Y373147D01*
X274322Y373163D01*
Y373168D01*
X274562Y373267D01*
X274605Y373103D01*
X274660Y372961D01*
X274720Y372841D01*
X274775Y372737D01*
X274802Y372693D01*
X274829Y372661D01*
X274851Y372628D01*
X274873Y372601D01*
X274889Y372584D01*
X274900Y372568D01*
X274906Y372562D01*
X274911Y372557D01*
X274960Y372513D01*
X275004Y372481D01*
X275108Y372420D01*
X275201Y372377D01*
X275293Y372349D01*
X275370Y372328D01*
X275435Y372322D01*
X275457Y372317D01*
X275490D01*
X275577Y372322D01*
X275659Y372339D01*
X275736Y372360D01*
X275807Y372388D01*
X275867Y372420D01*
X275927Y372459D01*
X275976Y372497D01*
X276020Y372540D01*
X276063Y372584D01*
X276096Y372622D01*
X276123Y372661D01*
X276145Y372693D01*
X276167Y372721D01*
X276178Y372748D01*
X276189Y372759D01*
Y372764D01*
X276227Y372852D01*
X276260Y372950D01*
X276314Y373158D01*
X276347Y373371D01*
X276375Y373572D01*
X276385Y373671D01*
X276391Y373758D01*
X276396Y373835D01*
Y373905D01*
X276402Y373966D01*
Y374004D01*
Y374031D01*
Y374042D01*
X276396Y374184D01*
X276391Y374315D01*
X276380Y374441D01*
X276364Y374561D01*
X276347Y374670D01*
X276325Y374774D01*
X276304Y374867D01*
X276276Y374954D01*
X276254Y375030D01*
X276233Y375101D01*
X276211Y375161D01*
X276194Y375210D01*
X276178Y375249D01*
X276167Y375276D01*
X276156Y375292D01*
Y375298D01*
X276107Y375385D01*
X276052Y375462D01*
X275998Y375527D01*
X275943Y375587D01*
X275883Y375631D01*
X275829Y375675D01*
X275774Y375707D01*
X275719Y375735D01*
X275665Y375751D01*
X275621Y375767D01*
X275577Y375778D01*
X275539Y375789D01*
X275512D01*
X275485Y375795D01*
X275468D01*
X275348Y375784D01*
X275244Y375762D01*
X275151Y375729D01*
X275070Y375691D01*
X275010Y375647D01*
X274960Y375615D01*
X274933Y375593D01*
X274922Y375582D01*
X274884Y375538D01*
X274846Y375494D01*
X274775Y375391D01*
X274715Y375276D01*
X274660Y375167D01*
X274622Y375068D01*
X274600Y375025D01*
X274589Y374992D01*
X274578Y374959D01*
X274567Y374938D01*
X274562Y374921D01*
Y374916D01*
X274322Y374976D01*
X274556Y376073D01*
X274600Y376046D01*
D02*
G37*
G36*
X268097Y375773D02*
X267868D01*
X267846Y375767D01*
X267808Y375757D01*
X267791Y375746D01*
X267786Y375740D01*
X267764Y375713D01*
X267759Y375686D01*
X267753Y375658D01*
Y375653D01*
Y375647D01*
Y372426D01*
X267759Y372382D01*
X267770Y372349D01*
X267780Y372333D01*
X267786Y372328D01*
X267797Y372317D01*
X267813Y372311D01*
X267851Y372306D01*
X267884Y372300D01*
X268097D01*
Y372049D01*
X266934D01*
Y372300D01*
X267131D01*
X267180Y372306D01*
X267213Y372317D01*
X267234Y372322D01*
X267240Y372328D01*
X267256Y372355D01*
X267267Y372388D01*
X267273Y372415D01*
Y372420D01*
Y372426D01*
Y373987D01*
X266858D01*
X266110Y372049D01*
X265373D01*
Y372300D01*
X265569D01*
X265607Y372306D01*
X265640Y372311D01*
X265662Y372317D01*
X265668Y372322D01*
X265695Y372349D01*
X265717Y372382D01*
X265733Y372410D01*
X265739Y372415D01*
Y372420D01*
X266416Y374020D01*
X266312Y374042D01*
X266208Y374080D01*
X266115Y374129D01*
X266033Y374179D01*
X265962Y374233D01*
X265908Y374271D01*
X265891Y374293D01*
X265875Y374304D01*
X265869Y374310D01*
X265864Y374315D01*
X265815Y374370D01*
X265777Y374424D01*
X265739Y374484D01*
X265711Y374544D01*
X265662Y374670D01*
X265629Y374790D01*
X265613Y374899D01*
X265602Y374943D01*
Y374987D01*
X265597Y375019D01*
Y375041D01*
Y375058D01*
Y375063D01*
X265602Y375150D01*
X265607Y375232D01*
X265624Y375303D01*
X265646Y375374D01*
X265668Y375440D01*
X265695Y375500D01*
X265722Y375549D01*
X265749Y375598D01*
X265777Y375642D01*
X265804Y375680D01*
X265831Y375707D01*
X265853Y375735D01*
X265875Y375751D01*
X265891Y375767D01*
X265897Y375778D01*
X265902D01*
X265962Y375822D01*
X266022Y375860D01*
X266159Y375920D01*
X266301Y375964D01*
X266437Y375991D01*
X266497Y376002D01*
X266558Y376013D01*
X266607Y376019D01*
X266656D01*
X266688Y376024D01*
X268097D01*
Y375773D01*
D02*
G37*
G36*
X262162Y373409D02*
Y373223D01*
X260644D01*
Y372535D01*
Y372491D01*
X260655Y372453D01*
X260666Y372420D01*
X260677Y372393D01*
X260688Y372371D01*
X260699Y372360D01*
X260704Y372355D01*
X260710Y372349D01*
X260737Y372333D01*
X260770Y372322D01*
X260841Y372306D01*
X260874D01*
X260901Y372300D01*
X261234D01*
Y372049D01*
X259623D01*
Y372300D01*
X259934D01*
X259978Y372306D01*
X260016Y372317D01*
X260044Y372328D01*
X260066Y372333D01*
X260087Y372344D01*
X260093Y372349D01*
X260098D01*
X260120Y372371D01*
X260137Y372404D01*
X260153Y372464D01*
X260158Y372491D01*
X260164Y372513D01*
Y372530D01*
Y372535D01*
Y373223D01*
X259558D01*
Y373474D01*
X260164D01*
Y376068D01*
X260486D01*
X262162Y373409D01*
D02*
G37*
G36*
X268845Y376035D02*
X268883Y376002D01*
X268916Y375975D01*
X268938Y375958D01*
X268954Y375942D01*
X268965Y375937D01*
X268976Y375931D01*
X269004Y375920D01*
X269036Y375915D01*
X269053Y375909D01*
X269064D01*
X269096Y375915D01*
X269140Y375920D01*
X269227Y375953D01*
X269266Y375964D01*
X269298Y375980D01*
X269320Y375986D01*
X269331Y375991D01*
X269413Y376019D01*
X269495Y376035D01*
X269577Y376051D01*
X269642Y376057D01*
X269702Y376062D01*
X269752Y376068D01*
X269790D01*
X269888Y376062D01*
X269981Y376051D01*
X270068Y376035D01*
X270150Y376019D01*
X270227Y375991D01*
X270298Y375964D01*
X270363Y375937D01*
X270418Y375904D01*
X270467Y375871D01*
X270511Y375844D01*
X270549Y375816D01*
X270582Y375789D01*
X270603Y375773D01*
X270620Y375757D01*
X270631Y375746D01*
X270636Y375740D01*
X270685Y375680D01*
X270734Y375620D01*
X270773Y375560D01*
X270805Y375500D01*
X270860Y375385D01*
X270893Y375282D01*
X270915Y375194D01*
X270920Y375156D01*
X270925Y375123D01*
X270931Y375096D01*
Y375079D01*
Y375068D01*
Y375063D01*
X270925Y374981D01*
X270920Y374905D01*
X270909Y374828D01*
X270893Y374763D01*
X270876Y374703D01*
X270854Y374648D01*
X270811Y374555D01*
X270773Y374479D01*
X270734Y374430D01*
X270707Y374397D01*
X270696Y374392D01*
Y374386D01*
X270647Y374348D01*
X270592Y374304D01*
X270467Y374228D01*
X270330Y374151D01*
X270194Y374080D01*
X270128Y374053D01*
X270068Y374026D01*
X270014Y373998D01*
X269965Y373976D01*
X269926Y373960D01*
X269899Y373949D01*
X269877Y373944D01*
X269872Y373938D01*
X269784Y373895D01*
X269708Y373851D01*
X269632Y373813D01*
X269566Y373769D01*
X269506Y373731D01*
X269451Y373698D01*
X269397Y373660D01*
X269353Y373627D01*
X269315Y373600D01*
X269282Y373572D01*
X269233Y373534D01*
X269206Y373507D01*
X269195Y373496D01*
X269124Y373420D01*
X269075Y373349D01*
X269036Y373283D01*
X269015Y373223D01*
X268998Y373168D01*
X268993Y373130D01*
X268987Y373108D01*
Y373097D01*
X268993Y372955D01*
X269015Y372830D01*
X269042Y372721D01*
X269075Y372633D01*
X269113Y372568D01*
X269140Y372519D01*
X269162Y372491D01*
X269167Y372481D01*
X269238Y372410D01*
X269326Y372360D01*
X269413Y372322D01*
X269495Y372300D01*
X269577Y372284D01*
X269637Y372278D01*
X269664Y372273D01*
X269697D01*
X269823Y372284D01*
X269937Y372306D01*
X270041Y372333D01*
X270134Y372371D01*
X270205Y372410D01*
X270259Y372437D01*
X270281Y372453D01*
X270298Y372459D01*
X270303Y372470D01*
X270308D01*
X270358Y372513D01*
X270401Y372562D01*
X270445Y372617D01*
X270489Y372682D01*
X270560Y372814D01*
X270620Y372945D01*
X270674Y373070D01*
X270691Y373125D01*
X270707Y373174D01*
X270724Y373218D01*
X270734Y373245D01*
X270740Y373267D01*
Y373272D01*
X270975Y373201D01*
X270778Y372000D01*
X270718Y372027D01*
X270669Y372049D01*
X270631Y372071D01*
X270603Y372087D01*
X270582Y372098D01*
X270565Y372109D01*
X270554Y372115D01*
X270511Y372142D01*
X270478Y372153D01*
X270456Y372158D01*
X270401D01*
X270358Y372147D01*
X270259Y372126D01*
X270216Y372115D01*
X270183Y372104D01*
X270161Y372098D01*
X270150Y372093D01*
X270079Y372060D01*
X270003Y372038D01*
X269932Y372022D01*
X269866Y372011D01*
X269806Y372006D01*
X269762Y372000D01*
X269719D01*
X269615Y372006D01*
X269517Y372016D01*
X269429Y372033D01*
X269342Y372055D01*
X269266Y372076D01*
X269195Y372104D01*
X269129Y372136D01*
X269069Y372169D01*
X269020Y372197D01*
X268976Y372229D01*
X268938Y372257D01*
X268905Y372284D01*
X268883Y372300D01*
X268867Y372317D01*
X268856Y372328D01*
X268851Y372333D01*
X268796Y372399D01*
X268752Y372464D01*
X268709Y372530D01*
X268676Y372595D01*
X268621Y372721D01*
X268589Y372841D01*
X268567Y372945D01*
X268561Y372988D01*
X268556Y373026D01*
X268550Y373054D01*
Y373081D01*
Y373092D01*
Y373097D01*
Y373174D01*
X268561Y373245D01*
X268589Y373376D01*
X268632Y373496D01*
X268676Y373600D01*
X268720Y373682D01*
X268741Y373714D01*
X268763Y373742D01*
X268780Y373769D01*
X268791Y373785D01*
X268796Y373791D01*
X268801Y373796D01*
X268851Y373851D01*
X268905Y373905D01*
X269031Y374004D01*
X269167Y374091D01*
X269298Y374168D01*
X269419Y374233D01*
X269473Y374260D01*
X269517Y374282D01*
X269555Y374299D01*
X269582Y374310D01*
X269604Y374321D01*
X269610D01*
X269724Y374375D01*
X269828Y374424D01*
X269921Y374468D01*
X270003Y374506D01*
X270074Y374544D01*
X270134Y374583D01*
X270188Y374610D01*
X270237Y374637D01*
X270276Y374664D01*
X270308Y374686D01*
X270336Y374703D01*
X270352Y374714D01*
X270379Y374735D01*
X270385Y374741D01*
X270429Y374796D01*
X270461Y374856D01*
X270483Y374916D01*
X270500Y374976D01*
X270511Y375025D01*
X270516Y375068D01*
Y375096D01*
Y375107D01*
X270511Y375200D01*
X270494Y375287D01*
X270472Y375363D01*
X270445Y375434D01*
X270418Y375494D01*
X270396Y375538D01*
X270379Y375565D01*
X270374Y375576D01*
X270347Y375615D01*
X270308Y375647D01*
X270232Y375702D01*
X270139Y375740D01*
X270052Y375767D01*
X269965Y375784D01*
X269932Y375789D01*
X269899D01*
X269872Y375795D01*
X269833D01*
X269719Y375789D01*
X269620Y375767D01*
X269528Y375746D01*
X269457Y375713D01*
X269397Y375686D01*
X269353Y375658D01*
X269326Y375636D01*
X269315Y375631D01*
X269277Y375598D01*
X269238Y375560D01*
X269162Y375462D01*
X269091Y375358D01*
X269031Y375249D01*
X268976Y375145D01*
X268949Y375101D01*
X268933Y375063D01*
X268916Y375030D01*
X268905Y375003D01*
X268894Y374987D01*
Y374981D01*
X268687Y375041D01*
X268801Y376073D01*
X268845Y376035D01*
D02*
G37*
G36*
X263915Y376062D02*
X264008Y376046D01*
X264101Y376019D01*
X264188Y375980D01*
X264264Y375937D01*
X264341Y375887D01*
X264406Y375838D01*
X264466Y375789D01*
X264521Y375735D01*
X264570Y375686D01*
X264608Y375636D01*
X264647Y375593D01*
X264674Y375560D01*
X264690Y375527D01*
X264701Y375511D01*
X264706Y375505D01*
X264767Y375396D01*
X264816Y375282D01*
X264865Y375161D01*
X264903Y375041D01*
X264936Y374916D01*
X264963Y374796D01*
X264985Y374681D01*
X265001Y374566D01*
X265018Y374457D01*
X265029Y374359D01*
X265034Y374271D01*
X265040Y374195D01*
X265045Y374135D01*
Y374086D01*
Y374058D01*
Y374047D01*
X265040Y373873D01*
X265029Y373704D01*
X265012Y373545D01*
X264990Y373403D01*
X264963Y373267D01*
X264936Y373141D01*
X264903Y373026D01*
X264870Y372928D01*
X264838Y372835D01*
X264805Y372759D01*
X264777Y372688D01*
X264750Y372633D01*
X264728Y372590D01*
X264712Y372562D01*
X264701Y372540D01*
X264696Y372535D01*
X264625Y372442D01*
X264554Y372360D01*
X264483Y372289D01*
X264406Y372224D01*
X264335Y372175D01*
X264259Y372131D01*
X264188Y372093D01*
X264122Y372065D01*
X264057Y372044D01*
X263997Y372027D01*
X263942Y372016D01*
X263898Y372011D01*
X263860Y372006D01*
X263833Y372000D01*
X263811D01*
X263713Y372006D01*
X263620Y372022D01*
X263533Y372049D01*
X263451Y372087D01*
X263374Y372126D01*
X263303Y372175D01*
X263238Y372224D01*
X263178Y372278D01*
X263123Y372328D01*
X263080Y372377D01*
X263036Y372426D01*
X263003Y372464D01*
X262976Y372502D01*
X262959Y372530D01*
X262948Y372546D01*
X262943Y372551D01*
X262883Y372661D01*
X262828Y372775D01*
X262785Y372895D01*
X262746Y373016D01*
X262708Y373141D01*
X262681Y373267D01*
X262659Y373387D01*
X262643Y373507D01*
X262626Y373616D01*
X262615Y373720D01*
X262610Y373813D01*
X262604Y373889D01*
X262599Y373955D01*
Y374004D01*
Y374037D01*
Y374047D01*
X262604Y374217D01*
X262615Y374381D01*
X262632Y374533D01*
X262654Y374675D01*
X262681Y374806D01*
X262708Y374927D01*
X262741Y375041D01*
X262768Y375139D01*
X262801Y375227D01*
X262834Y375309D01*
X262861Y375374D01*
X262888Y375429D01*
X262910Y375473D01*
X262927Y375500D01*
X262937Y375522D01*
X262943Y375527D01*
X263008Y375620D01*
X263080Y375707D01*
X263150Y375778D01*
X263221Y375838D01*
X263292Y375893D01*
X263369Y375937D01*
X263434Y375969D01*
X263505Y376002D01*
X263565Y376024D01*
X263626Y376040D01*
X263680Y376051D01*
X263724Y376057D01*
X263762Y376062D01*
X263789Y376068D01*
X263811D01*
X263915Y376062D01*
D02*
G37*
%LPC*%
G36*
X267142Y375773D02*
X266880D01*
X266738Y375762D01*
X266617Y375740D01*
X266514Y375707D01*
X266432Y375675D01*
X266372Y375636D01*
X266323Y375604D01*
X266301Y375582D01*
X266290Y375571D01*
X266224Y375489D01*
X266181Y375402D01*
X266148Y375309D01*
X266121Y375221D01*
X266110Y375139D01*
X266104Y375079D01*
X266099Y375052D01*
Y375036D01*
Y375025D01*
Y375019D01*
X266110Y374877D01*
X266132Y374752D01*
X266164Y374654D01*
X266203Y374566D01*
X266246Y374506D01*
X266279Y374463D01*
X266301Y374435D01*
X266312Y374424D01*
X266394Y374364D01*
X266481Y374315D01*
X266568Y374282D01*
X266650Y374260D01*
X266727Y374250D01*
X266781Y374244D01*
X266803Y374239D01*
X267273D01*
Y375647D01*
X267267Y375691D01*
X267256Y375718D01*
X267245Y375735D01*
X267240Y375740D01*
X267207Y375762D01*
X267169Y375767D01*
X267142Y375773D01*
D02*
G37*
G36*
X260644Y375302D02*
Y373474D01*
X261840D01*
X260644Y375302D01*
D02*
G37*
G36*
X263822Y375773D02*
X263811D01*
X263751Y375767D01*
X263696Y375751D01*
X263647Y375729D01*
X263604Y375702D01*
X263516Y375625D01*
X263451Y375543D01*
X263396Y375456D01*
X263358Y375380D01*
X263341Y375352D01*
X263331Y375331D01*
X263325Y375314D01*
Y375309D01*
X263292Y375216D01*
X263265Y375123D01*
X263221Y374916D01*
X263194Y374708D01*
X263172Y374506D01*
X263167Y374413D01*
X263161Y374326D01*
X263156Y374244D01*
X263150Y374179D01*
Y374124D01*
Y374080D01*
Y374058D01*
Y374047D01*
Y373895D01*
X263156Y373747D01*
X263167Y373611D01*
X263178Y373485D01*
X263194Y373365D01*
X263211Y373261D01*
X263227Y373163D01*
X263243Y373076D01*
X263260Y372999D01*
X263276Y372934D01*
X263292Y372874D01*
X263309Y372825D01*
X263320Y372792D01*
X263331Y372764D01*
X263336Y372748D01*
Y372743D01*
X263369Y372666D01*
X263407Y372595D01*
X263445Y372535D01*
X263484Y372486D01*
X263527Y372442D01*
X263565Y372404D01*
X263604Y372377D01*
X263642Y372349D01*
X263707Y372317D01*
X263762Y372300D01*
X263784D01*
X263800Y372295D01*
X263811D01*
X263860Y372300D01*
X263909Y372317D01*
X263959Y372339D01*
X264002Y372366D01*
X264084Y372437D01*
X264155Y372519D01*
X264215Y372601D01*
X264253Y372672D01*
X264270Y372699D01*
X264281Y372726D01*
X264292Y372737D01*
Y372743D01*
X264324Y372830D01*
X264357Y372928D01*
X264384Y373032D01*
X264406Y373136D01*
X264444Y373354D01*
X264466Y373567D01*
X264477Y373665D01*
X264483Y373753D01*
X264488Y373835D01*
Y373905D01*
X264494Y373966D01*
Y374009D01*
Y374037D01*
Y374047D01*
Y374195D01*
X264483Y374331D01*
X264477Y374463D01*
X264461Y374583D01*
X264444Y374692D01*
X264428Y374796D01*
X264412Y374894D01*
X264390Y374976D01*
X264373Y375052D01*
X264357Y375118D01*
X264341Y375178D01*
X264324Y375221D01*
X264308Y375260D01*
X264302Y375287D01*
X264292Y375303D01*
Y375309D01*
X264253Y375391D01*
X264215Y375462D01*
X264172Y375522D01*
X264133Y375576D01*
X264090Y375620D01*
X264051Y375658D01*
X264013Y375691D01*
X263975Y375713D01*
X263909Y375751D01*
X263860Y375767D01*
X263838D01*
X263822Y375773D01*
D02*
G37*
%LPD*%
M02*
