G04*
G04 #@! TF.GenerationSoftware,Altium Limited,Altium Designer,21.2.1 (34)*
G04*
G04 Layer_Color=32768*
%FSLAX25Y25*%
%MOIN*%
G70*
G04*
G04 #@! TF.SameCoordinates,F9D7F3A8-4154-4F6A-AE32-A65E76AD83D7*
G04*
G04*
G04 #@! TF.FilePolarity,Positive*
G04*
G01*
G75*
%ADD10C,0.01000*%
%ADD79C,0.00197*%
%ADD80C,0.00394*%
%ADD81C,0.00600*%
D10*
X370079Y-33000D02*
Y-8880D01*
X0Y-33000D02*
Y-8880D01*
X198535Y-32000D02*
X370079D01*
X0D02*
X168344D01*
X364079Y-30000D02*
X370079Y-32000D01*
X364079Y-34000D02*
X370079Y-32000D01*
X0D02*
X6000Y-34000D01*
X0Y-32000D02*
X6000Y-30000D01*
X-37000Y0D02*
X-8880D01*
X-37000Y370079D02*
X-8880D01*
X-36000Y0D02*
Y168344D01*
Y198535D02*
Y370079D01*
Y0D02*
X-34000Y6000D01*
X-38000D02*
X-36000Y0D01*
X-38000Y364079D02*
X-36000Y370079D01*
X-34000Y364079D01*
X24094Y249567D02*
X114646D01*
X24094Y159016D02*
Y249567D01*
X114646Y159016D02*
Y249567D01*
X24094Y159016D02*
X114646D01*
X120551Y147205D02*
Y261378D01*
X18189Y147205D02*
Y261378D01*
X120551D01*
X18189Y147205D02*
X120551D01*
D79*
X308464Y4624D02*
G03*
X308464Y4624I-1378J0D01*
G01*
X305118D02*
X309055D01*
X307086Y2656D02*
Y6593D01*
D80*
X50811Y323000D02*
G03*
X50811Y323000I-11811J0D01*
G01*
X138748Y23000D02*
G03*
X138748Y23000I-15748J0D01*
G01*
X276402Y108669D02*
Y117331D01*
X301598D01*
X287032Y113000D02*
X290968D01*
X289000Y111031D02*
Y114969D01*
X301598Y108669D02*
Y117331D01*
X276402Y108669D02*
X301598D01*
X273252Y142882D02*
X303567Y142882D01*
X273252Y142882D02*
Y153118D01*
X303567Y153118D01*
Y142882D02*
Y153118D01*
X273252Y122882D02*
X303567D01*
X273252D02*
Y133118D01*
X303567D01*
Y122882D02*
Y133118D01*
X268598Y669D02*
Y9331D01*
X243402Y669D02*
X268598D01*
X254031Y5000D02*
X257968D01*
X256000Y3032D02*
Y6968D01*
X243402Y669D02*
Y9331D01*
X268598D01*
X31669Y210598D02*
X40331D01*
Y185402D02*
Y210598D01*
X36000Y196031D02*
Y199969D01*
X34032Y198000D02*
X37969D01*
X31669Y185402D02*
X40331D01*
X31669D02*
Y210598D01*
X69402Y318669D02*
Y327331D01*
X94598D01*
X80032Y323000D02*
X83969D01*
X82000Y321031D02*
Y324969D01*
X94598Y318669D02*
Y327331D01*
X69402Y318669D02*
X94598D01*
X74425Y40350D02*
X77575D01*
X74425Y46650D02*
X77575D01*
X74425Y40350D02*
Y46650D01*
X77575Y40350D02*
Y46650D01*
X76000Y42331D02*
Y44693D01*
X74819Y43500D02*
X77181D01*
X65425Y40476D02*
X68575D01*
X65425Y46776D02*
X68575D01*
X65425Y40476D02*
X65425Y46776D01*
X68575D02*
X68575Y40476D01*
X67000Y44819D02*
X67000Y42457D01*
X65819Y43626D02*
X68181D01*
X97961Y101913D02*
Y116087D01*
X68039Y101913D02*
Y116087D01*
X81032Y109000D02*
X84969D01*
X83000Y107032D02*
Y110968D01*
X68039Y101913D02*
X97961D01*
X68039Y116087D02*
X97961D01*
X108669Y196598D02*
X117331D01*
Y171402D02*
Y196598D01*
X113000Y182032D02*
Y185968D01*
X111031Y184000D02*
X114969D01*
X108669Y171402D02*
X117331D01*
X108669D02*
Y196598D01*
X61402Y210669D02*
Y219331D01*
X86598D01*
X72031Y215000D02*
X75968D01*
X74000Y213032D02*
Y216968D01*
X86598Y210669D02*
Y219331D01*
X61402Y210669D02*
X86598D01*
X338669Y37402D02*
X347331D01*
X338669D02*
Y62598D01*
X343000Y48031D02*
Y51968D01*
X341032Y50000D02*
X344969D01*
X338669Y62598D02*
X347331D01*
Y37402D02*
Y62598D01*
X240669D02*
X249331D01*
Y37402D02*
Y62598D01*
X245000Y48031D02*
Y51968D01*
X243032Y50000D02*
X246969D01*
X240669Y37402D02*
X249331D01*
X240669D02*
Y62598D01*
X252669D02*
X261331D01*
Y37402D02*
Y62598D01*
X257000Y48031D02*
Y51968D01*
X255031Y50000D02*
X258968D01*
X252669Y37402D02*
X261331D01*
X252669D02*
Y62598D01*
X264669D02*
X273331D01*
Y37402D02*
Y62598D01*
X269000Y48031D02*
Y51968D01*
X267032Y50000D02*
X270969D01*
X264669Y37402D02*
X273331D01*
X264669D02*
Y62598D01*
X349669Y37402D02*
X358331D01*
X349669D02*
Y62598D01*
X354000Y48031D02*
Y51968D01*
X352031Y50000D02*
X355968D01*
X349669Y62598D02*
X358331D01*
Y37402D02*
Y62598D01*
X42087Y40488D02*
Y51512D01*
X27913Y40488D02*
Y51512D01*
X35000Y44032D02*
Y47969D01*
X33031Y46000D02*
X36968D01*
X27913Y40488D02*
X42087D01*
X27913Y51512D02*
X42087D01*
X37031Y323000D02*
X40968D01*
X39000Y321031D02*
Y324969D01*
X94528Y295882D02*
Y306118D01*
X34291D02*
X94528D01*
X34291Y295882D02*
Y306118D01*
Y295882D02*
X94528D01*
X63032Y301000D02*
X66969D01*
X65000Y299031D02*
Y302969D01*
X14433Y69118D02*
X44748D01*
Y58882D02*
Y69118D01*
X14433Y58882D02*
X44748D01*
X14433D02*
Y69118D01*
Y83118D02*
X44748D01*
Y72882D02*
Y83118D01*
X14433Y72882D02*
X44748D01*
X14433D02*
Y83118D01*
Y97118D02*
X44748D01*
Y86882D02*
Y97118D01*
X14433Y86882D02*
X44748D01*
X14433D02*
Y97118D01*
Y111118D02*
X44748D01*
Y100882D02*
Y111118D01*
X14433Y100882D02*
X44748D01*
X14433D02*
Y111118D01*
X34724Y280709D02*
X104803D01*
Y270472D02*
Y280709D01*
X34724Y270472D02*
X104803D01*
X34724D02*
Y280709D01*
X306315Y309882D02*
Y320118D01*
Y309882D02*
X346472Y309882D01*
Y320118D01*
X306315Y320118D02*
X346472Y320118D01*
X324031Y315000D02*
X327969D01*
X326000Y313032D02*
Y316968D01*
X52215Y226112D02*
Y236348D01*
Y226112D02*
X92372Y226112D01*
X92372Y236348D02*
X92372Y226112D01*
X52215Y236348D02*
X92372D01*
X69932Y231230D02*
X73869D01*
X71900Y229261D02*
Y233198D01*
X137402Y66142D02*
Y374016D01*
X159055Y374016D01*
Y326378D02*
Y374016D01*
Y326378D02*
X237795D01*
Y66142D02*
Y326378D01*
X137402Y66142D02*
X237795Y66142D01*
X187008Y188976D02*
X190945D01*
X188976Y187008D02*
Y190945D01*
X341502Y187874D02*
Y231181D01*
X316498D02*
X341502D01*
X316498Y187874D02*
Y231181D01*
X329000Y178032D02*
Y181968D01*
X327031Y180000D02*
X330968D01*
X316498Y187874D02*
X341502D01*
X95638Y172095D02*
X100362D01*
X95638Y183905D02*
X100362D01*
X95638Y172095D02*
Y183905D01*
X98000Y176031D02*
Y179969D01*
X96031Y178000D02*
X99968D01*
X100362Y172095D02*
Y183905D01*
X53433Y83118D02*
X83748D01*
Y72882D02*
Y83118D01*
X53433Y72882D02*
X83748D01*
X53433D02*
Y83118D01*
Y97118D02*
X83748Y97118D01*
Y86882D02*
Y97118D01*
X53433Y86882D02*
X83748Y86882D01*
X53433Y86882D02*
Y97118D01*
X372118Y33252D02*
X372118Y63567D01*
X361882Y33252D02*
X372118D01*
X361882Y63567D02*
X361882Y33252D01*
X361882Y63567D02*
X372118D01*
X121031Y23000D02*
X124969D01*
X123000Y21032D02*
Y24969D01*
X163386Y44488D02*
X214567D01*
Y-11417D02*
Y44488D01*
X163386Y-11417D02*
X214567D01*
X163386D02*
Y44488D01*
X187008Y35433D02*
X190945D01*
X188976Y33465D02*
Y37402D01*
D81*
X169944Y-34599D02*
X170943Y-35599D01*
X172943D01*
X173942Y-34599D01*
Y-30601D01*
X172943Y-29601D01*
X170943D01*
X169944Y-30601D01*
Y-31600D01*
X170943Y-32600D01*
X173942D01*
X178941Y-35599D02*
Y-29601D01*
X175942Y-32600D01*
X179940D01*
X181940Y-35599D02*
Y-34599D01*
X182940D01*
Y-35599D01*
X181940D01*
X186938Y-30601D02*
X187938Y-29601D01*
X189937D01*
X190937Y-30601D01*
Y-34599D01*
X189937Y-35599D01*
X187938D01*
X186938Y-34599D01*
Y-30601D01*
X192936D02*
X193936Y-29601D01*
X195935D01*
X196935Y-30601D01*
Y-34599D01*
X195935Y-35599D01*
X193936D01*
X192936Y-34599D01*
Y-30601D01*
X-33401Y169944D02*
X-32401Y170943D01*
Y172943D01*
X-33401Y173942D01*
X-37399D01*
X-38399Y172943D01*
Y170943D01*
X-37399Y169944D01*
X-36400D01*
X-35400Y170943D01*
Y173942D01*
X-32401Y178941D02*
X-38399D01*
X-35400Y175942D01*
Y179940D01*
X-32401Y181940D02*
X-33401D01*
Y182940D01*
X-32401D01*
Y181940D01*
X-37399Y186938D02*
X-38399Y187938D01*
Y189937D01*
X-37399Y190937D01*
X-33401D01*
X-32401Y189937D01*
Y187938D01*
X-33401Y186938D01*
X-37399D01*
Y192936D02*
X-38399Y193936D01*
Y195935D01*
X-37399Y196935D01*
X-33401D01*
X-32401Y195935D01*
Y193936D01*
X-33401Y192936D01*
X-37399D01*
M02*
