G04*
G04 #@! TF.GenerationSoftware,Altium Limited,Altium Designer,21.2.1 (34)*
G04*
G04 Layer_Physical_Order=2*
G04 Layer_Color=16711680*
%FSLAX25Y25*%
%MOIN*%
G70*
G04*
G04 #@! TF.SameCoordinates,F9D7F3A8-4154-4F6A-AE32-A65E76AD83D7*
G04*
G04*
G04 #@! TF.FilePolarity,Positive*
G04*
G01*
G75*
%ADD10C,0.01000*%
%ADD16C,0.02000*%
%ADD57C,0.01500*%
%ADD58C,0.03000*%
%ADD59C,0.05906*%
%ADD60R,0.05906X0.05906*%
%ADD61R,0.04724X0.04724*%
%ADD62C,0.04724*%
%ADD63R,0.06299X0.06299*%
%ADD64C,0.06299*%
%ADD65R,0.04724X0.04724*%
%ADD66R,0.06693X0.06693*%
%ADD67C,0.06693*%
%ADD68O,0.03937X0.07087*%
%ADD69C,0.09055*%
%ADD70O,0.07874X0.09843*%
%ADD71R,0.05906X0.05906*%
%ADD72R,0.06693X0.06693*%
%ADD73C,0.11811*%
%ADD74O,0.08661X0.06535*%
%ADD75R,0.08661X0.06535*%
%ADD76R,0.06299X0.06299*%
%ADD77C,0.14961*%
%ADD78C,0.02200*%
G36*
X372031Y379896D02*
X373909Y379326D01*
X375640Y378401D01*
X377156Y377156D01*
X378401Y375640D01*
X379326Y373909D01*
X379896Y372031D01*
X380077Y370191D01*
X380054Y370079D01*
Y0D01*
X380077Y-112D01*
X379896Y-1953D01*
X379326Y-3830D01*
X378401Y-5561D01*
X377156Y-7078D01*
X375640Y-8322D01*
X373909Y-9247D01*
X372031Y-9817D01*
X370191Y-9998D01*
X370079Y-9976D01*
X0D01*
X-112Y-9998D01*
X-1953Y-9817D01*
X-3830Y-9247D01*
X-5561Y-8322D01*
X-7078Y-7078D01*
X-8322Y-5561D01*
X-9247Y-3830D01*
X-9817Y-1953D01*
X-9998Y-112D01*
X-9976Y0D01*
Y370079D01*
X-9998Y370191D01*
X-9817Y372031D01*
X-9247Y373909D01*
X-8322Y375640D01*
X-7078Y377156D01*
X-5561Y378401D01*
X-3830Y379326D01*
X-1953Y379896D01*
X-112Y380077D01*
X0Y380054D01*
X370079D01*
X370191Y380077D01*
X372031Y379896D01*
D02*
G37*
%LPC*%
G36*
X835Y378559D02*
X500D01*
Y370579D01*
X8480D01*
Y370914D01*
X8154Y372552D01*
X7515Y374096D01*
X6587Y375485D01*
X5406Y376666D01*
X4017Y377594D01*
X2474Y378233D01*
X835Y378559D01*
D02*
G37*
G36*
X-500D02*
X-835D01*
X-2474Y378233D01*
X-4017Y377594D01*
X-5406Y376666D01*
X-6587Y375485D01*
X-7515Y374096D01*
X-8154Y372552D01*
X-8480Y370914D01*
Y370579D01*
X-500D01*
Y378559D01*
D02*
G37*
G36*
X370914D02*
X370579D01*
Y370579D01*
X378559D01*
Y370914D01*
X378233Y372552D01*
X377594Y374096D01*
X376666Y375485D01*
X375485Y376666D01*
X374096Y377594D01*
X372552Y378233D01*
X370914Y378559D01*
D02*
G37*
G36*
X369579D02*
X369244D01*
X367605Y378233D01*
X366062Y377594D01*
X364673Y376666D01*
X363492Y375485D01*
X362564Y374096D01*
X361924Y372552D01*
X361598Y370914D01*
Y370579D01*
X369579D01*
Y378559D01*
D02*
G37*
G36*
X378559Y369579D02*
X370579D01*
Y361598D01*
X370914D01*
X372552Y361924D01*
X374096Y362564D01*
X375485Y363492D01*
X376666Y364673D01*
X377594Y366062D01*
X378233Y367605D01*
X378559Y369244D01*
Y369579D01*
D02*
G37*
G36*
X369579D02*
X361598D01*
Y369244D01*
X361924Y367605D01*
X362564Y366062D01*
X363492Y364673D01*
X364673Y363492D01*
X366062Y362564D01*
X367605Y361924D01*
X369244Y361598D01*
X369579D01*
Y369579D01*
D02*
G37*
G36*
X8480Y369579D02*
X500D01*
Y361598D01*
X835D01*
X2474Y361924D01*
X4017Y362564D01*
X5406Y363492D01*
X6587Y364673D01*
X7515Y366062D01*
X8154Y367605D01*
X8480Y369244D01*
Y369579D01*
D02*
G37*
G36*
X-500D02*
X-8480D01*
Y369244D01*
X-8154Y367605D01*
X-7515Y366062D01*
X-6587Y364673D01*
X-5406Y363492D01*
X-4017Y362564D01*
X-2474Y361924D01*
X-835Y361598D01*
X-500D01*
Y369579D01*
D02*
G37*
G36*
X85546Y354147D02*
X84454D01*
X83399Y353864D01*
X82454Y353318D01*
X82112Y352976D01*
X82059Y352944D01*
X81916Y352813D01*
X81790Y352720D01*
X81646Y352634D01*
X81481Y352556D01*
X81293Y352487D01*
X81083Y352428D01*
X80848Y352380D01*
X80589Y352345D01*
X80589Y352345D01*
X54634D01*
X54353Y352370D01*
X53971Y352433D01*
X53667Y352515D01*
X53444Y352606D01*
X53298Y352694D01*
X53218Y352769D01*
X53178Y352829D01*
X53154Y352897D01*
X53146Y352964D01*
Y354147D01*
X44854D01*
Y345853D01*
X53146D01*
Y347036D01*
X53154Y347103D01*
X53178Y347171D01*
X53218Y347231D01*
X53298Y347306D01*
X53444Y347394D01*
X53667Y347485D01*
X53971Y347567D01*
X54353Y347630D01*
X54634Y347655D01*
X80589D01*
X80589Y347655D01*
X80848Y347620D01*
X81083Y347572D01*
X81293Y347513D01*
X81481Y347444D01*
X81646Y347366D01*
X81790Y347280D01*
X81916Y347187D01*
X82059Y347056D01*
X82112Y347024D01*
X82454Y346682D01*
X83399Y346136D01*
X84077Y345954D01*
X84126Y345931D01*
X84304Y345886D01*
X84457Y345833D01*
X84623Y345761D01*
X84790Y345675D01*
X85194Y345416D01*
X85386Y345271D01*
X85587Y345097D01*
X87655Y343029D01*
Y315005D01*
X87587Y314621D01*
X87479Y314295D01*
X87339Y314036D01*
X87170Y313830D01*
X86964Y313661D01*
X86705Y313522D01*
X86379Y313413D01*
X85995Y313345D01*
X36000D01*
X36000Y313345D01*
X35103Y313167D01*
X34342Y312658D01*
X34342Y312658D01*
X24342Y302658D01*
X23833Y301897D01*
X23655Y301000D01*
Y243000D01*
X23833Y242103D01*
X24342Y241342D01*
X49486Y216198D01*
X50016Y215627D01*
X50406Y215141D01*
X50710Y214704D01*
X50838Y214482D01*
Y211838D01*
X56332D01*
X56350Y211834D01*
X56369Y211838D01*
X57162D01*
Y212446D01*
X57326Y212503D01*
X57584Y212562D01*
X57911Y212612D01*
X58514Y212655D01*
X63000D01*
X63897Y212833D01*
X64658Y213342D01*
X68558Y217242D01*
X69067Y218003D01*
X69245Y218900D01*
Y227178D01*
X69270Y227388D01*
X69310Y227609D01*
X69359Y227803D01*
X69416Y227970D01*
X69477Y228111D01*
X69542Y228227D01*
X69609Y228321D01*
X69710Y228434D01*
X69740Y228485D01*
X70060Y228805D01*
X70580Y229705D01*
X70850Y230710D01*
Y231750D01*
X70580Y232754D01*
X70060Y233655D01*
X69325Y234390D01*
X68424Y234910D01*
X67420Y235179D01*
X66380D01*
X65376Y234910D01*
X64475Y234390D01*
X63740Y233655D01*
X63220Y232754D01*
X62950Y231750D01*
Y230710D01*
X63220Y229705D01*
X63740Y228805D01*
X64060Y228485D01*
X64090Y228434D01*
X64191Y228321D01*
X64258Y228227D01*
X64323Y228111D01*
X64384Y227970D01*
X64441Y227803D01*
X64490Y227609D01*
X64528Y227399D01*
X64555Y227106D01*
Y219871D01*
X62029Y217345D01*
X58430D01*
X58321Y217349D01*
X57920Y217386D01*
X57584Y217438D01*
X57326Y217497D01*
X57162Y217554D01*
Y218162D01*
X56369D01*
X56350Y218166D01*
X56332Y218162D01*
X54518D01*
X54296Y218289D01*
X53869Y218588D01*
X52953Y219363D01*
X28345Y243971D01*
Y300029D01*
X36971Y308655D01*
X85995D01*
X86379Y308587D01*
X86705Y308478D01*
X86964Y308339D01*
X87170Y308170D01*
X87339Y307964D01*
X87478Y307705D01*
X87587Y307379D01*
X87655Y306995D01*
Y306437D01*
X87630Y306156D01*
X87567Y305774D01*
X87485Y305470D01*
X87394Y305247D01*
X87306Y305101D01*
X87231Y305021D01*
X87171Y304981D01*
X87103Y304957D01*
X87036Y304950D01*
X86050D01*
Y297050D01*
X93950D01*
Y304950D01*
X92964D01*
X92897Y304957D01*
X92829Y304981D01*
X92769Y305021D01*
X92694Y305101D01*
X92606Y305247D01*
X92515Y305470D01*
X92433Y305774D01*
X92370Y306156D01*
X92345Y306437D01*
Y311000D01*
Y344001D01*
X92167Y344898D01*
X91658Y345659D01*
X89506Y347811D01*
X89477Y347846D01*
X89335Y348044D01*
X89224Y348229D01*
X89142Y348400D01*
X89086Y348556D01*
X89052Y348699D01*
X89038Y348831D01*
X89041Y348956D01*
X89069Y349133D01*
X89068Y349162D01*
X89147Y349454D01*
Y350546D01*
X88864Y351601D01*
X88318Y352546D01*
X87546Y353318D01*
X86601Y353864D01*
X85546Y354147D01*
D02*
G37*
G36*
X95572Y354346D02*
X95500D01*
Y350500D01*
X99347D01*
Y350572D01*
X99050Y351678D01*
X98478Y352669D01*
X97669Y353478D01*
X96678Y354050D01*
X95572Y354346D01*
D02*
G37*
G36*
X254572D02*
X254500D01*
Y350500D01*
X258347D01*
Y350572D01*
X258050Y351678D01*
X257478Y352669D01*
X256669Y353478D01*
X255678Y354050D01*
X254572Y354346D01*
D02*
G37*
G36*
X333572D02*
X333500D01*
Y350500D01*
X337346D01*
Y350572D01*
X337050Y351678D01*
X336478Y352669D01*
X335669Y353478D01*
X334678Y354050D01*
X333572Y354346D01*
D02*
G37*
G36*
X29572D02*
X29500D01*
Y350500D01*
X33346D01*
Y350572D01*
X33050Y351678D01*
X32478Y352669D01*
X31669Y353478D01*
X30678Y354050D01*
X29572Y354346D01*
D02*
G37*
G36*
X365500Y352066D02*
Y350500D01*
X367066D01*
X366780Y351190D01*
X366190Y351780D01*
X365500Y352066D01*
D02*
G37*
G36*
X364500D02*
X363810Y351780D01*
X363220Y351190D01*
X362934Y350500D01*
X364500D01*
Y352066D01*
D02*
G37*
G36*
X253500Y354346D02*
X253428D01*
X252322Y354050D01*
X251331Y353478D01*
X250522Y352669D01*
X249950Y351678D01*
X249654Y350572D01*
Y350500D01*
X253500D01*
Y354346D01*
D02*
G37*
G36*
X332500D02*
X332428D01*
X331322Y354050D01*
X330331Y353478D01*
X329522Y352669D01*
X328950Y351678D01*
X328654Y350572D01*
Y350500D01*
X332500D01*
Y354346D01*
D02*
G37*
G36*
X28500D02*
X28428D01*
X27322Y354050D01*
X26331Y353478D01*
X25522Y352669D01*
X24950Y351678D01*
X24654Y350572D01*
Y350500D01*
X28500D01*
Y354346D01*
D02*
G37*
G36*
X94500D02*
X94428D01*
X93322Y354050D01*
X92331Y353478D01*
X91522Y352669D01*
X90950Y351678D01*
X90654Y350572D01*
Y350500D01*
X94500D01*
Y354346D01*
D02*
G37*
G36*
X367066Y349500D02*
X365500D01*
Y347934D01*
X366190Y348220D01*
X366780Y348810D01*
X367066Y349500D01*
D02*
G37*
G36*
X364500D02*
X362934D01*
X363220Y348810D01*
X363810Y348220D01*
X364500Y347934D01*
Y349500D01*
D02*
G37*
G36*
X323546Y354147D02*
X322454D01*
X321399Y353864D01*
X320454Y353318D01*
X319682Y352546D01*
X319136Y351601D01*
X318854Y350546D01*
Y349454D01*
X319136Y348399D01*
X319682Y347454D01*
X320454Y346682D01*
X321399Y346136D01*
X322454Y345853D01*
X323546D01*
X324601Y346136D01*
X325546Y346682D01*
X326318Y347454D01*
X326864Y348399D01*
X327147Y349454D01*
Y350546D01*
X326864Y351601D01*
X326318Y352546D01*
X325546Y353318D01*
X324601Y353864D01*
X323546Y354147D01*
D02*
G37*
G36*
X313546D02*
X312454D01*
X311400Y353864D01*
X310454Y353318D01*
X309682Y352546D01*
X309136Y351601D01*
X308854Y350546D01*
Y349454D01*
X309136Y348399D01*
X309682Y347454D01*
X310454Y346682D01*
X311400Y346136D01*
X312454Y345853D01*
X313546D01*
X314600Y346136D01*
X315546Y346682D01*
X316318Y347454D01*
X316864Y348399D01*
X317146Y349454D01*
Y350546D01*
X316864Y351601D01*
X316318Y352546D01*
X315546Y353318D01*
X314600Y353864D01*
X313546Y354147D01*
D02*
G37*
G36*
X274546D02*
X273454D01*
X272399Y353864D01*
X271454Y353318D01*
X270682Y352546D01*
X270136Y351601D01*
X269853Y350546D01*
Y349454D01*
X270136Y348399D01*
X270682Y347454D01*
X271454Y346682D01*
X272399Y346136D01*
X273454Y345853D01*
X274546D01*
X275601Y346136D01*
X276546Y346682D01*
X277318Y347454D01*
X277864Y348399D01*
X278147Y349454D01*
Y350546D01*
X277864Y351601D01*
X277318Y352546D01*
X276546Y353318D01*
X275601Y353864D01*
X274546Y354147D01*
D02*
G37*
G36*
X264546D02*
X263454D01*
X262400Y353864D01*
X261454Y353318D01*
X260682Y352546D01*
X260136Y351601D01*
X259854Y350546D01*
Y349454D01*
X260136Y348399D01*
X260682Y347454D01*
X261454Y346682D01*
X262400Y346136D01*
X263454Y345853D01*
X264546D01*
X265600Y346136D01*
X266546Y346682D01*
X267318Y347454D01*
X267864Y348399D01*
X268146Y349454D01*
Y350546D01*
X267864Y351601D01*
X267318Y352546D01*
X266546Y353318D01*
X265600Y353864D01*
X264546Y354147D01*
D02*
G37*
G36*
X39546D02*
X38454D01*
X37400Y353864D01*
X36454Y353318D01*
X35682Y352546D01*
X35136Y351601D01*
X34854Y350546D01*
Y349454D01*
X35136Y348399D01*
X35682Y347454D01*
X36454Y346682D01*
X37400Y346136D01*
X38454Y345853D01*
X39546D01*
X40600Y346136D01*
X41546Y346682D01*
X42318Y347454D01*
X42864Y348399D01*
X43146Y349454D01*
Y350546D01*
X42864Y351601D01*
X42318Y352546D01*
X41546Y353318D01*
X40600Y353864D01*
X39546Y354147D01*
D02*
G37*
G36*
X337346Y349500D02*
X333500D01*
Y345654D01*
X333572D01*
X334678Y345950D01*
X335669Y346522D01*
X336478Y347331D01*
X337050Y348322D01*
X337346Y349428D01*
Y349500D01*
D02*
G37*
G36*
X332500D02*
X328654D01*
Y349428D01*
X328950Y348322D01*
X329522Y347331D01*
X330331Y346522D01*
X331322Y345950D01*
X332428Y345654D01*
X332500D01*
Y349500D01*
D02*
G37*
G36*
X258347D02*
X254500D01*
Y345654D01*
X254572D01*
X255678Y345950D01*
X256669Y346522D01*
X257478Y347331D01*
X258050Y348322D01*
X258347Y349428D01*
Y349500D01*
D02*
G37*
G36*
X253500D02*
X249654D01*
Y349428D01*
X249950Y348322D01*
X250522Y347331D01*
X251331Y346522D01*
X252322Y345950D01*
X253428Y345654D01*
X253500D01*
Y349500D01*
D02*
G37*
G36*
X99347D02*
X95500D01*
Y345654D01*
X95572D01*
X96678Y345950D01*
X97669Y346522D01*
X98478Y347331D01*
X99050Y348322D01*
X99347Y349428D01*
Y349500D01*
D02*
G37*
G36*
X94500D02*
X90654D01*
Y349428D01*
X90950Y348322D01*
X91522Y347331D01*
X92331Y346522D01*
X93322Y345950D01*
X94428Y345654D01*
X94500D01*
Y349500D01*
D02*
G37*
G36*
X33346D02*
X29500D01*
Y345654D01*
X29572D01*
X30678Y345950D01*
X31669Y346522D01*
X32478Y347331D01*
X33050Y348322D01*
X33346Y349428D01*
Y349500D01*
D02*
G37*
G36*
X28500D02*
X24654D01*
Y349428D01*
X24950Y348322D01*
X25522Y347331D01*
X26331Y346522D01*
X27322Y345950D01*
X28428Y345654D01*
X28500D01*
Y349500D01*
D02*
G37*
G36*
X347147Y354147D02*
X338854D01*
Y345853D01*
X339922D01*
X340104Y345834D01*
X340172Y345810D01*
X340233Y345770D01*
X340307Y345690D01*
X340395Y345546D01*
X340486Y345324D01*
X340567Y345022D01*
X340611Y344757D01*
X340587Y344621D01*
X340478Y344295D01*
X340339Y344036D01*
X340170Y343830D01*
X339964Y343661D01*
X339705Y343521D01*
X339379Y343413D01*
X338995Y343345D01*
X293971D01*
X289503Y347814D01*
X288971Y348387D01*
X288582Y348872D01*
X288279Y349308D01*
X288146Y349540D01*
Y350890D01*
X288150Y350908D01*
X288146Y350927D01*
Y354147D01*
X279854D01*
Y345853D01*
X283073D01*
X283092Y345850D01*
X283110Y345853D01*
X284460D01*
X284692Y345721D01*
X285119Y345424D01*
X286034Y344649D01*
X291342Y339342D01*
X292103Y338833D01*
X293000Y338655D01*
X339999D01*
X340422Y338608D01*
X340914Y338514D01*
X341389Y338383D01*
X341847Y338215D01*
X342289Y338010D01*
X342717Y337768D01*
X343131Y337486D01*
X343464Y337219D01*
X349655Y331029D01*
Y300971D01*
X342894Y294211D01*
X342862Y294225D01*
X342482Y294506D01*
X342580Y295000D01*
Y310240D01*
X342605Y310390D01*
X342656Y310573D01*
X342731Y310769D01*
X342833Y310976D01*
X342962Y311195D01*
X343113Y311415D01*
X343534Y311920D01*
X343789Y312181D01*
X343829Y312244D01*
X344161Y312575D01*
X344680Y313475D01*
X344950Y314480D01*
Y315520D01*
X344680Y316525D01*
X344161Y317425D01*
X343425Y318161D01*
X342525Y318680D01*
X341520Y318950D01*
X340480D01*
X339475Y318680D01*
X338575Y318161D01*
X337840Y317425D01*
X337320Y316525D01*
X337050Y315520D01*
Y314480D01*
X337320Y313475D01*
X337840Y312575D01*
X338171Y312244D01*
X338211Y312181D01*
X338473Y311912D01*
X338692Y311664D01*
X338880Y311425D01*
X339038Y311195D01*
X339167Y310976D01*
X339268Y310769D01*
X339344Y310573D01*
X339394Y310390D01*
X339420Y310240D01*
Y295655D01*
X332862Y289097D01*
X332460Y289395D01*
X332580Y290000D01*
Y310240D01*
X332606Y310390D01*
X332657Y310573D01*
X332732Y310769D01*
X332833Y310976D01*
X332962Y311195D01*
X333113Y311415D01*
X333535Y311920D01*
X333789Y312181D01*
X333829Y312244D01*
X334160Y312575D01*
X334680Y313475D01*
X334950Y314480D01*
Y315520D01*
X334680Y316525D01*
X334160Y317425D01*
X333425Y318161D01*
X332524Y318680D01*
X331520Y318950D01*
X330480D01*
X329475Y318680D01*
X328575Y318161D01*
X327839Y317425D01*
X327320Y316525D01*
X327050Y315520D01*
Y314480D01*
X327320Y313475D01*
X327839Y312575D01*
X328171Y312244D01*
X328211Y312181D01*
X328473Y311912D01*
X328692Y311664D01*
X328880Y311425D01*
X329038Y311195D01*
X329167Y310976D01*
X329269Y310769D01*
X329344Y310573D01*
X329395Y310390D01*
X329420Y310240D01*
Y290655D01*
X326883Y288118D01*
X326540Y287605D01*
X326420Y287000D01*
Y265655D01*
X310545Y249780D01*
X303736D01*
X303603Y249802D01*
X303431Y249847D01*
X303251Y249914D01*
X303061Y250003D01*
X302863Y250117D01*
X302656Y250256D01*
X302441Y250423D01*
X302219Y250617D01*
X301977Y250852D01*
X301915Y250892D01*
X301604Y251203D01*
X300748Y251697D01*
X299794Y251953D01*
X298806D01*
X297851Y251697D01*
X296996Y251203D01*
X296685Y250892D01*
X296623Y250852D01*
X296381Y250617D01*
X296159Y250423D01*
X295944Y250256D01*
X295737Y250117D01*
X295539Y250003D01*
X295349Y249914D01*
X295169Y249847D01*
X294997Y249802D01*
X294864Y249780D01*
X245200D01*
X244595Y249660D01*
X244082Y249318D01*
X236882Y242118D01*
X236540Y241605D01*
X236420Y241000D01*
Y220655D01*
X226345Y210580D01*
X223073D01*
X222968Y210889D01*
X222944Y211080D01*
X223592Y211925D01*
X224002Y212914D01*
X224142Y213976D01*
X224002Y215038D01*
X223592Y216028D01*
X222940Y216878D01*
X222091Y217530D01*
X221101Y217939D01*
X220039Y218079D01*
X217913D01*
X216851Y217939D01*
X215862Y217530D01*
X215012Y216878D01*
X214360Y216028D01*
X214065Y215316D01*
X214009Y215307D01*
X213938Y215302D01*
X211573D01*
X194661Y232213D01*
X194908Y232674D01*
X195024Y232651D01*
X213938D01*
X214009Y232645D01*
X214065Y232637D01*
X214360Y231925D01*
X215012Y231075D01*
X215862Y230423D01*
X216851Y230013D01*
X217913Y229874D01*
X220039D01*
X221101Y230013D01*
X222091Y230423D01*
X222940Y231075D01*
X223592Y231925D01*
X224002Y232914D01*
X224142Y233976D01*
X224002Y235038D01*
X223592Y236028D01*
X222940Y236877D01*
X222091Y237529D01*
X221101Y237939D01*
X220039Y238079D01*
X217913D01*
X216851Y237939D01*
X215862Y237529D01*
X215012Y236877D01*
X214360Y236028D01*
X214065Y235315D01*
X214009Y235307D01*
X213938Y235302D01*
X195573D01*
X171983Y258892D01*
X171964Y258916D01*
X171941Y258950D01*
X171926Y258977D01*
X171918Y258995D01*
X171916Y258999D01*
X171915Y259026D01*
X171900Y259086D01*
Y259378D01*
X171611Y260076D01*
X171404Y260283D01*
X171372Y260336D01*
X171354Y260355D01*
X171352Y260360D01*
X171346Y260378D01*
X171338Y260407D01*
X171332Y260437D01*
X171326Y260498D01*
Y291000D01*
X171302Y291116D01*
X171763Y291362D01*
X174674Y288451D01*
Y263478D01*
X174671Y263449D01*
X174662Y263407D01*
X174654Y263378D01*
X174648Y263360D01*
X174645Y263355D01*
X174628Y263336D01*
X174596Y263283D01*
X174389Y263076D01*
X174100Y262378D01*
Y261622D01*
X174389Y260924D01*
X174924Y260389D01*
X175622Y260100D01*
X175914D01*
X175974Y260085D01*
X176000Y260084D01*
X176006Y260082D01*
X176023Y260074D01*
X176049Y260059D01*
X176074Y260042D01*
X176122Y260003D01*
X193086Y243039D01*
X193516Y242752D01*
X194024Y242651D01*
X213938D01*
X214009Y242645D01*
X214065Y242637D01*
X214360Y241925D01*
X215012Y241075D01*
X215862Y240423D01*
X216851Y240013D01*
X217913Y239874D01*
X220039D01*
X221101Y240013D01*
X222091Y240423D01*
X222940Y241075D01*
X223592Y241925D01*
X224002Y242915D01*
X224142Y243976D01*
X224002Y245038D01*
X223592Y246028D01*
X222940Y246878D01*
X222091Y247530D01*
X221101Y247939D01*
X220039Y248079D01*
X217913D01*
X216851Y247939D01*
X215862Y247530D01*
X215012Y246878D01*
X214360Y246028D01*
X214065Y245316D01*
X214009Y245307D01*
X213938Y245302D01*
X194573D01*
X177983Y261892D01*
X177964Y261916D01*
X177941Y261950D01*
X177926Y261977D01*
X177918Y261995D01*
X177916Y262000D01*
X177915Y262026D01*
X177900Y262086D01*
Y262378D01*
X177611Y263076D01*
X177404Y263283D01*
X177372Y263336D01*
X177355Y263355D01*
X177352Y263360D01*
X177346Y263378D01*
X177338Y263407D01*
X177332Y263437D01*
X177325Y263498D01*
Y289000D01*
X177225Y289507D01*
X176937Y289937D01*
X163937Y302937D01*
X163507Y303225D01*
X163000Y303326D01*
X140549D01*
X116325Y327549D01*
Y345853D01*
X119147D01*
Y354147D01*
X110854D01*
Y345853D01*
X113674D01*
Y327000D01*
X113698Y326884D01*
X113237Y326638D01*
X106325Y333549D01*
Y344774D01*
X106327Y344791D01*
X106359Y344931D01*
X106420Y345105D01*
X106517Y345310D01*
X106652Y345542D01*
X106825Y345798D01*
X107033Y346070D01*
X107589Y346699D01*
X107923Y347037D01*
X107965Y347101D01*
X108318Y347454D01*
X108864Y348399D01*
X109146Y349454D01*
Y350546D01*
X108864Y351601D01*
X108318Y352546D01*
X107546Y353318D01*
X106600Y353864D01*
X105546Y354147D01*
X104454D01*
X103400Y353864D01*
X102454Y353318D01*
X101682Y352546D01*
X101136Y351601D01*
X100854Y350546D01*
Y349454D01*
X101136Y348399D01*
X101682Y347454D01*
X102035Y347101D01*
X102077Y347037D01*
X102411Y346699D01*
X102967Y346070D01*
X103174Y345798D01*
X103348Y345542D01*
X103483Y345310D01*
X103580Y345105D01*
X103641Y344931D01*
X103673Y344791D01*
X103674Y344774D01*
Y333000D01*
X103775Y332493D01*
X104063Y332063D01*
X138063Y298063D01*
X138493Y297775D01*
X139000Y297674D01*
X161451D01*
X168675Y290451D01*
Y260478D01*
X168671Y260449D01*
X168662Y260407D01*
X168654Y260378D01*
X168648Y260360D01*
X168646Y260355D01*
X168628Y260336D01*
X168596Y260283D01*
X168389Y260076D01*
X168130Y259451D01*
X167638Y259237D01*
X166937Y259937D01*
X166507Y260225D01*
X166000Y260326D01*
X162785D01*
X162615Y260825D01*
X162941Y261075D01*
X163593Y261925D01*
X164002Y262914D01*
X164142Y263976D01*
X164002Y265038D01*
X163593Y266028D01*
X162941Y266878D01*
X162091Y267530D01*
X161101Y267939D01*
X160039Y268079D01*
X157913D01*
X156851Y267939D01*
X155862Y267530D01*
X155012Y266878D01*
X154360Y266028D01*
X154065Y265316D01*
X154009Y265307D01*
X153938Y265302D01*
X148573D01*
X123937Y289937D01*
X123507Y290225D01*
X123000Y290325D01*
X63549D01*
X61326Y292549D01*
Y296097D01*
X61326Y296103D01*
X61355Y296234D01*
X61411Y296395D01*
X61498Y296584D01*
X61620Y296799D01*
X61779Y297036D01*
X61968Y297285D01*
X62478Y297867D01*
X62785Y298178D01*
X62828Y298242D01*
X63161Y298575D01*
X63680Y299476D01*
X63950Y300480D01*
Y301520D01*
X63680Y302524D01*
X63161Y303425D01*
X62425Y304160D01*
X61524Y304680D01*
X60520Y304950D01*
X59480D01*
X58476Y304680D01*
X57575Y304160D01*
X56840Y303425D01*
X56320Y302524D01*
X56050Y301520D01*
Y300480D01*
X56320Y299476D01*
X56840Y298575D01*
X57172Y298242D01*
X57215Y298178D01*
X57522Y297866D01*
X58032Y297285D01*
X58221Y297036D01*
X58379Y296799D01*
X58502Y296584D01*
X58589Y296395D01*
X58645Y296234D01*
X58674Y296103D01*
X58675Y296097D01*
Y292000D01*
X58775Y291493D01*
X59063Y291063D01*
X62063Y288063D01*
X62493Y287775D01*
X63000Y287674D01*
X122451D01*
X147086Y263039D01*
X147516Y262752D01*
X148024Y262651D01*
X153938D01*
X154009Y262645D01*
X154065Y262637D01*
X154360Y261925D01*
X155012Y261075D01*
X155338Y260825D01*
X155168Y260326D01*
X86549D01*
X80696Y266179D01*
Y270687D01*
X80696Y270694D01*
X80725Y270825D01*
X80781Y270986D01*
X80868Y271175D01*
X80991Y271389D01*
X81149Y271626D01*
X81338Y271876D01*
X81848Y272457D01*
X82155Y272768D01*
X82198Y272833D01*
X82531Y273165D01*
X83051Y274066D01*
X83320Y275071D01*
Y276111D01*
X83051Y277115D01*
X82531Y278016D01*
X81795Y278751D01*
X80895Y279271D01*
X79890Y279540D01*
X78850D01*
X77846Y279271D01*
X76945Y278751D01*
X76210Y278016D01*
X75690Y277115D01*
X75420Y276111D01*
Y275071D01*
X75690Y274066D01*
X76210Y273165D01*
X76543Y272833D01*
X76585Y272768D01*
X76892Y272457D01*
X77402Y271876D01*
X77591Y271626D01*
X77750Y271389D01*
X77872Y271175D01*
X77960Y270986D01*
X78015Y270825D01*
X78044Y270694D01*
X78045Y270687D01*
Y265630D01*
X78145Y265123D01*
X78433Y264693D01*
X85063Y258063D01*
X85493Y257775D01*
X86000Y257675D01*
X155230D01*
X155399Y257174D01*
X155012Y256877D01*
X154360Y256028D01*
X154201Y255643D01*
X154167Y255632D01*
X154023Y255600D01*
X153608Y255557D01*
X84678D01*
X70951Y269285D01*
Y270831D01*
X70976Y270980D01*
X71027Y271164D01*
X71102Y271359D01*
X71203Y271567D01*
X71332Y271786D01*
X71483Y272006D01*
X71905Y272511D01*
X72159Y272772D01*
X72199Y272834D01*
X72531Y273165D01*
X73050Y274066D01*
X73320Y275071D01*
Y276111D01*
X73050Y277115D01*
X72531Y278016D01*
X71795Y278751D01*
X70895Y279271D01*
X69890Y279540D01*
X68850D01*
X67846Y279271D01*
X66945Y278751D01*
X66210Y278016D01*
X65690Y277115D01*
X65421Y276111D01*
Y275071D01*
X65690Y274066D01*
X66210Y273165D01*
X66541Y272834D01*
X66581Y272772D01*
X66843Y272503D01*
X67062Y272255D01*
X67250Y272016D01*
X67408Y271786D01*
X67537Y271567D01*
X67639Y271359D01*
X67714Y271164D01*
X67765Y270980D01*
X67790Y270831D01*
Y268630D01*
X67910Y268025D01*
X68253Y267512D01*
X82906Y252859D01*
X83419Y252516D01*
X84024Y252396D01*
X153649D01*
X153799Y252385D01*
X154009Y252356D01*
X154167Y252321D01*
X154201Y252309D01*
X154360Y251925D01*
X155012Y251075D01*
X155862Y250423D01*
X156851Y250013D01*
X157913Y249874D01*
X160039D01*
X161101Y250013D01*
X162091Y250423D01*
X162941Y251075D01*
X163593Y251925D01*
X164002Y252915D01*
X164142Y253976D01*
X164002Y255038D01*
X163593Y256028D01*
X162941Y256877D01*
X162553Y257174D01*
X162723Y257675D01*
X165451D01*
X187085Y236040D01*
X187078Y235980D01*
X186862Y235557D01*
X164304D01*
X164153Y235568D01*
X163943Y235597D01*
X163786Y235632D01*
X163752Y235643D01*
X163593Y236028D01*
X162941Y236877D01*
X162091Y237529D01*
X161101Y237939D01*
X160039Y238079D01*
X157913D01*
X156851Y237939D01*
X155862Y237529D01*
X155012Y236877D01*
X154360Y236028D01*
X153950Y235038D01*
X153811Y233976D01*
X153950Y232914D01*
X154360Y231925D01*
X155012Y231075D01*
X155862Y230423D01*
X156851Y230013D01*
X157913Y229874D01*
X160039D01*
X161101Y230013D01*
X162091Y230423D01*
X162941Y231075D01*
X163593Y231925D01*
X163752Y232309D01*
X163785Y232321D01*
X163930Y232353D01*
X164345Y232396D01*
X186369D01*
X210882Y207882D01*
X211395Y207540D01*
X212000Y207420D01*
X214941D01*
X215102Y206946D01*
X215012Y206877D01*
X214360Y206028D01*
X213950Y205038D01*
X213811Y203976D01*
X213950Y202915D01*
X214360Y201925D01*
X215008Y201080D01*
X214984Y200889D01*
X214879Y200580D01*
X204655D01*
X180141Y225094D01*
X179628Y225436D01*
X179024Y225557D01*
X164304D01*
X164153Y225568D01*
X163943Y225597D01*
X163786Y225632D01*
X163752Y225643D01*
X163593Y226028D01*
X162941Y226877D01*
X162091Y227530D01*
X161101Y227939D01*
X160039Y228079D01*
X157913D01*
X156851Y227939D01*
X155862Y227530D01*
X155012Y226877D01*
X154360Y226028D01*
X153950Y225038D01*
X153811Y223976D01*
X153950Y222915D01*
X154360Y221925D01*
X155012Y221075D01*
X155862Y220423D01*
X156851Y220013D01*
X157913Y219874D01*
X160039D01*
X161101Y220013D01*
X162091Y220423D01*
X162941Y221075D01*
X163593Y221925D01*
X163752Y222309D01*
X163785Y222321D01*
X163930Y222353D01*
X164345Y222396D01*
X178369D01*
X202883Y197882D01*
X203395Y197540D01*
X204000Y197420D01*
X214941D01*
X215102Y196946D01*
X215012Y196878D01*
X214360Y196028D01*
X213950Y195038D01*
X213811Y193976D01*
X213950Y192914D01*
X214360Y191925D01*
X215012Y191075D01*
X215862Y190423D01*
X216851Y190013D01*
X217913Y189874D01*
X220039D01*
X221101Y190013D01*
X222091Y190423D01*
X222940Y191075D01*
X223592Y191925D01*
X224002Y192914D01*
X224142Y193976D01*
X224002Y195038D01*
X223592Y196028D01*
X222940Y196878D01*
X222851Y196946D01*
X223012Y197420D01*
X225000D01*
X225605Y197540D01*
X226117Y197882D01*
X242118Y213882D01*
X242460Y214395D01*
X242580Y215000D01*
Y238345D01*
X247655Y243420D01*
X260495D01*
X260612Y242920D01*
X259997Y242304D01*
X259503Y241448D01*
X259247Y240494D01*
Y239506D01*
X259503Y238551D01*
X259997Y237696D01*
X260696Y236997D01*
X261551Y236503D01*
X262506Y236247D01*
X263494D01*
X264448Y236503D01*
X265304Y236997D01*
X266003Y237696D01*
X266497Y238551D01*
X266753Y239506D01*
Y240494D01*
X266497Y241448D01*
X266003Y242304D01*
X265388Y242920D01*
X265505Y243420D01*
X277345D01*
X278883Y241882D01*
X279395Y241540D01*
X280000Y241420D01*
X296505D01*
X296712Y240920D01*
X296297Y240504D01*
X295803Y239649D01*
X295547Y238694D01*
Y237706D01*
X295803Y236752D01*
X296297Y235896D01*
X296996Y235197D01*
X297851Y234703D01*
X298806Y234447D01*
X299794D01*
X300748Y234703D01*
X301604Y235197D01*
X302303Y235896D01*
X302797Y236752D01*
X303053Y237706D01*
Y238694D01*
X302797Y239649D01*
X302303Y240504D01*
X301888Y240920D01*
X302095Y241420D01*
X310000D01*
X310605Y241540D01*
X311118Y241882D01*
X332118Y262882D01*
X332460Y263395D01*
X332580Y264000D01*
Y284345D01*
X336433Y288198D01*
X336833Y287897D01*
X336655Y287000D01*
Y237971D01*
X319229Y220545D01*
X302975D01*
X302828Y220560D01*
X302621Y220593D01*
X302442Y220632D01*
X302294Y220676D01*
X302176Y220722D01*
X302089Y220767D01*
X302030Y220807D01*
X301948Y220879D01*
X301901Y220906D01*
X301604Y221203D01*
X300748Y221697D01*
X299794Y221953D01*
X298806D01*
X297851Y221697D01*
X296996Y221203D01*
X296297Y220504D01*
X295803Y219649D01*
X295547Y218694D01*
Y217706D01*
X295803Y216752D01*
X296297Y215896D01*
X296996Y215197D01*
X297851Y214703D01*
X298806Y214447D01*
X299794D01*
X300748Y214703D01*
X301604Y215197D01*
X301901Y215494D01*
X301948Y215521D01*
X302030Y215593D01*
X302089Y215633D01*
X302176Y215678D01*
X302294Y215724D01*
X302442Y215768D01*
X302621Y215807D01*
X302819Y215838D01*
X303028Y215855D01*
X320200D01*
X321097Y216033D01*
X321858Y216542D01*
X340658Y235342D01*
X340658Y235342D01*
X341167Y236103D01*
X341345Y237000D01*
Y286029D01*
X353658Y298342D01*
X354167Y299103D01*
X354345Y300000D01*
X354345Y300000D01*
Y332000D01*
X354167Y332897D01*
X353658Y333658D01*
X346781Y340536D01*
X346514Y340868D01*
X346233Y341283D01*
X345990Y341711D01*
X345785Y342153D01*
X345617Y342611D01*
X345486Y343086D01*
X345392Y343578D01*
X345345Y344002D01*
Y344363D01*
X345370Y344642D01*
X345433Y345022D01*
X345514Y345324D01*
X345605Y345546D01*
X345693Y345690D01*
X345767Y345770D01*
X345828Y345810D01*
X345896Y345834D01*
X346078Y345853D01*
X347147D01*
Y354147D01*
D02*
G37*
G36*
X170500Y337066D02*
Y335500D01*
X172066D01*
X171780Y336190D01*
X171190Y336780D01*
X170500Y337066D01*
D02*
G37*
G36*
X169500D02*
X168810Y336780D01*
X168220Y336190D01*
X167934Y335500D01*
X169500D01*
Y337066D01*
D02*
G37*
G36*
X172066Y334500D02*
X170500D01*
Y332934D01*
X171190Y333220D01*
X171780Y333810D01*
X172066Y334500D01*
D02*
G37*
G36*
X169500D02*
X167934D01*
X168220Y333810D01*
X168810Y333220D01*
X169500Y332934D01*
Y334500D01*
D02*
G37*
G36*
X3753Y334753D02*
X-3753D01*
Y330906D01*
X-3756Y330888D01*
X-3753Y330869D01*
Y330050D01*
X-3801Y329966D01*
X-3984Y329702D01*
X-4485Y329110D01*
X-8298Y325298D01*
X-8696Y324702D01*
X-8835Y324000D01*
Y261000D01*
X-8696Y260298D01*
X-8298Y259702D01*
X32013Y219392D01*
X32356Y219023D01*
X32604Y218713D01*
X32796Y218439D01*
X32838Y218366D01*
Y214838D01*
X33922D01*
X33989Y214831D01*
X34020Y214780D01*
X34066Y214668D01*
X34112Y214496D01*
X34150Y214267D01*
X34165Y214103D01*
Y202760D01*
X1702Y170298D01*
X1304Y169702D01*
X1165Y169000D01*
Y62000D01*
X1304Y61298D01*
X1702Y60702D01*
X9702Y52702D01*
X10298Y52304D01*
X11000Y52165D01*
X117937D01*
X118639Y52304D01*
X119235Y52702D01*
X156026Y89493D01*
X156206Y89650D01*
X156465Y89850D01*
X156686Y89994D01*
X156781Y90043D01*
X156851Y90013D01*
X157913Y89874D01*
X160039D01*
X161101Y90013D01*
X162091Y90423D01*
X162941Y91075D01*
X163593Y91925D01*
X163622Y91996D01*
X163723Y92028D01*
X163968Y92080D01*
X164597Y92141D01*
X187263D01*
X210702Y68702D01*
X211298Y68304D01*
X212000Y68165D01*
X241106D01*
X241272Y68150D01*
X241503Y68112D01*
X241677Y68065D01*
X241791Y68019D01*
X241838Y67991D01*
Y66838D01*
X248162D01*
Y73162D01*
X241838D01*
Y72009D01*
X241791Y71981D01*
X241677Y71935D01*
X241503Y71888D01*
X241272Y71850D01*
X241106Y71835D01*
X212760D01*
X210608Y73988D01*
X210854Y74449D01*
X211000Y74420D01*
X283345D01*
X288882Y68883D01*
X289395Y68540D01*
X290000Y68420D01*
X339550D01*
X339629Y68409D01*
X339767Y68379D01*
X339902Y68337D01*
X340038Y68282D01*
X340173Y68213D01*
X340310Y68129D01*
X340449Y68028D01*
X340589Y67911D01*
X340749Y67758D01*
X340809Y67719D01*
X341058Y67470D01*
X341779Y67053D01*
X342584Y66838D01*
X343416D01*
X344221Y67053D01*
X344942Y67470D01*
X345530Y68058D01*
X345947Y68779D01*
X346162Y69584D01*
Y70416D01*
X345947Y71221D01*
X345530Y71942D01*
X344942Y72530D01*
X344221Y72947D01*
X343416Y73162D01*
X342584D01*
X341779Y72947D01*
X341058Y72530D01*
X340809Y72281D01*
X340749Y72242D01*
X340589Y72089D01*
X340449Y71972D01*
X340310Y71871D01*
X340173Y71787D01*
X340038Y71718D01*
X339902Y71663D01*
X339767Y71621D01*
X339629Y71591D01*
X339550Y71580D01*
X290655D01*
X287315Y74920D01*
X287523Y75420D01*
X346345D01*
X350443Y71322D01*
X350492Y71259D01*
X350568Y71140D01*
X350634Y71014D01*
X350690Y70880D01*
X350738Y70735D01*
X350775Y70579D01*
X350802Y70410D01*
X350818Y70227D01*
X350822Y70006D01*
X350838Y69937D01*
Y69584D01*
X351053Y68779D01*
X351470Y68058D01*
X352058Y67470D01*
X352779Y67053D01*
X353584Y66838D01*
X354416D01*
X355221Y67053D01*
X355942Y67470D01*
X356530Y68058D01*
X356947Y68779D01*
X357162Y69584D01*
Y70416D01*
X356947Y71221D01*
X356530Y71942D01*
X355942Y72530D01*
X355221Y72947D01*
X354416Y73162D01*
X354063D01*
X353994Y73178D01*
X353773Y73182D01*
X353590Y73198D01*
X353421Y73225D01*
X353265Y73263D01*
X353120Y73310D01*
X352986Y73366D01*
X352860Y73432D01*
X352741Y73508D01*
X352678Y73557D01*
X348117Y78118D01*
X347605Y78460D01*
X347000Y78580D01*
X287655D01*
X285118Y81117D01*
X284605Y81460D01*
X284000Y81580D01*
X212655D01*
X196580Y97655D01*
Y186000D01*
X196460Y186605D01*
X196117Y187118D01*
X188141Y195094D01*
X187628Y195436D01*
X187024Y195557D01*
X164304D01*
X164153Y195568D01*
X163943Y195597D01*
X163786Y195632D01*
X163752Y195643D01*
X163593Y196028D01*
X162941Y196878D01*
X162091Y197529D01*
X161101Y197939D01*
X160039Y198079D01*
X157913D01*
X156851Y197939D01*
X155862Y197529D01*
X155012Y196878D01*
X154360Y196028D01*
X153950Y195038D01*
X153811Y193976D01*
X153950Y192914D01*
X154360Y191925D01*
X155012Y191075D01*
X155862Y190423D01*
X156851Y190013D01*
X157913Y189874D01*
X160039D01*
X161101Y190013D01*
X162091Y190423D01*
X162941Y191075D01*
X163593Y191925D01*
X163752Y192309D01*
X163785Y192321D01*
X163930Y192353D01*
X164345Y192396D01*
X186369D01*
X193420Y185345D01*
Y176523D01*
X192920Y176315D01*
X184141Y185094D01*
X183628Y185436D01*
X183024Y185557D01*
X164304D01*
X164153Y185568D01*
X163943Y185597D01*
X163786Y185632D01*
X163752Y185643D01*
X163593Y186028D01*
X162941Y186878D01*
X162091Y187530D01*
X161101Y187939D01*
X160039Y188079D01*
X157913D01*
X156851Y187939D01*
X155862Y187530D01*
X155012Y186878D01*
X154360Y186028D01*
X153950Y185038D01*
X153811Y183976D01*
X153950Y182914D01*
X154360Y181925D01*
X155012Y181075D01*
X155862Y180423D01*
X156851Y180013D01*
X157913Y179874D01*
X160039D01*
X161101Y180013D01*
X162091Y180423D01*
X162941Y181075D01*
X163593Y181925D01*
X163752Y182309D01*
X163785Y182321D01*
X163930Y182353D01*
X164345Y182396D01*
X182369D01*
X190420Y174345D01*
Y95000D01*
X190449Y94854D01*
X189988Y94608D01*
X189321Y95274D01*
X188726Y95672D01*
X188024Y95812D01*
X164544D01*
X164305Y95828D01*
X163981Y95870D01*
X163723Y95925D01*
X163622Y95957D01*
X163593Y96028D01*
X162941Y96877D01*
X162091Y97530D01*
X161101Y97939D01*
X160039Y98079D01*
X157913D01*
X156851Y97939D01*
X155862Y97530D01*
X155012Y96877D01*
X154360Y96028D01*
X153950Y95038D01*
X153811Y93976D01*
X153950Y92914D01*
X153980Y92844D01*
X153931Y92749D01*
X153794Y92540D01*
X153393Y92051D01*
X117177Y55835D01*
X11760D01*
X4835Y62760D01*
Y168240D01*
X37298Y200702D01*
X37696Y201298D01*
X37835Y202000D01*
Y214103D01*
X37850Y214267D01*
X37888Y214496D01*
X37934Y214668D01*
X37980Y214780D01*
X38011Y214831D01*
X38078Y214838D01*
X39162D01*
Y221162D01*
X35634D01*
X35561Y221204D01*
X35296Y221390D01*
X34704Y221891D01*
X-5165Y261760D01*
Y323240D01*
X-1987Y326418D01*
X-1616Y326762D01*
X-1307Y327009D01*
X-1034Y327199D01*
X-950Y327247D01*
X-131D01*
X-112Y327244D01*
X-94Y327247D01*
X3753D01*
Y334753D01*
D02*
G37*
G36*
X279500Y327566D02*
Y326000D01*
X281066D01*
X280780Y326690D01*
X280190Y327280D01*
X279500Y327566D01*
D02*
G37*
G36*
X278500D02*
X277810Y327280D01*
X277220Y326690D01*
X276934Y326000D01*
X278500D01*
Y327566D01*
D02*
G37*
G36*
X264500D02*
Y326000D01*
X266066D01*
X265780Y326690D01*
X265190Y327280D01*
X264500Y327566D01*
D02*
G37*
G36*
X263500D02*
X262810Y327280D01*
X262220Y326690D01*
X261934Y326000D01*
X263500D01*
Y327566D01*
D02*
G37*
G36*
X365500Y327066D02*
Y325500D01*
X367066D01*
X366780Y326190D01*
X366190Y326780D01*
X365500Y327066D01*
D02*
G37*
G36*
X364500D02*
X363810Y326780D01*
X363220Y326190D01*
X362934Y325500D01*
X364500D01*
Y327066D01*
D02*
G37*
G36*
X281066Y325000D02*
X279500D01*
Y323434D01*
X280190Y323720D01*
X280780Y324310D01*
X281066Y325000D01*
D02*
G37*
G36*
X278500D02*
X276934D01*
X277220Y324310D01*
X277810Y323720D01*
X278500Y323434D01*
Y325000D01*
D02*
G37*
G36*
X266066D02*
X264500D01*
Y323434D01*
X265190Y323720D01*
X265780Y324310D01*
X266066Y325000D01*
D02*
G37*
G36*
X263500D02*
X261934D01*
X262220Y324310D01*
X262810Y323720D01*
X263500Y323434D01*
Y325000D01*
D02*
G37*
G36*
X367066Y324500D02*
X365500D01*
Y322934D01*
X366190Y323220D01*
X366780Y323810D01*
X367066Y324500D01*
D02*
G37*
G36*
X364500D02*
X362934D01*
X363220Y323810D01*
X363810Y323220D01*
X364500Y322934D01*
Y324500D01*
D02*
G37*
G36*
X215500Y322066D02*
Y320500D01*
X217066D01*
X216780Y321190D01*
X216190Y321780D01*
X215500Y322066D01*
D02*
G37*
G36*
X214500D02*
X213810Y321780D01*
X213220Y321190D01*
X212934Y320500D01*
X214500D01*
Y322066D01*
D02*
G37*
G36*
X170500D02*
Y320500D01*
X172066D01*
X171780Y321190D01*
X171190Y321780D01*
X170500Y322066D01*
D02*
G37*
G36*
X169500D02*
X168810Y321780D01*
X168220Y321190D01*
X167934Y320500D01*
X169500D01*
Y322066D01*
D02*
G37*
G36*
X135500D02*
Y320500D01*
X137066D01*
X136780Y321190D01*
X136190Y321780D01*
X135500Y322066D01*
D02*
G37*
G36*
X134500D02*
X133810Y321780D01*
X133220Y321190D01*
X132934Y320500D01*
X134500D01*
Y322066D01*
D02*
G37*
G36*
X102416Y326162D02*
X101584D01*
X100779Y325947D01*
X100058Y325530D01*
X99470Y324942D01*
X99053Y324221D01*
X98838Y323416D01*
Y322584D01*
X99053Y321779D01*
X99470Y321058D01*
X100058Y320470D01*
X100779Y320053D01*
X101584Y319838D01*
X102416D01*
X103221Y320053D01*
X103942Y320470D01*
X104530Y321058D01*
X104947Y321779D01*
X105162Y322584D01*
Y323416D01*
X104947Y324221D01*
X104530Y324942D01*
X103942Y325530D01*
X103221Y325947D01*
X102416Y326162D01*
D02*
G37*
G36*
X65162D02*
X58838D01*
Y319838D01*
X65162D01*
Y326162D01*
D02*
G37*
G36*
X44494Y326753D02*
X43506D01*
X42551Y326497D01*
X41696Y326003D01*
X40997Y325304D01*
X40503Y324448D01*
X40247Y323494D01*
Y322506D01*
X40503Y321551D01*
X40997Y320696D01*
X41696Y319997D01*
X42551Y319503D01*
X43506Y319247D01*
X44494D01*
X45448Y319503D01*
X46304Y319997D01*
X47003Y320696D01*
X47497Y321551D01*
X47753Y322506D01*
Y323494D01*
X47497Y324448D01*
X47003Y325304D01*
X46304Y326003D01*
X45448Y326497D01*
X44494Y326753D01*
D02*
G37*
G36*
X37753D02*
X30247D01*
Y319247D01*
X37753D01*
Y326753D01*
D02*
G37*
G36*
X217066Y319500D02*
X215500D01*
Y317934D01*
X216190Y318220D01*
X216780Y318810D01*
X217066Y319500D01*
D02*
G37*
G36*
X214500D02*
X212934D01*
X213220Y318810D01*
X213810Y318220D01*
X214500Y317934D01*
Y319500D01*
D02*
G37*
G36*
X172066D02*
X170500D01*
Y317934D01*
X171190Y318220D01*
X171780Y318810D01*
X172066Y319500D01*
D02*
G37*
G36*
X169500D02*
X167934D01*
X168220Y318810D01*
X168810Y318220D01*
X169500Y317934D01*
Y319500D01*
D02*
G37*
G36*
X137066D02*
X135500D01*
Y317934D01*
X136190Y318220D01*
X136780Y318810D01*
X137066Y319500D01*
D02*
G37*
G36*
X134500D02*
X132934D01*
X133220Y318810D01*
X133810Y318220D01*
X134500Y317934D01*
Y319500D01*
D02*
G37*
G36*
X494Y324753D02*
X-494D01*
X-1448Y324497D01*
X-2304Y324003D01*
X-3003Y323304D01*
X-3497Y322448D01*
X-3753Y321494D01*
Y320506D01*
X-3497Y319551D01*
X-3003Y318696D01*
X-2304Y317997D01*
X-1448Y317503D01*
X-494Y317247D01*
X494D01*
X1448Y317503D01*
X2304Y317997D01*
X3003Y318696D01*
X3497Y319551D01*
X3753Y320506D01*
Y321494D01*
X3497Y322448D01*
X3003Y323304D01*
X2304Y324003D01*
X1448Y324497D01*
X494Y324753D01*
D02*
G37*
G36*
X315150Y319150D02*
X311500D01*
Y315500D01*
X315150D01*
Y319150D01*
D02*
G37*
G36*
X310500D02*
X306850D01*
Y315500D01*
X310500D01*
Y319150D01*
D02*
G37*
G36*
X279500Y312566D02*
Y311000D01*
X281066D01*
X280780Y311690D01*
X280190Y312280D01*
X279500Y312566D01*
D02*
G37*
G36*
X278500D02*
X277810Y312280D01*
X277220Y311690D01*
X276934Y311000D01*
X278500D01*
Y312566D01*
D02*
G37*
G36*
X264500D02*
Y311000D01*
X266066D01*
X265780Y311690D01*
X265190Y312280D01*
X264500Y312566D01*
D02*
G37*
G36*
X263500D02*
X262810Y312280D01*
X262220Y311690D01*
X261934Y311000D01*
X263500D01*
Y312566D01*
D02*
G37*
G36*
X315150Y314500D02*
X311500D01*
Y310850D01*
X315150D01*
Y314500D01*
D02*
G37*
G36*
X310500D02*
X306850D01*
Y310850D01*
X310500D01*
Y314500D01*
D02*
G37*
G36*
X365500Y312066D02*
Y310500D01*
X367066D01*
X366780Y311190D01*
X366190Y311780D01*
X365500Y312066D01*
D02*
G37*
G36*
X364500D02*
X363810Y311780D01*
X363220Y311190D01*
X362934Y310500D01*
X364500D01*
Y312066D01*
D02*
G37*
G36*
X281066Y310000D02*
X279500D01*
Y308434D01*
X280190Y308720D01*
X280780Y309310D01*
X281066Y310000D01*
D02*
G37*
G36*
X278500D02*
X276934D01*
X277220Y309310D01*
X277810Y308720D01*
X278500Y308434D01*
Y310000D01*
D02*
G37*
G36*
X266066D02*
X264500D01*
Y308434D01*
X265190Y308720D01*
X265780Y309310D01*
X266066Y310000D01*
D02*
G37*
G36*
X263500D02*
X261934D01*
X262220Y309310D01*
X262810Y308720D01*
X263500Y308434D01*
Y310000D01*
D02*
G37*
G36*
X367066Y309500D02*
X365500D01*
Y307934D01*
X366190Y308220D01*
X366780Y308810D01*
X367066Y309500D01*
D02*
G37*
G36*
X364500D02*
X362934D01*
X363220Y308810D01*
X363810Y308220D01*
X364500Y307934D01*
Y309500D01*
D02*
G37*
G36*
X215500Y307066D02*
Y305500D01*
X217066D01*
X216780Y306190D01*
X216190Y306780D01*
X215500Y307066D01*
D02*
G37*
G36*
X214500D02*
X213810Y306780D01*
X213220Y306190D01*
X212934Y305500D01*
X214500D01*
Y307066D01*
D02*
G37*
G36*
X170500D02*
Y305500D01*
X172066D01*
X171780Y306190D01*
X171190Y306780D01*
X170500Y307066D01*
D02*
G37*
G36*
X169500D02*
X168810Y306780D01*
X168220Y306190D01*
X167934Y305500D01*
X169500D01*
Y307066D01*
D02*
G37*
G36*
X15500D02*
Y305500D01*
X17066D01*
X16780Y306190D01*
X16190Y306780D01*
X15500Y307066D01*
D02*
G37*
G36*
X14500D02*
X13811Y306780D01*
X13220Y306190D01*
X12934Y305500D01*
X14500D01*
Y307066D01*
D02*
G37*
G36*
X217066Y304500D02*
X215500D01*
Y302934D01*
X216190Y303220D01*
X216780Y303810D01*
X217066Y304500D01*
D02*
G37*
G36*
X214500D02*
X212934D01*
X213220Y303810D01*
X213810Y303220D01*
X214500Y302934D01*
Y304500D01*
D02*
G37*
G36*
X172066D02*
X170500D01*
Y302934D01*
X171190Y303220D01*
X171780Y303810D01*
X172066Y304500D01*
D02*
G37*
G36*
X169500D02*
X167934D01*
X168220Y303810D01*
X168810Y303220D01*
X169500Y302934D01*
Y304500D01*
D02*
G37*
G36*
X17066D02*
X15500D01*
Y302934D01*
X16190Y303220D01*
X16780Y303810D01*
X17066Y304500D01*
D02*
G37*
G36*
X14500D02*
X12934D01*
X13220Y303810D01*
X13811Y303220D01*
X14500Y302934D01*
Y304500D01*
D02*
G37*
G36*
X80546Y305150D02*
X80500D01*
Y301500D01*
X84150D01*
Y301546D01*
X83867Y302602D01*
X83320Y303548D01*
X82548Y304321D01*
X81602Y304867D01*
X80546Y305150D01*
D02*
G37*
G36*
X79500D02*
X79454D01*
X78398Y304867D01*
X77452Y304321D01*
X76679Y303548D01*
X76133Y302602D01*
X75850Y301546D01*
Y301500D01*
X79500D01*
Y305150D01*
D02*
G37*
G36*
X300500Y302066D02*
Y300500D01*
X302066D01*
X301780Y301190D01*
X301190Y301780D01*
X300500Y302066D01*
D02*
G37*
G36*
X299500D02*
X298810Y301780D01*
X298220Y301190D01*
X297934Y300500D01*
X299500D01*
Y302066D01*
D02*
G37*
G36*
X302066Y299500D02*
X300500D01*
Y297934D01*
X301190Y298220D01*
X301780Y298810D01*
X302066Y299500D01*
D02*
G37*
G36*
X299500D02*
X297934D01*
X298220Y298810D01*
X298810Y298220D01*
X299500Y297934D01*
Y299500D01*
D02*
G37*
G36*
X70520Y304950D02*
X69480D01*
X68476Y304680D01*
X67575Y304160D01*
X66839Y303425D01*
X66320Y302524D01*
X66050Y301520D01*
Y300480D01*
X66320Y299476D01*
X66839Y298575D01*
X67575Y297839D01*
X68476Y297320D01*
X69480Y297050D01*
X70520D01*
X71525Y297320D01*
X72425Y297839D01*
X73160Y298575D01*
X73680Y299476D01*
X73950Y300480D01*
Y301520D01*
X73680Y302524D01*
X73160Y303425D01*
X72425Y304160D01*
X71525Y304680D01*
X70520Y304950D01*
D02*
G37*
G36*
X40520D02*
X39480D01*
X38475Y304680D01*
X37575Y304160D01*
X36840Y303425D01*
X36320Y302524D01*
X36050Y301520D01*
Y300480D01*
X36320Y299476D01*
X36840Y298575D01*
X37575Y297839D01*
X38475Y297320D01*
X39480Y297050D01*
X40520D01*
X41524Y297320D01*
X42425Y297839D01*
X43161Y298575D01*
X43680Y299476D01*
X43950Y300480D01*
Y301520D01*
X43680Y302524D01*
X43161Y303425D01*
X42425Y304160D01*
X41524Y304680D01*
X40520Y304950D01*
D02*
G37*
G36*
X84150Y300500D02*
X80500D01*
Y296850D01*
X80546D01*
X81602Y297133D01*
X82548Y297679D01*
X83320Y298452D01*
X83867Y299398D01*
X84150Y300454D01*
Y300500D01*
D02*
G37*
G36*
X79500D02*
X75850D01*
Y300454D01*
X76133Y299398D01*
X76679Y298452D01*
X77452Y297679D01*
X78398Y297133D01*
X79454Y296850D01*
X79500D01*
Y300500D01*
D02*
G37*
G36*
X365500Y297066D02*
Y295500D01*
X367066D01*
X366780Y296190D01*
X366190Y296780D01*
X365500Y297066D01*
D02*
G37*
G36*
X364500D02*
X363810Y296780D01*
X363220Y296190D01*
X362934Y295500D01*
X364500D01*
Y297066D01*
D02*
G37*
G36*
X367066Y294500D02*
X365500D01*
Y292934D01*
X366190Y293220D01*
X366780Y293810D01*
X367066Y294500D01*
D02*
G37*
G36*
X364500D02*
X362934D01*
X363220Y293810D01*
X363810Y293220D01*
X364500Y292934D01*
Y294500D01*
D02*
G37*
G36*
X15500Y292066D02*
Y290500D01*
X17066D01*
X16780Y291190D01*
X16190Y291780D01*
X15500Y292066D01*
D02*
G37*
G36*
X14500D02*
X13811Y291780D01*
X13220Y291190D01*
X12934Y290500D01*
X14500D01*
Y292066D01*
D02*
G37*
G36*
X17066Y289500D02*
X15500D01*
Y287934D01*
X16190Y288220D01*
X16780Y288810D01*
X17066Y289500D01*
D02*
G37*
G36*
X14500D02*
X12934D01*
X13220Y288810D01*
X13811Y288220D01*
X14500Y287934D01*
Y289500D01*
D02*
G37*
G36*
X205500Y287066D02*
Y285500D01*
X207066D01*
X206780Y286190D01*
X206190Y286780D01*
X205500Y287066D01*
D02*
G37*
G36*
X204500D02*
X203810Y286780D01*
X203220Y286190D01*
X202934Y285500D01*
X204500D01*
Y287066D01*
D02*
G37*
G36*
X140500D02*
Y285500D01*
X142066D01*
X141780Y286190D01*
X141190Y286780D01*
X140500Y287066D01*
D02*
G37*
G36*
X139500D02*
X138810Y286780D01*
X138220Y286190D01*
X137934Y285500D01*
X139500D01*
Y287066D01*
D02*
G37*
G36*
X5500D02*
Y285500D01*
X7066D01*
X6780Y286190D01*
X6190Y286780D01*
X5500Y287066D01*
D02*
G37*
G36*
X4500D02*
X3810Y286780D01*
X3220Y286190D01*
X2934Y285500D01*
X4500D01*
Y287066D01*
D02*
G37*
G36*
X220039Y288281D02*
X219476D01*
Y284476D01*
X224278D01*
X224197Y285090D01*
X223767Y286129D01*
X223083Y287020D01*
X222192Y287704D01*
X221153Y288134D01*
X220039Y288281D01*
D02*
G37*
G36*
X218476D02*
X217913D01*
X216799Y288134D01*
X215761Y287704D01*
X214870Y287020D01*
X214186Y286129D01*
X213755Y285090D01*
X213675Y284476D01*
X218476D01*
Y288281D01*
D02*
G37*
G36*
X207066Y284500D02*
X205500D01*
Y282934D01*
X206190Y283220D01*
X206780Y283810D01*
X207066Y284500D01*
D02*
G37*
G36*
X204500D02*
X202934D01*
X203220Y283810D01*
X203810Y283220D01*
X204500Y282934D01*
Y284500D01*
D02*
G37*
G36*
X142066D02*
X140500D01*
Y282934D01*
X141190Y283220D01*
X141780Y283810D01*
X142066Y284500D01*
D02*
G37*
G36*
X139500D02*
X137934D01*
X138220Y283810D01*
X138810Y283220D01*
X139500Y282934D01*
Y284500D01*
D02*
G37*
G36*
X7066D02*
X5500D01*
Y282934D01*
X6190Y283220D01*
X6780Y283810D01*
X7066Y284500D01*
D02*
G37*
G36*
X4500D02*
X2934D01*
X3220Y283810D01*
X3810Y283220D01*
X4500Y282934D01*
Y284500D01*
D02*
G37*
G36*
X160039Y288079D02*
X157913D01*
X156851Y287939D01*
X155862Y287529D01*
X155012Y286877D01*
X154360Y286028D01*
X153950Y285038D01*
X153811Y283976D01*
X153950Y282914D01*
X154360Y281925D01*
X155012Y281075D01*
X155862Y280423D01*
X156851Y280013D01*
X157913Y279874D01*
X160039D01*
X161101Y280013D01*
X162091Y280423D01*
X162941Y281075D01*
X163593Y281925D01*
X164002Y282914D01*
X164142Y283976D01*
X164002Y285038D01*
X163593Y286028D01*
X162941Y286877D01*
X162091Y287529D01*
X161101Y287939D01*
X160039Y288079D01*
D02*
G37*
G36*
X224278Y283476D02*
X219476D01*
Y279672D01*
X220039D01*
X221153Y279819D01*
X222192Y280248D01*
X223083Y280933D01*
X223767Y281824D01*
X224197Y282862D01*
X224278Y283476D01*
D02*
G37*
G36*
X218476D02*
X213675D01*
X213755Y282862D01*
X214186Y281824D01*
X214870Y280933D01*
X215761Y280248D01*
X216799Y279819D01*
X217913Y279672D01*
X218476D01*
Y283476D01*
D02*
G37*
G36*
X43520Y279740D02*
X39870D01*
Y276091D01*
X43520D01*
Y279740D01*
D02*
G37*
G36*
X38870D02*
X35221D01*
Y276091D01*
X38870D01*
Y279740D01*
D02*
G37*
G36*
X220039Y278281D02*
X219476D01*
Y274476D01*
X224278D01*
X224197Y275091D01*
X223767Y276129D01*
X223083Y277020D01*
X222192Y277704D01*
X221153Y278134D01*
X220039Y278281D01*
D02*
G37*
G36*
X218476D02*
X217913D01*
X216799Y278134D01*
X215761Y277704D01*
X214870Y277020D01*
X214186Y276129D01*
X213755Y275091D01*
X213675Y274476D01*
X218476D01*
Y278281D01*
D02*
G37*
G36*
X99890Y279540D02*
X98850D01*
X97846Y279271D01*
X96945Y278751D01*
X96210Y278016D01*
X95690Y277115D01*
X95420Y276111D01*
Y275071D01*
X95690Y274066D01*
X96210Y273165D01*
X96945Y272430D01*
X97846Y271910D01*
X98850Y271641D01*
X99890D01*
X100895Y271910D01*
X101795Y272430D01*
X102531Y273165D01*
X103050Y274066D01*
X103320Y275071D01*
Y276111D01*
X103050Y277115D01*
X102531Y278016D01*
X101795Y278751D01*
X100895Y279271D01*
X99890Y279540D01*
D02*
G37*
G36*
X89890D02*
X88850D01*
X87846Y279271D01*
X86945Y278751D01*
X86210Y278016D01*
X85690Y277115D01*
X85421Y276111D01*
Y275071D01*
X85690Y274066D01*
X86210Y273165D01*
X86945Y272430D01*
X87846Y271910D01*
X88850Y271641D01*
X89890D01*
X90895Y271910D01*
X91795Y272430D01*
X92531Y273165D01*
X93050Y274066D01*
X93320Y275071D01*
Y276111D01*
X93050Y277115D01*
X92531Y278016D01*
X91795Y278751D01*
X90895Y279271D01*
X89890Y279540D01*
D02*
G37*
G36*
X50520Y304950D02*
X49480D01*
X48476Y304680D01*
X47575Y304160D01*
X46839Y303425D01*
X46320Y302524D01*
X46050Y301520D01*
Y300480D01*
X46320Y299476D01*
X46839Y298575D01*
X47171Y298244D01*
X47211Y298182D01*
X47473Y297913D01*
X47692Y297664D01*
X47880Y297425D01*
X48038Y297195D01*
X48167Y296976D01*
X48268Y296769D01*
X48344Y296573D01*
X48395Y296390D01*
X48420Y296240D01*
Y291000D01*
X48540Y290395D01*
X48882Y289882D01*
X57790Y280975D01*
Y280350D01*
X57765Y280201D01*
X57714Y280017D01*
X57639Y279822D01*
X57537Y279614D01*
X57408Y279395D01*
X57257Y279175D01*
X56836Y278670D01*
X56581Y278409D01*
X56541Y278347D01*
X56210Y278016D01*
X55690Y277115D01*
X55421Y276111D01*
Y275071D01*
X55690Y274066D01*
X56210Y273165D01*
X56945Y272430D01*
X57846Y271910D01*
X58850Y271641D01*
X59890D01*
X60895Y271910D01*
X61795Y272430D01*
X62531Y273165D01*
X63051Y274066D01*
X63320Y275071D01*
Y276111D01*
X63051Y277115D01*
X62531Y278016D01*
X62199Y278347D01*
X62159Y278409D01*
X61897Y278678D01*
X61678Y278926D01*
X61490Y279166D01*
X61332Y279395D01*
X61203Y279614D01*
X61102Y279822D01*
X61027Y280017D01*
X60976Y280201D01*
X60950Y280350D01*
Y281630D01*
X60830Y282235D01*
X60488Y282747D01*
X51580Y291655D01*
Y296240D01*
X51605Y296390D01*
X51657Y296573D01*
X51731Y296769D01*
X51833Y296976D01*
X51962Y297195D01*
X52113Y297415D01*
X52535Y297920D01*
X52789Y298182D01*
X52829Y298244D01*
X53161Y298575D01*
X53680Y299476D01*
X53950Y300480D01*
Y301520D01*
X53680Y302524D01*
X53161Y303425D01*
X52425Y304160D01*
X51525Y304680D01*
X50520Y304950D01*
D02*
G37*
G36*
X49890Y279540D02*
X48850D01*
X47846Y279271D01*
X46945Y278751D01*
X46210Y278016D01*
X45690Y277115D01*
X45421Y276111D01*
Y275071D01*
X45690Y274066D01*
X46210Y273165D01*
X46945Y272430D01*
X47846Y271910D01*
X48850Y271641D01*
X49890D01*
X50895Y271910D01*
X51795Y272430D01*
X52531Y273165D01*
X53051Y274066D01*
X53320Y275071D01*
Y276111D01*
X53051Y277115D01*
X52531Y278016D01*
X51795Y278751D01*
X50895Y279271D01*
X49890Y279540D01*
D02*
G37*
G36*
X43520Y275091D02*
X39870D01*
Y271441D01*
X43520D01*
Y275091D01*
D02*
G37*
G36*
X38870D02*
X35221D01*
Y271441D01*
X38870D01*
Y275091D01*
D02*
G37*
G36*
X130500Y272066D02*
Y270500D01*
X132066D01*
X131780Y271190D01*
X131190Y271780D01*
X130500Y272066D01*
D02*
G37*
G36*
X129500D02*
X128810Y271780D01*
X128220Y271190D01*
X127934Y270500D01*
X129500D01*
Y272066D01*
D02*
G37*
G36*
X5500D02*
Y270500D01*
X7066D01*
X6780Y271190D01*
X6190Y271780D01*
X5500Y272066D01*
D02*
G37*
G36*
X4500D02*
X3810Y271780D01*
X3220Y271190D01*
X2934Y270500D01*
X4500D01*
Y272066D01*
D02*
G37*
G36*
X160039Y278079D02*
X157913D01*
X156851Y277939D01*
X155862Y277530D01*
X155012Y276877D01*
X154360Y276028D01*
X153950Y275038D01*
X153811Y273976D01*
X153950Y272915D01*
X154360Y271925D01*
X155012Y271075D01*
X155862Y270423D01*
X156851Y270013D01*
X157913Y269874D01*
X160039D01*
X161101Y270013D01*
X162091Y270423D01*
X162941Y271075D01*
X163593Y271925D01*
X164002Y272915D01*
X164142Y273976D01*
X164002Y275038D01*
X163593Y276028D01*
X162941Y276877D01*
X162091Y277530D01*
X161101Y277939D01*
X160039Y278079D01*
D02*
G37*
G36*
X224278Y273476D02*
X219476D01*
Y269672D01*
X220039D01*
X221153Y269818D01*
X222192Y270249D01*
X223083Y270933D01*
X223767Y271824D01*
X224197Y272862D01*
X224278Y273476D01*
D02*
G37*
G36*
X218476D02*
X213675D01*
X213755Y272862D01*
X214186Y271824D01*
X214870Y270933D01*
X215761Y270249D01*
X216799Y269818D01*
X217913Y269672D01*
X218476D01*
Y273476D01*
D02*
G37*
G36*
X132066Y269500D02*
X130500D01*
Y267934D01*
X131190Y268220D01*
X131780Y268810D01*
X132066Y269500D01*
D02*
G37*
G36*
X129500D02*
X127934D01*
X128220Y268810D01*
X128810Y268220D01*
X129500Y267934D01*
Y269500D01*
D02*
G37*
G36*
X7066D02*
X5500D01*
Y267934D01*
X6190Y268220D01*
X6780Y268810D01*
X7066Y269500D01*
D02*
G37*
G36*
X4500D02*
X2934D01*
X3220Y268810D01*
X3810Y268220D01*
X4500Y267934D01*
Y269500D01*
D02*
G37*
G36*
X321520Y318950D02*
X320480D01*
X319476Y318680D01*
X318575Y318161D01*
X317840Y317425D01*
X317320Y316525D01*
X317050Y315520D01*
Y314480D01*
X317320Y313475D01*
X317840Y312575D01*
X318168Y312246D01*
X318206Y312186D01*
X318417Y311967D01*
X318585Y311766D01*
X318731Y311565D01*
X318854Y311364D01*
X318957Y311164D01*
X319039Y310962D01*
X319102Y310759D01*
X319147Y310552D01*
X319165Y310417D01*
Y302760D01*
X310240Y293835D01*
X298000D01*
X297298Y293696D01*
X296702Y293298D01*
X269216Y265812D01*
X224544D01*
X224306Y265828D01*
X223981Y265870D01*
X223723Y265925D01*
X223622Y265957D01*
X223592Y266028D01*
X222940Y266878D01*
X222091Y267530D01*
X221101Y267939D01*
X220039Y268079D01*
X217913D01*
X216851Y267939D01*
X215862Y267530D01*
X215012Y266878D01*
X214360Y266028D01*
X213950Y265038D01*
X213811Y263976D01*
X213950Y262914D01*
X214360Y261925D01*
X215012Y261075D01*
X215862Y260423D01*
X216851Y260013D01*
X217913Y259874D01*
X220039D01*
X221101Y260013D01*
X222091Y260423D01*
X222940Y261075D01*
X223592Y261925D01*
X223622Y261996D01*
X223723Y262028D01*
X223968Y262080D01*
X224597Y262141D01*
X269976D01*
X270679Y262281D01*
X271274Y262679D01*
X298760Y290165D01*
X311000D01*
X311702Y290304D01*
X312298Y290702D01*
X322298Y300702D01*
X322696Y301298D01*
X322835Y302000D01*
Y310417D01*
X322853Y310552D01*
X322898Y310759D01*
X322961Y310962D01*
X323043Y311163D01*
X323146Y311364D01*
X323269Y311565D01*
X323414Y311766D01*
X323583Y311967D01*
X323794Y312186D01*
X323832Y312246D01*
X324161Y312575D01*
X324680Y313475D01*
X324950Y314480D01*
Y315520D01*
X324680Y316525D01*
X324161Y317425D01*
X323425Y318161D01*
X322524Y318680D01*
X321520Y318950D01*
D02*
G37*
G36*
X205500Y267066D02*
Y265500D01*
X207066D01*
X206780Y266190D01*
X206190Y266780D01*
X205500Y267066D01*
D02*
G37*
G36*
X204500D02*
X203810Y266780D01*
X203220Y266190D01*
X202934Y265500D01*
X204500D01*
Y267066D01*
D02*
G37*
G36*
X359794Y271953D02*
X358806D01*
X357852Y271697D01*
X356996Y271203D01*
X356297Y270504D01*
X355803Y269649D01*
X355547Y268694D01*
Y267706D01*
X355803Y266752D01*
X356297Y265896D01*
X356996Y265197D01*
X357852Y264703D01*
X358806Y264447D01*
X359794D01*
X360749Y264703D01*
X361604Y265197D01*
X362303Y265896D01*
X362797Y266752D01*
X363053Y267706D01*
Y268694D01*
X362797Y269649D01*
X362303Y270504D01*
X361604Y271203D01*
X360749Y271697D01*
X359794Y271953D01*
D02*
G37*
G36*
X303053D02*
X295547D01*
Y264447D01*
X303053D01*
Y271953D01*
D02*
G37*
G36*
X207066Y264500D02*
X205500D01*
Y262934D01*
X206190Y263220D01*
X206780Y263810D01*
X207066Y264500D01*
D02*
G37*
G36*
X204500D02*
X202934D01*
X203220Y263810D01*
X203810Y263220D01*
X204500Y262934D01*
Y264500D01*
D02*
G37*
G36*
X310500Y262066D02*
Y260500D01*
X312066D01*
X311780Y261190D01*
X311190Y261780D01*
X310500Y262066D01*
D02*
G37*
G36*
X309500D02*
X308810Y261780D01*
X308220Y261190D01*
X307934Y260500D01*
X309500D01*
Y262066D01*
D02*
G37*
G36*
X312066Y259500D02*
X310500D01*
Y257934D01*
X311190Y258220D01*
X311780Y258810D01*
X312066Y259500D01*
D02*
G37*
G36*
X309500D02*
X307934D01*
X308220Y258810D01*
X308810Y258220D01*
X309500Y257934D01*
Y259500D01*
D02*
G37*
G36*
X260500Y257066D02*
Y255500D01*
X262066D01*
X261780Y256190D01*
X261190Y256780D01*
X260500Y257066D01*
D02*
G37*
G36*
X259500D02*
X258810Y256780D01*
X258220Y256190D01*
X257934Y255500D01*
X259500D01*
Y257066D01*
D02*
G37*
G36*
X359794Y261953D02*
X358806D01*
X357852Y261697D01*
X356996Y261203D01*
X356297Y260504D01*
X355803Y259648D01*
X355547Y258694D01*
Y257706D01*
X355803Y256751D01*
X356297Y255896D01*
X356996Y255197D01*
X357852Y254703D01*
X358806Y254447D01*
X359794D01*
X360749Y254703D01*
X361604Y255197D01*
X362303Y255896D01*
X362797Y256751D01*
X363053Y257706D01*
Y258694D01*
X362797Y259648D01*
X362303Y260504D01*
X361604Y261203D01*
X360749Y261697D01*
X359794Y261953D01*
D02*
G37*
G36*
X299794D02*
X298806D01*
X297851Y261697D01*
X296996Y261203D01*
X296297Y260504D01*
X295803Y259648D01*
X295547Y258694D01*
Y257706D01*
X295803Y256751D01*
X296297Y255896D01*
X296996Y255197D01*
X297851Y254703D01*
X298806Y254447D01*
X299794D01*
X300748Y254703D01*
X301604Y255197D01*
X302303Y255896D01*
X302797Y256751D01*
X303053Y257706D01*
Y258694D01*
X302797Y259648D01*
X302303Y260504D01*
X301604Y261203D01*
X300748Y261697D01*
X299794Y261953D01*
D02*
G37*
G36*
X262066Y254500D02*
X260500D01*
Y252934D01*
X261190Y253220D01*
X261780Y253810D01*
X262066Y254500D01*
D02*
G37*
G36*
X259500D02*
X257934D01*
X258220Y253810D01*
X258810Y253220D01*
X259500Y252934D01*
Y254500D01*
D02*
G37*
G36*
X220039Y258079D02*
X217913D01*
X216851Y257939D01*
X215862Y257529D01*
X215012Y256877D01*
X214360Y256028D01*
X213950Y255038D01*
X213811Y253976D01*
X213950Y252915D01*
X214360Y251925D01*
X215012Y251075D01*
X215862Y250423D01*
X216851Y250013D01*
X217913Y249874D01*
X220039D01*
X221101Y250013D01*
X222091Y250423D01*
X222940Y251075D01*
X223592Y251925D01*
X224002Y252915D01*
X224142Y253976D01*
X224002Y255038D01*
X223592Y256028D01*
X222940Y256877D01*
X222091Y257529D01*
X221101Y257939D01*
X220039Y258079D01*
D02*
G37*
G36*
X359794Y251953D02*
X358806D01*
X357852Y251697D01*
X356996Y251203D01*
X356297Y250504D01*
X355803Y249648D01*
X355547Y248694D01*
Y247706D01*
X355803Y246751D01*
X356297Y245896D01*
X356996Y245197D01*
X357852Y244703D01*
X358806Y244447D01*
X359794D01*
X360749Y244703D01*
X361604Y245197D01*
X362303Y245896D01*
X362797Y246751D01*
X363053Y247706D01*
Y248694D01*
X362797Y249648D01*
X362303Y250504D01*
X361604Y251203D01*
X360749Y251697D01*
X359794Y251953D01*
D02*
G37*
G36*
X130500Y242066D02*
Y240500D01*
X132066D01*
X131780Y241190D01*
X131190Y241780D01*
X130500Y242066D01*
D02*
G37*
G36*
X129500D02*
X128810Y241780D01*
X128220Y241190D01*
X127934Y240500D01*
X129500D01*
Y242066D01*
D02*
G37*
G36*
X5500D02*
Y240500D01*
X7066D01*
X6780Y241190D01*
X6190Y241780D01*
X5500Y242066D01*
D02*
G37*
G36*
X4500D02*
X3810Y241780D01*
X3220Y241190D01*
X2934Y240500D01*
X4500D01*
Y242066D01*
D02*
G37*
G36*
X160039Y248079D02*
X157913D01*
X156851Y247939D01*
X155862Y247530D01*
X155012Y246878D01*
X154360Y246028D01*
X154201Y245643D01*
X154167Y245632D01*
X154023Y245600D01*
X153608Y245557D01*
X150976D01*
X150372Y245437D01*
X149859Y245094D01*
X145882Y241118D01*
X145540Y240605D01*
X145420Y240000D01*
Y164000D01*
X145540Y163395D01*
X145882Y162882D01*
X150882Y157882D01*
X151395Y157540D01*
X152000Y157420D01*
X154941D01*
X155102Y156946D01*
X155012Y156878D01*
X154360Y156028D01*
X154065Y155315D01*
X154009Y155307D01*
X153938Y155302D01*
X53976D01*
X53976Y155302D01*
X53469Y155201D01*
X53039Y154914D01*
X18063Y119937D01*
X17775Y119507D01*
X17674Y119000D01*
Y109950D01*
X15050D01*
Y102050D01*
X22950D01*
Y109950D01*
X20325D01*
Y118451D01*
X54525Y152651D01*
X153938D01*
X154009Y152645D01*
X154065Y152637D01*
X154360Y151925D01*
X155012Y151075D01*
X155862Y150423D01*
X156851Y150013D01*
X157913Y149874D01*
X160039D01*
X161101Y150013D01*
X162091Y150423D01*
X162941Y151075D01*
X163593Y151925D01*
X164002Y152915D01*
X164142Y153976D01*
X164002Y155038D01*
X163593Y156028D01*
X162941Y156878D01*
X162851Y156946D01*
X163012Y157420D01*
X181893D01*
X181924Y157389D01*
X182622Y157100D01*
X183378D01*
X184076Y157389D01*
X184611Y157924D01*
X184900Y158622D01*
Y159378D01*
X184611Y160076D01*
X184076Y160611D01*
X183378Y160900D01*
X182622D01*
X181924Y160611D01*
X181893Y160580D01*
X163073D01*
X162968Y160889D01*
X162944Y161080D01*
X163593Y161925D01*
X164002Y162915D01*
X164142Y163976D01*
X164002Y165038D01*
X163593Y166028D01*
X162941Y166877D01*
X162091Y167529D01*
X161101Y167939D01*
X160039Y168079D01*
X157913D01*
X156851Y167939D01*
X155862Y167529D01*
X155012Y166877D01*
X154360Y166028D01*
X153950Y165038D01*
X153811Y163976D01*
X153950Y162915D01*
X154360Y161925D01*
X155008Y161080D01*
X154984Y160889D01*
X154879Y160580D01*
X152655D01*
X148580Y164655D01*
Y239345D01*
X151631Y242396D01*
X153649D01*
X153799Y242385D01*
X154009Y242356D01*
X154167Y242321D01*
X154201Y242309D01*
X154360Y241925D01*
X155012Y241075D01*
X155862Y240423D01*
X156851Y240013D01*
X157913Y239874D01*
X160039D01*
X161101Y240013D01*
X162091Y240423D01*
X162941Y241075D01*
X163593Y241925D01*
X164002Y242915D01*
X164142Y243976D01*
X164002Y245038D01*
X163593Y246028D01*
X162941Y246878D01*
X162091Y247530D01*
X161101Y247939D01*
X160039Y248079D01*
D02*
G37*
G36*
X132066Y239500D02*
X130500D01*
Y237934D01*
X131190Y238220D01*
X131780Y238810D01*
X132066Y239500D01*
D02*
G37*
G36*
X129500D02*
X127934D01*
X128220Y238810D01*
X128810Y238220D01*
X129500Y237934D01*
Y239500D01*
D02*
G37*
G36*
X7066D02*
X5500D01*
Y237934D01*
X6190Y238220D01*
X6780Y238810D01*
X7066Y239500D01*
D02*
G37*
G36*
X4500D02*
X2934D01*
X3220Y238810D01*
X3810Y238220D01*
X4500Y237934D01*
Y239500D01*
D02*
G37*
G36*
X310500Y237066D02*
Y235500D01*
X312066D01*
X311780Y236190D01*
X311190Y236780D01*
X310500Y237066D01*
D02*
G37*
G36*
X309500D02*
X308810Y236780D01*
X308220Y236190D01*
X307934Y235500D01*
X309500D01*
Y237066D01*
D02*
G37*
G36*
X359794Y241953D02*
X358806D01*
X357852Y241697D01*
X356996Y241203D01*
X356297Y240504D01*
X355803Y239649D01*
X355547Y238694D01*
Y237706D01*
X355803Y236752D01*
X356297Y235896D01*
X356996Y235197D01*
X357852Y234703D01*
X358806Y234447D01*
X359794D01*
X360749Y234703D01*
X361604Y235197D01*
X362303Y235896D01*
X362797Y236752D01*
X363053Y237706D01*
Y238694D01*
X362797Y239649D01*
X362303Y240504D01*
X361604Y241203D01*
X360749Y241697D01*
X359794Y241953D01*
D02*
G37*
G36*
X312066Y234500D02*
X310500D01*
Y232934D01*
X311190Y233220D01*
X311780Y233810D01*
X312066Y234500D01*
D02*
G37*
G36*
X309500D02*
X307934D01*
X308220Y233810D01*
X308810Y233220D01*
X309500Y232934D01*
Y234500D01*
D02*
G37*
G36*
X61050Y235380D02*
X57400D01*
Y231730D01*
X61050D01*
Y235380D01*
D02*
G37*
G36*
X56400D02*
X52750D01*
Y231730D01*
X56400D01*
Y235380D01*
D02*
G37*
G36*
X110956Y233068D02*
Y231502D01*
X112522D01*
X112236Y232191D01*
X111645Y232782D01*
X110956Y233068D01*
D02*
G37*
G36*
X109956D02*
X109266Y232782D01*
X108675Y232191D01*
X108390Y231502D01*
X109956D01*
Y233068D01*
D02*
G37*
G36*
X101500Y233066D02*
Y231500D01*
X103066D01*
X102780Y232190D01*
X102190Y232780D01*
X101500Y233066D01*
D02*
G37*
G36*
X100500D02*
X99810Y232780D01*
X99220Y232190D01*
X98934Y231500D01*
X100500D01*
Y233066D01*
D02*
G37*
G36*
X112522Y230502D02*
X110956D01*
Y228936D01*
X111645Y229221D01*
X112236Y229812D01*
X112522Y230502D01*
D02*
G37*
G36*
X109956D02*
X108390D01*
X108675Y229812D01*
X109266Y229221D01*
X109956Y228936D01*
Y230502D01*
D02*
G37*
G36*
X103066Y230500D02*
X101500D01*
Y228934D01*
X102190Y229220D01*
X102780Y229810D01*
X103066Y230500D01*
D02*
G37*
G36*
X100500D02*
X98934D01*
X99220Y229810D01*
X99810Y229220D01*
X100500Y228934D01*
Y230500D01*
D02*
G37*
G36*
X299820Y232153D02*
X299800D01*
Y228700D01*
X303253D01*
Y228720D01*
X302983Y229726D01*
X302463Y230627D01*
X301727Y231363D01*
X300826Y231883D01*
X299820Y232153D01*
D02*
G37*
G36*
X298800D02*
X298780D01*
X297774Y231883D01*
X296873Y231363D01*
X296137Y230627D01*
X295617Y229726D01*
X295347Y228720D01*
Y228700D01*
X298800D01*
Y232153D01*
D02*
G37*
G36*
X77420Y235179D02*
X76380D01*
X75375Y234910D01*
X74475Y234390D01*
X73739Y233655D01*
X73220Y232754D01*
X72950Y231750D01*
Y230710D01*
X73220Y229705D01*
X73739Y228805D01*
X74475Y228069D01*
X75375Y227550D01*
X76380Y227280D01*
X77420D01*
X78425Y227550D01*
X79325Y228069D01*
X80060Y228805D01*
X80580Y229705D01*
X80850Y230710D01*
Y231750D01*
X80580Y232754D01*
X80060Y233655D01*
X79325Y234390D01*
X78425Y234910D01*
X77420Y235179D01*
D02*
G37*
G36*
X87420Y235179D02*
X86380D01*
X85375Y234910D01*
X84475Y234390D01*
X83740Y233655D01*
X83220Y232754D01*
X82950Y231750D01*
Y230710D01*
X83220Y229705D01*
X83740Y228805D01*
X84475Y228069D01*
X85375Y227550D01*
X86380Y227280D01*
X87420D01*
X88424Y227550D01*
X89325Y228069D01*
X90061Y228805D01*
X90580Y229705D01*
X90850Y230710D01*
Y231750D01*
X90580Y232754D01*
X90061Y233655D01*
X89325Y234390D01*
X88424Y234910D01*
X87420Y235179D01*
D02*
G37*
G36*
X61050Y230730D02*
X57400D01*
Y227080D01*
X61050D01*
Y230730D01*
D02*
G37*
G36*
X56400D02*
X52750D01*
Y227080D01*
X56400D01*
Y230730D01*
D02*
G37*
G36*
X263494Y233753D02*
X262506D01*
X261551Y233497D01*
X260696Y233003D01*
X259997Y232304D01*
X259503Y231449D01*
X259247Y230494D01*
Y229506D01*
X259503Y228552D01*
X259997Y227696D01*
X260696Y226997D01*
X261551Y226503D01*
X262506Y226247D01*
X263494D01*
X264448Y226503D01*
X265304Y226997D01*
X266003Y227696D01*
X266497Y228552D01*
X266753Y229506D01*
Y230494D01*
X266497Y231449D01*
X266003Y232304D01*
X265304Y233003D01*
X264448Y233497D01*
X263494Y233753D01*
D02*
G37*
G36*
X275500Y227066D02*
Y225500D01*
X277066D01*
X276780Y226190D01*
X276190Y226780D01*
X275500Y227066D01*
D02*
G37*
G36*
X274500D02*
X273810Y226780D01*
X273220Y226190D01*
X272934Y225500D01*
X274500D01*
Y227066D01*
D02*
G37*
G36*
X5500D02*
Y225500D01*
X7066D01*
X6780Y226190D01*
X6190Y226780D01*
X5500Y227066D01*
D02*
G37*
G36*
X4500D02*
X3810Y226780D01*
X3220Y226190D01*
X2934Y225500D01*
X4500D01*
Y227066D01*
D02*
G37*
G36*
X359794Y231953D02*
X358806D01*
X357852Y231697D01*
X356996Y231203D01*
X356297Y230504D01*
X355803Y229648D01*
X355547Y228694D01*
Y227706D01*
X355803Y226751D01*
X356297Y225896D01*
X356996Y225197D01*
X357852Y224703D01*
X358806Y224447D01*
X359794D01*
X360749Y224703D01*
X361604Y225197D01*
X362303Y225896D01*
X362797Y226751D01*
X363053Y227706D01*
Y228694D01*
X362797Y229648D01*
X362303Y230504D01*
X361604Y231203D01*
X360749Y231697D01*
X359794Y231953D01*
D02*
G37*
G36*
X303253Y227700D02*
X299800D01*
Y224247D01*
X299820D01*
X300826Y224517D01*
X301727Y225037D01*
X302463Y225773D01*
X302983Y226674D01*
X303253Y227680D01*
Y227700D01*
D02*
G37*
G36*
X298800D02*
X295347D01*
Y227680D01*
X295617Y226674D01*
X296137Y225773D01*
X296873Y225037D01*
X297774Y224517D01*
X298780Y224247D01*
X298800D01*
Y227700D01*
D02*
G37*
G36*
X277066Y224500D02*
X275500D01*
Y222934D01*
X276190Y223220D01*
X276780Y223810D01*
X277066Y224500D01*
D02*
G37*
G36*
X274500D02*
X272934D01*
X273220Y223810D01*
X273810Y223220D01*
X274500Y222934D01*
Y224500D01*
D02*
G37*
G36*
X7066D02*
X5500D01*
Y222934D01*
X6190Y223220D01*
X6780Y223810D01*
X7066Y224500D01*
D02*
G37*
G36*
X4500D02*
X2934D01*
X3220Y223810D01*
X3810Y223220D01*
X4500Y222934D01*
Y224500D01*
D02*
G37*
G36*
X220039Y228079D02*
X217913D01*
X216851Y227939D01*
X215862Y227530D01*
X215012Y226877D01*
X214360Y226028D01*
X213950Y225038D01*
X213811Y223976D01*
X213950Y222915D01*
X214360Y221925D01*
X215012Y221075D01*
X215862Y220423D01*
X216851Y220013D01*
X217913Y219874D01*
X220039D01*
X221101Y220013D01*
X222091Y220423D01*
X222940Y221075D01*
X223592Y221925D01*
X224002Y222915D01*
X224142Y223976D01*
X224002Y225038D01*
X223592Y226028D01*
X222940Y226877D01*
X222091Y227530D01*
X221101Y227939D01*
X220039Y228079D01*
D02*
G37*
G36*
X263494Y223753D02*
X262506D01*
X261551Y223497D01*
X260696Y223003D01*
X259997Y222304D01*
X259503Y221448D01*
X259247Y220494D01*
Y219506D01*
X259503Y218551D01*
X259997Y217696D01*
X260696Y216997D01*
X261551Y216503D01*
X262506Y216247D01*
X263494D01*
X264448Y216503D01*
X265304Y216997D01*
X266003Y217696D01*
X266497Y218551D01*
X266753Y219506D01*
Y220494D01*
X266497Y221448D01*
X266003Y222304D01*
X265304Y223003D01*
X264448Y223497D01*
X263494Y223753D01*
D02*
G37*
G36*
X335500Y217066D02*
Y215500D01*
X337066D01*
X336780Y216190D01*
X336190Y216780D01*
X335500Y217066D01*
D02*
G37*
G36*
X334500D02*
X333810Y216780D01*
X333220Y216190D01*
X332934Y215500D01*
X334500D01*
Y217066D01*
D02*
G37*
G36*
X130500Y216066D02*
Y214500D01*
X132066D01*
X131780Y215190D01*
X131190Y215780D01*
X130500Y216066D01*
D02*
G37*
G36*
X129500D02*
X128810Y215780D01*
X128220Y215190D01*
X127934Y214500D01*
X129500D01*
Y216066D01*
D02*
G37*
G36*
X359794Y221953D02*
X358806D01*
X357852Y221697D01*
X356996Y221203D01*
X356297Y220504D01*
X355803Y219649D01*
X355547Y218694D01*
Y217706D01*
X355803Y216752D01*
X356297Y215896D01*
X356996Y215197D01*
X357852Y214703D01*
X358806Y214447D01*
X359794D01*
X360749Y214703D01*
X361604Y215197D01*
X362303Y215896D01*
X362797Y216752D01*
X363053Y217706D01*
Y218694D01*
X362797Y219649D01*
X362303Y220504D01*
X361604Y221203D01*
X360749Y221697D01*
X359794Y221953D01*
D02*
G37*
G36*
X337066Y214500D02*
X335500D01*
Y212934D01*
X336190Y213220D01*
X336780Y213810D01*
X337066Y214500D01*
D02*
G37*
G36*
X334500D02*
X332934D01*
X333220Y213810D01*
X333810Y213220D01*
X334500Y212934D01*
Y214500D01*
D02*
G37*
G36*
X132066Y213500D02*
X130500D01*
Y211934D01*
X131190Y212220D01*
X131780Y212810D01*
X132066Y213500D01*
D02*
G37*
G36*
X129500D02*
X127934D01*
X128220Y212810D01*
X128810Y212220D01*
X129500Y211934D01*
Y213500D01*
D02*
G37*
G36*
X94416Y218162D02*
X93584D01*
X92779Y217947D01*
X92058Y217530D01*
X91470Y216942D01*
X91053Y216221D01*
X90838Y215416D01*
Y214584D01*
X91053Y213779D01*
X91470Y213058D01*
X92058Y212470D01*
X92779Y212053D01*
X93584Y211838D01*
X94416D01*
X95221Y212053D01*
X95942Y212470D01*
X96530Y213058D01*
X96947Y213779D01*
X97162Y214584D01*
Y215416D01*
X96947Y216221D01*
X96530Y216942D01*
X95942Y217530D01*
X95221Y217947D01*
X94416Y218162D01*
D02*
G37*
G36*
X275500Y212066D02*
Y210500D01*
X277066D01*
X276780Y211190D01*
X276190Y211780D01*
X275500Y212066D01*
D02*
G37*
G36*
X274500D02*
X273810Y211780D01*
X273220Y211190D01*
X272934Y210500D01*
X274500D01*
Y212066D01*
D02*
G37*
G36*
X5500D02*
Y210500D01*
X7066D01*
X6780Y211190D01*
X6190Y211780D01*
X5500Y212066D01*
D02*
G37*
G36*
X4500D02*
X3810Y211780D01*
X3220Y211190D01*
X2934Y210500D01*
X4500D01*
Y212066D01*
D02*
G37*
G36*
X160039Y218079D02*
X157913D01*
X156851Y217939D01*
X155862Y217530D01*
X155012Y216878D01*
X154360Y216028D01*
X153950Y215038D01*
X153811Y213976D01*
X153950Y212914D01*
X154360Y211925D01*
X155012Y211075D01*
X155862Y210423D01*
X156851Y210013D01*
X157913Y209874D01*
X160039D01*
X161101Y210013D01*
X162091Y210423D01*
X162941Y211075D01*
X163593Y211925D01*
X164002Y212914D01*
X164142Y213976D01*
X164002Y215038D01*
X163593Y216028D01*
X162941Y216878D01*
X162091Y217530D01*
X161101Y217939D01*
X160039Y218079D01*
D02*
G37*
G36*
X277066Y209500D02*
X275500D01*
Y207934D01*
X276190Y208220D01*
X276780Y208810D01*
X277066Y209500D01*
D02*
G37*
G36*
X274500D02*
X272934D01*
X273220Y208810D01*
X273810Y208220D01*
X274500Y207934D01*
Y209500D01*
D02*
G37*
G36*
X7066D02*
X5500D01*
Y207934D01*
X6190Y208220D01*
X6780Y208810D01*
X7066Y209500D01*
D02*
G37*
G36*
X4500D02*
X2934D01*
X3220Y208810D01*
X3810Y208220D01*
X4500Y207934D01*
Y209500D01*
D02*
G37*
G36*
X263494Y213753D02*
X262506D01*
X261551Y213497D01*
X260696Y213003D01*
X259997Y212304D01*
X259503Y211449D01*
X259247Y210494D01*
Y209506D01*
X259503Y208552D01*
X259997Y207696D01*
X260696Y206997D01*
X261551Y206503D01*
X262506Y206247D01*
X263494D01*
X264448Y206503D01*
X265304Y206997D01*
X266003Y207696D01*
X266497Y208552D01*
X266753Y209506D01*
Y210494D01*
X266497Y211449D01*
X266003Y212304D01*
X265304Y213003D01*
X264448Y213497D01*
X263494Y213753D01*
D02*
G37*
G36*
X180500Y207066D02*
Y205500D01*
X182066D01*
X181780Y206190D01*
X181190Y206780D01*
X180500Y207066D01*
D02*
G37*
G36*
X179500D02*
X178810Y206780D01*
X178220Y206190D01*
X177934Y205500D01*
X179500D01*
Y207066D01*
D02*
G37*
G36*
X100500D02*
Y205500D01*
X102066D01*
X101780Y206190D01*
X101189Y206780D01*
X100500Y207066D01*
D02*
G37*
G36*
X99500D02*
X98810Y206780D01*
X98220Y206190D01*
X97934Y205500D01*
X99500D01*
Y207066D01*
D02*
G37*
G36*
X359794Y211953D02*
X358806D01*
X357852Y211697D01*
X356996Y211203D01*
X356297Y210504D01*
X355803Y209648D01*
X355547Y208694D01*
Y207706D01*
X355803Y206751D01*
X356297Y205896D01*
X356996Y205197D01*
X357852Y204703D01*
X358806Y204447D01*
X359794D01*
X360749Y204703D01*
X361604Y205197D01*
X362303Y205896D01*
X362797Y206751D01*
X363053Y207706D01*
Y208694D01*
X362797Y209648D01*
X362303Y210504D01*
X361604Y211203D01*
X360749Y211697D01*
X359794Y211953D01*
D02*
G37*
G36*
X182066Y204500D02*
X180500D01*
Y202934D01*
X181190Y203220D01*
X181780Y203810D01*
X182066Y204500D01*
D02*
G37*
G36*
X179500D02*
X177934D01*
X178220Y203810D01*
X178810Y203220D01*
X179500Y202934D01*
Y204500D01*
D02*
G37*
G36*
X102066D02*
X100500D01*
Y202934D01*
X101189Y203220D01*
X101780Y203810D01*
X102066Y204500D01*
D02*
G37*
G36*
X99500D02*
X97934D01*
X98220Y203810D01*
X98810Y203220D01*
X99500Y202934D01*
Y204500D01*
D02*
G37*
G36*
X116162Y207162D02*
X109838D01*
Y200838D01*
X116162D01*
Y207162D01*
D02*
G37*
G36*
X263520Y203953D02*
X263500D01*
Y200500D01*
X266953D01*
Y200520D01*
X266683Y201526D01*
X266163Y202427D01*
X265427Y203163D01*
X264526Y203683D01*
X263520Y203953D01*
D02*
G37*
G36*
X262500D02*
X262480D01*
X261474Y203683D01*
X260573Y203163D01*
X259837Y202427D01*
X259317Y201526D01*
X259047Y200520D01*
Y200500D01*
X262500D01*
Y203953D01*
D02*
G37*
G36*
X310500Y202066D02*
Y200500D01*
X312066D01*
X311780Y201190D01*
X311190Y201780D01*
X310500Y202066D01*
D02*
G37*
G36*
X309500D02*
X308810Y201780D01*
X308220Y201190D01*
X307934Y200500D01*
X309500D01*
Y202066D01*
D02*
G37*
G36*
X160039Y208079D02*
X157913D01*
X156851Y207939D01*
X155862Y207529D01*
X155012Y206877D01*
X154360Y206028D01*
X153950Y205038D01*
X153811Y203976D01*
X153950Y202915D01*
X154360Y201925D01*
X155012Y201075D01*
X155862Y200423D01*
X156851Y200013D01*
X157913Y199874D01*
X160039D01*
X161101Y200013D01*
X162091Y200423D01*
X162941Y201075D01*
X163593Y201925D01*
X164002Y202915D01*
X164142Y203976D01*
X164002Y205038D01*
X163593Y206028D01*
X162941Y206877D01*
X162091Y207529D01*
X161101Y207939D01*
X160039Y208079D01*
D02*
G37*
G36*
X312066Y199500D02*
X310500D01*
Y197934D01*
X311190Y198220D01*
X311780Y198810D01*
X312066Y199500D01*
D02*
G37*
G36*
X309500D02*
X307934D01*
X308220Y198810D01*
X308810Y198220D01*
X309500Y197934D01*
Y199500D01*
D02*
G37*
G36*
X266953Y199500D02*
X263500D01*
Y196047D01*
X263520D01*
X264526Y196317D01*
X265427Y196837D01*
X266163Y197573D01*
X266683Y198474D01*
X266953Y199480D01*
Y199500D01*
D02*
G37*
G36*
X262500D02*
X259047D01*
Y199480D01*
X259317Y198474D01*
X259837Y197573D01*
X260573Y196837D01*
X261474Y196317D01*
X262480Y196047D01*
X262500D01*
Y199500D01*
D02*
G37*
G36*
X5500Y197066D02*
Y195500D01*
X7066D01*
X6780Y196190D01*
X6190Y196780D01*
X5500Y197066D01*
D02*
G37*
G36*
X4500D02*
X3810Y196780D01*
X3220Y196190D01*
X2934Y195500D01*
X4500D01*
Y197066D01*
D02*
G37*
G36*
X363053Y201953D02*
X355547D01*
Y194447D01*
X363053D01*
Y201953D01*
D02*
G37*
G36*
X299794D02*
X298806D01*
X297851Y201697D01*
X296996Y201203D01*
X296297Y200504D01*
X295803Y199648D01*
X295547Y198694D01*
Y197706D01*
X295803Y196751D01*
X296297Y195896D01*
X296996Y195197D01*
X297851Y194703D01*
X298806Y194447D01*
X299794D01*
X300748Y194703D01*
X301604Y195197D01*
X302303Y195896D01*
X302797Y196751D01*
X303053Y197706D01*
Y198694D01*
X302797Y199648D01*
X302303Y200504D01*
X301604Y201203D01*
X300748Y201697D01*
X299794Y201953D01*
D02*
G37*
G36*
X7066Y194500D02*
X5500D01*
Y192934D01*
X6190Y193220D01*
X6780Y193810D01*
X7066Y194500D01*
D02*
G37*
G36*
X4500D02*
X2934D01*
X3220Y193810D01*
X3810Y193220D01*
X4500Y192934D01*
Y194500D01*
D02*
G37*
G36*
X85500Y192066D02*
Y190500D01*
X87066D01*
X86780Y191190D01*
X86190Y191780D01*
X85500Y192066D01*
D02*
G37*
G36*
X84500D02*
X83811Y191780D01*
X83220Y191190D01*
X82934Y190500D01*
X84500D01*
Y192066D01*
D02*
G37*
G36*
X87066Y189500D02*
X85500D01*
Y187934D01*
X86190Y188220D01*
X86780Y188810D01*
X87066Y189500D01*
D02*
G37*
G36*
X84500D02*
X82934D01*
X83220Y188810D01*
X83811Y188220D01*
X84500Y187934D01*
Y189500D01*
D02*
G37*
G36*
X334468Y184150D02*
X334421D01*
Y180500D01*
X338071D01*
Y180546D01*
X337788Y181602D01*
X337242Y182548D01*
X336469Y183320D01*
X335523Y183867D01*
X334468Y184150D01*
D02*
G37*
G36*
X333421D02*
X333375D01*
X332320Y183867D01*
X331373Y183320D01*
X330601Y182548D01*
X330054Y181602D01*
X329772Y180546D01*
Y180500D01*
X333421D01*
Y184150D01*
D02*
G37*
G36*
X295500Y182066D02*
Y180500D01*
X297066D01*
X296780Y181190D01*
X296190Y181780D01*
X295500Y182066D01*
D02*
G37*
G36*
X294500D02*
X293810Y181780D01*
X293220Y181190D01*
X292934Y180500D01*
X294500D01*
Y182066D01*
D02*
G37*
G36*
X285500D02*
Y180500D01*
X287066D01*
X286780Y181190D01*
X286190Y181780D01*
X285500Y182066D01*
D02*
G37*
G36*
X284500D02*
X283810Y181780D01*
X283220Y181190D01*
X282934Y180500D01*
X284500D01*
Y182066D01*
D02*
G37*
G36*
X5500D02*
Y180500D01*
X7066D01*
X6780Y181190D01*
X6190Y181780D01*
X5500Y182066D01*
D02*
G37*
G36*
X4500D02*
X3810Y181780D01*
X3220Y181190D01*
X2934Y180500D01*
X4500D01*
Y182066D01*
D02*
G37*
G36*
X297066Y179500D02*
X295500D01*
Y177934D01*
X296190Y178220D01*
X296780Y178810D01*
X297066Y179500D01*
D02*
G37*
G36*
X294500D02*
X292934D01*
X293220Y178810D01*
X293810Y178220D01*
X294500Y177934D01*
Y179500D01*
D02*
G37*
G36*
X287066D02*
X285500D01*
Y177934D01*
X286190Y178220D01*
X286780Y178810D01*
X287066Y179500D01*
D02*
G37*
G36*
X284500D02*
X282934D01*
X283220Y178810D01*
X283810Y178220D01*
X284500Y177934D01*
Y179500D01*
D02*
G37*
G36*
X7066D02*
X5500D01*
Y177934D01*
X6190Y178220D01*
X6780Y178810D01*
X7066Y179500D01*
D02*
G37*
G36*
X4500D02*
X2934D01*
X3220Y178810D01*
X3810Y178220D01*
X4500Y177934D01*
Y179500D01*
D02*
G37*
G36*
X338071Y179500D02*
X334421D01*
Y175850D01*
X334468D01*
X335523Y176133D01*
X336469Y176680D01*
X337242Y177452D01*
X337788Y178398D01*
X338071Y179454D01*
Y179500D01*
D02*
G37*
G36*
X333421D02*
X329772D01*
Y179454D01*
X330054Y178398D01*
X330601Y177452D01*
X331373Y176680D01*
X332320Y176133D01*
X333375Y175850D01*
X333421D01*
Y179500D01*
D02*
G37*
G36*
X130500Y177066D02*
Y175500D01*
X132066D01*
X131780Y176190D01*
X131190Y176780D01*
X130500Y177066D01*
D02*
G37*
G36*
X129500D02*
X128810Y176780D01*
X128220Y176190D01*
X127934Y175500D01*
X129500D01*
Y177066D01*
D02*
G37*
G36*
X36416Y181162D02*
X35584D01*
X34779Y180947D01*
X34058Y180530D01*
X33470Y179942D01*
X33053Y179221D01*
X32838Y178416D01*
Y177584D01*
X33053Y176779D01*
X33470Y176058D01*
X34058Y175470D01*
X34779Y175053D01*
X35584Y174838D01*
X36416D01*
X37221Y175053D01*
X37942Y175470D01*
X38530Y176058D01*
X38947Y176779D01*
X39162Y177584D01*
Y178416D01*
X38947Y179221D01*
X38530Y179942D01*
X37942Y180530D01*
X37221Y180947D01*
X36416Y181162D01*
D02*
G37*
G36*
X77494Y181753D02*
X76506D01*
X75551Y181497D01*
X74696Y181003D01*
X73997Y180304D01*
X73503Y179448D01*
X73247Y178494D01*
Y177506D01*
X73503Y176551D01*
X73997Y175696D01*
X74696Y174997D01*
X75551Y174503D01*
X76506Y174247D01*
X77494D01*
X78448Y174503D01*
X79304Y174997D01*
X80003Y175696D01*
X80497Y176551D01*
X80753Y177506D01*
Y178494D01*
X80497Y179448D01*
X80003Y180304D01*
X79304Y181003D01*
X78448Y181497D01*
X77494Y181753D01*
D02*
G37*
G36*
X57809D02*
X56821D01*
X55866Y181497D01*
X55011Y181003D01*
X54312Y180304D01*
X53818Y179448D01*
X53562Y178494D01*
Y177506D01*
X53818Y176551D01*
X54312Y175696D01*
X55011Y174997D01*
X55866Y174503D01*
X56821Y174247D01*
X57809D01*
X58763Y174503D01*
X59619Y174997D01*
X60318Y175696D01*
X60812Y176551D01*
X61068Y177506D01*
Y178494D01*
X60812Y179448D01*
X60318Y180304D01*
X59619Y181003D01*
X58763Y181497D01*
X57809Y181753D01*
D02*
G37*
G36*
X132066Y174500D02*
X130500D01*
Y172934D01*
X131190Y173220D01*
X131780Y173810D01*
X132066Y174500D01*
D02*
G37*
G36*
X129500D02*
X127934D01*
X128220Y173810D01*
X128810Y173220D01*
X129500Y172934D01*
Y174500D01*
D02*
G37*
G36*
X370500Y172066D02*
Y170500D01*
X372066D01*
X371780Y171190D01*
X371190Y171780D01*
X370500Y172066D01*
D02*
G37*
G36*
X369500D02*
X368810Y171780D01*
X368220Y171190D01*
X367934Y170500D01*
X369500D01*
Y172066D01*
D02*
G37*
G36*
X160039Y178079D02*
X157913D01*
X156851Y177939D01*
X155862Y177530D01*
X155012Y176877D01*
X154360Y176028D01*
X153950Y175038D01*
X153811Y173976D01*
X153950Y172915D01*
X154360Y171925D01*
X155012Y171075D01*
X155862Y170423D01*
X156851Y170013D01*
X157913Y169874D01*
X160039D01*
X161101Y170013D01*
X162091Y170423D01*
X162941Y171075D01*
X163593Y171925D01*
X164002Y172915D01*
X164142Y173976D01*
X164002Y175038D01*
X163593Y176028D01*
X162941Y176877D01*
X162091Y177530D01*
X161101Y177939D01*
X160039Y178079D01*
D02*
G37*
G36*
X372066Y169500D02*
X370500D01*
Y167934D01*
X371190Y168220D01*
X371780Y168810D01*
X372066Y169500D01*
D02*
G37*
G36*
X369500D02*
X367934D01*
X368220Y168810D01*
X368810Y168220D01*
X369500Y167934D01*
Y169500D01*
D02*
G37*
G36*
X265500Y167066D02*
Y165500D01*
X267066D01*
X266780Y166190D01*
X266190Y166780D01*
X265500Y167066D01*
D02*
G37*
G36*
X264500D02*
X263810Y166780D01*
X263220Y166190D01*
X262934Y165500D01*
X264500D01*
Y167066D01*
D02*
G37*
G36*
X255500D02*
Y165500D01*
X257066D01*
X256780Y166190D01*
X256190Y166780D01*
X255500Y167066D01*
D02*
G37*
G36*
X254500D02*
X253810Y166780D01*
X253220Y166190D01*
X252934Y165500D01*
X254500D01*
Y167066D01*
D02*
G37*
G36*
X85500D02*
Y165500D01*
X87066D01*
X86780Y166190D01*
X86190Y166780D01*
X85500Y167066D01*
D02*
G37*
G36*
X84500D02*
X83811Y166780D01*
X83220Y166190D01*
X82934Y165500D01*
X84500D01*
Y167066D01*
D02*
G37*
G36*
X257066Y164500D02*
X255500D01*
Y162934D01*
X256190Y163220D01*
X256780Y163810D01*
X257066Y164500D01*
D02*
G37*
G36*
X254500D02*
X252934D01*
X253220Y163810D01*
X253810Y163220D01*
X254500Y162934D01*
Y164500D01*
D02*
G37*
G36*
X267066D02*
X265500D01*
Y162934D01*
X266190Y163220D01*
X266780Y163810D01*
X267066Y164500D01*
D02*
G37*
G36*
X264500D02*
X262934D01*
X263220Y163810D01*
X263810Y163220D01*
X264500Y162934D01*
Y164500D01*
D02*
G37*
G36*
X87066D02*
X85500D01*
Y162934D01*
X86190Y163220D01*
X86780Y163810D01*
X87066Y164500D01*
D02*
G37*
G36*
X84500D02*
X82934D01*
X83220Y163810D01*
X83811Y163220D01*
X84500Y162934D01*
Y164500D01*
D02*
G37*
G36*
X113416Y167162D02*
X112584D01*
X111779Y166947D01*
X111058Y166530D01*
X110470Y165942D01*
X110053Y165221D01*
X109838Y164416D01*
Y163584D01*
X110053Y162779D01*
X110470Y162058D01*
X111058Y161470D01*
X111779Y161053D01*
X112584Y160838D01*
X113416D01*
X114221Y161053D01*
X114942Y161470D01*
X115530Y162058D01*
X115947Y162779D01*
X116162Y163584D01*
Y164416D01*
X115947Y165221D01*
X115530Y165942D01*
X114942Y166530D01*
X114221Y166947D01*
X113416Y167162D01*
D02*
G37*
G36*
X315500Y162066D02*
Y160500D01*
X317066D01*
X316780Y161190D01*
X316190Y161780D01*
X315500Y162066D01*
D02*
G37*
G36*
X314500D02*
X313810Y161780D01*
X313220Y161190D01*
X312934Y160500D01*
X314500D01*
Y162066D01*
D02*
G37*
G36*
X220039Y168079D02*
X217913D01*
X216851Y167939D01*
X215862Y167529D01*
X215012Y166877D01*
X214360Y166028D01*
X213950Y165038D01*
X213811Y163976D01*
X213950Y162915D01*
X214360Y161925D01*
X215012Y161075D01*
X215862Y160423D01*
X216851Y160013D01*
X217913Y159874D01*
X220039D01*
X221101Y160013D01*
X222091Y160423D01*
X222940Y161075D01*
X223592Y161925D01*
X224002Y162915D01*
X224142Y163976D01*
X224002Y165038D01*
X223592Y166028D01*
X222940Y166877D01*
X222091Y167529D01*
X221101Y167939D01*
X220039Y168079D01*
D02*
G37*
G36*
X349546Y168146D02*
X348454D01*
X347399Y167864D01*
X346454Y167318D01*
X345682Y166546D01*
X345136Y165601D01*
X344853Y164546D01*
Y163454D01*
X345136Y162399D01*
X345682Y161454D01*
X346454Y160682D01*
X347399Y160136D01*
X348454Y159853D01*
X349546D01*
X350601Y160136D01*
X351546Y160682D01*
X352318Y161454D01*
X352864Y162399D01*
X353147Y163454D01*
Y164546D01*
X352864Y165601D01*
X352318Y166546D01*
X351546Y167318D01*
X350601Y167864D01*
X349546Y168146D01*
D02*
G37*
G36*
X317066Y159500D02*
X315500D01*
Y157934D01*
X316190Y158220D01*
X316780Y158810D01*
X317066Y159500D01*
D02*
G37*
G36*
X314500D02*
X312934D01*
X313220Y158810D01*
X313810Y158220D01*
X314500Y157934D01*
Y159500D01*
D02*
G37*
G36*
X255500Y157066D02*
Y155500D01*
X257066D01*
X256780Y156190D01*
X256190Y156780D01*
X255500Y157066D01*
D02*
G37*
G36*
X254500D02*
X253810Y156780D01*
X253220Y156190D01*
X252934Y155500D01*
X254500D01*
Y157066D01*
D02*
G37*
G36*
X245500D02*
Y155500D01*
X247066D01*
X246780Y156190D01*
X246190Y156780D01*
X245500Y157066D01*
D02*
G37*
G36*
X244500D02*
X243810Y156780D01*
X243220Y156190D01*
X242934Y155500D01*
X244500D01*
Y157066D01*
D02*
G37*
G36*
X30500D02*
Y155500D01*
X32066D01*
X31780Y156190D01*
X31190Y156780D01*
X30500Y157066D01*
D02*
G37*
G36*
X29500D02*
X28810Y156780D01*
X28220Y156190D01*
X27934Y155500D01*
X29500D01*
Y157066D01*
D02*
G37*
G36*
X10500D02*
Y155500D01*
X12066D01*
X11780Y156190D01*
X11190Y156780D01*
X10500Y157066D01*
D02*
G37*
G36*
X9500D02*
X8811Y156780D01*
X8220Y156190D01*
X7934Y155500D01*
X9500D01*
Y157066D01*
D02*
G37*
G36*
X-4500D02*
Y155500D01*
X-2934D01*
X-3220Y156190D01*
X-3810Y156780D01*
X-4500Y157066D01*
D02*
G37*
G36*
X-5500D02*
X-6190Y156780D01*
X-6780Y156190D01*
X-7066Y155500D01*
X-5500D01*
Y157066D01*
D02*
G37*
G36*
X257066Y154500D02*
X255500D01*
Y152934D01*
X256190Y153220D01*
X256780Y153810D01*
X257066Y154500D01*
D02*
G37*
G36*
X254500D02*
X252934D01*
X253220Y153810D01*
X253810Y153220D01*
X254500Y152934D01*
Y154500D01*
D02*
G37*
G36*
X247066D02*
X245500D01*
Y152934D01*
X246190Y153220D01*
X246780Y153810D01*
X247066Y154500D01*
D02*
G37*
G36*
X244500D02*
X242934D01*
X243220Y153810D01*
X243810Y153220D01*
X244500Y152934D01*
Y154500D01*
D02*
G37*
G36*
X32066D02*
X30500D01*
Y152934D01*
X31190Y153220D01*
X31780Y153810D01*
X32066Y154500D01*
D02*
G37*
G36*
X29500D02*
X27934D01*
X28220Y153810D01*
X28810Y153220D01*
X29500Y152934D01*
Y154500D01*
D02*
G37*
G36*
X12066D02*
X10500D01*
Y152934D01*
X11190Y153220D01*
X11780Y153810D01*
X12066Y154500D01*
D02*
G37*
G36*
X9500D02*
X7934D01*
X8220Y153810D01*
X8811Y153220D01*
X9500Y152934D01*
Y154500D01*
D02*
G37*
G36*
X-2934D02*
X-4500D01*
Y152934D01*
X-3810Y153220D01*
X-3220Y153810D01*
X-2934Y154500D01*
D02*
G37*
G36*
X-5500D02*
X-7066D01*
X-6780Y153810D01*
X-6190Y153220D01*
X-5500Y152934D01*
Y154500D01*
D02*
G37*
G36*
X370500Y152066D02*
Y150500D01*
X372066D01*
X371780Y151190D01*
X371190Y151780D01*
X370500Y152066D01*
D02*
G37*
G36*
X369500D02*
X368810Y151780D01*
X368220Y151190D01*
X367934Y150500D01*
X369500D01*
Y152066D01*
D02*
G37*
G36*
X220039Y188079D02*
X217913D01*
X216851Y187939D01*
X215862Y187530D01*
X215012Y186878D01*
X214360Y186028D01*
X213950Y185038D01*
X213811Y183976D01*
X213950Y182914D01*
X214360Y181925D01*
X215012Y181075D01*
X215862Y180423D01*
X216851Y180013D01*
X217913Y179874D01*
X220039D01*
X221101Y180013D01*
X222091Y180423D01*
X222940Y181075D01*
X223592Y181925D01*
X223887Y182637D01*
X223943Y182645D01*
X224015Y182651D01*
X265475D01*
X292674Y155451D01*
Y150501D01*
X292192Y150371D01*
X292161Y150425D01*
X291828Y150758D01*
X291785Y150822D01*
X291478Y151134D01*
X290968Y151715D01*
X290779Y151964D01*
X290621Y152201D01*
X290498Y152416D01*
X290411Y152605D01*
X290355Y152766D01*
X290326Y152897D01*
X290325Y152903D01*
Y155000D01*
X290225Y155507D01*
X289937Y155937D01*
X270961Y174914D01*
X270531Y175201D01*
X270024Y175302D01*
X224015D01*
X223943Y175307D01*
X223888Y175315D01*
X223592Y176028D01*
X222940Y176877D01*
X222091Y177530D01*
X221101Y177939D01*
X220039Y178079D01*
X217913D01*
X216851Y177939D01*
X215862Y177530D01*
X215012Y176877D01*
X214360Y176028D01*
X213950Y175038D01*
X213811Y173976D01*
X213950Y172915D01*
X214360Y171925D01*
X215012Y171075D01*
X215862Y170423D01*
X216851Y170013D01*
X217913Y169874D01*
X220039D01*
X221101Y170013D01*
X222091Y170423D01*
X222940Y171075D01*
X223592Y171925D01*
X223888Y172637D01*
X223943Y172645D01*
X224015Y172651D01*
X269475D01*
X287674Y154451D01*
Y152903D01*
X287674Y152897D01*
X287645Y152766D01*
X287589Y152605D01*
X287502Y152416D01*
X287380Y152201D01*
X287221Y151964D01*
X287032Y151715D01*
X286522Y151134D01*
X286215Y150822D01*
X286172Y150758D01*
X285840Y150425D01*
X285320Y149524D01*
X285050Y148520D01*
Y147480D01*
X285320Y146476D01*
X285840Y145575D01*
X286575Y144840D01*
X287475Y144320D01*
X288480Y144050D01*
X289520D01*
X290525Y144320D01*
X291425Y144840D01*
X292161Y145575D01*
X292192Y145629D01*
X292674Y145499D01*
Y133549D01*
X291530Y132404D01*
X291525Y132400D01*
X291412Y132328D01*
X291259Y132254D01*
X291063Y132182D01*
X290825Y132117D01*
X290545Y132061D01*
X290235Y132018D01*
X289463Y131968D01*
X289026Y131965D01*
X288951Y131950D01*
X288480D01*
X287475Y131680D01*
X286575Y131160D01*
X285840Y130425D01*
X285320Y129525D01*
X285050Y128520D01*
Y127480D01*
X285320Y126476D01*
X285840Y125575D01*
X286172Y125242D01*
X286215Y125178D01*
X286522Y124866D01*
X287032Y124285D01*
X287221Y124036D01*
X287379Y123799D01*
X287502Y123584D01*
X287589Y123395D01*
X287645Y123234D01*
X287674Y123103D01*
X287674Y123097D01*
Y121549D01*
X280451Y114325D01*
X272162D01*
Y116162D01*
X265838D01*
Y109838D01*
X272162D01*
Y111674D01*
X281000D01*
X281507Y111775D01*
X281937Y112063D01*
X289937Y120063D01*
X290225Y120493D01*
X290325Y121000D01*
Y123097D01*
X290326Y123103D01*
X290355Y123234D01*
X290411Y123395D01*
X290498Y123584D01*
X290620Y123799D01*
X290779Y124036D01*
X290968Y124285D01*
X291478Y124866D01*
X291785Y125178D01*
X291828Y125242D01*
X292161Y125575D01*
X292680Y126476D01*
X292950Y127480D01*
Y127951D01*
X292965Y128026D01*
X292968Y128463D01*
X293018Y129235D01*
X293061Y129545D01*
X293117Y129825D01*
X293182Y130063D01*
X293253Y130259D01*
X293328Y130412D01*
X293400Y130525D01*
X293404Y130530D01*
X294550Y131676D01*
X295050Y131469D01*
Y124050D01*
X302950D01*
Y131950D01*
X295463D01*
X295196Y132450D01*
X295225Y132493D01*
X295325Y133000D01*
Y144050D01*
X302950D01*
Y151950D01*
X295325D01*
Y156000D01*
X295225Y156507D01*
X294937Y156937D01*
X266961Y184914D01*
X266531Y185201D01*
X266024Y185302D01*
X224015D01*
X223943Y185307D01*
X223887Y185316D01*
X223592Y186028D01*
X222940Y186878D01*
X222091Y187530D01*
X221101Y187939D01*
X220039Y188079D01*
D02*
G37*
G36*
Y158079D02*
X217913D01*
X216851Y157939D01*
X215862Y157529D01*
X215012Y156878D01*
X214360Y156028D01*
X213950Y155038D01*
X213811Y153976D01*
X213950Y152915D01*
X214360Y151925D01*
X215012Y151075D01*
X215862Y150423D01*
X216851Y150013D01*
X217913Y149874D01*
X220039D01*
X221101Y150013D01*
X222091Y150423D01*
X222940Y151075D01*
X223592Y151925D01*
X224002Y152915D01*
X224142Y153976D01*
X224002Y155038D01*
X223592Y156028D01*
X222940Y156878D01*
X222091Y157529D01*
X221101Y157939D01*
X220039Y158079D01*
D02*
G37*
G36*
X299794Y211953D02*
X298806D01*
X297851Y211697D01*
X296996Y211203D01*
X296297Y210504D01*
X295803Y209648D01*
X295547Y208694D01*
Y207706D01*
X295803Y206751D01*
X296297Y205896D01*
X296996Y205197D01*
X297851Y204703D01*
X298806Y204447D01*
X299794D01*
X300748Y204703D01*
X301604Y205197D01*
X301901Y205494D01*
X301948Y205521D01*
X302030Y205593D01*
X302089Y205633D01*
X302176Y205678D01*
X302294Y205724D01*
X302442Y205768D01*
X302621Y205807D01*
X302819Y205838D01*
X303028Y205855D01*
X321829D01*
X338655Y189029D01*
Y162000D01*
X338833Y161103D01*
X339342Y160342D01*
X343502Y156182D01*
X344032Y155611D01*
X344422Y155125D01*
X344726Y154688D01*
X344853Y154466D01*
Y149854D01*
X353147D01*
Y158147D01*
X348534D01*
X348312Y158274D01*
X347884Y158572D01*
X346969Y159348D01*
X343345Y162971D01*
Y190000D01*
X343345Y190000D01*
X343167Y190897D01*
X342658Y191658D01*
X324458Y209858D01*
X323697Y210367D01*
X322800Y210545D01*
X302975D01*
X302828Y210560D01*
X302621Y210593D01*
X302442Y210632D01*
X302294Y210676D01*
X302176Y210722D01*
X302089Y210767D01*
X302030Y210807D01*
X301948Y210879D01*
X301901Y210906D01*
X301604Y211203D01*
X300748Y211697D01*
X299794Y211953D01*
D02*
G37*
G36*
X279546Y152150D02*
X279500D01*
Y148500D01*
X283150D01*
Y148546D01*
X282867Y149602D01*
X282320Y150548D01*
X281548Y151321D01*
X280602Y151867D01*
X279546Y152150D01*
D02*
G37*
G36*
X278500D02*
X278454D01*
X277398Y151867D01*
X276452Y151321D01*
X275679Y150548D01*
X275133Y149602D01*
X274850Y148546D01*
Y148500D01*
X278500D01*
Y152150D01*
D02*
G37*
G36*
X372066Y149500D02*
X370500D01*
Y147934D01*
X371190Y148220D01*
X371780Y148810D01*
X372066Y149500D01*
D02*
G37*
G36*
X369500D02*
X367934D01*
X368220Y148810D01*
X368810Y148220D01*
X369500Y147934D01*
Y149500D01*
D02*
G37*
G36*
X180500Y147066D02*
Y145500D01*
X182066D01*
X181780Y146190D01*
X181190Y146780D01*
X180500Y147066D01*
D02*
G37*
G36*
X179500D02*
X178810Y146780D01*
X178220Y146190D01*
X177934Y145500D01*
X179500D01*
Y147066D01*
D02*
G37*
G36*
X283150Y147500D02*
X279500D01*
Y143850D01*
X279546D01*
X280602Y144133D01*
X281548Y144679D01*
X282320Y145452D01*
X282867Y146398D01*
X283150Y147454D01*
Y147500D01*
D02*
G37*
G36*
X278500D02*
X274850D01*
Y147454D01*
X275133Y146398D01*
X275679Y145452D01*
X276452Y144679D01*
X277398Y144133D01*
X278454Y143850D01*
X278500D01*
Y147500D01*
D02*
G37*
G36*
X182066Y144500D02*
X180500D01*
Y142934D01*
X181190Y143220D01*
X181780Y143810D01*
X182066Y144500D01*
D02*
G37*
G36*
X179500D02*
X177934D01*
X178220Y143810D01*
X178810Y143220D01*
X179500Y142934D01*
Y144500D01*
D02*
G37*
G36*
X330500Y142066D02*
Y140500D01*
X332066D01*
X331780Y141190D01*
X331190Y141780D01*
X330500Y142066D01*
D02*
G37*
G36*
X329500D02*
X328810Y141780D01*
X328220Y141190D01*
X327934Y140500D01*
X329500D01*
Y142066D01*
D02*
G37*
G36*
X315500D02*
Y140500D01*
X317066D01*
X316780Y141190D01*
X316190Y141780D01*
X315500Y142066D01*
D02*
G37*
G36*
X314500D02*
X313810Y141780D01*
X313220Y141190D01*
X312934Y140500D01*
X314500D01*
Y142066D01*
D02*
G37*
G36*
X260500D02*
Y140500D01*
X262066D01*
X261780Y141190D01*
X261190Y141780D01*
X260500Y142066D01*
D02*
G37*
G36*
X259500D02*
X258810Y141780D01*
X258220Y141190D01*
X257934Y140500D01*
X259500D01*
Y142066D01*
D02*
G37*
G36*
X85500D02*
Y140500D01*
X87066D01*
X86780Y141190D01*
X86190Y141780D01*
X85500Y142066D01*
D02*
G37*
G36*
X84500D02*
X83811Y141780D01*
X83220Y141190D01*
X82934Y140500D01*
X84500D01*
Y142066D01*
D02*
G37*
G36*
X55500D02*
Y140500D01*
X57066D01*
X56780Y141190D01*
X56190Y141780D01*
X55500Y142066D01*
D02*
G37*
G36*
X54500D02*
X53811Y141780D01*
X53220Y141190D01*
X52934Y140500D01*
X54500D01*
Y142066D01*
D02*
G37*
G36*
X220039Y148079D02*
X217913D01*
X216851Y147939D01*
X215862Y147529D01*
X215012Y146878D01*
X214360Y146028D01*
X213950Y145038D01*
X213811Y143976D01*
X213950Y142914D01*
X214360Y141925D01*
X215012Y141075D01*
X215862Y140423D01*
X216851Y140013D01*
X217913Y139874D01*
X220039D01*
X221101Y140013D01*
X222091Y140423D01*
X222940Y141075D01*
X223592Y141925D01*
X224002Y142914D01*
X224142Y143976D01*
X224002Y145038D01*
X223592Y146028D01*
X222940Y146878D01*
X222091Y147529D01*
X221101Y147939D01*
X220039Y148079D01*
D02*
G37*
G36*
X160039D02*
X157913D01*
X156851Y147939D01*
X155862Y147529D01*
X155012Y146878D01*
X154360Y146028D01*
X154065Y145316D01*
X154009Y145307D01*
X153938Y145302D01*
X137976D01*
X137469Y145201D01*
X137039Y144914D01*
X121451Y129325D01*
X60000D01*
X59493Y129225D01*
X59063Y128937D01*
X47063Y116937D01*
X46775Y116507D01*
X46674Y116000D01*
Y105549D01*
X41451Y100326D01*
X26000D01*
X25493Y100225D01*
X25063Y99937D01*
X21373Y96247D01*
X21206Y96092D01*
X21072Y95984D01*
X21022Y95950D01*
X15050D01*
Y88050D01*
X22950D01*
Y94022D01*
X22978Y94063D01*
X23207Y94332D01*
X26549Y97675D01*
X42000D01*
X42507Y97775D01*
X42937Y98063D01*
X44237Y99362D01*
X44698Y99116D01*
X44675Y99000D01*
Y91549D01*
X43471Y90346D01*
X43375Y90361D01*
X43008Y90926D01*
X43150Y91454D01*
Y91500D01*
X39500D01*
Y87850D01*
X39546D01*
X40074Y87992D01*
X40639Y87625D01*
X40654Y87529D01*
X39451Y86326D01*
X26000D01*
X25493Y86225D01*
X25063Y85937D01*
X21373Y82247D01*
X21206Y82092D01*
X21072Y81984D01*
X21022Y81950D01*
X15050D01*
Y74050D01*
X22950D01*
Y80022D01*
X22978Y80063D01*
X23207Y80332D01*
X26549Y83675D01*
X40000D01*
X40507Y83775D01*
X40937Y84063D01*
X46937Y90063D01*
X47175Y90418D01*
X47494Y90398D01*
X47675Y90335D01*
Y79549D01*
X40451Y72325D01*
X26000D01*
X25493Y72225D01*
X25063Y71937D01*
X21373Y68247D01*
X21206Y68092D01*
X21072Y67984D01*
X21022Y67950D01*
X15050D01*
Y60050D01*
X22950D01*
Y66022D01*
X22978Y66063D01*
X23207Y66332D01*
X26549Y69674D01*
X41000D01*
X41507Y69775D01*
X41937Y70063D01*
X49937Y78063D01*
X50225Y78493D01*
X50326Y79000D01*
Y95451D01*
X54549Y99674D01*
X66000D01*
X66507Y99775D01*
X66937Y100063D01*
X89525Y122651D01*
X153938D01*
X154009Y122645D01*
X154065Y122637D01*
X154360Y121925D01*
X155012Y121075D01*
X155862Y120423D01*
X156851Y120013D01*
X157913Y119874D01*
X160039D01*
X161101Y120013D01*
X162091Y120423D01*
X162941Y121075D01*
X163593Y121925D01*
X164002Y122915D01*
X164142Y123976D01*
X164002Y125038D01*
X163593Y126028D01*
X162941Y126877D01*
X162091Y127530D01*
X161101Y127939D01*
X160039Y128079D01*
X157913D01*
X156851Y127939D01*
X155862Y127530D01*
X155012Y126877D01*
X154360Y126028D01*
X154065Y125315D01*
X154009Y125307D01*
X153938Y125302D01*
X129830D01*
X129638Y125764D01*
X136525Y132651D01*
X153938D01*
X154009Y132645D01*
X154065Y132637D01*
X154360Y131925D01*
X155012Y131075D01*
X155862Y130423D01*
X156851Y130013D01*
X157913Y129874D01*
X160039D01*
X161101Y130013D01*
X162091Y130423D01*
X162941Y131075D01*
X163593Y131925D01*
X164002Y132914D01*
X164142Y133976D01*
X164002Y135038D01*
X163593Y136028D01*
X162941Y136878D01*
X162091Y137530D01*
X161101Y137939D01*
X160039Y138079D01*
X157913D01*
X156851Y137939D01*
X155862Y137530D01*
X155012Y136878D01*
X154360Y136028D01*
X154065Y135316D01*
X154009Y135307D01*
X153938Y135302D01*
X135976D01*
X135469Y135201D01*
X135039Y134914D01*
X127451Y127325D01*
X123853D01*
X123662Y127787D01*
X138525Y142651D01*
X153938D01*
X154009Y142645D01*
X154065Y142637D01*
X154360Y141925D01*
X155012Y141075D01*
X155862Y140423D01*
X156851Y140013D01*
X157913Y139874D01*
X160039D01*
X161101Y140013D01*
X162091Y140423D01*
X162941Y141075D01*
X163593Y141925D01*
X164002Y142914D01*
X164142Y143976D01*
X164002Y145038D01*
X163593Y146028D01*
X162941Y146878D01*
X162091Y147529D01*
X161101Y147939D01*
X160039Y148079D01*
D02*
G37*
G36*
X332066Y139500D02*
X330500D01*
Y137934D01*
X331190Y138220D01*
X331780Y138810D01*
X332066Y139500D01*
D02*
G37*
G36*
X329500D02*
X327934D01*
X328220Y138810D01*
X328810Y138220D01*
X329500Y137934D01*
Y139500D01*
D02*
G37*
G36*
X317066D02*
X315500D01*
Y137934D01*
X316190Y138220D01*
X316780Y138810D01*
X317066Y139500D01*
D02*
G37*
G36*
X314500D02*
X312934D01*
X313220Y138810D01*
X313810Y138220D01*
X314500Y137934D01*
Y139500D01*
D02*
G37*
G36*
X262066D02*
X260500D01*
Y137934D01*
X261190Y138220D01*
X261780Y138810D01*
X262066Y139500D01*
D02*
G37*
G36*
X259500D02*
X257934D01*
X258220Y138810D01*
X258810Y138220D01*
X259500Y137934D01*
Y139500D01*
D02*
G37*
G36*
X87066D02*
X85500D01*
Y137934D01*
X86190Y138220D01*
X86780Y138810D01*
X87066Y139500D01*
D02*
G37*
G36*
X84500D02*
X82934D01*
X83220Y138810D01*
X83811Y138220D01*
X84500Y137934D01*
Y139500D01*
D02*
G37*
G36*
X57066D02*
X55500D01*
Y137934D01*
X56190Y138220D01*
X56780Y138810D01*
X57066Y139500D01*
D02*
G37*
G36*
X54500D02*
X52934D01*
X53220Y138810D01*
X53811Y138220D01*
X54500Y137934D01*
Y139500D01*
D02*
G37*
G36*
X370500Y137066D02*
Y135500D01*
X372066D01*
X371780Y136190D01*
X371190Y136780D01*
X370500Y137066D01*
D02*
G37*
G36*
X369500D02*
X368810Y136780D01*
X368220Y136190D01*
X367934Y135500D01*
X369500D01*
Y137066D01*
D02*
G37*
G36*
X245500D02*
Y135500D01*
X247066D01*
X246780Y136190D01*
X246190Y136780D01*
X245500Y137066D01*
D02*
G37*
G36*
X244500D02*
X243810Y136780D01*
X243220Y136190D01*
X242934Y135500D01*
X244500D01*
Y137066D01*
D02*
G37*
G36*
X247066Y134500D02*
X245500D01*
Y132934D01*
X246190Y133220D01*
X246780Y133810D01*
X247066Y134500D01*
D02*
G37*
G36*
X244500D02*
X242934D01*
X243220Y133810D01*
X243810Y133220D01*
X244500Y132934D01*
Y134500D01*
D02*
G37*
G36*
X372066D02*
X370500D01*
Y132934D01*
X371190Y133220D01*
X371780Y133810D01*
X372066Y134500D01*
D02*
G37*
G36*
X369500D02*
X367934D01*
X368220Y133810D01*
X368810Y133220D01*
X369500Y132934D01*
Y134500D01*
D02*
G37*
G36*
X114873Y143635D02*
X113552D01*
X112257Y143377D01*
X111036Y142871D01*
X109938Y142138D01*
X109004Y141204D01*
X108270Y140105D01*
X107765Y138885D01*
X107507Y137590D01*
Y136269D01*
X107765Y134973D01*
X108270Y133753D01*
X109004Y132655D01*
X109938Y131721D01*
X111036Y130987D01*
X112257Y130481D01*
X113552Y130224D01*
X114873D01*
X116168Y130481D01*
X117389Y130987D01*
X118487Y131721D01*
X119421Y132655D01*
X120155Y133753D01*
X120660Y134973D01*
X120918Y136269D01*
Y137590D01*
X120660Y138885D01*
X120155Y140105D01*
X119421Y141204D01*
X118487Y142138D01*
X117389Y142871D01*
X116168Y143377D01*
X114873Y143635D01*
D02*
G37*
G36*
X25188D02*
X23867D01*
X22572Y143377D01*
X21351Y142871D01*
X20253Y142138D01*
X19319Y141204D01*
X18585Y140105D01*
X18080Y138885D01*
X17822Y137590D01*
Y136269D01*
X18080Y134973D01*
X18585Y133753D01*
X19319Y132655D01*
X20253Y131721D01*
X21351Y130987D01*
X22572Y130481D01*
X23867Y130224D01*
X25188D01*
X26484Y130481D01*
X27704Y130987D01*
X28802Y131721D01*
X29736Y132655D01*
X30470Y133753D01*
X30975Y134973D01*
X31233Y136269D01*
Y137590D01*
X30975Y138885D01*
X30470Y140105D01*
X29736Y141204D01*
X28802Y142138D01*
X27704Y142871D01*
X26484Y143377D01*
X25188Y143635D01*
D02*
G37*
G36*
X220039Y138079D02*
X217913D01*
X216851Y137939D01*
X215862Y137530D01*
X215012Y136878D01*
X214360Y136028D01*
X213950Y135038D01*
X213811Y133976D01*
X213950Y132914D01*
X214360Y131925D01*
X215012Y131075D01*
X215862Y130423D01*
X216851Y130013D01*
X217913Y129874D01*
X220039D01*
X221101Y130013D01*
X222091Y130423D01*
X222940Y131075D01*
X223592Y131925D01*
X224002Y132914D01*
X224142Y133976D01*
X224002Y135038D01*
X223592Y136028D01*
X222940Y136878D01*
X222091Y137530D01*
X221101Y137939D01*
X220039Y138079D01*
D02*
G37*
G36*
X279546Y132150D02*
X279500D01*
Y128500D01*
X283150D01*
Y128546D01*
X282867Y129602D01*
X282320Y130548D01*
X281548Y131321D01*
X280602Y131867D01*
X279546Y132150D01*
D02*
G37*
G36*
X278500D02*
X278454D01*
X277398Y131867D01*
X276452Y131321D01*
X275679Y130548D01*
X275133Y129602D01*
X274850Y128546D01*
Y128500D01*
X278500D01*
Y132150D01*
D02*
G37*
G36*
X283150Y127500D02*
X279500D01*
Y123850D01*
X279546D01*
X280602Y124133D01*
X281548Y124680D01*
X282320Y125452D01*
X282867Y126398D01*
X283150Y127454D01*
Y127500D01*
D02*
G37*
G36*
X278500D02*
X274850D01*
Y127454D01*
X275133Y126398D01*
X275679Y125452D01*
X276452Y124680D01*
X277398Y124133D01*
X278454Y123850D01*
X278500D01*
Y127500D01*
D02*
G37*
G36*
X220039Y128079D02*
X217913D01*
X216851Y127939D01*
X215862Y127530D01*
X215012Y126877D01*
X214360Y126028D01*
X213950Y125038D01*
X213811Y123976D01*
X213950Y122915D01*
X214360Y121925D01*
X215012Y121075D01*
X215862Y120423D01*
X216851Y120013D01*
X217913Y119874D01*
X220039D01*
X221101Y120013D01*
X222091Y120423D01*
X222940Y121075D01*
X223592Y121925D01*
X224002Y122915D01*
X224142Y123976D01*
X224002Y125038D01*
X223592Y126028D01*
X222940Y126877D01*
X222091Y127530D01*
X221101Y127939D01*
X220039Y128079D01*
D02*
G37*
G36*
X349572Y120346D02*
X349500D01*
Y116500D01*
X353346D01*
Y116572D01*
X353050Y117678D01*
X352478Y118669D01*
X351669Y119478D01*
X350678Y120050D01*
X349572Y120346D01*
D02*
G37*
G36*
X348500D02*
X348428D01*
X347322Y120050D01*
X346331Y119478D01*
X345522Y118669D01*
X344950Y117678D01*
X344654Y116572D01*
Y116500D01*
X348500D01*
Y120346D01*
D02*
G37*
G36*
X245500Y117066D02*
Y115500D01*
X247066D01*
X246780Y116190D01*
X246190Y116780D01*
X245500Y117066D01*
D02*
G37*
G36*
X244500D02*
X243810Y116780D01*
X243220Y116190D01*
X242934Y115500D01*
X244500D01*
Y117066D01*
D02*
G37*
G36*
X205500D02*
Y115500D01*
X207066D01*
X206780Y116190D01*
X206190Y116780D01*
X205500Y117066D01*
D02*
G37*
G36*
X204500D02*
X203810Y116780D01*
X203220Y116190D01*
X202934Y115500D01*
X204500D01*
Y117066D01*
D02*
G37*
G36*
X180500D02*
Y115500D01*
X182066D01*
X181780Y116190D01*
X181190Y116780D01*
X180500Y117066D01*
D02*
G37*
G36*
X179500D02*
X178810Y116780D01*
X178220Y116190D01*
X177934Y115500D01*
X179500D01*
Y117066D01*
D02*
G37*
G36*
X247066Y114500D02*
X245500D01*
Y112934D01*
X246190Y113220D01*
X246780Y113810D01*
X247066Y114500D01*
D02*
G37*
G36*
X244500D02*
X242934D01*
X243220Y113810D01*
X243810Y113220D01*
X244500Y112934D01*
Y114500D01*
D02*
G37*
G36*
X207066D02*
X205500D01*
Y112934D01*
X206190Y113220D01*
X206780Y113810D01*
X207066Y114500D01*
D02*
G37*
G36*
X204500D02*
X202934D01*
X203220Y113810D01*
X203810Y113220D01*
X204500Y112934D01*
Y114500D01*
D02*
G37*
G36*
X182066D02*
X180500D01*
Y112934D01*
X181190Y113220D01*
X181780Y113810D01*
X182066Y114500D01*
D02*
G37*
G36*
X179500D02*
X177934D01*
X178220Y113810D01*
X178810Y113220D01*
X179500Y112934D01*
Y114500D01*
D02*
G37*
G36*
X353346Y115500D02*
X349500D01*
Y111653D01*
X349572D01*
X350678Y111950D01*
X351669Y112522D01*
X352478Y113331D01*
X353050Y114322D01*
X353346Y115428D01*
Y115500D01*
D02*
G37*
G36*
X348500D02*
X344654D01*
Y115428D01*
X344950Y114322D01*
X345522Y113331D01*
X346331Y112522D01*
X347322Y111950D01*
X348428Y111653D01*
X348500D01*
Y115500D01*
D02*
G37*
G36*
X220039Y118079D02*
X217913D01*
X216851Y117939D01*
X215862Y117529D01*
X215012Y116877D01*
X214360Y116028D01*
X213950Y115038D01*
X213811Y113976D01*
X213950Y112915D01*
X214360Y111925D01*
X215012Y111075D01*
X215862Y110423D01*
X216851Y110013D01*
X217913Y109874D01*
X220039D01*
X221101Y110013D01*
X222091Y110423D01*
X222940Y111075D01*
X223592Y111925D01*
X224002Y112915D01*
X224142Y113976D01*
X224002Y115038D01*
X223592Y116028D01*
X222940Y116877D01*
X222091Y117529D01*
X221101Y117939D01*
X220039Y118079D01*
D02*
G37*
G36*
X160039Y118079D02*
X157913D01*
X156851Y117939D01*
X155862Y117529D01*
X155012Y116877D01*
X154360Y116028D01*
X153950Y115038D01*
X153811Y113976D01*
X153950Y112915D01*
X154360Y111925D01*
X155012Y111075D01*
X155862Y110423D01*
X156851Y110013D01*
X157913Y109874D01*
X160039D01*
X161101Y110013D01*
X162091Y110423D01*
X162941Y111075D01*
X163593Y111925D01*
X164002Y112915D01*
X164142Y113976D01*
X164002Y115038D01*
X163593Y116028D01*
X162941Y116877D01*
X162091Y117529D01*
X161101Y117939D01*
X160039Y118079D01*
D02*
G37*
G36*
X309416Y116162D02*
X308584D01*
X307779Y115947D01*
X307058Y115530D01*
X306470Y114942D01*
X306053Y114221D01*
X305838Y113416D01*
Y112584D01*
X306053Y111779D01*
X306470Y111058D01*
X307058Y110470D01*
X307779Y110053D01*
X308584Y109838D01*
X309416D01*
X310221Y110053D01*
X310942Y110470D01*
X311530Y111058D01*
X311947Y111779D01*
X312162Y112584D01*
Y113416D01*
X311947Y114221D01*
X311530Y114942D01*
X310942Y115530D01*
X310221Y115947D01*
X309416Y116162D01*
D02*
G37*
G36*
X108728Y114528D02*
X108500D01*
Y109500D01*
X113528D01*
Y109728D01*
X113151Y111134D01*
X112423Y112394D01*
X111394Y113423D01*
X110134Y114151D01*
X108728Y114528D01*
D02*
G37*
G36*
X107500D02*
X107272D01*
X105866Y114151D01*
X104606Y113423D01*
X103577Y112394D01*
X102849Y111134D01*
X102472Y109728D01*
Y109500D01*
X107500D01*
Y114528D01*
D02*
G37*
G36*
X39546Y110150D02*
X39500D01*
Y106500D01*
X43150D01*
Y106546D01*
X42867Y107602D01*
X42320Y108548D01*
X41548Y109320D01*
X40602Y109867D01*
X39546Y110150D01*
D02*
G37*
G36*
X38500D02*
X38454D01*
X37398Y109867D01*
X36452Y109320D01*
X35680Y108548D01*
X35133Y107602D01*
X34850Y106546D01*
Y106500D01*
X38500D01*
Y110150D01*
D02*
G37*
G36*
X160039Y108281D02*
X159476D01*
Y104476D01*
X164278D01*
X164197Y105090D01*
X163767Y106129D01*
X163083Y107020D01*
X162192Y107704D01*
X161153Y108134D01*
X160039Y108281D01*
D02*
G37*
G36*
X158476D02*
X157913D01*
X156799Y108134D01*
X155761Y107704D01*
X154870Y107020D01*
X154185Y106129D01*
X153755Y105090D01*
X153675Y104476D01*
X158476D01*
Y108281D01*
D02*
G37*
G36*
X113528Y108500D02*
X108500D01*
Y103472D01*
X108728D01*
X110134Y103849D01*
X111394Y104577D01*
X112423Y105606D01*
X113151Y106866D01*
X113528Y108272D01*
Y108500D01*
D02*
G37*
G36*
X107500D02*
X102472D01*
Y108272D01*
X102849Y106866D01*
X103577Y105606D01*
X104606Y104577D01*
X105866Y103849D01*
X107272Y103472D01*
X107500D01*
Y108500D01*
D02*
G37*
G36*
X29520Y109950D02*
X28480D01*
X27476Y109680D01*
X26575Y109160D01*
X25839Y108425D01*
X25320Y107525D01*
X25050Y106520D01*
Y105480D01*
X25320Y104475D01*
X25839Y103575D01*
X26575Y102840D01*
X27476Y102320D01*
X28480Y102050D01*
X29520D01*
X30525Y102320D01*
X31425Y102840D01*
X32160Y103575D01*
X32680Y104475D01*
X32950Y105480D01*
Y106520D01*
X32680Y107525D01*
X32160Y108425D01*
X31425Y109160D01*
X30525Y109680D01*
X29520Y109950D01*
D02*
G37*
G36*
X249878Y121900D02*
X249122D01*
X248424Y121611D01*
X247889Y121076D01*
X247600Y120378D01*
Y119622D01*
X247889Y118924D01*
X248424Y118389D01*
X249122Y118100D01*
X249165D01*
X262383Y104883D01*
X262895Y104540D01*
X263500Y104420D01*
X343919D01*
X344083Y104391D01*
X344279Y104334D01*
X344490Y104250D01*
X344715Y104137D01*
X344955Y103993D01*
X345198Y103823D01*
X345752Y103356D01*
X346040Y103074D01*
X346103Y103033D01*
X346454Y102682D01*
X347399Y102136D01*
X348454Y101854D01*
X349546D01*
X350601Y102136D01*
X351546Y102682D01*
X352318Y103454D01*
X352864Y104400D01*
X353147Y105454D01*
Y106546D01*
X352864Y107600D01*
X352318Y108546D01*
X351546Y109318D01*
X350601Y109864D01*
X349546Y110146D01*
X348454D01*
X347399Y109864D01*
X346454Y109318D01*
X346103Y108967D01*
X346040Y108926D01*
X345744Y108637D01*
X345470Y108394D01*
X345207Y108184D01*
X344955Y108007D01*
X344715Y107863D01*
X344490Y107750D01*
X344279Y107666D01*
X344083Y107609D01*
X343919Y107580D01*
X264155D01*
X251400Y120335D01*
Y120378D01*
X251111Y121076D01*
X250576Y121611D01*
X249878Y121900D01*
D02*
G37*
G36*
X43150Y105500D02*
X39500D01*
Y101850D01*
X39546D01*
X40602Y102133D01*
X41548Y102680D01*
X42320Y103452D01*
X42867Y104398D01*
X43150Y105454D01*
Y105500D01*
D02*
G37*
G36*
X38500D02*
X34850D01*
Y105454D01*
X35133Y104398D01*
X35680Y103452D01*
X36452Y102680D01*
X37398Y102133D01*
X38454Y101850D01*
X38500D01*
Y105500D01*
D02*
G37*
G36*
X220039Y108079D02*
X217913D01*
X216851Y107939D01*
X215862Y107529D01*
X215012Y106878D01*
X214360Y106028D01*
X213950Y105038D01*
X213811Y103976D01*
X213950Y102915D01*
X214360Y101925D01*
X215012Y101075D01*
X215862Y100423D01*
X216851Y100013D01*
X217913Y99874D01*
X220039D01*
X221101Y100013D01*
X222091Y100423D01*
X222940Y101075D01*
X223592Y101925D01*
X224002Y102915D01*
X224142Y103976D01*
X224002Y105038D01*
X223592Y106028D01*
X222940Y106878D01*
X222091Y107529D01*
X221101Y107939D01*
X220039Y108079D01*
D02*
G37*
G36*
X164278Y103476D02*
X159476D01*
Y99672D01*
X160039D01*
X161153Y99818D01*
X162192Y100249D01*
X163083Y100933D01*
X163767Y101824D01*
X164197Y102862D01*
X164278Y103476D01*
D02*
G37*
G36*
X158476D02*
X153675D01*
X153755Y102862D01*
X154185Y101824D01*
X154870Y100933D01*
X155761Y100249D01*
X156799Y99818D01*
X157913Y99672D01*
X158476D01*
Y103476D01*
D02*
G37*
G36*
X265941Y193756D02*
X265922Y193753D01*
X259247D01*
Y186247D01*
X265922D01*
X265941Y186244D01*
X265959Y186247D01*
X266753D01*
Y186981D01*
X266771Y187145D01*
X266790Y187199D01*
X266826Y187250D01*
X266903Y187319D01*
X267049Y187404D01*
X267273Y187492D01*
X267578Y187571D01*
X267960Y187632D01*
X268229Y187655D01*
X313107D01*
X318777Y181985D01*
X319307Y181414D01*
X319697Y180928D01*
X320002Y180491D01*
X320129Y180270D01*
Y176050D01*
X321001D01*
X321183Y176031D01*
X321251Y176007D01*
X321311Y175967D01*
X321385Y175887D01*
X321474Y175743D01*
X321564Y175521D01*
X321646Y175219D01*
X321709Y174839D01*
X321734Y174560D01*
Y160921D01*
X321912Y160024D01*
X322421Y159263D01*
X359655Y122029D01*
Y100005D01*
X359587Y99621D01*
X359478Y99295D01*
X359339Y99036D01*
X359170Y98830D01*
X358964Y98661D01*
X358705Y98522D01*
X358379Y98413D01*
X357995Y98345D01*
X354634D01*
X354353Y98370D01*
X353971Y98433D01*
X353667Y98515D01*
X353444Y98606D01*
X353298Y98694D01*
X353218Y98769D01*
X353178Y98829D01*
X353154Y98897D01*
X353147Y98964D01*
Y100146D01*
X344853D01*
Y91853D01*
X353147D01*
Y93036D01*
X353154Y93103D01*
X353178Y93171D01*
X353218Y93231D01*
X353298Y93306D01*
X353444Y93394D01*
X353667Y93485D01*
X353971Y93567D01*
X354353Y93630D01*
X354634Y93655D01*
X357995D01*
X358379Y93587D01*
X358705Y93478D01*
X358964Y93339D01*
X359170Y93170D01*
X359339Y92964D01*
X359478Y92705D01*
X359587Y92379D01*
X359655Y91995D01*
Y68971D01*
X343029Y52345D01*
X184429D01*
X183532Y52166D01*
X182771Y51658D01*
X177182Y46069D01*
X176611Y45539D01*
X176125Y45149D01*
X175688Y44845D01*
X175466Y44717D01*
X171247D01*
Y36818D01*
X179147D01*
Y41037D01*
X179274Y41259D01*
X179572Y41686D01*
X180348Y42602D01*
X185400Y47655D01*
X344000D01*
X344897Y47833D01*
X345658Y48342D01*
X363658Y66342D01*
X363658Y66342D01*
X364167Y67103D01*
X364345Y68000D01*
Y96000D01*
Y123000D01*
X364167Y123897D01*
X363658Y124658D01*
X326424Y161893D01*
Y174560D01*
X326448Y174839D01*
X326512Y175219D01*
X326593Y175521D01*
X326684Y175743D01*
X326772Y175887D01*
X326846Y175967D01*
X326906Y176007D01*
X326975Y176031D01*
X327156Y176050D01*
X328028D01*
Y183950D01*
X323809D01*
X323587Y184077D01*
X323160Y184375D01*
X322244Y185151D01*
X315737Y191658D01*
X314976Y192167D01*
X314079Y192345D01*
X268229D01*
X267960Y192368D01*
X267578Y192429D01*
X267273Y192508D01*
X267049Y192596D01*
X266903Y192681D01*
X266826Y192750D01*
X266790Y192801D01*
X266771Y192855D01*
X266753Y193019D01*
Y193753D01*
X265959D01*
X265941Y193756D01*
D02*
G37*
G36*
X255500Y97066D02*
Y95500D01*
X257066D01*
X256780Y96189D01*
X256190Y96780D01*
X255500Y97066D01*
D02*
G37*
G36*
X254500D02*
X253810Y96780D01*
X253220Y96189D01*
X252934Y95500D01*
X254500D01*
Y97066D01*
D02*
G37*
G36*
X257066Y94500D02*
X255500D01*
Y92934D01*
X256190Y93220D01*
X256780Y93810D01*
X257066Y94500D01*
D02*
G37*
G36*
X254500D02*
X252934D01*
X253220Y93810D01*
X253810Y93220D01*
X254500Y92934D01*
Y94500D01*
D02*
G37*
G36*
X39546Y96150D02*
X39500D01*
Y92500D01*
X43150D01*
Y92546D01*
X42867Y93602D01*
X42320Y94548D01*
X41548Y95320D01*
X40602Y95867D01*
X39546Y96150D01*
D02*
G37*
G36*
X38500D02*
X38454D01*
X37398Y95867D01*
X36452Y95320D01*
X35680Y94548D01*
X35133Y93602D01*
X34850Y92546D01*
Y92500D01*
X38500D01*
Y96150D01*
D02*
G37*
G36*
X224107Y98044D02*
X213846D01*
Y89909D01*
X224107D01*
Y98044D01*
D02*
G37*
G36*
X78520Y95950D02*
X77480D01*
X76476Y95680D01*
X75575Y95161D01*
X74840Y94425D01*
X74320Y93524D01*
X74050Y92520D01*
Y91480D01*
X74320Y90475D01*
X74840Y89575D01*
X75575Y88840D01*
X76476Y88320D01*
X77480Y88050D01*
X78520D01*
X79524Y88320D01*
X80425Y88840D01*
X81160Y89575D01*
X81680Y90475D01*
X81950Y91480D01*
Y92520D01*
X81680Y93524D01*
X81160Y94425D01*
X80425Y95161D01*
X79524Y95680D01*
X78520Y95950D01*
D02*
G37*
G36*
X68520D02*
X67480D01*
X66475Y95680D01*
X65575Y95161D01*
X64840Y94425D01*
X64320Y93524D01*
X64050Y92520D01*
Y91480D01*
X64320Y90475D01*
X64840Y89575D01*
X65575Y88840D01*
X66475Y88320D01*
X67480Y88050D01*
X68520D01*
X69525Y88320D01*
X70425Y88840D01*
X71161Y89575D01*
X71680Y90475D01*
X71950Y91480D01*
Y92520D01*
X71680Y93524D01*
X71161Y94425D01*
X70425Y95161D01*
X69525Y95680D01*
X68520Y95950D01*
D02*
G37*
G36*
X61950D02*
X54050D01*
Y88050D01*
X61950D01*
Y95950D01*
D02*
G37*
G36*
X29520D02*
X28480D01*
X27476Y95680D01*
X26575Y95161D01*
X25839Y94425D01*
X25320Y93524D01*
X25050Y92520D01*
Y91480D01*
X25320Y90475D01*
X25839Y89575D01*
X26575Y88840D01*
X27476Y88320D01*
X28480Y88050D01*
X29520D01*
X30525Y88320D01*
X31425Y88840D01*
X32160Y89575D01*
X32680Y90475D01*
X32950Y91480D01*
Y92520D01*
X32680Y93524D01*
X32160Y94425D01*
X31425Y95161D01*
X30525Y95680D01*
X29520Y95950D01*
D02*
G37*
G36*
X38500Y91500D02*
X34850D01*
Y91454D01*
X35133Y90398D01*
X35680Y89452D01*
X36452Y88679D01*
X37398Y88133D01*
X38454Y87850D01*
X38500D01*
Y91500D01*
D02*
G37*
G36*
X321308Y90367D02*
X317855D01*
Y86914D01*
X321308D01*
Y90367D01*
D02*
G37*
G36*
X316855D02*
X313402D01*
Y86914D01*
X316855D01*
Y90367D01*
D02*
G37*
G36*
X245500Y87066D02*
Y85500D01*
X247066D01*
X246780Y86190D01*
X246190Y86780D01*
X245500Y87066D01*
D02*
G37*
G36*
X244500D02*
X243810Y86780D01*
X243220Y86190D01*
X242934Y85500D01*
X244500D01*
Y87066D01*
D02*
G37*
G36*
X247066Y84500D02*
X245500D01*
Y82934D01*
X246190Y83220D01*
X246780Y83811D01*
X247066Y84500D01*
D02*
G37*
G36*
X244500D02*
X242934D01*
X243220Y83811D01*
X243810Y83220D01*
X244500Y82934D01*
Y84500D01*
D02*
G37*
G36*
X297849Y90167D02*
X296861D01*
X295907Y89911D01*
X295051Y89417D01*
X294352Y88718D01*
X293858Y87863D01*
X293602Y86908D01*
Y85920D01*
X293858Y84966D01*
X294352Y84110D01*
X295051Y83411D01*
X295907Y82917D01*
X296861Y82661D01*
X297849D01*
X298804Y82917D01*
X299659Y83411D01*
X300358Y84110D01*
X300852Y84966D01*
X301108Y85920D01*
Y86908D01*
X300852Y87863D01*
X300358Y88718D01*
X299659Y89417D01*
X298804Y89911D01*
X297849Y90167D01*
D02*
G37*
G36*
X321308Y85914D02*
X317855D01*
Y82461D01*
X321308D01*
Y85914D01*
D02*
G37*
G36*
X316855D02*
X313402D01*
Y82461D01*
X316855D01*
Y85914D01*
D02*
G37*
G36*
X180500Y82066D02*
Y80500D01*
X182066D01*
X181780Y81190D01*
X181190Y81780D01*
X180500Y82066D01*
D02*
G37*
G36*
X179500D02*
X178810Y81780D01*
X178220Y81190D01*
X177934Y80500D01*
X179500D01*
Y82066D01*
D02*
G37*
G36*
X130500D02*
Y80500D01*
X132066D01*
X131780Y81190D01*
X131190Y81780D01*
X130500Y82066D01*
D02*
G37*
G36*
X129500D02*
X128810Y81780D01*
X128220Y81190D01*
X127934Y80500D01*
X129500D01*
Y82066D01*
D02*
G37*
G36*
X39546Y82150D02*
X39500D01*
Y78500D01*
X43150D01*
Y78546D01*
X42867Y79602D01*
X42320Y80548D01*
X41548Y81321D01*
X40602Y81867D01*
X39546Y82150D01*
D02*
G37*
G36*
X38500D02*
X38454D01*
X37398Y81867D01*
X36452Y81321D01*
X35680Y80548D01*
X35133Y79602D01*
X34850Y78546D01*
Y78500D01*
X38500D01*
Y82150D01*
D02*
G37*
G36*
X68546Y82150D02*
X68500D01*
Y78500D01*
X72150D01*
Y78546D01*
X71867Y79602D01*
X71320Y80548D01*
X70548Y81321D01*
X69602Y81867D01*
X68546Y82150D01*
D02*
G37*
G36*
X67500D02*
X67454D01*
X66398Y81867D01*
X65452Y81321D01*
X64679Y80548D01*
X64133Y79602D01*
X63850Y78546D01*
Y78500D01*
X67500D01*
Y82150D01*
D02*
G37*
G36*
X78546Y82150D02*
X78500D01*
Y78500D01*
X82150D01*
Y78546D01*
X81867Y79602D01*
X81321Y80548D01*
X80548Y81321D01*
X79602Y81867D01*
X78546Y82150D01*
D02*
G37*
G36*
X77500D02*
X77454D01*
X76398Y81867D01*
X75452Y81321D01*
X74679Y80548D01*
X74133Y79602D01*
X73850Y78546D01*
Y78500D01*
X77500D01*
Y82150D01*
D02*
G37*
G36*
X62150D02*
X58500D01*
Y78500D01*
X62150D01*
Y82150D01*
D02*
G37*
G36*
X57500D02*
X53850D01*
Y78500D01*
X57500D01*
Y82150D01*
D02*
G37*
G36*
X182066Y79500D02*
X180500D01*
Y77934D01*
X181190Y78220D01*
X181780Y78811D01*
X182066Y79500D01*
D02*
G37*
G36*
X179500D02*
X177934D01*
X178220Y78811D01*
X178810Y78220D01*
X179500Y77934D01*
Y79500D01*
D02*
G37*
G36*
X132066D02*
X130500D01*
Y77934D01*
X131190Y78220D01*
X131780Y78811D01*
X132066Y79500D01*
D02*
G37*
G36*
X129500D02*
X127934D01*
X128220Y78811D01*
X128810Y78220D01*
X129500Y77934D01*
Y79500D01*
D02*
G37*
G36*
X29520Y81950D02*
X28480D01*
X27476Y81680D01*
X26575Y81160D01*
X25839Y80425D01*
X25320Y79524D01*
X25050Y78520D01*
Y77480D01*
X25320Y76476D01*
X25839Y75575D01*
X26575Y74840D01*
X27476Y74320D01*
X28480Y74050D01*
X29520D01*
X30525Y74320D01*
X31425Y74840D01*
X32160Y75575D01*
X32680Y76476D01*
X32950Y77480D01*
Y78520D01*
X32680Y79524D01*
X32160Y80425D01*
X31425Y81160D01*
X30525Y81680D01*
X29520Y81950D01*
D02*
G37*
G36*
X43150Y77500D02*
X39500D01*
Y73850D01*
X39546D01*
X40602Y74133D01*
X41548Y74679D01*
X42320Y75452D01*
X42867Y76398D01*
X43150Y77454D01*
Y77500D01*
D02*
G37*
G36*
X38500D02*
X34850D01*
Y77454D01*
X35133Y76398D01*
X35680Y75452D01*
X36452Y74679D01*
X37398Y74133D01*
X38454Y73850D01*
X38500D01*
Y77500D01*
D02*
G37*
G36*
X72150Y77500D02*
X68500D01*
Y73850D01*
X68546D01*
X69602Y74133D01*
X70548Y74679D01*
X71320Y75452D01*
X71867Y76398D01*
X72150Y77454D01*
Y77500D01*
D02*
G37*
G36*
X67500D02*
X63850D01*
Y77454D01*
X64133Y76398D01*
X64679Y75452D01*
X65452Y74679D01*
X66398Y74133D01*
X67454Y73850D01*
X67500D01*
Y77500D01*
D02*
G37*
G36*
X82150Y77500D02*
X78500D01*
Y73850D01*
X78546D01*
X79602Y74133D01*
X80548Y74679D01*
X81321Y75452D01*
X81867Y76398D01*
X82150Y77454D01*
Y77500D01*
D02*
G37*
G36*
X77500D02*
X73850D01*
Y77454D01*
X74133Y76398D01*
X74679Y75452D01*
X75452Y74679D01*
X76398Y74133D01*
X77454Y73850D01*
X77500D01*
Y77500D01*
D02*
G37*
G36*
X62150D02*
X58500D01*
Y73850D01*
X62150D01*
Y77500D01*
D02*
G37*
G36*
X57500D02*
X53850D01*
Y73850D01*
X57500D01*
Y77500D01*
D02*
G37*
G36*
X272162Y73162D02*
X265838D01*
Y66838D01*
X272162D01*
Y73162D01*
D02*
G37*
G36*
X260162D02*
X253838D01*
Y66838D01*
X260162D01*
Y73162D01*
D02*
G37*
G36*
X115500Y67066D02*
Y65500D01*
X117066D01*
X116780Y66189D01*
X116190Y66780D01*
X115500Y67066D01*
D02*
G37*
G36*
X114500D02*
X113810Y66780D01*
X113220Y66189D01*
X112934Y65500D01*
X114500D01*
Y67066D01*
D02*
G37*
G36*
X100500D02*
Y65500D01*
X102066D01*
X101780Y66189D01*
X101189Y66780D01*
X100500Y67066D01*
D02*
G37*
G36*
X99500D02*
X98810Y66780D01*
X98220Y66189D01*
X97934Y65500D01*
X99500D01*
Y67066D01*
D02*
G37*
G36*
X85500D02*
Y65500D01*
X87066D01*
X86780Y66189D01*
X86190Y66780D01*
X85500Y67066D01*
D02*
G37*
G36*
X84500D02*
X83811Y66780D01*
X83220Y66189D01*
X82934Y65500D01*
X84500D01*
Y67066D01*
D02*
G37*
G36*
X39546Y68150D02*
X39500D01*
Y64500D01*
X43150D01*
Y64546D01*
X42867Y65602D01*
X42320Y66548D01*
X41548Y67321D01*
X40602Y67867D01*
X39546Y68150D01*
D02*
G37*
G36*
X38500D02*
X38454D01*
X37398Y67867D01*
X36452Y67321D01*
X35680Y66548D01*
X35133Y65602D01*
X34850Y64546D01*
Y64500D01*
X38500D01*
Y68150D01*
D02*
G37*
G36*
X117066Y64500D02*
X115500D01*
Y62934D01*
X116190Y63220D01*
X116780Y63810D01*
X117066Y64500D01*
D02*
G37*
G36*
X114500D02*
X112934D01*
X113220Y63810D01*
X113810Y63220D01*
X114500Y62934D01*
Y64500D01*
D02*
G37*
G36*
X102066D02*
X100500D01*
Y62934D01*
X101189Y63220D01*
X101780Y63810D01*
X102066Y64500D01*
D02*
G37*
G36*
X99500D02*
X97934D01*
X98220Y63810D01*
X98810Y63220D01*
X99500Y62934D01*
Y64500D01*
D02*
G37*
G36*
X87066D02*
X85500D01*
Y62934D01*
X86190Y63220D01*
X86780Y63810D01*
X87066Y64500D01*
D02*
G37*
G36*
X84500D02*
X82934D01*
X83220Y63810D01*
X83811Y63220D01*
X84500Y62934D01*
Y64500D01*
D02*
G37*
G36*
X29520Y67950D02*
X28480D01*
X27476Y67680D01*
X26575Y67160D01*
X25839Y66425D01*
X25320Y65525D01*
X25050Y64520D01*
Y63480D01*
X25320Y62476D01*
X25839Y61575D01*
X26575Y60839D01*
X27476Y60320D01*
X28480Y60050D01*
X29520D01*
X30525Y60320D01*
X31425Y60839D01*
X32160Y61575D01*
X32680Y62476D01*
X32950Y63480D01*
Y64520D01*
X32680Y65525D01*
X32160Y66425D01*
X31425Y67160D01*
X30525Y67680D01*
X29520Y67950D01*
D02*
G37*
G36*
X43150Y63500D02*
X39500D01*
Y59850D01*
X39546D01*
X40602Y60133D01*
X41548Y60680D01*
X42320Y61452D01*
X42867Y62398D01*
X43150Y63454D01*
Y63500D01*
D02*
G37*
G36*
X38500D02*
X34850D01*
Y63454D01*
X35133Y62398D01*
X35680Y61452D01*
X36452Y60680D01*
X37398Y60133D01*
X38454Y59850D01*
X38500D01*
Y63500D01*
D02*
G37*
G36*
X370950Y62950D02*
X363050D01*
Y55050D01*
X370950D01*
Y62950D01*
D02*
G37*
G36*
X284324Y64617D02*
X283087Y64455D01*
X281935Y63977D01*
X280945Y63218D01*
X280186Y62228D01*
X279709Y61076D01*
X279546Y59839D01*
Y57871D01*
X279709Y56634D01*
X280186Y55482D01*
X280945Y54492D01*
X281935Y53733D01*
X283087Y53256D01*
X284324Y53093D01*
X285560Y53256D01*
X286713Y53733D01*
X287702Y54492D01*
X288461Y55482D01*
X288939Y56634D01*
X289102Y57871D01*
Y59839D01*
X288939Y61076D01*
X288461Y62228D01*
X287702Y63218D01*
X286713Y63977D01*
X285560Y64455D01*
X284324Y64617D01*
D02*
G37*
G36*
X330387Y64617D02*
X329150Y64454D01*
X327998Y63977D01*
X327008Y63218D01*
X326249Y62228D01*
X325771Y61076D01*
X325609Y59839D01*
Y57871D01*
X325771Y56634D01*
X326249Y55482D01*
X327008Y54492D01*
X327998Y53733D01*
X329150Y53256D01*
X330387Y53093D01*
X331623Y53256D01*
X332776Y53733D01*
X333765Y54492D01*
X334524Y55482D01*
X335002Y56634D01*
X335164Y57871D01*
Y59839D01*
X335002Y61076D01*
X334524Y62228D01*
X333765Y63218D01*
X332776Y63977D01*
X331623Y64454D01*
X330387Y64617D01*
D02*
G37*
G36*
X55000Y51566D02*
Y50000D01*
X56566D01*
X56280Y50690D01*
X55690Y51280D01*
X55000Y51566D01*
D02*
G37*
G36*
X54000D02*
X53311Y51280D01*
X52720Y50690D01*
X52434Y50000D01*
X54000D01*
Y51566D01*
D02*
G37*
G36*
X56566Y49000D02*
X55000D01*
Y47434D01*
X55690Y47720D01*
X56280Y48310D01*
X56566Y49000D01*
D02*
G37*
G36*
X54000D02*
X52434D01*
X52720Y48310D01*
X53311Y47720D01*
X54000Y47434D01*
Y49000D01*
D02*
G37*
G36*
X100500Y47066D02*
Y45500D01*
X102066D01*
X101780Y46190D01*
X101189Y46780D01*
X100500Y47066D01*
D02*
G37*
G36*
X99500D02*
X98810Y46780D01*
X98220Y46190D01*
X97934Y45500D01*
X99500D01*
Y47066D01*
D02*
G37*
G36*
X85500D02*
Y45500D01*
X87066D01*
X86780Y46190D01*
X86190Y46780D01*
X85500Y47066D01*
D02*
G37*
G36*
X84500D02*
X83811Y46780D01*
X83220Y46190D01*
X82934Y45500D01*
X84500D01*
Y47066D01*
D02*
G37*
G36*
X15500D02*
Y45500D01*
X17066D01*
X16780Y46190D01*
X16190Y46780D01*
X15500Y47066D01*
D02*
G37*
G36*
X14500D02*
X13811Y46780D01*
X13220Y46190D01*
X12934Y45500D01*
X14500D01*
Y47066D01*
D02*
G37*
G36*
X367520Y52950D02*
X366480D01*
X365476Y52680D01*
X364575Y52161D01*
X363840Y51425D01*
X363320Y50524D01*
X363050Y49520D01*
Y48480D01*
X363320Y47475D01*
X363840Y46575D01*
X364575Y45840D01*
X365476Y45320D01*
X366480Y45050D01*
X367520D01*
X368525Y45320D01*
X369425Y45840D01*
X370161Y46575D01*
X370680Y47475D01*
X370950Y48480D01*
Y49520D01*
X370680Y50524D01*
X370161Y51425D01*
X369425Y52161D01*
X368525Y52680D01*
X367520Y52950D01*
D02*
G37*
G36*
X102066Y44500D02*
X100500D01*
Y42934D01*
X101189Y43220D01*
X101780Y43810D01*
X102066Y44500D01*
D02*
G37*
G36*
X99500D02*
X97934D01*
X98220Y43810D01*
X98810Y43220D01*
X99500Y42934D01*
Y44500D01*
D02*
G37*
G36*
X87066D02*
X85500D01*
Y42934D01*
X86190Y43220D01*
X86780Y43810D01*
X87066Y44500D01*
D02*
G37*
G36*
X84500D02*
X82934D01*
X83220Y43810D01*
X83811Y43220D01*
X84500Y42934D01*
Y44500D01*
D02*
G37*
G36*
X17066D02*
X15500D01*
Y42934D01*
X16190Y43220D01*
X16780Y43810D01*
X17066Y44500D01*
D02*
G37*
G36*
X14500D02*
X12934D01*
X13220Y43810D01*
X13811Y43220D01*
X14500Y42934D01*
Y44500D01*
D02*
G37*
G36*
X193433Y44717D02*
X192393D01*
X191389Y44448D01*
X190488Y43928D01*
X189753Y43193D01*
X189236Y42298D01*
X189119Y42268D01*
X188834D01*
X188717Y42298D01*
X188200Y43193D01*
X187464Y43928D01*
X186564Y44448D01*
X185559Y44717D01*
X184519D01*
X183515Y44448D01*
X182614Y43928D01*
X181879Y43193D01*
X181359Y42292D01*
X181090Y41288D01*
Y40248D01*
X181359Y39243D01*
X181879Y38343D01*
X182614Y37607D01*
X183515Y37087D01*
X184519Y36818D01*
X185559D01*
X186564Y37087D01*
X187464Y37607D01*
X188200Y38343D01*
X188717Y39238D01*
X188834Y39268D01*
X189119D01*
X189236Y39238D01*
X189753Y38343D01*
X190488Y37607D01*
X191389Y37087D01*
X192393Y36818D01*
X193433D01*
X194438Y37087D01*
X195338Y37607D01*
X196074Y38343D01*
X196594Y39243D01*
X196863Y40248D01*
Y41288D01*
X196594Y42292D01*
X196074Y43193D01*
X195338Y43928D01*
X194438Y44448D01*
X193433Y44717D01*
D02*
G37*
G36*
X203302Y44917D02*
X203256D01*
Y41268D01*
X206906D01*
Y41314D01*
X206623Y42369D01*
X206076Y43316D01*
X205304Y44088D01*
X204358Y44635D01*
X203302Y44917D01*
D02*
G37*
G36*
X202256D02*
X202210D01*
X201154Y44635D01*
X200208Y44088D01*
X199435Y43316D01*
X198889Y42369D01*
X198606Y41314D01*
Y41268D01*
X202256D01*
Y44917D01*
D02*
G37*
G36*
X55000Y41566D02*
Y40000D01*
X56566D01*
X56280Y40690D01*
X55690Y41280D01*
X55000Y41566D01*
D02*
G37*
G36*
X54000D02*
X53311Y41280D01*
X52720Y40690D01*
X52434Y40000D01*
X54000D01*
Y41566D01*
D02*
G37*
G36*
X367546Y43150D02*
X367500D01*
Y39500D01*
X371150D01*
Y39546D01*
X370867Y40602D01*
X370321Y41548D01*
X369548Y42320D01*
X368602Y42867D01*
X367546Y43150D01*
D02*
G37*
G36*
X366500D02*
X366454D01*
X365398Y42867D01*
X364452Y42320D01*
X363680Y41548D01*
X363133Y40602D01*
X362850Y39546D01*
Y39500D01*
X366500D01*
Y43150D01*
D02*
G37*
G36*
X56566Y39000D02*
X55000D01*
Y37434D01*
X55690Y37720D01*
X56280Y38310D01*
X56566Y39000D01*
D02*
G37*
G36*
X54000D02*
X52434D01*
X52720Y38310D01*
X53311Y37720D01*
X54000Y37434D01*
Y39000D01*
D02*
G37*
G36*
X206906Y40268D02*
X203256D01*
Y36618D01*
X203302D01*
X204358Y36901D01*
X205304Y37447D01*
X206076Y38220D01*
X206623Y39166D01*
X206906Y40221D01*
Y40268D01*
D02*
G37*
G36*
X202256D02*
X198606D01*
Y40221D01*
X198889Y39166D01*
X199435Y38220D01*
X200208Y37447D01*
X201154Y36901D01*
X202210Y36618D01*
X202256D01*
Y40268D01*
D02*
G37*
G36*
X371150Y38500D02*
X367500D01*
Y34850D01*
X367546D01*
X368602Y35133D01*
X369548Y35680D01*
X370321Y36452D01*
X370867Y37398D01*
X371150Y38454D01*
Y38500D01*
D02*
G37*
G36*
X366500D02*
X362850D01*
Y38454D01*
X363133Y37398D01*
X363680Y36452D01*
X364452Y35680D01*
X365398Y35133D01*
X366454Y34850D01*
X366500D01*
Y38500D01*
D02*
G37*
G36*
X215678Y38579D02*
X215342D01*
Y30598D01*
X223323D01*
Y30934D01*
X222997Y32572D01*
X222358Y34115D01*
X221430Y35504D01*
X220248Y36685D01*
X218860Y37614D01*
X217316Y38253D01*
X215678Y38579D01*
D02*
G37*
G36*
X163945D02*
X163610D01*
Y30598D01*
X171591D01*
Y30934D01*
X171265Y32572D01*
X170625Y34115D01*
X169697Y35504D01*
X168516Y36685D01*
X167127Y37614D01*
X165584Y38253D01*
X163945Y38579D01*
D02*
G37*
G36*
X214342D02*
X214007D01*
X212369Y38253D01*
X210826Y37614D01*
X209437Y36685D01*
X208256Y35504D01*
X207327Y34115D01*
X206688Y32572D01*
X206362Y30934D01*
Y30598D01*
X214342D01*
Y38579D01*
D02*
G37*
G36*
X162610D02*
X162275D01*
X160637Y38253D01*
X159093Y37614D01*
X157704Y36685D01*
X156523Y35504D01*
X155595Y34115D01*
X154956Y32572D01*
X154630Y30934D01*
Y30598D01*
X162610D01*
Y38579D01*
D02*
G37*
G36*
X15500Y32066D02*
Y30500D01*
X17066D01*
X16780Y31190D01*
X16190Y31780D01*
X15500Y32066D01*
D02*
G37*
G36*
X14500D02*
X13811Y31780D01*
X13220Y31190D01*
X12934Y30500D01*
X14500D01*
Y32066D01*
D02*
G37*
G36*
X307875Y33280D02*
X307855D01*
Y29828D01*
X311308D01*
Y29848D01*
X311038Y30853D01*
X310518Y31755D01*
X309782Y32491D01*
X308881Y33011D01*
X307875Y33280D01*
D02*
G37*
G36*
X306855D02*
X306835D01*
X305829Y33011D01*
X304928Y32491D01*
X304192Y31755D01*
X303672Y30853D01*
X303402Y29848D01*
Y29828D01*
X306855D01*
Y33280D01*
D02*
G37*
G36*
X17066Y29500D02*
X15500D01*
Y27934D01*
X16190Y28220D01*
X16780Y28810D01*
X17066Y29500D01*
D02*
G37*
G36*
X14500D02*
X12934D01*
X13220Y28810D01*
X13811Y28220D01*
X14500Y27934D01*
Y29500D01*
D02*
G37*
G36*
X357162Y33162D02*
X350838D01*
Y26838D01*
X357162D01*
Y33162D01*
D02*
G37*
G36*
X346162D02*
X339838D01*
Y26838D01*
X346162D01*
Y33162D01*
D02*
G37*
G36*
X269416Y33162D02*
X268584D01*
X267779Y32947D01*
X267058Y32530D01*
X266470Y31942D01*
X266053Y31220D01*
X265838Y30416D01*
Y29584D01*
X266053Y28779D01*
X266470Y28058D01*
X267058Y27470D01*
X267779Y27053D01*
X268584Y26838D01*
X269416D01*
X270221Y27053D01*
X270942Y27470D01*
X271530Y28058D01*
X271947Y28779D01*
X272162Y29584D01*
Y30416D01*
X271947Y31220D01*
X271530Y31942D01*
X270942Y32530D01*
X270221Y32947D01*
X269416Y33162D01*
D02*
G37*
G36*
X257416D02*
X256584D01*
X255779Y32947D01*
X255058Y32530D01*
X254470Y31942D01*
X254053Y31220D01*
X253838Y30416D01*
Y29584D01*
X254053Y28779D01*
X254470Y28058D01*
X255058Y27470D01*
X255779Y27053D01*
X256584Y26838D01*
X257416D01*
X258221Y27053D01*
X258942Y27470D01*
X259530Y28058D01*
X259947Y28779D01*
X260162Y29584D01*
Y30416D01*
X259947Y31220D01*
X259530Y31942D01*
X258942Y32530D01*
X258221Y32947D01*
X257416Y33162D01*
D02*
G37*
G36*
X245416D02*
X244584D01*
X243779Y32947D01*
X243058Y32530D01*
X242470Y31942D01*
X242053Y31220D01*
X241838Y30416D01*
Y29584D01*
X242053Y28779D01*
X242470Y28058D01*
X243058Y27470D01*
X243779Y27053D01*
X244584Y26838D01*
X245416D01*
X246221Y27053D01*
X246942Y27470D01*
X247530Y28058D01*
X247947Y28779D01*
X248162Y29584D01*
Y30416D01*
X247947Y31220D01*
X247530Y31942D01*
X246942Y32530D01*
X246221Y32947D01*
X245416Y33162D01*
D02*
G37*
G36*
X321108Y33080D02*
X313602D01*
Y25575D01*
X321108D01*
Y33080D01*
D02*
G37*
G36*
X297849D02*
X296861D01*
X295907Y32825D01*
X295051Y32331D01*
X294352Y31632D01*
X293858Y30776D01*
X293602Y29822D01*
Y28833D01*
X293858Y27879D01*
X294352Y27023D01*
X295051Y26325D01*
X295907Y25831D01*
X296861Y25575D01*
X297849D01*
X298804Y25831D01*
X299659Y26325D01*
X300358Y27023D01*
X300852Y27879D01*
X301108Y28833D01*
Y29822D01*
X300852Y30776D01*
X300358Y31632D01*
X299659Y32331D01*
X298804Y32825D01*
X297849Y33080D01*
D02*
G37*
G36*
X311308Y28828D02*
X307855D01*
Y25375D01*
X307875D01*
X308881Y25644D01*
X309782Y26165D01*
X310518Y26901D01*
X311038Y27802D01*
X311308Y28807D01*
Y28828D01*
D02*
G37*
G36*
X306855D02*
X303402D01*
Y28807D01*
X303672Y27802D01*
X304192Y26901D01*
X304928Y26165D01*
X305829Y25644D01*
X306835Y25375D01*
X306855D01*
Y28828D01*
D02*
G37*
G36*
X126950Y31871D02*
X119050D01*
Y23972D01*
X126950D01*
Y31871D01*
D02*
G37*
G36*
X223323Y29598D02*
X215342D01*
Y21618D01*
X215678D01*
X217316Y21944D01*
X218860Y22583D01*
X220248Y23511D01*
X221430Y24692D01*
X222358Y26081D01*
X222997Y27625D01*
X223323Y29263D01*
Y29598D01*
D02*
G37*
G36*
X214342D02*
X206362D01*
Y29263D01*
X206688Y27625D01*
X207327Y26081D01*
X208256Y24692D01*
X209437Y23511D01*
X210826Y22583D01*
X212369Y21944D01*
X214007Y21618D01*
X214342D01*
Y29598D01*
D02*
G37*
G36*
X171591D02*
X163610D01*
Y21618D01*
X163945D01*
X165584Y21944D01*
X167127Y22583D01*
X168516Y23511D01*
X169697Y24692D01*
X170625Y26081D01*
X171265Y27625D01*
X171591Y29263D01*
Y29598D01*
D02*
G37*
G36*
X162610D02*
X154630D01*
Y29263D01*
X154956Y27625D01*
X155595Y26081D01*
X156523Y24692D01*
X157704Y23511D01*
X159093Y22583D01*
X160637Y21944D01*
X162275Y21618D01*
X162610D01*
Y29598D01*
D02*
G37*
G36*
X123546Y22228D02*
X123500D01*
Y18579D01*
X127150D01*
Y18625D01*
X126867Y19680D01*
X126321Y20627D01*
X125548Y21399D01*
X124602Y21946D01*
X123546Y22228D01*
D02*
G37*
G36*
X122500D02*
X122454D01*
X121398Y21946D01*
X120452Y21399D01*
X119679Y20627D01*
X119133Y19680D01*
X118850Y18625D01*
Y18579D01*
X122500D01*
Y22228D01*
D02*
G37*
G36*
X88366Y21826D02*
Y17823D01*
X90860D01*
Y18898D01*
X90758Y19673D01*
X90459Y20395D01*
X89983Y21015D01*
X89363Y21491D01*
X88641Y21790D01*
X88366Y21826D01*
D02*
G37*
G36*
X87366D02*
X87091Y21790D01*
X86369Y21491D01*
X85749Y21015D01*
X85273Y20395D01*
X84974Y19673D01*
X84872Y18898D01*
Y17823D01*
X87366D01*
Y21826D01*
D02*
G37*
G36*
X54366Y21826D02*
Y17823D01*
X56860D01*
Y18898D01*
X56758Y19673D01*
X56459Y20395D01*
X55983Y21015D01*
X55363Y21491D01*
X54641Y21790D01*
X54366Y21826D01*
D02*
G37*
G36*
X53366D02*
X53091Y21790D01*
X52369Y21491D01*
X51749Y21015D01*
X51273Y20395D01*
X50974Y19673D01*
X50872Y18898D01*
Y17823D01*
X53366D01*
Y21826D01*
D02*
G37*
G36*
X358500Y18066D02*
Y16500D01*
X360066D01*
X359780Y17189D01*
X359190Y17780D01*
X358500Y18066D01*
D02*
G37*
G36*
X357500D02*
X356810Y17780D01*
X356220Y17189D01*
X355934Y16500D01*
X357500D01*
Y18066D01*
D02*
G37*
G36*
X336500D02*
Y16500D01*
X338066D01*
X337780Y17189D01*
X337190Y17780D01*
X336500Y18066D01*
D02*
G37*
G36*
X335500D02*
X334810Y17780D01*
X334220Y17189D01*
X333934Y16500D01*
X335500D01*
Y18066D01*
D02*
G37*
G36*
X276500D02*
Y16500D01*
X278066D01*
X277780Y17189D01*
X277190Y17780D01*
X276500Y18066D01*
D02*
G37*
G36*
X275500D02*
X274810Y17780D01*
X274220Y17189D01*
X273934Y16500D01*
X275500D01*
Y18066D01*
D02*
G37*
G36*
X244500D02*
Y16500D01*
X246066D01*
X245780Y17189D01*
X245190Y17780D01*
X244500Y18066D01*
D02*
G37*
G36*
X243500D02*
X242810Y17780D01*
X242220Y17189D01*
X241934Y16500D01*
X243500D01*
Y18066D01*
D02*
G37*
G36*
X360066Y15500D02*
X358500D01*
Y13934D01*
X359190Y14220D01*
X359780Y14810D01*
X360066Y15500D01*
D02*
G37*
G36*
X357500D02*
X355934D01*
X356220Y14810D01*
X356810Y14220D01*
X357500Y13934D01*
Y15500D01*
D02*
G37*
G36*
X338066D02*
X336500D01*
Y13934D01*
X337190Y14220D01*
X337780Y14810D01*
X338066Y15500D01*
D02*
G37*
G36*
X335500D02*
X333934D01*
X334220Y14810D01*
X334810Y14220D01*
X335500Y13934D01*
Y15500D01*
D02*
G37*
G36*
X278066D02*
X276500D01*
Y13934D01*
X277190Y14220D01*
X277780Y14810D01*
X278066Y15500D01*
D02*
G37*
G36*
X275500D02*
X273934D01*
X274220Y14810D01*
X274810Y14220D01*
X275500Y13934D01*
Y15500D01*
D02*
G37*
G36*
X246066D02*
X244500D01*
Y13934D01*
X245190Y14220D01*
X245780Y14810D01*
X246066Y15500D01*
D02*
G37*
G36*
X243500D02*
X241934D01*
X242220Y14810D01*
X242810Y14220D01*
X243500Y13934D01*
Y15500D01*
D02*
G37*
G36*
X127150Y17579D02*
X123500D01*
Y13929D01*
X123546D01*
X124602Y14212D01*
X125548Y14758D01*
X126321Y15531D01*
X126867Y16477D01*
X127150Y17532D01*
Y17579D01*
D02*
G37*
G36*
X122500D02*
X118850D01*
Y17532D01*
X119133Y16477D01*
X119679Y15531D01*
X120452Y14758D01*
X121398Y14212D01*
X122454Y13929D01*
X122500D01*
Y17579D01*
D02*
G37*
G36*
X90860Y16823D02*
X88366D01*
Y12820D01*
X88641Y12856D01*
X89363Y13155D01*
X89983Y13631D01*
X90459Y14251D01*
X90758Y14974D01*
X90860Y15748D01*
Y16823D01*
D02*
G37*
G36*
X87366D02*
X84872D01*
Y15748D01*
X84974Y14974D01*
X85273Y14251D01*
X85749Y13631D01*
X86369Y13155D01*
X87091Y12856D01*
X87366Y12820D01*
Y16823D01*
D02*
G37*
G36*
X56860Y16823D02*
X54366D01*
Y12820D01*
X54641Y12856D01*
X55363Y13155D01*
X55983Y13631D01*
X56459Y14251D01*
X56758Y14974D01*
X56860Y15748D01*
Y16823D01*
D02*
G37*
G36*
X53366D02*
X50872D01*
Y15748D01*
X50974Y14974D01*
X51273Y14251D01*
X51749Y13631D01*
X52369Y13155D01*
X53091Y12856D01*
X53366Y12820D01*
Y16823D01*
D02*
G37*
G36*
X190500Y12066D02*
Y10500D01*
X192066D01*
X191780Y11190D01*
X191190Y11780D01*
X190500Y12066D01*
D02*
G37*
G36*
X189500D02*
X188810Y11780D01*
X188220Y11190D01*
X187934Y10500D01*
X189500D01*
Y12066D01*
D02*
G37*
G36*
X150500D02*
Y10500D01*
X152066D01*
X151780Y11190D01*
X151190Y11780D01*
X150500Y12066D01*
D02*
G37*
G36*
X149500D02*
X148810Y11780D01*
X148220Y11190D01*
X147934Y10500D01*
X149500D01*
Y12066D01*
D02*
G37*
G36*
X192066Y9500D02*
X190500D01*
Y7934D01*
X191190Y8220D01*
X191780Y8811D01*
X192066Y9500D01*
D02*
G37*
G36*
X189500D02*
X187934D01*
X188220Y8811D01*
X188810Y8220D01*
X189500Y7934D01*
Y9500D01*
D02*
G37*
G36*
X152066D02*
X150500D01*
Y7934D01*
X151190Y8220D01*
X151780Y8811D01*
X152066Y9500D01*
D02*
G37*
G36*
X149500D02*
X147934D01*
X148220Y8811D01*
X148810Y8220D01*
X149500Y7934D01*
Y9500D01*
D02*
G37*
G36*
X70500Y7066D02*
Y5500D01*
X72066D01*
X71780Y6190D01*
X71189Y6780D01*
X70500Y7066D01*
D02*
G37*
G36*
X69500D02*
X68810Y6780D01*
X68220Y6190D01*
X67934Y5500D01*
X69500D01*
Y7066D01*
D02*
G37*
G36*
X72066Y4500D02*
X70500D01*
Y2934D01*
X71189Y3220D01*
X71780Y3810D01*
X72066Y4500D01*
D02*
G37*
G36*
X69500D02*
X67934D01*
X68220Y3810D01*
X68810Y3220D01*
X69500Y2934D01*
Y4500D01*
D02*
G37*
G36*
X88366Y6866D02*
Y2863D01*
X90860D01*
Y3937D01*
X90758Y4712D01*
X90459Y5434D01*
X89983Y6055D01*
X89363Y6530D01*
X88641Y6830D01*
X88366Y6866D01*
D02*
G37*
G36*
X87366D02*
X87091Y6830D01*
X86369Y6530D01*
X85749Y6055D01*
X85273Y5434D01*
X84974Y4712D01*
X84872Y3937D01*
Y2863D01*
X87366D01*
Y6866D01*
D02*
G37*
G36*
X54366D02*
Y2863D01*
X56860D01*
Y3937D01*
X56758Y4712D01*
X56459Y5434D01*
X55983Y6055D01*
X55363Y6530D01*
X54641Y6830D01*
X54366Y6866D01*
D02*
G37*
G36*
X53366D02*
X53091Y6830D01*
X52369Y6530D01*
X51749Y6055D01*
X51273Y5434D01*
X50974Y4712D01*
X50872Y3937D01*
Y2863D01*
X53366D01*
Y6866D01*
D02*
G37*
G36*
X279162Y8162D02*
X272838D01*
Y1838D01*
X279162D01*
Y8162D01*
D02*
G37*
G36*
X236416D02*
X235584D01*
X234779Y7947D01*
X234058Y7530D01*
X233470Y6942D01*
X233053Y6221D01*
X232838Y5416D01*
Y4584D01*
X233053Y3779D01*
X233470Y3058D01*
X234058Y2470D01*
X234779Y2053D01*
X235584Y1838D01*
X236416D01*
X237221Y2053D01*
X237942Y2470D01*
X238530Y3058D01*
X238947Y3779D01*
X239162Y4584D01*
Y5416D01*
X238947Y6221D01*
X238530Y6942D01*
X237942Y7530D01*
X237221Y7947D01*
X236416Y8162D01*
D02*
G37*
G36*
X20500Y2066D02*
Y500D01*
X22066D01*
X21780Y1190D01*
X21190Y1780D01*
X20500Y2066D01*
D02*
G37*
G36*
X19500D02*
X18811Y1780D01*
X18220Y1190D01*
X17934Y500D01*
X19500D01*
Y2066D01*
D02*
G37*
G36*
X835Y8480D02*
X500D01*
Y500D01*
X8480D01*
Y835D01*
X8154Y2474D01*
X7515Y4017D01*
X6587Y5406D01*
X5406Y6587D01*
X4017Y7515D01*
X2474Y8154D01*
X835Y8480D01*
D02*
G37*
G36*
X-500D02*
X-835D01*
X-2474Y8154D01*
X-4017Y7515D01*
X-5406Y6587D01*
X-6587Y5406D01*
X-7515Y4017D01*
X-8154Y2474D01*
X-8480Y835D01*
Y500D01*
X-500D01*
Y8480D01*
D02*
G37*
G36*
X370914D02*
X370579D01*
Y500D01*
X378559D01*
Y835D01*
X378233Y2474D01*
X377594Y4017D01*
X376666Y5406D01*
X375485Y6587D01*
X374096Y7515D01*
X372552Y8154D01*
X370914Y8480D01*
D02*
G37*
G36*
X369579D02*
X369244D01*
X367605Y8154D01*
X366062Y7515D01*
X364673Y6587D01*
X363492Y5406D01*
X362564Y4017D01*
X361924Y2474D01*
X361598Y835D01*
Y500D01*
X369579D01*
Y8480D01*
D02*
G37*
G36*
X282500Y66D02*
Y-1500D01*
X284066D01*
X283780Y-810D01*
X283190Y-220D01*
X282500Y66D01*
D02*
G37*
G36*
X281500D02*
X280810Y-220D01*
X280220Y-810D01*
X279934Y-1500D01*
X281500D01*
Y66D01*
D02*
G37*
G36*
X22066Y-500D02*
X20500D01*
Y-2066D01*
X21190Y-1780D01*
X21780Y-1190D01*
X22066Y-500D01*
D02*
G37*
G36*
X19500D02*
X17934D01*
X18220Y-1190D01*
X18811Y-1780D01*
X19500Y-2066D01*
Y-500D01*
D02*
G37*
G36*
X90860Y1863D02*
X88366D01*
Y-2141D01*
X88641Y-2104D01*
X89363Y-1805D01*
X89983Y-1329D01*
X90459Y-709D01*
X90758Y13D01*
X90860Y788D01*
Y1863D01*
D02*
G37*
G36*
X87366D02*
X84872D01*
Y788D01*
X84974Y13D01*
X85273Y-709D01*
X85749Y-1329D01*
X86369Y-1805D01*
X87091Y-2104D01*
X87366Y-2141D01*
Y1863D01*
D02*
G37*
G36*
X56860D02*
X54366D01*
Y-2141D01*
X54641Y-2104D01*
X55363Y-1805D01*
X55983Y-1329D01*
X56459Y-709D01*
X56758Y13D01*
X56860Y788D01*
Y1863D01*
D02*
G37*
G36*
X53366D02*
X50872D01*
Y788D01*
X50974Y13D01*
X51273Y-709D01*
X51749Y-1329D01*
X52369Y-1805D01*
X53091Y-2104D01*
X53366Y-2141D01*
Y1863D01*
D02*
G37*
G36*
X284066Y-2500D02*
X282500D01*
Y-4066D01*
X283190Y-3780D01*
X283780Y-3190D01*
X284066Y-2500D01*
D02*
G37*
G36*
X281500D02*
X279934D01*
X280220Y-3190D01*
X280810Y-3780D01*
X281500Y-4066D01*
Y-2500D01*
D02*
G37*
G36*
X378559Y-500D02*
X370579D01*
Y-8480D01*
X370914D01*
X372552Y-8154D01*
X374096Y-7515D01*
X375485Y-6587D01*
X376666Y-5406D01*
X377594Y-4017D01*
X378233Y-2474D01*
X378559Y-835D01*
Y-500D01*
D02*
G37*
G36*
X369579D02*
X361598D01*
Y-835D01*
X361924Y-2474D01*
X362564Y-4017D01*
X363492Y-5406D01*
X364673Y-6587D01*
X366062Y-7515D01*
X367605Y-8154D01*
X369244Y-8480D01*
X369579D01*
Y-500D01*
D02*
G37*
G36*
X8480Y-500D02*
X500D01*
Y-8480D01*
X835D01*
X2474Y-8154D01*
X4017Y-7515D01*
X5406Y-6587D01*
X6587Y-5406D01*
X7515Y-4017D01*
X8154Y-2474D01*
X8480Y-835D01*
Y-500D01*
D02*
G37*
G36*
X-500D02*
X-8480D01*
Y-835D01*
X-8154Y-2474D01*
X-7515Y-4017D01*
X-6587Y-5406D01*
X-5406Y-6587D01*
X-4017Y-7515D01*
X-2474Y-8154D01*
X-835Y-8480D01*
X-500D01*
Y-500D01*
D02*
G37*
%LPD*%
G36*
X82610Y347657D02*
X82435Y347818D01*
X82241Y347961D01*
X82029Y348087D01*
X81796Y348197D01*
X81545Y348289D01*
X81274Y348365D01*
X80985Y348424D01*
X80676Y348466D01*
X80348Y348492D01*
X80001Y348500D01*
Y351500D01*
X80348Y351508D01*
X80676Y351534D01*
X80985Y351576D01*
X81274Y351635D01*
X81545Y351711D01*
X81796Y351803D01*
X82029Y351913D01*
X82241Y352039D01*
X82435Y352182D01*
X82610Y352343D01*
Y347657D01*
D02*
G37*
G36*
X52353Y352715D02*
X52443Y352460D01*
X52593Y352235D01*
X52804Y352040D01*
X53075Y351875D01*
X53407Y351740D01*
X53798Y351635D01*
X54250Y351560D01*
X54762Y351515D01*
X55335Y351500D01*
Y348500D01*
X54762Y348485D01*
X54250Y348440D01*
X53798Y348365D01*
X53407Y348260D01*
X53075Y348125D01*
X52804Y347960D01*
X52593Y347765D01*
X52443Y347540D01*
X52353Y347285D01*
X52323Y347000D01*
Y353000D01*
X52353Y352715D01*
D02*
G37*
G36*
X88227Y349031D02*
X88222Y348798D01*
X88246Y348563D01*
X88302Y348325D01*
X88388Y348084D01*
X88505Y347841D01*
X88653Y347596D01*
X88831Y347347D01*
X89040Y347096D01*
X89280Y346842D01*
X86638Y345241D01*
X86387Y345484D01*
X85899Y345906D01*
X85661Y346086D01*
X85198Y346382D01*
X84974Y346498D01*
X84753Y346594D01*
X84538Y346669D01*
X84326Y346722D01*
X88264Y349261D01*
X88227Y349031D01*
D02*
G37*
G36*
X91500Y311000D02*
X88925Y307138D01*
X91500D01*
X91515Y306565D01*
X91560Y306053D01*
X91635Y305602D01*
X91740Y305210D01*
X91875Y304879D01*
X92040Y304608D01*
X92235Y304397D01*
X92460Y304246D01*
X92715Y304156D01*
X93000Y304126D01*
X87000D01*
X87285Y304156D01*
X87540Y304246D01*
X87765Y304397D01*
X87960Y304608D01*
X88125Y304879D01*
X88260Y305210D01*
X88365Y305602D01*
X88440Y306053D01*
X88485Y306565D01*
X88489Y306712D01*
X88470Y307070D01*
X88380Y307580D01*
X88230Y308030D01*
X88020Y308420D01*
X87750Y308750D01*
X87420Y309020D01*
X87030Y309230D01*
X86580Y309380D01*
X86070Y309470D01*
X85500Y309500D01*
Y312500D01*
X86070Y312530D01*
X86580Y312620D01*
X87030Y312770D01*
X87420Y312980D01*
X87750Y313250D01*
X88020Y313580D01*
X88230Y313970D01*
X88380Y314420D01*
X88470Y314930D01*
X88500Y315500D01*
X91500Y311000D01*
D02*
G37*
G36*
X68971Y228832D02*
X68851Y228663D01*
X68745Y228474D01*
X68654Y228263D01*
X68576Y228033D01*
X68513Y227782D01*
X68463Y227510D01*
X68428Y227217D01*
X68407Y226904D01*
X68400Y226571D01*
X65400D01*
X65393Y226904D01*
X65337Y227510D01*
X65287Y227782D01*
X65224Y228033D01*
X65146Y228263D01*
X65055Y228474D01*
X64949Y228663D01*
X64829Y228832D01*
X64695Y228981D01*
X69105D01*
X68971Y228832D01*
D02*
G37*
G36*
X52266Y218876D02*
X53371Y217941D01*
X53859Y217600D01*
X54304Y217344D01*
X54707Y217173D01*
X55068Y217087D01*
X55385Y217086D01*
X55660Y217170D01*
X55892Y217338D01*
X51662Y213108D01*
X51830Y213340D01*
X51914Y213615D01*
X51913Y213932D01*
X51827Y214293D01*
X51656Y214696D01*
X51400Y215141D01*
X51059Y215629D01*
X50634Y216160D01*
X49529Y217350D01*
X51650Y219472D01*
X52266Y218876D01*
D02*
G37*
G36*
X56380Y217189D02*
X56470Y217044D01*
X56620Y216917D01*
X56830Y216806D01*
X57100Y216713D01*
X57430Y216636D01*
X57820Y216577D01*
X58270Y216534D01*
X59350Y216500D01*
Y213500D01*
X58780Y213492D01*
X57820Y213423D01*
X57430Y213364D01*
X57100Y213287D01*
X56830Y213194D01*
X56620Y213083D01*
X56470Y212956D01*
X56380Y212811D01*
X56350Y212650D01*
Y217350D01*
X56380Y217189D01*
D02*
G37*
G36*
X115905Y346656D02*
X115820Y346626D01*
X115745Y346576D01*
X115680Y346505D01*
X115625Y346415D01*
X115580Y346305D01*
X115545Y346176D01*
X115520Y346026D01*
X115505Y345855D01*
X115500Y345666D01*
X114500D01*
X114495Y345855D01*
X114480Y346026D01*
X114455Y346176D01*
X114420Y346305D01*
X114375Y346415D01*
X114320Y346505D01*
X114255Y346576D01*
X114180Y346626D01*
X114095Y346656D01*
X114000Y346666D01*
X116000D01*
X115905Y346656D01*
D02*
G37*
G36*
X106992Y347256D02*
X106403Y346588D01*
X106163Y346275D01*
X105961Y345975D01*
X105795Y345690D01*
X105666Y345417D01*
X105574Y345159D01*
X105518Y344914D01*
X105500Y344683D01*
X104500D01*
X104482Y344914D01*
X104426Y345159D01*
X104334Y345417D01*
X104205Y345690D01*
X104039Y345975D01*
X103837Y346275D01*
X103597Y346588D01*
X103008Y347256D01*
X102657Y347610D01*
X107343D01*
X106992Y347256D01*
D02*
G37*
G36*
X287165Y350675D02*
X287080Y350399D01*
Y350081D01*
X287165Y349720D01*
X287334Y349317D01*
X287589Y348872D01*
X287928Y348384D01*
X288353Y347853D01*
X289456Y346666D01*
X287334Y344544D01*
X286719Y345138D01*
X285616Y346072D01*
X285128Y346411D01*
X284683Y346666D01*
X284280Y346835D01*
X283919Y346920D01*
X283601D01*
X283325Y346835D01*
X283092Y346666D01*
X287334Y350908D01*
X287165Y350675D01*
D02*
G37*
G36*
X345715Y346636D02*
X345460Y346546D01*
X345235Y346396D01*
X345040Y346186D01*
X344875Y345916D01*
X344740Y345586D01*
X344635Y345196D01*
X344560Y344746D01*
X344515Y344236D01*
X344514Y344217D01*
X344521Y344030D01*
X344585Y343457D01*
X344691Y342900D01*
X344839Y342362D01*
X345030Y341841D01*
X345264Y341338D01*
X345539Y340852D01*
X345858Y340384D01*
X346218Y339933D01*
X346621Y339500D01*
X344500Y337379D01*
X344067Y337782D01*
X343616Y338142D01*
X343148Y338461D01*
X342662Y338736D01*
X342159Y338970D01*
X341638Y339161D01*
X341100Y339309D01*
X340544Y339415D01*
X339970Y339479D01*
X339379Y339500D01*
X338500Y342500D01*
X339070Y342530D01*
X339580Y342620D01*
X340030Y342770D01*
X340420Y342980D01*
X340750Y343250D01*
X341020Y343580D01*
X341230Y343970D01*
X341380Y344420D01*
X341439Y344753D01*
X341365Y345196D01*
X341260Y345586D01*
X341125Y345916D01*
X340960Y346186D01*
X340765Y346396D01*
X340540Y346546D01*
X340285Y346636D01*
X340000Y346666D01*
X346000D01*
X345715Y346636D01*
D02*
G37*
G36*
X342928Y312467D02*
X342463Y311909D01*
X342274Y311634D01*
X342114Y311363D01*
X341983Y311094D01*
X341881Y310829D01*
X341808Y310567D01*
X341765Y310308D01*
X341750Y310051D01*
X340250D01*
X340235Y310308D01*
X340192Y310567D01*
X340119Y310829D01*
X340017Y311094D01*
X339886Y311363D01*
X339726Y311634D01*
X339537Y311909D01*
X339319Y312187D01*
X339072Y312467D01*
X338795Y312751D01*
X343205D01*
X342928Y312467D01*
D02*
G37*
G36*
X332928D02*
X332463Y311909D01*
X332274Y311634D01*
X332114Y311363D01*
X331983Y311094D01*
X331881Y310829D01*
X331808Y310567D01*
X331765Y310308D01*
X331750Y310051D01*
X330250D01*
X330235Y310308D01*
X330192Y310567D01*
X330119Y310829D01*
X330017Y311094D01*
X329886Y311363D01*
X329726Y311634D01*
X329537Y311909D01*
X329319Y312187D01*
X329072Y312467D01*
X328795Y312751D01*
X333205D01*
X332928Y312467D01*
D02*
G37*
G36*
X61881Y298422D02*
X61335Y297801D01*
X61114Y297509D01*
X60926Y297228D01*
X60773Y296959D01*
X60653Y296701D01*
X60568Y296456D01*
X60517Y296222D01*
X60500Y296001D01*
X59500D01*
X59483Y296222D01*
X59432Y296456D01*
X59347Y296701D01*
X59227Y296959D01*
X59074Y297228D01*
X58886Y297509D01*
X58665Y297801D01*
X58119Y298422D01*
X57795Y298751D01*
X62205D01*
X61881Y298422D01*
D02*
G37*
G36*
X71298Y273058D02*
X70833Y272499D01*
X70644Y272225D01*
X70484Y271954D01*
X70353Y271685D01*
X70251Y271420D01*
X70178Y271157D01*
X70135Y270898D01*
X70120Y270642D01*
X68620D01*
X68606Y270898D01*
X68562Y271157D01*
X68489Y271420D01*
X68387Y271685D01*
X68256Y271954D01*
X68096Y272225D01*
X67907Y272499D01*
X67689Y272777D01*
X67442Y273058D01*
X67165Y273341D01*
X71575D01*
X71298Y273058D01*
D02*
G37*
G36*
X81251Y273013D02*
X80705Y272392D01*
X80484Y272099D01*
X80296Y271818D01*
X80143Y271549D01*
X80023Y271292D01*
X79938Y271046D01*
X79887Y270813D01*
X79870Y270591D01*
X78870D01*
X78853Y270813D01*
X78802Y271046D01*
X78717Y271292D01*
X78597Y271549D01*
X78444Y271818D01*
X78256Y272099D01*
X78035Y272392D01*
X77489Y273013D01*
X77165Y273341D01*
X81575D01*
X81251Y273013D01*
D02*
G37*
G36*
X154826Y262980D02*
X154815Y263074D01*
X154781Y263159D01*
X154724Y263233D01*
X154644Y263298D01*
X154542Y263352D01*
X154418Y263397D01*
X154270Y263432D01*
X154100Y263457D01*
X153907Y263471D01*
X153691Y263476D01*
Y264476D01*
X153907Y264481D01*
X154100Y264496D01*
X154270Y264521D01*
X154418Y264556D01*
X154542Y264600D01*
X154644Y264655D01*
X154724Y264720D01*
X154781Y264794D01*
X154815Y264879D01*
X154826Y264973D01*
Y262980D01*
D02*
G37*
G36*
X176503Y263525D02*
X176524Y263315D01*
X176543Y263220D01*
X176567Y263131D01*
X176597Y263049D01*
X176632Y262974D01*
X176673Y262904D01*
X176719Y262842D01*
X176770Y262786D01*
X175230D01*
X175281Y262842D01*
X175327Y262904D01*
X175368Y262974D01*
X175403Y263049D01*
X175433Y263131D01*
X175457Y263220D01*
X175476Y263315D01*
X175489Y263417D01*
X175497Y263525D01*
X175500Y263640D01*
X176500D01*
X176503Y263525D01*
D02*
G37*
G36*
X177103Y261913D02*
X177115Y261836D01*
X177136Y261759D01*
X177164Y261680D01*
X177201Y261601D01*
X177247Y261521D01*
X177301Y261441D01*
X177363Y261359D01*
X177434Y261277D01*
X177513Y261194D01*
X176806Y260487D01*
X176723Y260566D01*
X176559Y260699D01*
X176479Y260753D01*
X176399Y260799D01*
X176320Y260836D01*
X176241Y260864D01*
X176164Y260885D01*
X176087Y260897D01*
X176011Y260900D01*
X177100Y261989D01*
X177103Y261913D01*
D02*
G37*
G36*
X170503Y260525D02*
X170524Y260315D01*
X170543Y260220D01*
X170568Y260131D01*
X170597Y260049D01*
X170632Y259974D01*
X170673Y259904D01*
X170719Y259842D01*
X170770Y259786D01*
X169230D01*
X169281Y259842D01*
X169327Y259904D01*
X169368Y259974D01*
X169403Y260049D01*
X169432Y260131D01*
X169457Y260220D01*
X169476Y260315D01*
X169489Y260417D01*
X169497Y260525D01*
X169500Y260640D01*
X170500D01*
X170503Y260525D01*
D02*
G37*
G36*
X171103Y258913D02*
X171115Y258836D01*
X171135Y258759D01*
X171164Y258680D01*
X171201Y258601D01*
X171247Y258521D01*
X171301Y258441D01*
X171363Y258359D01*
X171434Y258277D01*
X171513Y258194D01*
X170806Y257487D01*
X170723Y257566D01*
X170559Y257699D01*
X170479Y257753D01*
X170399Y257799D01*
X170320Y257836D01*
X170241Y257864D01*
X170164Y257885D01*
X170087Y257897D01*
X170011Y257900D01*
X171100Y258989D01*
X171103Y258913D01*
D02*
G37*
G36*
X155034Y252482D02*
X155016Y252624D01*
X154962Y252750D01*
X154873Y252862D01*
X154747Y252958D01*
X154585Y253040D01*
X154388Y253107D01*
X154154Y253159D01*
X153885Y253197D01*
X153580Y253219D01*
X153239Y253226D01*
Y254726D01*
X153580Y254734D01*
X154154Y254793D01*
X154388Y254845D01*
X154585Y254912D01*
X154747Y254994D01*
X154873Y255091D01*
X154962Y255203D01*
X155016Y255329D01*
X155034Y255471D01*
Y252482D01*
D02*
G37*
G36*
X301666Y250017D02*
X301922Y249793D01*
X302178Y249595D01*
X302431Y249424D01*
X302684Y249279D01*
X302935Y249161D01*
X303185Y249068D01*
X303434Y249003D01*
X303681Y248963D01*
X303928Y248950D01*
Y247450D01*
X303681Y247437D01*
X303434Y247397D01*
X303185Y247332D01*
X302935Y247239D01*
X302684Y247121D01*
X302431Y246976D01*
X302178Y246805D01*
X301922Y246607D01*
X301666Y246383D01*
X301409Y246133D01*
Y250267D01*
X301666Y250017D01*
D02*
G37*
G36*
X297191Y246133D02*
X296934Y246383D01*
X296677Y246607D01*
X296423Y246805D01*
X296169Y246976D01*
X295916Y247121D01*
X295665Y247239D01*
X295415Y247332D01*
X295166Y247397D01*
X294919Y247437D01*
X294672Y247450D01*
Y248950D01*
X294919Y248963D01*
X295166Y249003D01*
X295415Y249068D01*
X295665Y249161D01*
X295916Y249279D01*
X296169Y249424D01*
X296423Y249595D01*
X296677Y249793D01*
X296934Y250017D01*
X297191Y250267D01*
Y246133D01*
D02*
G37*
G36*
X214826Y242980D02*
X214815Y243074D01*
X214781Y243159D01*
X214724Y243233D01*
X214644Y243298D01*
X214542Y243352D01*
X214418Y243397D01*
X214270Y243432D01*
X214100Y243457D01*
X213907Y243471D01*
X213691Y243476D01*
Y244476D01*
X213907Y244481D01*
X214100Y244496D01*
X214270Y244521D01*
X214418Y244556D01*
X214542Y244601D01*
X214644Y244655D01*
X214724Y244720D01*
X214781Y244794D01*
X214815Y244879D01*
X214826Y244973D01*
Y242980D01*
D02*
G37*
G36*
X214826Y232980D02*
X214815Y233074D01*
X214781Y233159D01*
X214724Y233233D01*
X214644Y233298D01*
X214542Y233352D01*
X214418Y233397D01*
X214270Y233432D01*
X214100Y233456D01*
X213907Y233471D01*
X213691Y233476D01*
Y234476D01*
X213907Y234481D01*
X214100Y234496D01*
X214270Y234521D01*
X214418Y234556D01*
X214542Y234600D01*
X214644Y234655D01*
X214724Y234720D01*
X214781Y234794D01*
X214815Y234879D01*
X214826Y234973D01*
Y232980D01*
D02*
G37*
G36*
X162937Y235329D02*
X162990Y235203D01*
X163080Y235091D01*
X163206Y234994D01*
X163367Y234912D01*
X163565Y234845D01*
X163798Y234793D01*
X164068Y234756D01*
X164373Y234734D01*
X164714Y234726D01*
Y233226D01*
X164373Y233219D01*
X163798Y233159D01*
X163565Y233107D01*
X163367Y233040D01*
X163206Y232958D01*
X163080Y232862D01*
X162990Y232750D01*
X162937Y232624D01*
X162919Y232482D01*
Y235471D01*
X162937Y235329D01*
D02*
G37*
G36*
Y225329D02*
X162990Y225203D01*
X163080Y225091D01*
X163206Y224994D01*
X163367Y224913D01*
X163565Y224846D01*
X163798Y224793D01*
X164068Y224756D01*
X164373Y224734D01*
X164714Y224726D01*
Y223226D01*
X164373Y223219D01*
X163798Y223159D01*
X163565Y223107D01*
X163367Y223040D01*
X163206Y222958D01*
X163080Y222862D01*
X162990Y222750D01*
X162937Y222623D01*
X162919Y222482D01*
Y225471D01*
X162937Y225329D01*
D02*
G37*
G36*
X301531Y220159D02*
X301675Y220063D01*
X301841Y219978D01*
X302028Y219904D01*
X302238Y219842D01*
X302470Y219791D01*
X302723Y219751D01*
X302999Y219723D01*
X303615Y219700D01*
Y216700D01*
X303296Y216694D01*
X302723Y216649D01*
X302470Y216609D01*
X302238Y216558D01*
X302028Y216496D01*
X301841Y216422D01*
X301675Y216337D01*
X301531Y216241D01*
X301409Y216133D01*
Y220267D01*
X301531Y220159D01*
D02*
G37*
G36*
X214826Y212980D02*
X214815Y213074D01*
X214781Y213159D01*
X214724Y213233D01*
X214644Y213298D01*
X214542Y213352D01*
X214418Y213397D01*
X214270Y213432D01*
X214100Y213457D01*
X213907Y213471D01*
X213691Y213476D01*
Y214476D01*
X213907Y214481D01*
X214100Y214496D01*
X214270Y214521D01*
X214418Y214556D01*
X214542Y214600D01*
X214644Y214655D01*
X214724Y214720D01*
X214781Y214794D01*
X214815Y214879D01*
X214826Y214973D01*
Y212980D01*
D02*
G37*
G36*
X-112Y328059D02*
X-268Y328172D01*
X-452Y328229D01*
X-664D01*
X-904Y328172D01*
X-1173Y328059D01*
X-1470Y327889D01*
X-1795Y327663D01*
X-2149Y327380D01*
X-2941Y326645D01*
X-4355Y328059D01*
X-3959Y328469D01*
X-3337Y329205D01*
X-3111Y329530D01*
X-2941Y329827D01*
X-2828Y330096D01*
X-2771Y330336D01*
Y330548D01*
X-2828Y330732D01*
X-2941Y330888D01*
X-112Y328059D01*
D02*
G37*
G36*
X34061Y221367D02*
X34798Y220743D01*
X35124Y220515D01*
X35421Y220344D01*
X35689Y220230D01*
X35929Y220172D01*
X36141Y220171D01*
X36324Y220226D01*
X36478Y220338D01*
X33662Y217522D01*
X33774Y217676D01*
X33829Y217859D01*
X33828Y218071D01*
X33770Y218311D01*
X33656Y218579D01*
X33485Y218877D01*
X33257Y219202D01*
X32973Y219556D01*
X32236Y220350D01*
X33650Y221764D01*
X34061Y221367D01*
D02*
G37*
G36*
X37810Y215630D02*
X37640Y215570D01*
X37490Y215470D01*
X37360Y215330D01*
X37250Y215150D01*
X37160Y214930D01*
X37090Y214670D01*
X37040Y214370D01*
X37010Y214030D01*
X37000Y213650D01*
X35000D01*
X34990Y214030D01*
X34960Y214370D01*
X34910Y214670D01*
X34840Y214930D01*
X34750Y215150D01*
X34640Y215330D01*
X34510Y215470D01*
X34360Y215570D01*
X34190Y215630D01*
X34000Y215650D01*
X38000D01*
X37810Y215630D01*
D02*
G37*
G36*
X162937Y195329D02*
X162990Y195203D01*
X163080Y195091D01*
X163206Y194994D01*
X163367Y194913D01*
X163565Y194845D01*
X163798Y194793D01*
X164068Y194756D01*
X164373Y194734D01*
X164714Y194726D01*
Y193226D01*
X164373Y193219D01*
X163798Y193159D01*
X163565Y193107D01*
X163367Y193040D01*
X163206Y192958D01*
X163080Y192862D01*
X162990Y192750D01*
X162937Y192623D01*
X162919Y192482D01*
Y195471D01*
X162937Y195329D01*
D02*
G37*
G36*
Y185329D02*
X162990Y185203D01*
X163080Y185091D01*
X163206Y184994D01*
X163367Y184913D01*
X163565Y184845D01*
X163798Y184793D01*
X164068Y184756D01*
X164373Y184734D01*
X164714Y184726D01*
Y183226D01*
X164373Y183219D01*
X163798Y183159D01*
X163565Y183107D01*
X163367Y183040D01*
X163206Y182958D01*
X163080Y182862D01*
X162990Y182750D01*
X162937Y182624D01*
X162919Y182482D01*
Y185471D01*
X162937Y185329D01*
D02*
G37*
G36*
X162626Y95780D02*
X162702Y95612D01*
X162829Y95463D01*
X163006Y95334D01*
X163235Y95224D01*
X163514Y95135D01*
X163844Y95066D01*
X164225Y95016D01*
X164656Y94986D01*
X165138Y94976D01*
Y92976D01*
X164656Y92967D01*
X163844Y92887D01*
X163514Y92818D01*
X163235Y92728D01*
X163006Y92619D01*
X162829Y92490D01*
X162702Y92341D01*
X162626Y92173D01*
X162601Y91984D01*
Y95969D01*
X162626Y95780D01*
D02*
G37*
G36*
X157511Y90757D02*
X157360Y90872D01*
X157187Y90937D01*
X156992Y90953D01*
X156775Y90919D01*
X156536Y90834D01*
X156276Y90700D01*
X155993Y90516D01*
X155689Y90282D01*
X155363Y89998D01*
X155015Y89664D01*
X153601Y91078D01*
X153935Y91426D01*
X154453Y92056D01*
X154637Y92339D01*
X154771Y92599D01*
X154856Y92838D01*
X154890Y93055D01*
X154874Y93250D01*
X154809Y93423D01*
X154694Y93574D01*
X157511Y90757D01*
D02*
G37*
G36*
X352103Y72971D02*
X352271Y72841D01*
X352449Y72726D01*
X352638Y72628D01*
X352836Y72544D01*
X353044Y72477D01*
X353262Y72425D01*
X353490Y72388D01*
X353728Y72367D01*
X353976Y72362D01*
X351638Y70024D01*
X351633Y70272D01*
X351612Y70510D01*
X351575Y70738D01*
X351523Y70956D01*
X351456Y71164D01*
X351372Y71363D01*
X351274Y71551D01*
X351159Y71729D01*
X351029Y71897D01*
X350884Y72056D01*
X351944Y73116D01*
X352103Y72971D01*
D02*
G37*
G36*
X341313Y68347D02*
X341134Y68518D01*
X340951Y68672D01*
X340764Y68807D01*
X340573Y68925D01*
X340378Y69024D01*
X340179Y69105D01*
X339976Y69169D01*
X339769Y69214D01*
X339558Y69241D01*
X339343Y69250D01*
Y70750D01*
X339558Y70759D01*
X339769Y70786D01*
X339976Y70831D01*
X340179Y70895D01*
X340378Y70976D01*
X340573Y71075D01*
X340764Y71193D01*
X340951Y71328D01*
X341134Y71482D01*
X341313Y71653D01*
Y68347D01*
D02*
G37*
G36*
X242662Y68000D02*
X242642Y68190D01*
X242581Y68360D01*
X242481Y68510D01*
X242340Y68640D01*
X242159Y68750D01*
X241937Y68840D01*
X241676Y68910D01*
X241374Y68960D01*
X241032Y68990D01*
X240650Y69000D01*
Y71000D01*
X241032Y71010D01*
X241374Y71040D01*
X241676Y71090D01*
X241937Y71160D01*
X242159Y71250D01*
X242340Y71360D01*
X242481Y71490D01*
X242581Y71640D01*
X242642Y71810D01*
X242662Y72000D01*
Y68000D01*
D02*
G37*
G36*
X51928Y298467D02*
X51463Y297909D01*
X51274Y297634D01*
X51114Y297363D01*
X50983Y297094D01*
X50881Y296829D01*
X50808Y296567D01*
X50765Y296307D01*
X50750Y296051D01*
X49250D01*
X49235Y296307D01*
X49192Y296567D01*
X49119Y296829D01*
X49017Y297094D01*
X48886Y297363D01*
X48726Y297634D01*
X48537Y297909D01*
X48319Y298186D01*
X48072Y298467D01*
X47795Y298751D01*
X52205D01*
X51928Y298467D01*
D02*
G37*
G36*
X60135Y280283D02*
X60178Y280024D01*
X60251Y279762D01*
X60353Y279496D01*
X60484Y279228D01*
X60644Y278956D01*
X60833Y278682D01*
X61051Y278404D01*
X61298Y278123D01*
X61575Y277840D01*
X57165D01*
X57442Y278123D01*
X57907Y278682D01*
X58096Y278956D01*
X58256Y279228D01*
X58387Y279496D01*
X58489Y279762D01*
X58562Y280024D01*
X58605Y280283D01*
X58620Y280539D01*
X60120D01*
X60135Y280283D01*
D02*
G37*
G36*
X322976Y312512D02*
X322771Y312268D01*
X322590Y312018D01*
X322434Y311764D01*
X322301Y311504D01*
X322193Y311238D01*
X322108Y310967D01*
X322048Y310691D01*
X322012Y310410D01*
X322000Y310124D01*
X320000D01*
X319988Y310410D01*
X319952Y310691D01*
X319892Y310967D01*
X319807Y311238D01*
X319699Y311504D01*
X319566Y311764D01*
X319410Y312018D01*
X319229Y312268D01*
X319024Y312512D01*
X318795Y312751D01*
X323205D01*
X322976Y312512D01*
D02*
G37*
G36*
X222626Y265780D02*
X222702Y265612D01*
X222829Y265463D01*
X223007Y265334D01*
X223235Y265225D01*
X223514Y265135D01*
X223844Y265066D01*
X224225Y265016D01*
X224656Y264986D01*
X225138Y264976D01*
Y262976D01*
X224656Y262966D01*
X223844Y262887D01*
X223514Y262818D01*
X223235Y262728D01*
X223007Y262619D01*
X222829Y262490D01*
X222702Y262341D01*
X222626Y262173D01*
X222601Y261984D01*
Y265969D01*
X222626Y265780D01*
D02*
G37*
G36*
X155034Y242482D02*
X155016Y242623D01*
X154962Y242750D01*
X154873Y242862D01*
X154747Y242958D01*
X154585Y243040D01*
X154388Y243107D01*
X154154Y243159D01*
X153885Y243197D01*
X153580Y243219D01*
X153239Y243226D01*
Y244726D01*
X153580Y244734D01*
X154154Y244793D01*
X154388Y244846D01*
X154585Y244913D01*
X154747Y244994D01*
X154873Y245091D01*
X154962Y245203D01*
X155016Y245329D01*
X155034Y245471D01*
Y242482D01*
D02*
G37*
G36*
X182214Y158230D02*
X182204Y158234D01*
X182181Y158237D01*
X182145Y158240D01*
X181873Y158248D01*
X181535Y158250D01*
Y159750D01*
X182214Y159770D01*
Y158230D01*
D02*
G37*
G36*
X154826Y152980D02*
X154815Y153074D01*
X154781Y153159D01*
X154724Y153233D01*
X154644Y153298D01*
X154542Y153352D01*
X154418Y153397D01*
X154270Y153432D01*
X154100Y153456D01*
X153907Y153471D01*
X153691Y153476D01*
Y154476D01*
X153907Y154481D01*
X154100Y154496D01*
X154270Y154521D01*
X154418Y154556D01*
X154542Y154601D01*
X154644Y154655D01*
X154724Y154720D01*
X154781Y154794D01*
X154815Y154879D01*
X154826Y154973D01*
Y152980D01*
D02*
G37*
G36*
X19505Y109945D02*
X19520Y109773D01*
X19545Y109622D01*
X19580Y109490D01*
X19625Y109379D01*
X19680Y109288D01*
X19745Y109217D01*
X19820Y109166D01*
X19905Y109136D01*
X20000Y109126D01*
X18000D01*
X18095Y109136D01*
X18180Y109166D01*
X18255Y109217D01*
X18320Y109288D01*
X18375Y109379D01*
X18420Y109490D01*
X18455Y109622D01*
X18480Y109773D01*
X18495Y109945D01*
X18500Y110138D01*
X19500D01*
X19505Y109945D01*
D02*
G37*
G36*
X223138Y184879D02*
X223172Y184794D01*
X223229Y184720D01*
X223308Y184655D01*
X223410Y184600D01*
X223535Y184556D01*
X223683Y184521D01*
X223853Y184496D01*
X224046Y184481D01*
X224262Y184476D01*
Y183476D01*
X224046Y183471D01*
X223853Y183457D01*
X223683Y183432D01*
X223535Y183397D01*
X223410Y183352D01*
X223308Y183298D01*
X223229Y183233D01*
X223172Y183159D01*
X223138Y183074D01*
X223127Y182980D01*
Y184973D01*
X223138Y184879D01*
D02*
G37*
G36*
X223138Y174879D02*
X223172Y174794D01*
X223229Y174720D01*
X223308Y174655D01*
X223411Y174601D01*
X223535Y174556D01*
X223683Y174521D01*
X223853Y174496D01*
X224046Y174481D01*
X224262Y174476D01*
Y173476D01*
X224046Y173471D01*
X223853Y173457D01*
X223683Y173432D01*
X223535Y173397D01*
X223411Y173352D01*
X223308Y173298D01*
X223229Y173233D01*
X223172Y173159D01*
X223138Y173074D01*
X223127Y172980D01*
Y174973D01*
X223138Y174879D01*
D02*
G37*
G36*
X289517Y152778D02*
X289568Y152544D01*
X289653Y152299D01*
X289773Y152041D01*
X289926Y151772D01*
X290114Y151491D01*
X290335Y151199D01*
X290881Y150577D01*
X291205Y150249D01*
X286795D01*
X287119Y150577D01*
X287665Y151199D01*
X287886Y151491D01*
X288074Y151772D01*
X288227Y152041D01*
X288347Y152299D01*
X288432Y152544D01*
X288483Y152778D01*
X288500Y152999D01*
X289500D01*
X289517Y152778D01*
D02*
G37*
G36*
X292889Y131182D02*
X292744Y131013D01*
X292615Y130811D01*
X292502Y130578D01*
X292404Y130311D01*
X292322Y130013D01*
X292256Y129681D01*
X292206Y129317D01*
X292153Y128493D01*
X292149Y128032D01*
X289032Y131149D01*
X289493Y131152D01*
X290318Y131206D01*
X290681Y131256D01*
X291013Y131322D01*
X291311Y131404D01*
X291578Y131502D01*
X291811Y131615D01*
X292013Y131744D01*
X292182Y131889D01*
X292889Y131182D01*
D02*
G37*
G36*
X290881Y125423D02*
X290335Y124801D01*
X290114Y124509D01*
X289926Y124228D01*
X289773Y123959D01*
X289653Y123701D01*
X289568Y123456D01*
X289517Y123222D01*
X289500Y123001D01*
X288500D01*
X288483Y123222D01*
X288432Y123456D01*
X288347Y123701D01*
X288227Y123959D01*
X288074Y124228D01*
X287886Y124509D01*
X287665Y124801D01*
X287119Y125423D01*
X286795Y125751D01*
X291205D01*
X290881Y125423D01*
D02*
G37*
G36*
X271348Y113905D02*
X271379Y113820D01*
X271429Y113745D01*
X271500Y113680D01*
X271591Y113625D01*
X271703Y113580D01*
X271834Y113545D01*
X271986Y113520D01*
X272158Y113505D01*
X272350Y113500D01*
Y112500D01*
X272158Y112495D01*
X271986Y112480D01*
X271834Y112455D01*
X271703Y112420D01*
X271591Y112375D01*
X271500Y112320D01*
X271429Y112255D01*
X271379Y112180D01*
X271348Y112095D01*
X271338Y112000D01*
Y114000D01*
X271348Y113905D01*
D02*
G37*
G36*
X301531Y210159D02*
X301675Y210063D01*
X301841Y209978D01*
X302028Y209904D01*
X302238Y209842D01*
X302470Y209791D01*
X302723Y209751D01*
X302999Y209723D01*
X303615Y209700D01*
Y206700D01*
X303296Y206694D01*
X302723Y206649D01*
X302470Y206609D01*
X302238Y206558D01*
X302028Y206496D01*
X301841Y206422D01*
X301675Y206337D01*
X301531Y206241D01*
X301409Y206133D01*
Y210267D01*
X301531Y210159D01*
D02*
G37*
G36*
X346282Y158861D02*
X347386Y157925D01*
X347875Y157584D01*
X348320Y157328D01*
X348723Y157158D01*
X349083Y157071D01*
X349401Y157070D01*
X349676Y157154D01*
X349908Y157323D01*
X345678Y153092D01*
X345846Y153324D01*
X345930Y153599D01*
X345929Y153917D01*
X345843Y154277D01*
X345672Y154680D01*
X345416Y155125D01*
X345075Y155614D01*
X344650Y156145D01*
X343544Y157334D01*
X345666Y159456D01*
X346282Y158861D01*
D02*
G37*
G36*
X154826Y142980D02*
X154815Y143074D01*
X154781Y143159D01*
X154724Y143233D01*
X154644Y143298D01*
X154542Y143352D01*
X154418Y143397D01*
X154270Y143432D01*
X154100Y143456D01*
X153907Y143471D01*
X153691Y143476D01*
Y144476D01*
X153907Y144481D01*
X154100Y144496D01*
X154270Y144521D01*
X154418Y144556D01*
X154542Y144600D01*
X154644Y144655D01*
X154724Y144720D01*
X154781Y144794D01*
X154815Y144879D01*
X154826Y144973D01*
Y142980D01*
D02*
G37*
G36*
Y132980D02*
X154815Y133074D01*
X154781Y133159D01*
X154724Y133233D01*
X154644Y133298D01*
X154542Y133352D01*
X154418Y133397D01*
X154270Y133432D01*
X154100Y133457D01*
X153907Y133471D01*
X153691Y133476D01*
Y134476D01*
X153907Y134481D01*
X154100Y134496D01*
X154270Y134521D01*
X154418Y134556D01*
X154542Y134600D01*
X154644Y134655D01*
X154724Y134720D01*
X154781Y134794D01*
X154815Y134879D01*
X154826Y134973D01*
Y132980D01*
D02*
G37*
G36*
Y122980D02*
X154815Y123074D01*
X154781Y123159D01*
X154724Y123233D01*
X154644Y123298D01*
X154542Y123352D01*
X154418Y123397D01*
X154270Y123432D01*
X154100Y123457D01*
X153907Y123471D01*
X153691Y123476D01*
Y124476D01*
X153907Y124481D01*
X154100Y124496D01*
X154270Y124521D01*
X154418Y124556D01*
X154542Y124601D01*
X154644Y124655D01*
X154724Y124720D01*
X154781Y124794D01*
X154815Y124879D01*
X154826Y124973D01*
Y122980D01*
D02*
G37*
G36*
X87338Y124213D02*
X65451Y102325D01*
X54000D01*
X53493Y102225D01*
X53063Y101937D01*
X48063Y96937D01*
X47826Y96582D01*
X47506Y96602D01*
X47326Y96665D01*
Y98451D01*
X50937Y102063D01*
X51225Y102493D01*
X51326Y103000D01*
Y114451D01*
X61549Y124674D01*
X87147D01*
X87338Y124213D01*
D02*
G37*
G36*
X22845Y95138D02*
X22646Y94932D01*
X22332Y94562D01*
X22218Y94399D01*
X22132Y94251D01*
X22074Y94116D01*
X22044Y93997D01*
X22043Y93891D01*
X22070Y93800D01*
X22126Y93723D01*
X20723Y95126D01*
X20800Y95070D01*
X20891Y95043D01*
X20997Y95044D01*
X21116Y95074D01*
X21251Y95132D01*
X21399Y95218D01*
X21562Y95332D01*
X21740Y95475D01*
X22138Y95845D01*
X22845Y95138D01*
D02*
G37*
G36*
Y81138D02*
X22646Y80932D01*
X22332Y80562D01*
X22218Y80399D01*
X22132Y80251D01*
X22074Y80116D01*
X22044Y79997D01*
X22043Y79891D01*
X22070Y79800D01*
X22126Y79723D01*
X20723Y81126D01*
X20800Y81070D01*
X20891Y81043D01*
X20997Y81044D01*
X21116Y81074D01*
X21251Y81132D01*
X21399Y81218D01*
X21562Y81332D01*
X21740Y81475D01*
X22138Y81845D01*
X22845Y81138D01*
D02*
G37*
G36*
Y67138D02*
X22646Y66931D01*
X22332Y66562D01*
X22218Y66399D01*
X22132Y66251D01*
X22074Y66116D01*
X22044Y65997D01*
X22043Y65891D01*
X22070Y65800D01*
X22126Y65723D01*
X20723Y67126D01*
X20800Y67070D01*
X20891Y67043D01*
X20997Y67044D01*
X21116Y67074D01*
X21251Y67132D01*
X21399Y67218D01*
X21562Y67332D01*
X21740Y67475D01*
X22138Y67845D01*
X22845Y67138D01*
D02*
G37*
%LPC*%
G36*
X75500Y122066D02*
Y120500D01*
X77066D01*
X76780Y121190D01*
X76190Y121780D01*
X75500Y122066D01*
D02*
G37*
G36*
X74500D02*
X73810Y121780D01*
X73220Y121190D01*
X72934Y120500D01*
X74500D01*
Y122066D01*
D02*
G37*
G36*
X77066Y119500D02*
X75500D01*
Y117934D01*
X76190Y118220D01*
X76780Y118810D01*
X77066Y119500D01*
D02*
G37*
G36*
X74500D02*
X72934D01*
X73220Y118810D01*
X73810Y118220D01*
X74500Y117934D01*
Y119500D01*
D02*
G37*
G36*
X58701Y114328D02*
X57299D01*
X55944Y113964D01*
X54729Y113263D01*
X53737Y112271D01*
X53035Y111056D01*
X52672Y109701D01*
Y108299D01*
X53035Y106944D01*
X53737Y105729D01*
X54729Y104737D01*
X55944Y104035D01*
X57299Y103672D01*
X58701D01*
X60056Y104035D01*
X61271Y104737D01*
X62263Y105729D01*
X62964Y106944D01*
X63327Y108299D01*
Y109701D01*
X62964Y111056D01*
X62263Y112271D01*
X61271Y113263D01*
X60056Y113964D01*
X58701Y114328D01*
D02*
G37*
%LPD*%
G36*
X250605Y119979D02*
X250619Y119960D01*
X250642Y119933D01*
X250828Y119735D01*
X251066Y119495D01*
X250005Y118434D01*
X249511Y118900D01*
X250600Y119989D01*
X250605Y119979D01*
D02*
G37*
G36*
X346610Y103657D02*
X346300Y103960D01*
X345695Y104470D01*
X345400Y104677D01*
X345110Y104852D01*
X344824Y104995D01*
X344544Y105107D01*
X344268Y105186D01*
X343997Y105234D01*
X343731Y105250D01*
Y106750D01*
X343997Y106766D01*
X344268Y106814D01*
X344544Y106893D01*
X344824Y107005D01*
X345110Y107148D01*
X345400Y107323D01*
X345695Y107530D01*
X345995Y107769D01*
X346300Y108040D01*
X346610Y108343D01*
Y103657D01*
D02*
G37*
G36*
X265971Y192667D02*
X266061Y192422D01*
X266211Y192206D01*
X266421Y192019D01*
X266691Y191860D01*
X267021Y191730D01*
X267411Y191630D01*
X267861Y191558D01*
X268371Y191514D01*
X268941Y191500D01*
Y188500D01*
X268371Y188486D01*
X267861Y188442D01*
X267411Y188370D01*
X267021Y188269D01*
X266691Y188140D01*
X266421Y187981D01*
X266211Y187794D01*
X266061Y187578D01*
X265971Y187333D01*
X265941Y187059D01*
Y192941D01*
X265971Y192667D01*
D02*
G37*
G36*
X321557Y184664D02*
X322662Y183728D01*
X323150Y183387D01*
X323596Y183132D01*
X323999Y182961D01*
X324359Y182875D01*
X324677Y182873D01*
X324952Y182957D01*
X325184Y183126D01*
X320953Y178895D01*
X321122Y179127D01*
X321205Y179402D01*
X321204Y179720D01*
X321118Y180080D01*
X320947Y180483D01*
X320691Y180929D01*
X320351Y181417D01*
X319925Y181948D01*
X318820Y183138D01*
X320941Y185259D01*
X321557Y184664D01*
D02*
G37*
G36*
X326794Y176832D02*
X326539Y176742D01*
X326314Y176592D01*
X326119Y176382D01*
X325954Y176112D01*
X325819Y175782D01*
X325714Y175392D01*
X325639Y174942D01*
X325594Y174432D01*
X325579Y173862D01*
X322579D01*
X322564Y174432D01*
X322519Y174942D01*
X322444Y175392D01*
X322339Y175782D01*
X322204Y176112D01*
X322039Y176382D01*
X321844Y176592D01*
X321619Y176742D01*
X321364Y176832D01*
X321079Y176862D01*
X327079D01*
X326794Y176832D01*
D02*
G37*
G36*
X352353Y98715D02*
X352443Y98460D01*
X352593Y98235D01*
X352804Y98040D01*
X353076Y97875D01*
X353407Y97740D01*
X353798Y97635D01*
X354250Y97560D01*
X354762Y97515D01*
X355334Y97500D01*
Y94500D01*
X354762Y94485D01*
X354250Y94440D01*
X353798Y94365D01*
X353407Y94260D01*
X353076Y94125D01*
X352804Y93960D01*
X352593Y93765D01*
X352443Y93540D01*
X352353Y93285D01*
X352322Y93000D01*
Y99000D01*
X352353Y98715D01*
D02*
G37*
G36*
X363500Y96000D02*
X360500Y91500D01*
X360470Y92070D01*
X360380Y92580D01*
X360230Y93030D01*
X360020Y93420D01*
X359750Y93750D01*
X359420Y94020D01*
X359030Y94230D01*
X358580Y94380D01*
X358070Y94470D01*
X357500Y94500D01*
Y97500D01*
X358070Y97530D01*
X358580Y97620D01*
X359030Y97770D01*
X359420Y97980D01*
X359750Y98250D01*
X360020Y98580D01*
X360230Y98970D01*
X360380Y99420D01*
X360470Y99930D01*
X360500Y100500D01*
X363500Y96000D01*
D02*
G37*
G36*
X180456Y43905D02*
X179861Y43289D01*
X178925Y42184D01*
X178584Y41696D01*
X178329Y41251D01*
X178157Y40848D01*
X178071Y40488D01*
X178070Y40170D01*
X178154Y39895D01*
X178323Y39663D01*
X174092Y43893D01*
X174324Y43725D01*
X174599Y43641D01*
X174917Y43642D01*
X175277Y43728D01*
X175680Y43899D01*
X176125Y44155D01*
X176614Y44496D01*
X177145Y44921D01*
X178334Y46027D01*
X180456Y43905D01*
D02*
G37*
D10*
X48000Y105000D02*
Y116000D01*
X42000Y99000D02*
X48000Y105000D01*
X26000Y99000D02*
X42000D01*
X46000D02*
X50000Y103000D01*
X46000Y91000D02*
Y99000D01*
X50000Y103000D02*
Y115000D01*
X115000Y327000D02*
X140000Y302000D01*
X163000D01*
X115000Y327000D02*
Y350000D01*
X86000Y259000D02*
X166000D01*
X211024Y213976D01*
X218976D01*
X176000Y262000D02*
Y289000D01*
Y262000D02*
X194024Y243976D01*
X218976D01*
X163000Y302000D02*
X176000Y289000D01*
X53976Y153976D02*
X158976D01*
X19000Y119000D02*
X53976Y153976D01*
X135976Y133976D02*
X158976D01*
X137976Y143976D02*
X158976D01*
X128000Y126000D02*
X135976Y133976D01*
X122000Y128000D02*
X137976Y143976D01*
X195024Y233976D02*
X218976D01*
X170000Y259000D02*
X195024Y233976D01*
X170000Y259000D02*
Y291000D01*
X79370Y265630D02*
X86000Y259000D01*
X79370Y265630D02*
Y275590D01*
X281000Y113000D02*
X289000Y121000D01*
Y128000D01*
X269000Y113000D02*
X281000D01*
X289000Y128000D02*
X294000Y133000D01*
X266024Y183976D02*
X294000Y156000D01*
Y133000D02*
Y156000D01*
X218976Y183976D02*
X266024D01*
X289000Y148000D02*
Y155000D01*
X270024Y173976D02*
X289000Y155000D01*
X218976Y173976D02*
X270024D01*
X61000Y126000D02*
X128000D01*
X50000Y115000D02*
X61000Y126000D01*
X60000Y128000D02*
X122000D01*
X48000Y116000D02*
X60000Y128000D01*
X66000Y101000D02*
X88976Y123976D01*
X158976D01*
X41000Y71000D02*
X49000Y79000D01*
Y96000D01*
X54000Y101000D01*
X19000Y64000D02*
X26000Y71000D01*
X41000D01*
X54000Y101000D02*
X66000D01*
X40000Y85000D02*
X46000Y91000D01*
X19000Y78000D02*
X26000Y85000D01*
X40000D01*
X19000Y92000D02*
X26000Y99000D01*
X19000Y106000D02*
Y119000D01*
X139000Y299000D02*
X162000D01*
X170000Y291000D01*
X105000Y333000D02*
Y350000D01*
Y333000D02*
X139000Y299000D01*
X123000Y289000D02*
X148024Y263976D01*
X158976D01*
X63000Y289000D02*
X123000D01*
X60000Y292000D02*
X63000Y289000D01*
X60000Y292000D02*
Y301000D01*
D16*
X212000Y70000D02*
X245000D01*
X158976Y93976D02*
X188024D01*
X212000Y70000D01*
X117937Y54000D02*
X157913Y93976D01*
X158976D01*
X11000Y54000D02*
X117937D01*
X3000Y62000D02*
Y169000D01*
Y62000D02*
X11000Y54000D01*
X3000Y169000D02*
X36000Y202000D01*
Y218000D01*
X-7000Y261000D02*
X36000Y218000D01*
X-7000Y324000D02*
X0Y331000D01*
X-7000Y261000D02*
Y324000D01*
X321000Y302000D02*
Y315000D01*
X311000Y292000D02*
X321000Y302000D01*
X298000Y292000D02*
X311000D01*
X269976Y263976D02*
X298000Y292000D01*
X218976Y263976D02*
X269976D01*
D57*
X263500Y106000D02*
X349000D01*
X249500Y120000D02*
X263500Y106000D01*
X331000Y285000D02*
X341000Y295000D01*
Y315000D01*
X328000Y287000D02*
X331000Y290000D01*
Y315000D01*
X187024Y233976D02*
X212000Y209000D01*
X158976Y233976D02*
X187024D01*
X212000Y209000D02*
X227000D01*
X212000Y80000D02*
X284000D01*
X287000Y77000D02*
X347000D01*
X284000Y80000D02*
X287000Y77000D01*
X284000Y76000D02*
X290000Y70000D01*
X347000Y77000D02*
X354000Y70000D01*
X211000Y76000D02*
X284000D01*
X192000Y95000D02*
X211000Y76000D01*
X195000Y97000D02*
X212000Y80000D01*
X195000Y97000D02*
Y186000D01*
X152000Y159000D02*
X183000D01*
X147000Y164000D02*
X152000Y159000D01*
X147000Y164000D02*
Y240000D01*
X150976Y243976D01*
X158976D01*
X290000Y70000D02*
X343000D01*
X192000Y95000D02*
Y175000D01*
X183024Y183976D02*
X192000Y175000D01*
X158976Y183976D02*
X183024D01*
X158976Y193976D02*
X187024D01*
X195000Y186000D01*
X331000Y264000D02*
Y285000D01*
X310000Y243000D02*
X331000Y264000D01*
X299300Y248200D02*
X311200D01*
X328000Y265000D01*
Y287000D01*
X245200Y248200D02*
X299300D01*
X280000Y243000D02*
X310000D01*
X278000Y245000D02*
X280000Y243000D01*
X247000Y245000D02*
X278000D01*
X241000Y239000D02*
X247000Y245000D01*
X241000Y215000D02*
Y239000D01*
X238000Y241000D02*
X245200Y248200D01*
X238000Y220000D02*
Y241000D01*
X225000Y199000D02*
X241000Y215000D01*
X204000Y199000D02*
X225000D01*
X158976Y223976D02*
X179024D01*
X204000Y199000D01*
X227000Y209000D02*
X238000Y220000D01*
X69370Y268630D02*
X84024Y253976D01*
X158976D01*
X69370Y275590D02*
X69685Y275905D01*
X69370Y268630D02*
Y275590D01*
X50000Y291000D02*
Y301000D01*
Y291000D02*
X59370Y281630D01*
Y275590D02*
Y281630D01*
X69685Y300685D02*
X70000Y301000D01*
D58*
X339000Y237000D02*
Y287000D01*
X352000Y300000D02*
Y332000D01*
X339000Y287000D02*
X352000Y300000D01*
X324079Y160921D02*
X362000Y123000D01*
Y96000D02*
Y123000D01*
X324079Y160921D02*
Y180000D01*
X362000Y68000D02*
Y96000D01*
X349000D02*
X362000D01*
X344000Y50000D02*
X362000Y68000D01*
X184429Y50000D02*
X344000D01*
X175197Y40768D02*
X184429Y50000D01*
X341000Y162000D02*
X349000Y154000D01*
X322800Y208200D02*
X341000Y190000D01*
Y162000D02*
Y190000D01*
X299300Y208200D02*
X322800D01*
X58000Y109000D02*
Y109785D01*
X90000Y301000D02*
Y311000D01*
Y344001D01*
X36000Y311000D02*
X90000D01*
X85000Y349001D02*
X90000Y344001D01*
X85000Y349001D02*
Y350000D01*
X26000Y301000D02*
X36000Y311000D01*
X26000Y243000D02*
Y301000D01*
X63000Y215000D02*
X66900Y218900D01*
Y231230D01*
X54000Y215000D02*
X63000D01*
X26000Y243000D02*
X54000Y215000D01*
X49000Y350000D02*
X85000D01*
X293000Y341000D02*
X343000D01*
X284000Y350000D02*
X293000Y341000D01*
X343000D02*
X352000Y332000D01*
X343000Y341000D02*
Y350000D01*
X299300Y218200D02*
X320200D01*
X339000Y237000D01*
X314079Y190000D02*
X324079Y180000D01*
X263000Y190000D02*
X314079D01*
D59*
X57315Y178000D02*
D03*
X77000D02*
D03*
X299300Y258200D02*
D03*
Y248200D02*
D03*
Y238200D02*
D03*
Y228200D02*
D03*
Y218200D02*
D03*
Y208200D02*
D03*
Y198200D02*
D03*
X359300Y268200D02*
D03*
Y258200D02*
D03*
Y248200D02*
D03*
Y238200D02*
D03*
Y228200D02*
D03*
Y218200D02*
D03*
Y208200D02*
D03*
X297355Y86414D02*
D03*
X307355Y29328D02*
D03*
X297355D02*
D03*
X44000Y323000D02*
D03*
X0Y321000D02*
D03*
X263000Y200000D02*
D03*
Y210000D02*
D03*
Y220000D02*
D03*
Y230000D02*
D03*
Y240000D02*
D03*
D60*
X299300Y268200D02*
D03*
X359300Y198200D02*
D03*
X0Y331000D02*
D03*
X263000Y190000D02*
D03*
D61*
X269000Y113000D02*
D03*
X276000Y5000D02*
D03*
X62000Y323000D02*
D03*
X54000Y215000D02*
D03*
D62*
X309000Y113000D02*
D03*
X236000Y5000D02*
D03*
X36000Y178000D02*
D03*
X102000Y323000D02*
D03*
X113000Y164000D02*
D03*
X94000Y215000D02*
D03*
X343000Y70000D02*
D03*
X245000Y30000D02*
D03*
X257000D02*
D03*
X269000D02*
D03*
X354000Y70000D02*
D03*
D63*
X299000Y148000D02*
D03*
Y128000D02*
D03*
X90000Y301000D02*
D03*
X19000Y64000D02*
D03*
Y78000D02*
D03*
Y92000D02*
D03*
Y106000D02*
D03*
X39370Y275590D02*
D03*
X311000Y315000D02*
D03*
X56900Y231230D02*
D03*
X324079Y180000D02*
D03*
X58000Y78000D02*
D03*
Y92000D02*
D03*
D64*
X289000Y148000D02*
D03*
X279000D02*
D03*
X289000Y128000D02*
D03*
X279000Y128000D02*
D03*
X50000Y301000D02*
D03*
X70000Y301000D02*
D03*
X80000D02*
D03*
X60000D02*
D03*
X40000D02*
D03*
X29000Y64000D02*
D03*
X39000D02*
D03*
X29000Y78000D02*
D03*
X39000D02*
D03*
X29000Y92000D02*
D03*
X39000D02*
D03*
X29000Y106000D02*
D03*
X39000D02*
D03*
X89370Y275590D02*
D03*
X69370D02*
D03*
X49370D02*
D03*
X59370D02*
D03*
X79370Y275590D02*
D03*
X99370Y275590D02*
D03*
X331000Y315000D02*
D03*
X321000D02*
D03*
X341000D02*
D03*
X76900Y231230D02*
D03*
X66900Y231230D02*
D03*
X86900D02*
D03*
X333921Y180000D02*
D03*
X68000Y78000D02*
D03*
X78000Y78000D02*
D03*
X68000Y92000D02*
D03*
X78000D02*
D03*
X367000Y49000D02*
D03*
Y39000D02*
D03*
X123000Y18079D02*
D03*
X185039Y40768D02*
D03*
X202756Y40768D02*
D03*
X192913Y40768D02*
D03*
D65*
X36000Y218000D02*
D03*
X113000Y204000D02*
D03*
X343000Y30000D02*
D03*
X245000Y70000D02*
D03*
X257000D02*
D03*
X269000D02*
D03*
X354000Y30000D02*
D03*
D66*
X343000Y350000D02*
D03*
X284000D02*
D03*
X49000D02*
D03*
X115000D02*
D03*
D67*
X333000D02*
D03*
X323000D02*
D03*
X313000D02*
D03*
X274000D02*
D03*
X264000D02*
D03*
X254000D02*
D03*
X29000D02*
D03*
X39000D02*
D03*
X349000Y116000D02*
D03*
Y106000D02*
D03*
X105000Y350000D02*
D03*
X95000D02*
D03*
X85000D02*
D03*
X349000Y164000D02*
D03*
D68*
X87866Y2363D02*
D03*
X53866Y17323D02*
D03*
Y2363D02*
D03*
X87866Y17323D02*
D03*
D69*
X108000Y109000D02*
D03*
X58000D02*
D03*
D70*
X330387Y58855D02*
D03*
X284324Y58855D02*
D03*
D71*
X317355Y86414D02*
D03*
Y29328D02*
D03*
X34000Y323000D02*
D03*
D72*
X349000Y96000D02*
D03*
Y154000D02*
D03*
D73*
X24528Y136929D02*
D03*
X114213D02*
D03*
D74*
X158976Y283976D02*
D03*
Y273976D02*
D03*
Y263976D02*
D03*
Y253976D02*
D03*
Y243976D02*
D03*
Y233976D02*
D03*
Y223976D02*
D03*
Y213976D02*
D03*
Y203976D02*
D03*
Y193976D02*
D03*
Y183976D02*
D03*
Y173976D02*
D03*
Y163976D02*
D03*
Y153976D02*
D03*
Y143976D02*
D03*
Y133976D02*
D03*
Y123976D02*
D03*
Y113976D02*
D03*
Y103976D02*
D03*
Y93976D02*
D03*
X218976Y283976D02*
D03*
X218976Y273976D02*
D03*
Y263976D02*
D03*
Y253976D02*
D03*
Y243976D02*
D03*
X218976Y233976D02*
D03*
Y223976D02*
D03*
X218976Y213976D02*
D03*
Y203976D02*
D03*
X218976Y193976D02*
D03*
X218976Y183976D02*
D03*
X218976Y173976D02*
D03*
X218976Y163976D02*
D03*
Y153976D02*
D03*
X218976Y143976D02*
D03*
Y133976D02*
D03*
X218976Y123976D02*
D03*
Y113976D02*
D03*
X218976Y103976D02*
D03*
D75*
X218976Y93976D02*
D03*
D76*
X367000Y59000D02*
D03*
X123000Y27921D02*
D03*
X175197Y40768D02*
D03*
D77*
X214843Y30098D02*
D03*
X163110D02*
D03*
X370079Y0D02*
D03*
Y370079D02*
D03*
X0D02*
D03*
Y0D02*
D03*
D78*
X249500Y120000D02*
D03*
X358000Y16000D02*
D03*
X336000D02*
D03*
X276000D02*
D03*
X244000D02*
D03*
X282000Y-2000D02*
D03*
X150000Y10000D02*
D03*
X190000D02*
D03*
X180000Y80000D02*
D03*
X130000Y214000D02*
D03*
X110456Y231002D02*
D03*
X101000Y231000D02*
D03*
X130000Y240000D02*
D03*
X140000Y285000D02*
D03*
X130000Y270000D02*
D03*
X135000Y320000D02*
D03*
X170000Y335000D02*
D03*
X365000Y295000D02*
D03*
Y350000D02*
D03*
Y310000D02*
D03*
Y325000D02*
D03*
X300000Y300000D02*
D03*
X310000Y260000D02*
D03*
Y235000D02*
D03*
X295000Y180000D02*
D03*
X310000Y200000D02*
D03*
X335000Y215000D02*
D03*
X370000Y170000D02*
D03*
Y150000D02*
D03*
Y135000D02*
D03*
X330000Y140000D02*
D03*
X315000Y160000D02*
D03*
Y140000D02*
D03*
X260000D02*
D03*
X245000Y135000D02*
D03*
Y155000D02*
D03*
X255000D02*
D03*
Y165000D02*
D03*
X265000D02*
D03*
X285000Y180000D02*
D03*
X170000Y305000D02*
D03*
Y320000D02*
D03*
X215000Y305000D02*
D03*
Y320000D02*
D03*
X264000Y325500D02*
D03*
Y310500D02*
D03*
X279000D02*
D03*
Y325500D02*
D03*
X275000Y225000D02*
D03*
Y210000D02*
D03*
X260000Y255000D02*
D03*
X205000Y285000D02*
D03*
Y265000D02*
D03*
X180000Y205000D02*
D03*
Y145000D02*
D03*
Y115000D02*
D03*
X205000D02*
D03*
X245000D02*
D03*
Y85000D02*
D03*
X255000Y95000D02*
D03*
X70000Y5000D02*
D03*
X20000Y0D02*
D03*
X15000Y30000D02*
D03*
Y45000D02*
D03*
X54500Y39500D02*
D03*
Y49500D02*
D03*
X100000Y45000D02*
D03*
X85000D02*
D03*
Y65000D02*
D03*
X100000D02*
D03*
X130000Y80000D02*
D03*
X115000Y65000D02*
D03*
X75000Y120000D02*
D03*
X55000Y140000D02*
D03*
X85000D02*
D03*
Y165000D02*
D03*
Y190000D02*
D03*
X130000Y175000D02*
D03*
X100000Y205000D02*
D03*
X30000Y155000D02*
D03*
X10000D02*
D03*
X-5000D02*
D03*
X5000Y180000D02*
D03*
Y195000D02*
D03*
Y210000D02*
D03*
Y225000D02*
D03*
Y240000D02*
D03*
Y270000D02*
D03*
Y285000D02*
D03*
X15000Y290000D02*
D03*
Y305000D02*
D03*
X176000Y262000D02*
D03*
X170000Y259000D02*
D03*
X183000Y159000D02*
D03*
M02*
